<?xml version="1.0" encoding="UTF-8"?>
<svg id="Layer_2" data-name="Layer 2" xmlns="http://www.w3.org/2000/svg" viewBox="0 0 160 90">
  <defs>
    <style>
      .cls-1 {
        fill: #292928;
      }

      .cls-2 {
        fill: #32b67d;
      }
    </style>
  </defs>
  <g id="JCy2ik">
    <g>
      <g>
        <g>
          <g>
            <path class="cls-1" d="M67.34,32.91l3.81,1.98c-1.3,3.31-4.7,4.39-8.08,4.46-3.24.06-5.96-.69-8.16-3.13-1.28-1.42-1.94-3.22-2.11-5.15-.25-2.92.11-5.87,2.11-8.09,1.39-1.54,3.15-2.57,5.2-2.93,4.19-.73,8.33.51,10.25,4.46.43,1.02.7,2.02.79,3.12l.04,3.28h-13.72c.14,3.05,2.66,4.68,5.67,4.44,1.68-.13,3.2-1.01,4.19-2.43ZM66.41,27.78c-.05-1.44-.44-2.99-1.72-3.6-.83-.39-1.72-.47-2.65-.49-2.48-.05-4.23,1.61-4.55,4.09h8.92Z"/>
            <path class="cls-1" d="M84.75,34.97c1.26-.52,1.97-1.72,1.83-3.11l4.83-.03c.15,1.96-.58,3.82-1.99,5.18-2.18,2.29-6.05,2.66-9.07,2.14-1.75-.31-3.33-1.06-4.65-2.22-1.07-.95-1.79-2.12-2.23-3.47-.42-1.27-.5-2.55-.51-3.89,0-1.56.15-3.07.76-4.5,1.47-3.45,5.05-5.17,8.72-5.2,1.14,0,2.2.04,3.29.31,3.38.76,5.75,3.71,5.73,7.2h-4.88c.15-1.47-.67-2.75-2.06-3.19-1.17-.37-2.4-.37-3.58-.03-1.87.62-2.91,2.3-2.9,4.24v2.58c.01.98.31,1.94.89,2.73,1.23,1.69,3.82,1.92,5.82,1.27Z"/>
          </g>
          <g>
            <path class="cls-1" d="M21.7,34.73c1.67-.56,2.77-2.13,2.9-3.83v-1.52s5.12,0,5.12,0c.1,2.98-.22,5.44-2.56,7.5-2.75,2.34-7.04,2.88-10.52,2.2-2.04-.4-3.81-1.34-5.29-2.77-2.48-2.39-3.17-5.64-3.36-8.98v-3.22c.09-1.76.3-3.45.9-5.1.56-1.54,1.37-2.9,2.57-4s2.56-1.94,4.17-2.4c2.66-.77,5.5-.7,8.15.1,4.08,1.36,5.77,5.23,5.94,9.37h-5.1c-.07-.32-.06-.59-.06-.89-.17-1.21-.68-2.27-1.41-3.23-.51-.67-1.19-1.13-2.01-1.36-1.78-.5-3.91-.26-5.37.93-1.77,1.43-2.46,3.9-2.45,6.17v4.22c0,1.25.17,2.44.56,3.61.53,1.58,1.67,2.75,3.28,3.23,1.47.44,3.02.49,4.54-.02Z"/>
            <path class="cls-1" d="M49.86,38.85h-4.93s-.03-11.59-.03-11.59c0-.73-.18-1.45-.58-2.01-.49-.66-1.25-.92-2.04-1.02-2.07-.26-4.02.79-4.91,2.7v11.92s-4.98,0-4.98,0V12.62s4.95,0,4.95,0l.03,10.51c.76-1.44,1.83-2.38,3.31-2.84,1.83-.44,3.75-.42,5.55.13,2.85.98,3.63,3.45,3.63,6.33v12.09Z"/>
          </g>
        </g>
        <g>
          <path class="cls-2" d="M93.77,20.35h4.9c.18.3.05.57.05.87v8.71c-.01.15,0,.3.17.35l11.13-17.68,5.56.02-16.84,26.22h-4.97s0-18.5,0-18.5Z"/>
          <polygon class="cls-1" points="137.31 38.85 132.2 38.86 132.21 16.93 124.11 16.93 124.1 12.59 145.37 12.59 145.37 16.92 137.3 16.93 137.31 38.85"/>
          <rect class="cls-1" x="116.98" y="12.59" width="5.09" height="26.27"/>
          <polygon class="cls-1" points="107.22 38.87 103.56 34.27 106.27 30.06 113.21 38.83 107.22 38.87"/>
        </g>
      </g>
      <g>
        <path class="cls-2" d="M47.72,64.37c-.08-2.1.92-3.87,2.7-4.88,1.49-.85,3.11-1.29,4.85-1.38l5.26-.05c.12-.21.06-.41.06-.63l-.03-1.16c-.12-.98-.83-1.73-1.79-1.97-1.21-.3-2.47-.28-3.67.11-.57.18-1,.62-1.31,1.11-.17.44-.19.87-.2,1.37h-4.73c-.3-2.63,1.24-4.35,3.55-5.4,2.83-1.29,7.34-1.33,10.15.06,1.76.87,2.95,2.51,2.96,4.54l.05,9.25c0,1.28.2,2.46.81,3.57.1.18.26.33.18.58h-4.88c-.33-.7-.48-1.35-.62-2.18-2.9,3.03-9.91,3.56-12.42.19-.68-.91-.88-1.97-.92-3.13ZM60.6,63.21v-1.83c0-.1-.23-.14-.31-.14h-3.2c-.98.01-1.9.14-2.81.47-1.13.41-1.77,1.42-1.55,2.63.33,1.83,2.53,2.1,4.31,1.87,1.69-.22,3.56-1.22,3.56-3.01Z"/>
        <path class="cls-2" d="M33.63,64.69c2.14,1.99,5.95,1.73,8-.53.13-.22.28-.39.52-.58l3.75,1.95c-.64,1.63-1.87,2.89-3.48,3.56-1.51.62-3.04.9-4.67.91-1.22,0-2.4-.06-3.57-.38-2.11-.58-3.92-1.73-5.14-3.55-1.35-2-1.58-4.26-1.49-6.66.07-1.94.59-3.81,1.79-5.36,1.62-2.09,4.03-3.27,6.66-3.5,5.24-.44,9.43,2.34,9.92,7.71l.05,3.2c-.27.19-.51.07-.82.07h-12s-.9.06-.9.06c.09.93.29,1.86.9,2.56l.47.54ZM41.18,58.36c0-1.16-.34-2.43-1.13-3.14-.7-.64-1.63-.74-2.55-.85-2.79-.31-4.81,1.23-5.24,3.99.29.13.52.05.81.05h7.08c.35,0,.67.12,1.03-.05Z"/>
        <g>
          <path class="cls-2" d="M136.02,72.08c1.84,1.42,4.34,2.03,6.6,1.86,1.35-.1,2.64-.83,3.5-1.87.93-1.12,1.04-3.03.89-4.54-1.4,1.71-3.51,2.15-5.56,2.23l-.65-.02c-4.52-.12-7.34-3.51-7.62-7.78v-3.39c.11-1.49.51-2.92,1.26-4.18,1.34-2.28,3.64-3.66,6.27-3.69h.9c1.75-.02,4.36.78,5.42,2.41l.09-2.06,4.88-.02-.05,18.24c0,2.03-.69,3.94-1.99,5.44-1.93,2.21-4.74,3.25-7.66,3.21-2.29-.03-4.5-.53-6.49-1.62-.53-.29-.97-.62-1.41-1.08l1.63-3.15ZM142.81,65.68c1.78.04,3.37-.8,4.26-2.28l-.04-6.09c0-.57-.56-1.07-.96-1.43-.79-.73-1.85-1.03-2.9-1.03h-.8c-1.25,0-2.42.51-3.22,1.51-.55.69-.94,1.56-.95,2.46v2.9c.09,1.32.71,2.52,1.81,3.25.82.55,1.76.69,2.79.71Z"/>
          <path class="cls-2" d="M125.41,57.89c-.12-1.79-.71-2.64-2.48-2.95-2.03-.36-4.05.58-5.1,2.35v12.21s-4.97,0-4.97,0v-18.45s4.82,0,4.82,0l.12,2.27c1.51-1.96,3.71-2.69,6.15-2.67,1.64.01,3.2.51,4.43,1.6,1.38,1.22,1.77,2.88,1.97,4.71l.02,12.55h-4.93s-.01-11.6-.01-11.6Z"/>
        </g>
        <path class="cls-2" d="M95.49,57.56c-.17-1.4-.67-2.16-2.03-2.52-2.18-.58-4.4.34-5.56,2.27v12.19s-4.94,0-4.94,0v-18.44s4.83,0,4.83,0l.08,2.27c1.47-1.93,3.7-2.68,6.12-2.68,1.7,0,3.27.52,4.54,1.66,1.44,1.3,1.82,3.4,1.93,5.35v11.84s-4.97,0-4.97,0v-11.93Z"/>
        <path class="cls-2" d="M25.56,65.12c.17,0,.35.05.35.18v4.2s-17.01,0-17.01,0v-26.25s5.09,0,5.09,0v21.89s11.56,0,11.56,0Z"/>
        <path class="cls-2" d="M74.54,69.49h-5.06s0-18.44,0-18.44h4.91c.08.76-.11,1.45.13,2.3,1.28-2.33,3.64-3.24,6.2-2.56v4.74c-.88-.13-1.72-.32-2.61-.13-1.5.31-2.79,1.29-3.56,2.6v11.5Z"/>
        <g>
          <rect class="cls-2" x="104.09" y="50.99" width="5" height="18.56"/>
          <path class="cls-2" d="M106.7,48.89c-.97-.02-1.91-.16-2.53-.88-.92-1.05-1.04-2.58-.29-3.72s2.18-1.44,3.5-1.22c1.49.25,2.48,1.49,2.42,2.98-.07,1.69-1.37,2.88-3.1,2.84Z"/>
        </g>
      </g>
    </g>
  </g>
</svg>