<?xml version="1.0" encoding="UTF-8"?>
<svg id="Layer_2" data-name="Layer 2" xmlns="http://www.w3.org/2000/svg" viewBox="0 0 160 90">
  <defs>
    <style>
      .cls-1 {
        fill: #9e9290;
      }

      .cls-2 {
        fill: #de263c;
      }

      .cls-3 {
        fill: #a29796;
      }

      .cls-4 {
        fill: #9a8e8c;
      }
    </style>
  </defs>
  <g>
    <path class="cls-3" d="M73.65,33.72l-4.03.08.02,2.88,4.42.09c.04.14.07.39.01.6h-5.26s0-7.61,0-7.61h5.2c.06.18.08.4.02.62l-4.41.06.03,2.58,4.07.11c.13,0,.15.59-.08.59Z"/>
    <path class="cls-3" d="M66.68,37.33c-.14.16-.68.04-.68-.13l-.02-3.49-4.41.03s-.06,2.4-.09,3.53c-.04.19-.74.18-.74-.04v-7.39c.15-.12.5-.14.79-.06-.08,1.07.04,3.23.04,3.23l4.41.02.03-3.28.73.02-.07,7.55Z"/>
    <path class="cls-1" d="M56.88,37.08c0,.27-.4.45-.75.28l-.04-6.86c-1.77-.39-2.91.3-2.62-.73h6.06c.26,1.04-.92.35-2.67.73l.02,6.59Z"/>
  </g>
  <g>
    <g>
      <path class="cls-4" d="M77.39,47.85c-.06-1.89-.13-5.57-.13-5.57l-2.21,5.24c-.12.28-.26.48-.48.51-.37.05-.51-.13-.68-.52l-2.35-5.25s.02,3.7,0,5.51c-.05.29-.57.41-.8.11v-7.45s1.1,0,1.1,0l2.61,6.48,2.57-6.29c.1-.25.66-.29,1.15-.23l.06,7.37c-.05.29-.59.42-.83.08Z"/>
      <path class="cls-4" d="M86.93,47.87l-.15-5.67-2.3,5.31c-.12.29-.28.48-.5.51-.36.05-.52-.14-.68-.52l-2.37-5.35.02,5.79s-.31.19-.74.05l-.03-7.56h1.11s2.57,6.26,2.57,6.26l2.66-6.24,1.12-.04v7.05c-.01.28-.02.4-.08.52-.05.1-.62.14-.62-.11Z"/>
      <path class="cls-1" d="M103.99,47.9c0,.42-.96-.11-1.19-.44l-3.88-5.56-.15,6.08c-.32.08-.53.03-.63-.02-.13-.06-.08-.29-.08-.51l.02-7.07c.72-.08.97.13,1.22.49l4,5.85.1-6.33h.73s-.13,7.49-.13,7.49Z"/>
      <path class="cls-1" d="M148.1,47.62c0,.42-.26.46-.55.42-.34-.04-.47-.21-.71-.56l-3.95-5.64-.14,6.15c-.27.04-.47.03-.69-.02v-7.52c.61-.16.93.05,1.24.51l4.01,5.75.06-6.22c.12-.09.49-.1.74-.08v7.21Z"/>
      <path class="cls-1" d="M123.83,48.02c-1.19.4-.21-2.5-1.46-3.12-1.06-.52-2.39-.28-3.52-.16l-.03,3.12c0,.12-.37.28-.7.16l-.04-7.62h3.46c1.03,0,1.88.47,2.21,1.09.57,1.07-.26,1.87-.38,2.76-.06.46.99,3.59.45,3.77ZM123.19,42.51c0-1.66-1.86-1.64-4.34-1.4v2.82c2.39.38,4.33.18,4.34-1.42Z"/>
      <path class="cls-1" d="M115.48,44.78l-2.74-.08v-.44s3.47-.06,3.47-.06l-.03,3.9c-.59-.05-.68-.39-.8-.97-1.11,1.1-2.71,1.34-4.22.64-1.22-.56-1.86-2.03-1.85-3.62,0-1.68.86-3.28,2.3-3.69,1.69-.49,3.48-.14,4.25,1.46.1.21.23.64.21.82-.02.15-.59.11-.65-.04-.38-1.02-1.25-1.77-2.21-1.81-1.12-.05-2.14.3-2.68,1.4-.67,1.36-.64,3.15.33,4.35.77.96,2.05,1.16,3.08.75s1.71-1.36,1.56-2.62Z"/>
      <path class="cls-1" d="M156.35,43.81c.09,1.64-.45,3.43-1.98,3.95-1.33.45-2.76.21-4.21.25l-.04-7.61h2.7c1.96.02,3.42,1.27,3.53,3.4ZM154.83,46.56c1.08-1.22.96-3.72-.1-4.79-.98-.98-2.48-.82-3.83-.65l-.02,6.23c1.18.14,2.93.36,3.95-.8Z"/>
      <path class="cls-1" d="M96.44,43.83c.18,2.39-1.22,4.26-3.29,4.37-2.36.12-3.96-1.61-3.94-4.01.02-2.15,1.38-3.81,3.34-3.92,2.14-.12,3.71,1.21,3.9,3.56ZM95.71,44.59c.19-2.04-1.11-3.71-2.87-3.7-1.89,0-2.97,1.64-2.87,3.59.09,1.72,1.17,3.14,2.86,3.14,1.53,0,2.71-1.22,2.87-3.03Z"/>
      <path class="cls-1" d="M69.13,44.07c.08,2.37-1.35,4.05-3.35,4.12-2.42.08-3.86-1.61-3.84-4.01s1.32-3.89,3.54-3.93c2.03-.03,3.57,1.46,3.65,3.82ZM68.38,44.34c.04-2.04-1.12-3.46-2.87-3.45s-2.85,1.47-2.86,3.29,1.01,3.43,2.83,3.44c1.63.01,2.86-1.36,2.9-3.28Z"/>
      <path class="cls-1" d="M132.55,44.02c.08,2.49-1.32,4.11-3.53,4.18s-3.68-1.64-3.66-4c.02-2.18,1.35-3.84,3.35-3.93,2.2-.1,3.76,1.28,3.84,3.75ZM131.83,44.31c.04-2.09-1.26-3.55-3.12-3.41-1.76.13-2.7,1.74-2.61,3.59.08,1.74,1.26,3.15,2.9,3.13s2.79-1.43,2.83-3.31Z"/>
      <path class="cls-1" d="M55.6,46.77c.71.74,1.63.99,2.51.74,1.83-.53,1.68-2.98,2.46-2.36.12.1.06.49,0,.71-.48,1.86-2.06,2.55-3.87,2.26-1.63-.26-2.74-1.76-2.8-3.66-.06-1.71.67-3.36,2.16-3.92s3.46-.25,4.27,1.29c.12.22.13.43.15.66.02.27-.02.34-.37.29-.6-.08-.51-1.95-2.83-1.86-.94.04-1.77.53-2.25,1.53-.68,1.4-.64,3.09.55,4.33Z"/>
      <path class="cls-3" d="M139.37,40.48c0-.15.69-.1.7.04l.02,4.85c0,1.89-1.26,2.83-3.03,2.83s-2.91-1.04-2.9-2.82v-4.94c.32-.03.56-.02.76.03l-.04,4.62c-.01,1.5.79,2.44,2.06,2.53,1.51.11,2.44-.92,2.44-2.52v-4.61Z"/>
    </g>
    <g>
      <path class="cls-1" d="M95.3,54.65c.92.46,1.43,1.24,1.23,2.34-.16.88-.9,1.65-2.04,1.66l-3.85.02v-7.61s3.76.03,3.76.03c.74,0,1.54.49,1.72,1.04.26.81.34,1.64-.8,2.52ZM94.23,54.38c.88-.02,1.28-.63,1.29-1.24.03-1.6-4.12-1.38-4.12-1.38l.04,2.68,2.79-.05ZM94.7,57.93c.95-.04,1.27-1,1.11-1.73-.11-.51-.55-1.09-1.3-1.09l-3.11-.02.03,2.97,3.27-.13Z"/>
      <path class="cls-3" d="M112.61,58.74c-1.5.22-.38-2.46-1.57-3.14-.99-.57-2.35-.34-3.53-.23l-.07,3.26c-.21.05-.41.06-.69,0l-.02-7.58h3.56c1.04,0,1.92.52,2.17,1.42s.01,1.88-1.09,2.5c.26.17.8.46.86.89l.39,2.88ZM110.98,54.45c.73-.25.88-1.09.8-1.54-.26-1.42-4.28-1.15-4.28-1.15l.03,2.85s2.29.26,3.45-.15Z"/>
      <path class="cls-3" d="M141.98,54.99l-4.04.09c-.15,1.01-.16,1.83.02,2.93l4.48.03c.04.14.07.39,0,.61l-5.24.03-.02-7.64,5.26.03-.04.63-4.46.02c-.16.93-.17,1.64.03,2.66l3.89-.02c.31,0,.39.63.12.63Z"/>
      <path class="cls-1" d="M105.05,54.68c.1,2.41-1.36,4.11-3.45,4.19-2.28.09-3.8-1.69-3.77-4.06.03-2.23,1.4-3.86,3.51-3.91s3.61,1.36,3.71,3.77ZM104.32,55.27c.2-2.14-1.15-3.78-2.95-3.73s-2.93,1.71-2.81,3.59c.11,1.7,1.15,3.03,2.78,3.11,1.52.07,2.8-1.12,2.97-2.97Z"/>
      <path class="cls-1" d="M69.13,54.71c.09,2.37-1.38,4.05-3.35,4.13-2.46.1-3.86-1.6-3.84-4.03.01-2.27,1.35-3.83,3.55-3.89,2.04-.05,3.55,1.44,3.64,3.79ZM68.38,54.95c.05-2.05-1.27-3.55-3.13-3.4-1.65.13-2.65,1.73-2.59,3.46.06,1.78,1.08,3.21,2.82,3.24s2.85-1.35,2.9-3.3Z"/>
      <path class="cls-1" d="M55.88,57.69c.76.65,1.68.64,2.46.38,1.59-.52,1.39-2.86,2.23-2.27.13.09.06.46,0,.69-.45,1.84-2.09,2.57-3.7,2.32-1.83-.28-2.91-1.79-2.97-3.72-.05-1.66.69-3.39,2.15-3.91,2.01-.72,4.2.15,4.47,1.94.04.25-.06.37-.41.3-.3-.06-.32-.07-.49-.53-.53-1.42-2.52-1.81-3.74-.81-1.68,1.38-1.74,4.12,0,5.6Z"/>
      <path class="cls-1" d="M88.63,58.65c-.49-.59-1.25-2.39-1.25-2.39l-2.97.1s-.65,1.72-1.18,2.22c-.18.17-.6.16-.77.05l3.12-7.53c.19-.08.64-.07.83,0l2.85,7.36c.1.26-.47.39-.63.2ZM87.38,55.62l-1.5-3.64-1.46,3.73,2.96-.09Z"/>
      <path class="cls-1" d="M118.76,56.68c-1.02-.82-2.47-.33-3.49-.31l-.99,2.31c-.38.2-.73-.09-.58-.47l2.98-7.18c.48-.16.91.27,1.04.64l2.59,7.07c-1.35.02-1.03-1.65-1.55-2.07ZM118.38,55.62l-1.49-3.65-1.43,3.72,2.92-.07Z"/>
      <path class="cls-1" d="M135.12,51.14c.05-.15.69-.13.79,0l-2.71,7.41c-.13.15-.72.18-.96.07l-2.79-7.54.61-.05c.09,0,.25.25.31.41l2.29,6.24,2.45-6.54Z"/>
      <path class="cls-4" d="M81.87,58.01c.35,0,.32.62.12.62l-4.91.06-.02-7.64c.27,0,.61.02.72.08v6.8s4.09.08,4.09.08Z"/>
      <path class="cls-4" d="M71.5,57.86l4.33.2c-.06.17-.08.37-.05.5l-5.01.11v-7.54c.13-.1.5-.1.76-.09l-.03,6.82Z"/>
      <path class="cls-4" d="M123.49,51.67l-.17,7.1h-.48s-.12-7.06-.12-7.06c-.93-.17-1.93.51-2.93-.39,2.29-.36,4.29-.34,6.58,0-.89.87-1.8.29-2.87.36Z"/>
      <rect class="cls-3" x="127.44" y="51" width=".7" height="7.66"/>
    </g>
  </g>
  <g>
    <path class="cls-2" d="M26.23,61.27c2.31.79,4.32.82,6.58.9,2.12.07,3.79-.46,5.91-.86,1.4-.26,2.85,3.68,1.26,4.23-3.93,1.36-8.51,1.15-12.48.08-6.87-1.86-12.34-6.78-14.36-13.53-1.7-5.67-.28-11.72,3.86-15.8,3.67-3.61,8.77-4.88,13.56-3.22,4.2,1.46,7.13,5.1,7.46,9.56.3,4.03-1.9,7.7-5.47,9.35-.29.13-.64-.21-.62-.62,4.68-2.31,6.34-7.81,3.67-12.4-2.3-3.94-6.81-5.6-11.35-4.55-6.05,1.4-9.63,7.19-9.07,13.49.55,6.25,5.05,11.32,11.07,13.38Z"/>
    <path class="cls-2" d="M19.2,39.14c5.93-7.54,15.33-1.98,13.12-1.46-.22.05-.4-.09-.66-.26-3.74-2.33-8.31-1.21-11.13,2.09-1.69,1.98-2.26,4.43-2.02,7.14.52,6.16,6.11,10.14,12.19,9.77,7.42-.46,12.54-6.37,13.26-13.86.58-6.08-2.24-11.35-6.41-15.63-1.12-1.14,1.75-4.07,3.02-3.31,4.75,4.67,7.53,11.38,6.99,17.93-.43,5.23-2.63,9.95-6.52,13.23-6.66,5.59-16.32,5.28-21.37-1.04-3.44-4.31-3.81-10.35-.47-14.6Z"/>
    <path class="cls-2" d="M26.19,53.16c3.35,1.22,6.91.21,9.48-1.97,5.07-4.29,4.97-13.03-1.13-17.92-5.54-4.45-13.36-3.96-19.02.31-3.89,2.94-6.07,7.12-7.38,11.79-1.24,1.05-3.8.28-4.5-1.21l1.67-4.11c2.9-5.94,7.96-10.58,14.38-12.28,6.83-1.81,13.99.2,18.39,5.65,2.46,3.05,3.56,6.79,3.11,10.64-.74,6.33-6.1,11.36-12.45,10.9-4.03-.29-7.35-2.77-8.82-6.34-.54-1.32-.48-2.74-.45-4.14,0-.35.86-.3.84,0-.27,3.95,1.99,7.26,5.88,8.68Z"/>
  </g>
  <path class="cls-1" d="M150.97,57.71c.49.29.88.68,1.17,1.18.29.49.43,1.03.43,1.61s-.14,1.11-.43,1.61c-.29.49-.68.88-1.17,1.18-.49.29-1.03.44-1.62.44s-1.12-.15-1.61-.44c-.49-.29-.88-.68-1.17-1.18-.29-.49-.43-1.03-.43-1.61s.14-1.11.43-1.61c.29-.49.68-.88,1.17-1.18.49-.29,1.03-.44,1.61-.44s1.13.15,1.62.44ZM150.73,62.9c.41-.25.74-.58.97-1.01.24-.42.35-.89.35-1.4s-.12-.98-.35-1.4c-.24-.42-.56-.76-.97-1.01-.41-.25-.88-.37-1.38-.37s-.96.12-1.37.37c-.41.25-.74.58-.97,1.01-.24.43-.36.89-.36,1.4s.12.97.36,1.4c.24.43.56.76.97,1.01.41.25.87.37,1.37.37s.97-.12,1.38-.37ZM150.62,60.57c-.16.18-.37.3-.63.35l.84,1.4h-.55l-.78-1.36h-.82v1.36h-.51v-3.56h1.46c.82,0,1.23.37,1.23,1.1,0,.29-.08.53-.24.71ZM150.12,60.37c.14-.12.21-.29.21-.51,0-.45-.27-.67-.82-.67h-.83v1.36h.8c.3,0,.52-.06.65-.17Z"/>
</svg>