<?xml version="1.0" encoding="UTF-8"?>
<svg xmlns="http://www.w3.org/2000/svg" viewBox="0 0 160 90">
  <defs>
    <linearGradient id="elc-wings" x1="0.85" y1="0" x2="0.15" y2="1">
      <stop offset="0" stop-color="#4f6eb4"/>
      <stop offset="1" stop-color="#c3e3f8"/>
    </linearGradient>
  </defs>
  <g transform="translate(34.8872,0) scale(0.045113)">
    <g transform="translate(0.000000,1995.000000) scale(0.100000,-0.100000)" stroke="none">
      <path fill="url(#elc-wings)" d="M9523 16932 c-109 -39 -237 -166 -312 -311 -77 -150 -136 -378 -162
-626 l-13 -119 -101 -126 c-328 -407 -554 -834 -610 -1154 -19 -114 -19 -265
0 -341 12 -46 52 -145 78 -193 1 -2 -47 -16 -108 -32 -130 -33 -188 -55 -315
-121 -121 -62 -212 -130 -326 -244 -208 -207 -342 -455 -405 -751 -33 -155
-38 -413 -10 -573 52 -306 175 -547 386 -756 414 -410 1022 -463 1762 -155 56
23 109 50 118 60 9 10 40 89 70 176 108 322 257 604 453 858 151 195 363 394
478 448 68 32 172 52 221 43 24 -4 38 0 58 18 25 21 30 39 56 188 187 1070 57
2182 -346 2957 -192 368 -455 655 -682 743 -81 31 -219 36 -290 11z"/>
<path fill="url(#elc-wings)" d="M12080
12499 c-217 -21 -522 -83 -737 -149 -58 -17 -78 -29 -100 -57 -65 -82 -116
-124 -208 -170 -197 -99 -220 -112 -237 -134 -17 -20 -18 -81 -18 -984 0 -942
0 -963 20 -987 34 -44 67 -51 223 -45 168 6 255 26 392 91 119 56 170 92 268
185 144 137 241 318 269 498 10 61 14 73 27 67 40 -17 120 -34 161 -34 219 1
542 178 828 454 l108 105 98 21 c228 50 390 125 498 231 91 89 122 155 116
247 -5 97 -43 167 -142 268 -91 91 -162 142 -285 203 -158 80 -366 142 -591
177 -125 19 -548 27 -690 13z"/>
      <g fill="#0973ba"><path d="M10448 19191 l-4 -41 41 0 c72 0 69 22 39 -381 -15 -200 -31 -375
-36 -387 -8 -22 -12 -23 -58 -17 l-50 7 0 -41 c0 -23 3 -41 8 -41 4 0 149 -11
322 -25 173 -14 322 -25 332 -25 19 0 24 26 34 173 l6 97 -44 0 -45 0 -13 -72
c-20 -116 -14 -112 -144 -104 -61 4 -134 9 -161 13 l-51 5 28 367 c16 201 30
376 33 389 5 19 12 22 60 22 l55 0 0 35 c0 41 -1 41 -140 50 -52 3 -120 8
-151 12 l-57 5 -4 -41z M9265 19213 c-18 -3 -39 -64 -149 -431 -71 -235 -133
-435 -137 -444 -6 -11 -28 -19 -64 -23 l-55 -7 6 -37 c4 -20 7 -37 8 -37 1 -1
308 24 314 25 1 1 2 18 2 39 l0 37 -55 -3 c-52 -4 -55 -3 -55 20 0 22 56 217
64 226 4 3 303 30 349 32 5 0 33 -51 62 -112 49 -102 52 -114 38 -125 -9 -7
-34 -13 -55 -13 -38 0 -38 0 -38 -40 0 -22 3 -40 8 -40 47 2 355 30 359 33 2
3 1 21 -2 40 -7 34 -7 34 -49 30 -31 -4 -45 -1 -55 11 -8 9 -100 198 -205 419
l-191 402 -40 1 c-22 1 -49 0 -60 -3z m118 -340 c47 -101 82 -185 79 -187 -4
-2 -52 -7 -107 -10 -55 -4 -120 -10 -144 -13 l-44 -6 6 32 c16 80 111 381 118
374 4 -4 46 -90 92 -190z M8063 19041 c-78 -20 -144 -39 -148 -42 -3 -4 -3
-23 0 -42 l7 -35 49 13 c36 10 51 10 58 1 11 -14 159 -596 151 -596 -3 0 -158
124 -344 275 -186 151 -346 275 -355 275 -9 0 -65 -13 -126 -29 l-110 -28 3
-29 c5 -42 15 -48 64 -36 28 7 46 8 53 1 5 -5 51 -172 102 -372 103 -402 101
-379 21 -392 -29 -5 -38 -11 -34 -22 3 -8 6 -20 6 -26 1 -38 15 -38 164 -1
l148 37 -7 36 c-4 20 -8 37 -10 39 -1 2 -24 -2 -49 -9 -31 -8 -51 -8 -57 -2
-17 17 -178 665 -164 659 7 -2 180 -140 384 -305 l371 -301 44 11 43 11 -103
411 c-57 227 -102 417 -100 424 3 6 23 14 46 18 47 8 55 20 43 62 l-8 29 -142
-35z M12680 18824 c-16 -42 -12 -50 31 -63 22 -7 42 -18 45 -25 3 -7 -49 -171
-116 -366 -66 -194 -120 -355 -120 -358 0 -5 -50 3 -86 13 -17 5 -24 0 -34
-25 -7 -18 -9 -35 -4 -39 12 -11 636 -223 641 -218 4 5 83 239 83 248 0 4 -11
10 -24 13 -13 3 -31 9 -40 12 -11 4 -25 -15 -56 -75 -29 -59 -45 -81 -59 -81
-16 0 -166 49 -277 91 -20 7 -17 19 102 369 67 199 125 365 128 368 4 3 29 0
57 -7 27 -7 53 -11 56 -8 2 3 6 20 6 37 l2 32 -154 54 c-85 30 -159 54 -163
54 -5 0 -13 -12 -18 -26z M6214 18446 c-306 -99 -418 -399 -262 -699 53 -101
125 -174 215 -218 65 -33 72 -34 188 -34 l120 0 88 42 c168 81 257 207 265
373 5 108 -9 177 -57 277 -113 233 -329 333 -557 259z m236 -97 c131 -56 260
-285 260 -459 0 -122 -67 -218 -193 -275 -179 -82 -342 -8 -443 201 -24 50
-51 121 -60 155 -47 184 51 339 249 394 63 18 120 13 187 -16z M13938 18337
l-16 -34 44 -21 c24 -12 44 -27 44 -33 0 -13 -336 -668 -350 -682 -4 -5 -26 1
-48 12 -23 12 -44 21 -46 21 -5 0 -36 -55 -36 -64 0 -2 129 -71 288 -152 158
-81 306 -158 329 -171 l42 -24 46 90 c25 50 45 94 45 99 0 5 -16 16 -37 26
-29 14 -38 15 -45 4 -4 -7 -17 -27 -28 -45 -11 -17 -27 -34 -36 -37 -12 -5
-291 127 -342 162 -11 7 4 43 68 166 45 86 84 156 87 156 17 0 186 -96 190
-108 4 -8 -2 -30 -12 -48 -10 -19 -16 -36 -14 -38 2 -2 17 -10 34 -19 l30 -15
62 117 c34 64 63 119 63 123 0 11 -59 40 -69 34 -5 -3 -14 -19 -21 -36 -8 -18
-20 -30 -31 -30 -24 0 -202 88 -197 98 12 27 151 298 154 301 6 7 306 -155
315 -171 6 -12 3 -33 -11 -69 -12 -28 -19 -53 -18 -54 2 -1 18 -10 37 -20 41
-21 40 -22 98 92 25 46 34 75 28 81 -13 12 -614 322 -624 322 -4 0 -14 -15
-23 -33z M5015 17790 c-77 -49 -141 -95 -142 -102 -2 -7 5 -24 16 -37 l18 -23
40 23 c51 29 51 29 134 -103 35 -57 124 -197 196 -312 73 -115 133 -212 133
-215 0 -4 -12 -14 -27 -24 -58 -35 -56 -32 -38 -66 12 -24 21 -31 33 -26 24 9
272 166 278 177 3 4 -4 22 -16 38 l-21 30 -40 -27 c-39 -26 -40 -26 -59 -7
-24 25 -400 620 -400 633 0 6 18 23 40 37 41 27 42 34 8 76 -12 15 -26 8 -153
-72z M15172 17170 c-211 -132 -389 -240 -396 -240 -7 0 -30 13 -52 30 l-41 29
-22 -30 c-13 -17 -19 -35 -15 -39 5 -5 63 -50 129 -99 l120 -91 23 26 c12 14
22 29 22 33 0 4 -18 22 -40 40 -22 18 -38 37 -34 42 3 5 50 39 105 74 l100 65
142 -107 c78 -58 143 -107 145 -109 8 -6 -63 -237 -75 -241 -6 -3 -27 7 -46
21 -19 14 -37 26 -41 26 -9 0 -45 -42 -46 -52 0 -9 276 -218 288 -218 10 0 42
44 42 57 0 4 -13 17 -30 28 -16 11 -32 26 -35 34 -4 10 217 822 241 885 4 11
-74 76 -93 76 -4 0 -180 -108 -391 -240z m328 99 c0 -11 -109 -391 -113 -395
-6 -6 -236 172 -233 181 2 10 324 223 339 224 4 1 7 -4 7 -10z M4003 17049
c-164 -137 -302 -256 -307 -263 -8 -12 41 -78 124 -170 5 -4 24 4 44 19 l35
27 -39 52 c-22 29 -40 58 -40 64 0 16 172 164 180 155 94 -106 490 -587 490
-595 0 -6 -17 -26 -37 -44 l-38 -33 27 -27 c31 -31 10 -43 186 105 l112 95
-26 27 -27 28 -28 -20 c-16 -11 -31 -24 -34 -29 -4 -6 -12 -10 -19 -10 -12 0
-497 567 -504 589 -4 11 162 151 179 151 7 0 34 -21 60 -46 l47 -46 31 23 c17
13 29 29 27 36 -7 18 -129 163 -138 163 -3 0 -141 -113 -305 -251z M16467
16602 l-27 -28 30 -29 c16 -16 30 -36 30 -46 0 -18 -523 -522 -547 -527 -9 -2
-30 11 -49 29 l-34 33 -27 -27 -27 -27 34 -37 c19 -21 73 -77 119 -125 l85
-88 28 27 28 27 -31 32 c-17 17 -29 38 -27 46 4 18 222 228 236 228 20 0 141
-149 151 -187 14 -52 -2 -99 -55 -165 -82 -99 -104 -138 -104 -186 0 -54 10
-75 68 -134 l46 -48 28 26 27 27 -26 33 c-32 43 -27 64 32 133 81 95 103 165
82 263 l-8 37 53 -24 c101 -47 190 -25 272 66 54 60 70 105 63 171 -10 79 -52
141 -223 322 -215 228 -194 212 -227 178z m309 -407 c22 -47 24 -59 14 -93
-12 -47 -77 -118 -125 -138 -79 -33 -139 -7 -248 103 l-78 80 133 127 133 127
73 -76 c45 -46 84 -98 98 -130z M3190 16180 c-89 -17 -153 -69 -316 -258 -70
-81 -136 -157 -147 -169 -19 -22 -19 -22 9 -47 l29 -25 35 35 c20 19 39 34 43
34 13 0 577 -494 577 -505 0 -6 -14 -27 -30 -47 l-30 -36 26 -21 c15 -12 30
-21 34 -21 7 0 110 115 209 233 l24 29 -29 23 -29 24 -35 -35 c-20 -19 -41
-34 -46 -34 -12 0 -217 176 -222 191 -2 5 28 46 67 91 166 195 184 325 59 448
-75 74 -153 105 -228 90z m93 -160 c68 -53 102 -106 101 -160 0 -25 -8 -58
-16 -75 -19 -35 -136 -175 -146 -175 -10 0 -287 242 -287 251 0 18 114 145
155 171 62 41 129 36 193 -12z M17470 15473 c-14 -9 -26 -17 -28 -19 -2 -1 9
-20 23 -43 15 -22 25 -45 23 -50 -4 -12 -623 -431 -636 -431 -5 0 -21 18 -36
40 -14 22 -30 40 -34 40 -6 0 -36 -18 -60 -36 -3 -2 149 -235 164 -253 6 -7
56 23 61 36 3 6 -7 29 -21 49 -20 31 -23 41 -13 52 16 20 560 383 565 377 2
-2 -69 -211 -158 -464 l-162 -460 22 -36 c12 -19 24 -35 26 -35 2 0 160 104
351 231 191 128 354 234 363 236 9 2 22 -8 32 -24 36 -59 33 -57 67 -37 17 10
31 22 31 26 0 5 -37 64 -83 132 -78 118 -83 123 -102 109 -11 -8 -26 -18 -34
-22 -10 -6 -8 -16 14 -49 15 -23 25 -46 23 -51 -3 -11 -509 -353 -515 -348 -1
2 63 187 142 412 80 225 145 416 145 424 0 17 -128 211 -139 211 -4 0 -18 -8
-31 -17z M2246 15098 c-100 -159 -326 -520 -335 -537 -9 -16 -6 -22 21 -40
l33 -20 28 44 c26 40 31 43 51 33 40 -21 611 -381 625 -394 12 -11 10 -19 -12
-57 l-27 -45 33 -21 c17 -11 35 -17 38 -13 13 14 378 599 383 613 6 16 -158
124 -174 114 -6 -4 -17 -20 -26 -36 -15 -29 -14 -31 13 -52 42 -33 63 -56 63
-69 0 -11 -173 -292 -195 -316 -10 -11 -39 4 -156 78 -79 50 -145 95 -147 100
-4 10 101 174 117 184 6 4 28 -3 48 -15 l36 -22 18 22 c11 13 19 28 19 35 0 6
-52 43 -114 83 -119 74 -120 74 -145 26 -9 -19 -7 -24 24 -42 19 -11 35 -27
35 -36 0 -8 -25 -55 -56 -105 -54 -86 -57 -90 -78 -77 -11 8 -76 49 -143 91
-68 43 -123 80 -123 84 1 15 176 285 191 295 12 7 31 3 71 -15 l56 -26 21 38
c17 30 19 40 9 46 -7 4 -48 29 -91 56 l-77 48 -34 -52z M18338 14063 l-37 -15
20 -46 c16 -37 17 -48 7 -58 -14 -13 -674 -314 -690 -314 -5 0 -18 20 -29 45
-11 25 -22 45 -25 45 -3 0 -19 -7 -35 -16 -22 -11 -29 -20 -25 -32 30 -83 294
-652 303 -652 13 0 183 77 183 83 0 3 -7 21 -15 40 l-15 36 -41 -14 c-51 -18
-83 -19 -96 -2 -11 13 -153 328 -153 338 0 7 320 152 324 147 10 -11 86 -193
86 -204 0 -11 -28 -29 -77 -49 -6 -3 22 -65 29 -65 11 0 231 100 241 109 4 4
2 20 -4 35 -10 21 -18 26 -33 21 -78 -22 -72 -26 -121 79 -25 54 -45 101 -45
105 0 10 302 148 310 142 12 -10 140 -305 140 -323 0 -12 -19 -30 -50 -50 -27
-17 -50 -33 -50 -35 0 -4 30 -65 35 -71 1 -1 45 18 98 42 l96 45 -135 298
c-75 164 -141 310 -147 325 -12 26 -13 26 -49 11z M1554 13883 c-13 -29 -13
-37 -2 -44 7 -5 36 -23 65 -41 55 -33 59 -48 15 -48 -73 0 -194 -94 -229 -178
-118 -278 25 -533 355 -632 103 -31 242 -26 325 12 242 112 338 458 176 641
-34 40 -95 87 -112 87 -3 0 -15 -17 -27 -37 -18 -32 -19 -38 -6 -45 36 -20 78
-63 103 -105 75 -129 10 -342 -129 -419 -47 -26 -63 -29 -138 -29 -180 0 -392
113 -461 245 -19 36 -24 60 -24 125 1 72 4 87 35 144 59 109 135 148 271 138
l77 -6 16 42 c9 24 16 45 16 49 0 3 -51 27 -112 54 -62 26 -132 55 -156 65
l-43 19 -15 -37z M18882 12733 c-31 -6 -36 -24 -22 -69 7 -20 8 -40 4 -44 -11
-11 -701 -200 -730 -200 -17 0 -24 9 -33 46 -12 45 -13 46 -44 40 -17 -4 -34
-10 -38 -14 -4 -4 8 -61 26 -127 18 -66 38 -139 44 -161 l11 -42 38 10 38 9
-10 49 c-5 27 -7 52 -4 55 3 4 76 26 162 49 l156 43 14 -46 c28 -97 39 -159
31 -197 -10 -53 -65 -104 -146 -133 -167 -60 -205 -121 -163 -260 15 -52 16
-52 47 -45 45 9 46 11 38 42 -9 30 -1 62 20 79 8 6 49 25 91 43 91 37 151 95
168 162 6 23 12 48 14 53 1 6 10 -4 19 -21 22 -42 77 -89 123 -104 81 -27 228
17 279 84 37 48 50 124 36 210 -17 98 -125 489 -137 491 -5 1 -19 0 -32 -2z
m49 -325 c32 -116 36 -203 14 -245 -25 -45 -110 -87 -180 -88 -94 0 -144 61
-188 231 -12 46 -19 86 -15 89 6 6 314 93 334 94 7 1 22 -36 35 -81z M1005
12395 c-21 -90 -36 -167 -34 -170 3 -2 20 -6 39 -7 32 -3 34 -1 46 45 14 57
16 60 35 51 17 -7 219 -248 219 -262 0 -11 -311 -132 -323 -125 -5 3 -6 27 -2
53 6 47 6 47 -26 54 -18 3 -36 3 -40 -1 -6 -7 -89 -346 -86 -350 1 0 19 -4 39
-8 36 -7 37 -6 47 33 6 22 17 45 25 51 17 14 416 181 431 180 11 0 283 -326
302 -362 9 -18 9 -34 1 -66 -12 -48 -12 -48 31 -61 23 -6 33 -6 36 3 2 7 22
82 43 169 l39 156 -38 10 -39 10 -10 -42 c-16 -62 -18 -66 -34 -66 -19 0 -251
279 -240 289 20 18 327 132 341 127 15 -6 14 -20 -3 -78 -5 -16 -1 -18 58 -34
13 -4 23 24 59 171 23 96 40 177 37 180 -3 3 -19 10 -36 15 -31 8 -32 7 -42
-29 -5 -21 -18 -45 -27 -53 -10 -9 -117 -57 -237 -107 -176 -73 -222 -89 -231
-79 -49 53 -264 318 -274 335 -9 17 -9 33 0 68 6 25 10 47 8 49 -2 2 -20 6
-40 10 l-36 6 -38 -165z M18939 11217 c-58 -22 -93 -52 -121 -104 -26 -47 -33
-77 -63 -261 -25 -152 -66 -205 -161 -205 -89 0 -146 69 -165 199 -10 68 2
199 19 216 5 5 43 11 86 15 l78 6 -4 49 c-3 27 -7 50 -9 52 -2 2 -50 -2 -107
-9 -69 -7 -106 -16 -112 -26 -20 -30 -40 -152 -40 -236 0 -138 35 -247 101
-312 131 -132 356 -92 418 73 11 30 27 105 36 167 29 215 64 269 174 269 81 0
143 -75 160 -192 9 -62 2 -181 -11 -194 -4 -3 -42 -10 -84 -15 -43 -6 -80 -12
-82 -14 -3 -2 -1 -25 2 -50 l7 -46 62 7 c171 19 159 15 175 59 24 63 22 283
-2 359 -25 75 -68 132 -129 170 -38 23 -61 30 -120 33 -45 2 -86 -2 -108 -10z
M702 10663 c-13 -170 -26 -329 -29 -355 l-6 -48 42 0 41 0 0 39 c0 71 -14 70
386 39 198 -15 370 -30 383 -33 22 -6 23 -10 18 -54 l-6 -49 37 -5 c20 -4 37
-5 39 -3 2 2 14 147 28 322 13 175 26 340 29 366 l5 46 -67 6 c-37 3 -85 7
-107 8 l-40 3 -3 -41 -3 -42 51 -7 c50 -7 80 -25 80 -48 -1 -45 -30 -358 -34
-365 -5 -9 -338 16 -348 26 -8 8 7 205 17 221 3 6 26 11 51 11 37 0 44 3 44
19 0 11 3 26 6 34 4 12 -14 16 -103 21 -59 4 -122 10 -139 12 -29 5 -32 3 -37
-28 -2 -18 -3 -34 -2 -36 1 -2 20 -6 41 -9 22 -3 42 -11 47 -17 9 -13 -2 -208
-13 -219 -4 -5 -82 -3 -174 4 l-166 12 0 26 c0 61 23 308 31 329 7 18 16 22
56 22 60 0 68 6 77 51 l6 36 -76 7 c-43 3 -91 6 -108 6 l-32 0 -22 -307z
M1434 7991 l-86 -179 -102 -16 c-55 -8 -143 -21 -193 -27 -51 -7 -93 -16 -93
-19 0 -4 62 -68 138 -142 l139 -135 -33 -189 c-19 -104 -34 -193 -34 -197 0
-4 80 34 178 84 l178 93 178 -93 c177 -93 179 -93 173 -65 -3 16 -17 105 -33
197 l-27 168 138 139 c77 77 137 141 135 143 -3 2 -90 16 -195 31 -104 15
-192 32 -194 38 -10 28 -172 348 -176 348 -2 0 -43 -81 -91 -179z M18321 7995
c-46 -97 -88 -178 -92 -180 -4 -3 -87 -16 -186 -30 -98 -14 -184 -28 -191 -30
-7 -3 48 -64 129 -142 l141 -138 -34 -197 c-19 -109 -33 -198 -31 -198 2 0 80
41 173 90 93 50 174 90 180 90 6 0 88 -41 182 -90 94 -50 172 -89 173 -88 1 2
-13 91 -32 198 l-34 195 143 137 c78 76 140 139 137 141 -2 2 -76 14 -164 26
-88 12 -174 24 -191 27 -29 5 -37 17 -120 185 -48 98 -91 179 -94 179 -3 0
-43 -79 -89 -175z M16789 5604 c-107 -180 -195 -331 -197 -335 -3 -7 67 -54
71 -48 2 2 15 23 30 47 15 23 32 42 37 42 14 0 704 -410 712 -424 4 -6 -4 -30
-17 -55 -14 -24 -25 -45 -25 -46 0 -6 71 -47 74 -44 9 12 406 689 406 693 0 5
-185 116 -194 116 -2 0 -14 -16 -27 -36 l-22 -37 51 -44 c29 -25 52 -50 52
-56 0 -15 -204 -362 -213 -362 -11 0 -327 189 -327 196 0 14 115 202 127 206
7 3 28 -4 46 -16 19 -12 38 -21 43 -21 14 0 46 62 37 70 -11 10 -235 141 -245
143 -4 1 -17 -12 -29 -30 l-20 -32 40 -26 c23 -14 41 -31 41 -38 0 -6 -27 -58
-60 -114 l-60 -102 -152 91 c-84 49 -157 94 -161 98 -10 9 170 318 195 333 12
8 31 5 76 -15 l60 -26 21 38 c11 21 21 40 21 43 0 4 -164 103 -191 115 -3 1
-94 -144 -200 -324z M2824 5607 c-192 -64 -353 -208 -404 -363 -19 -55 -22
-83 -18 -164 3 -91 6 -103 47 -184 55 -113 133 -194 228 -238 59 -28 79 -33
148 -33 77 0 177 24 190 45 3 5 -4 28 -15 50 -16 32 -25 40 -38 34 -147 -62
-276 -27 -374 104 -110 145 -101 303 25 439 56 61 204 157 286 185 179 61 335
-2 413 -169 53 -113 33 -219 -62 -326 l-42 -47 32 -50 c32 -50 33 -50 56 -35
14 9 85 54 159 101 l134 86 -22 34 c-12 18 -25 34 -30 34 -4 0 -37 -13 -74
-30 -36 -16 -70 -30 -75 -30 -4 0 2 19 14 43 18 34 23 58 23 127 0 75 -4 93
-32 153 -44 93 -119 169 -212 215 -70 35 -81 37 -180 39 -89 3 -117 -1 -177
-20z M16224 4763 c-61 -71 -114 -134 -118 -141 -9 -14 29 -62 49 -62 6 0 28
21 49 46 37 44 39 45 56 27 20 -20 372 -675 366 -680 -3 -3 -551 185 -692 238
-29 11 -54 25 -54 31 0 5 16 29 35 52 l35 43 -23 20 c-12 11 -27 23 -33 26 -7
4 -61 -50 -125 -125 -154 -177 -146 -164 -118 -194 30 -32 43 -30 75 11 14 19
35 35 44 35 10 0 224 -72 476 -160 251 -88 462 -160 469 -160 15 0 65 56 65
72 0 5 -101 204 -225 442 -124 238 -225 440 -225 450 0 10 16 36 35 59 l35 41
-27 28 c-15 15 -29 28 -33 28 -3 0 -56 -57 -116 -127z M3740 4431 c-175 -56
-329 -197 -391 -360 -33 -84 -37 -211 -10 -299 54 -179 220 -330 403 -368 189
-40 409 62 544 252 122 170 131 378 24 544 -42 65 -146 162 -205 193 -117 59
-256 73 -365 38z m315 -128 c67 -32 146 -112 181 -182 25 -48 29 -68 29 -136
0 -71 -4 -88 -34 -149 -35 -72 -145 -192 -228 -249 -160 -111 -318 -101 -447
27 -86 84 -120 157 -120 251 0 107 40 183 159 301 165 163 315 208 460 137z
M15121 3629 l-143 -122 30 -30 30 -30 41 33 c36 28 44 30 58 19 24 -21 523
-607 529 -623 3 -8 -12 -28 -36 -47 l-40 -34 28 -34 28 -34 142 119 c77 65
141 123 141 128 1 6 -11 22 -25 38 l-27 27 -39 -34 c-22 -18 -45 -31 -51 -29
-16 7 -519 600 -532 626 -8 17 -3 26 30 54 l40 33 -21 27 c-11 15 -25 29 -30
31 -6 2 -75 -51 -153 -118z M4900 3559 l-23 -32 43 -37 c43 -37 44 -38 28 -62
-21 -32 -466 -618 -484 -637 -12 -13 -20 -10 -60 19 l-47 33 -24 -29 c-12 -16
-23 -32 -23 -36 0 -8 576 -448 588 -448 8 0 80 90 169 211 11 14 7 21 -28 45
l-40 27 -67 -66 c-37 -37 -74 -67 -81 -67 -23 0 -281 202 -274 214 31 51 498
652 509 654 8 2 33 -10 56 -27 l42 -31 23 27 c12 16 22 33 22 38 0 8 -277 225
-298 233 -4 1 -18 -12 -31 -29z M14213 2962 c-340 -215 -371 -237 -362 -255 6
-10 35 -57 65 -103 l54 -84 28 14 c58 32 57 30 23 89 -47 82 -44 89 52 151 45
29 92 58 104 64 20 11 32 -5 242 -338 122 -192 221 -356 221 -364 0 -9 -19
-28 -42 -42 -24 -15 -45 -28 -47 -30 -2 -1 7 -18 20 -36 12 -18 23 -34 24 -36
2 -2 312 192 322 202 3 3 -5 21 -17 41 -25 40 -14 41 -96 -12 -22 -14 -27 -14
-38 -2 -7 8 -71 106 -141 219 -71 113 -168 267 -217 344 -48 76 -86 141 -84
145 12 19 208 132 220 128 8 -3 33 -31 55 -61 l41 -55 35 20 c19 12 37 24 40
29 4 7 -96 175 -118 196 -9 9 -103 -46 -384 -224z M5900 2843 c-11 -19 -18
-38 -16 -42 3 -4 23 -16 46 -26 26 -12 40 -25 40 -36 0 -11 -22 -58 -48 -106
-27 -49 -67 -122 -89 -163 -22 -41 -84 -156 -138 -255 -53 -99 -104 -188 -112
-198 -15 -16 -18 -16 -59 8 -23 14 -45 25 -48 25 -3 0 -14 -17 -25 -38 l-19
-38 111 -59 c204 -110 272 -146 332 -179 33 -18 94 -52 137 -75 l76 -41 25 43
c13 23 45 81 71 129 l47 87 -43 22 -43 22 -20 -28 c-62 -86 -97 -125 -113
-125 -13 0 -286 141 -301 155 -4 5 377 715 394 733 10 11 21 9 63 -12 l52 -26
19 38 20 39 -87 46 c-48 26 -124 67 -169 91 l-82 44 -21 -35z M13056 2367
l-49 -21 6 -215 c4 -119 10 -347 14 -508 l6 -292 -56 -25 -56 -25 17 -39 17
-40 35 15 c19 8 89 37 155 65 66 27 124 53 128 58 5 4 2 24 -7 44 l-15 36 -52
-20 c-38 -15 -55 -18 -63 -10 -6 6 -12 64 -14 139 l-4 128 179 76 178 76 93
-92 c50 -50 92 -99 92 -108 0 -10 -19 -24 -49 -37 l-50 -20 16 -41 c13 -34 18
-38 37 -31 37 14 341 142 344 145 2 1 -4 21 -13 43 l-17 40 -41 -19 c-23 -10
-47 -19 -54 -19 -6 0 -168 162 -359 360 -191 198 -352 360 -358 359 -6 0 -33
-10 -60 -22z m238 -354 c64 -68 116 -127 116 -131 0 -7 -166 -81 -286 -129 -9
-3 -14 36 -18 134 -3 76 -8 183 -11 238 l-5 100 43 -45 c25 -25 97 -100 161
-167z M7165 1839 c-154 -187 -299 -361 -321 -387 l-41 -47 -44 12 c-24 6 -51
14 -60 18 -12 4 -19 -4 -28 -36 -7 -22 -11 -42 -9 -44 2 -1 78 -27 169 -57
l167 -56 11 38 c6 20 11 40 11 43 0 3 -22 13 -50 22 -27 9 -52 20 -55 25 -4 7
59 93 161 219 4 5 373 -119 378 -128 8 -12 10 -260 3 -267 -6 -6 -57 5 -101
22 -8 3 -17 -11 -25 -37 -7 -22 -11 -42 -9 -44 2 -1 82 -28 178 -60 96 -32
180 -60 186 -62 8 -3 34 56 34 79 0 3 -21 11 -46 18 -30 9 -48 20 -53 34 -4
12 -18 239 -30 506 -12 266 -25 487 -29 491 -8 7 -102 39 -111 38 -3 0 -132
-153 -286 -340z m278 24 c10 -242 9 -306 -5 -301 -7 3 -77 26 -156 52 -105 35
-140 51 -135 61 15 24 278 345 284 345 3 0 9 -71 12 -157z M11775 1943 c-38
-6 -484 -102 -507 -109 -9 -3 -15 -10 -13 -17 2 -7 6 -25 10 -41 5 -26 8 -28
41 -21 20 3 41 8 47 10 7 3 17 1 24 -3 13 -8 186 -785 181 -812 -2 -9 -22 -19
-51 -25 -26 -5 -47 -13 -47 -17 0 -85 -7 -83 181 -43 216 47 199 40 192 78 -8
46 -16 51 -65 39 -33 -9 -46 -8 -55 1 -11 11 -88 346 -81 351 12 9 168 36 209
36 97 0 142 -44 189 -186 56 -166 114 -208 251 -179 40 9 74 17 76 19 2 2 1
21 -3 43 l-6 40 -44 -5 c-56 -6 -77 11 -100 82 -50 153 -116 227 -215 244
l-43 7 45 27 c96 56 135 128 127 232 -10 113 -61 197 -142 231 -40 17 -149 27
-201 18z m94 -113 c49 -25 79 -73 93 -149 20 -105 -25 -178 -133 -216 -45 -16
-212 -56 -216 -51 -10 9 -83 380 -76 386 12 12 191 48 246 49 30 1 62 -6 86
-19z M8450 1859 c0 -15 -3 -34 -6 -43 -5 -12 5 -16 45 -22 28 -4 55 -12 59
-18 9 -10 -87 -784 -102 -821 -4 -12 -16 -14 -59 -9 l-54 6 -7 -37 c-4 -20 -5
-39 -2 -42 6 -6 397 -59 506 -69 85 -7 185 8 239 36 81 41 120 117 121 233 0
119 -37 175 -150 226 -28 12 -39 22 -30 25 8 2 32 10 54 16 97 30 152 128 144
255 -5 84 -36 131 -114 172 -79 41 -118 49 -401 87 l-243 32 0 -27z m402 -113
c104 -17 164 -47 190 -96 34 -64 19 -166 -33 -225 -49 -55 -111 -65 -266 -43
-98 13 -92 -8 -62 220 l22 158 31 0 c17 0 70 -6 118 -14z m-57 -451 c184 -28
245 -79 245 -202 -1 -103 -47 -172 -133 -195 -40 -10 -69 -10 -178 4 -72 9
-132 18 -134 20 -1 2 8 82 21 178 13 96 23 183 24 193 0 21 23 22 155 2z
M10166 1754 c-83 -20 -173 -70 -233 -131 -190 -193 -189 -571 2 -772 94 -98
200 -141 352 -141 156 0 274 44 369 137 98 97 144 220 144 388 0 331 -197 538
-509 534 -36 0 -92 -7 -125 -15z m303 -124 c111 -60 164 -157 181 -332 24
-252 -54 -415 -225 -473 -68 -22 -177 -22 -251 1 -46 14 -72 30 -115 74 -69
68 -97 136 -112 273 -19 172 12 303 94 392 74 80 144 106 274 102 80 -3 97 -7
154 -37z"/></g>
      <g fill="#262153"><path d="M11386 13948 c-9 -12 -16 -30 -16 -40 0 -25 -54 -229 -93 -348 -67
-205 -242 -680 -252 -680 -1 0 -22 9 -46 20 -32 14 -66 20 -124 20 -97 0 -162
-27 -241 -98 -28 -26 -84 -68 -125 -93 -233 -147 -445 -406 -610 -744 -114
-235 -243 -611 -268 -786 -12 -80 -28 -489 -19 -489 3 0 23 39 43 88 74 171
207 449 292 607 268 499 468 729 722 828 59 23 100 31 184 37 92 6 117 12 172
39 97 48 158 131 175 239 5 30 15 59 22 63 24 15 381 151 548 209 91 32 215
70 275 85 61 15 116 32 123 37 32 26 0 78 -48 78 -72 0 -466 -144 -779 -284
-69 -31 -130 -56 -137 -56 -7 0 -15 14 -19 30 -4 17 -22 51 -41 75 -19 25 -34
48 -34 51 0 2 34 82 76 177 164 369 304 748 320 867 5 41 3 54 -11 70 -25 27
-70 26 -89 -2z M10539 11850 c-251 -293 -622 -895 -861 -1400 l-88 -185 0
-2142 0 -2143 -200 0 -200 0 0 -230 0 -230 945 0 945 0 0 230 0 230 -237 2
-238 3 -5 2965 -5 2966 -56 -66z M6775 9619 c-130 -16 -317 -57 -433 -94 -142
-47 -404 -178 -522 -262 -118 -84 -345 -309 -424 -421 -191 -269 -317 -588
-373 -942 -25 -164 -25 -596 0 -760 105 -665 420 -1154 937 -1449 316 -181
721 -281 1140 -281 915 1 1550 422 1795 1193 21 64 36 119 34 121 -8 7 -592
247 -594 244 -1 -2 -18 -52 -39 -111 -155 -455 -430 -707 -864 -794 -135 -27
-433 -24 -572 6 -483 103 -799 444 -905 979 -18 89 -33 230 -26 237 2 3 679 5
1503 5 1325 0 1498 2 1498 15 0 8 5 15 11 15 17 0 4 502 -16 650 -55 397 -187
735 -391 996 -268 345 -641 557 -1124 640 -114 19 -514 28 -635 13z m560 -633
c322 -83 520 -280 629 -626 32 -99 62 -264 71 -387 l8 -93 -1058 0 -1058 0 7
68 c16 155 69 347 136 489 131 279 376 481 666 549 119 27 185 33 344 29 125
-3 174 -9 255 -29z M13100 9454 c-477 -57 -827 -196 -1125 -446 -347 -291
-561 -713 -626 -1233 -18 -144 -15 -483 5 -634 64 -477 230 -836 521 -1126
337 -336 789 -513 1360 -532 813 -27 1396 289 1687 915 36 78 122 321 116 327
-2 2 -493 211 -545 232 -7 3 -23 -33 -42 -94 -145 -467 -464 -726 -952 -774
-640 -61 -1089 250 -1238 858 -46 190 -56 284 -55 558 1 208 5 269 22 365 29
162 65 279 121 396 68 141 119 215 226 319 147 145 308 228 535 276 135 29
402 31 555 5 273 -46 471 -161 586 -339 40 -61 48 -87 28 -87 -32 0 -147 -69
-203 -121 -252 -235 -204 -670 90 -826 33 -18 87 -39 119 -48 75 -19 221 -19
304 0 195 46 355 203 429 420 25 77 27 88 26 285 0 190 -2 212 -27 303 -58
218 -150 378 -307 537 -232 235 -542 379 -955 446 -96 15 -567 28 -655 18z"/></g>
    </g>
  </g>
</svg>
