<?xml version="1.0" encoding="UTF-8"?>
<svg id="Layer_2" data-name="Layer 2" xmlns="http://www.w3.org/2000/svg" xmlns:xlink="http://www.w3.org/1999/xlink" viewBox="0 0 160 90">
  <defs>
    <style>
      .cls-1 {
        fill: #231f20;
      }

      .cls-2 {
        fill: url(#linear-gradient);
      }
    </style>
    <linearGradient id="linear-gradient" x1="32.85" y1="44.57" x2="62.65" y2="44.57" gradientUnits="userSpaceOnUse">
      <stop offset="0" stop-color="#28ff9d"/>
      <stop offset=".34" stop-color="#65ff74"/>
      <stop offset=".64" stop-color="#94ff54"/>
      <stop offset=".87" stop-color="#b2ff41"/>
      <stop offset="1" stop-color="#bdff3a"/>
    </linearGradient>
  </defs>
  <path class="cls-2" d="M62.65,41.86c0,7.73-6.67,15.2-14.9,16.7s-14.9-3.55-14.9-11.27,6.67-15.2,14.9-16.7c8.23-1.5,14.9,3.55,14.9,11.27Z"/>
  <g id="_2yHYuo.tif" data-name="2yHYuo.tif">
    <g>
      <g>
        <path class="cls-1" d="M113.5,47.22l-.16.97c-.07.44-.23.88-.17,1.25.5-.09.51-.41.6-.74l.3-1.16,1.02-3.36,1.47-4.91.28-.92.28-.95.75-2.47.95-3.25.23-1.02h5.84s-.18.58-.18.58l-2.38,6.87-3.32,9.72-1.94,5.61-1.81,5.13c-.11.31-.14.58-.14,1.1h-6.48s.09-1.55.09-1.55l.34-1.87.17-.98.18-1.12.28-1.7.32-1.61.15-1.25.19-.91.16-.98.33-1.81c.05-.27.04-.52-.08-.81-.4.36-.35.61-.48.99l-2,6.04-2.47,7.56h-6.32c-.1-.71.03-1.34.23-1.95.02-.52.16-.9.21-1.39l.13-1.28.33-1.85.28-1.7.18-1.11.18-1.23.33-1.97.27-1.45.13-1.27c.2-.45.32-.89.09-1.36l-.41,1.19-2.41,6.94-2.51,7.35c-.11.33-.15.65-.2,1.08h-6.64s.38-1.98.38-1.98l.18-1.09.17-1.1.37-2.1.22-1.22.17-1.18.25-1.46.33-1.95.27-1.59.2-.82h-.43c-.1-.01-.1.29-.14.39l-.26.82-1.97,6.07-1.13,3.53-.88,2.56c-.12.36-.2.68-.24,1.12h-6.44c-.03-.72.07-1.33.19-1.96l.3-1.69.16-1.35.2-1,.17-.98.28-1.96.34-2.05.25-1.57.27-1.72.32-1.91-.36.1c-.11.03-.1.37-.13.47l-1.2,3.64-.5,1.38-3.22,9.31-.44,1.28h-6.35c-.14-.43.05-.93.13-1.39l.29-1.69.3-1.72.25-1.44.27-1.6.32-1.85.27-1.55.27-1.46.18-1.3.12-.37c.03-.09-.18-.14-.33-.16-.1-.01-.14.19-.14.37l-.84,2.44-1.14,3.52-1.94,5.84-.37,1.23-.25,1.12h-6.47s.23-2,.23-2l.22-1.57.25-1.58.31-1.94.28-1.71.2-1.34.16-.98.31-1.9.29-1.66.16-1.29.24-1.35.32-1.95.28-1.7.18-1.1.19-1.35.32-1.95.27-1.47.13-1.18.23-1.01h5.59c.04.59-.07,1.1-.18,1.62l-.32,1.54-.26,1.25-.27,1.34-.27,1.35-.31,1.36-.29,1.4-.24,1.24-.29,1.46-.3,1.49-.25,1.2-.27,1.35-.3,1.42-.14.75.46-.11c.12-.03.14-.36.11-.53l2.01-6.08,3.03-9.11.65-1.94c.11-.33.19-.6.24-1.02h3.89s-.18,1.12-.18,1.12l-.28,1.68-.31,1.85-.27,1.56-.23,1.26-.32,1.78-.17,1.09c-.06.4-.13.7-.19,1.12l-.17,1.11-.28,1.71-.33,1.82-.21,1.07-.19,1.67c.69-.21.55-.81.69-1.26l.27-.87.3-1.15,1.01-3.23.59-2.09.81-2.69,1.68-5.67.61-1.88h9.25c0,.69-.11,1.28-.27,1.91l-.26,1.08-.15,1.02-.22.98-.37,1.95-.28,1.46-.22,1.1-.34,1.59-.26,1.21-.19.98-.19.99-.32,1.5-.28,1.29c-.1.49-.1.89-.3,1.36-.04.1.06.38.16.36.2-.04.26-.15.34-.38l3.15-9.62.62-1.94.87-2.66,1.38-4.19h3.85s-.35,1.97-.35,1.97l-.19,1.02-.17,1.28-.24,1.34-.35,1.96-.16.97-.2,1.34-.28,1.7-.31,1.73-.27,1.57-.25,1.45-.29,1.61c-.06.33-.07.7-.02.95.61-.19.41-.6.52-.95l.66-2.13,1.99-6.75.28-1,1.8-6.07.61-1.98h9.51c-.24.61-.26.9-.36,1.37l-.18.84-.28,1.35-.3,1.47-.27,1.34-.25,1.21-.3,1.43-.28,1.36-.27,1.45-.24,1.24-.34,1.6-.25,1.2-.26,1.22-.35,1.4c-.03.12.12.32.23.3.22-.03.23-.15.3-.37l.83-2.57,1.11-3.28.86-2.68,1.08-3.18,1.97-6.08c-.04-.15.2-.62.36-.62h3.57c0,.44-.03.92-.1,1.29l-.18.9-.18,1.12-.35,1.94-.26,1.34-.15,1.19-.24,1.23-.35,1.94-.18.98-.18,1.12-.27,1.7-.32,1.81Z"/>
        <path class="cls-1" d="M130.14,57.95c-.15.59-.26.96-.25,1.71h-10.63s.13-.84.13-.84l.27-1.12.27-1.1.26-1.05.34-1.36.25-1,.26-1.05.32-1.25.25-1,.28-1.22.26-1.03.3-1.16.27-1.1.26-1.1.29-1.1.28-1.09.27-1.1.28-1.15.29-1.16.27-1.1.24-.96.32-1.24.28-1.09.26-1.1.28-1.15.3-1.43h5.84s-.24.98-.24.98l-.28,1.15-.3,1.18-.24.86-.31,1.27-.28,1.17-.27,1.09-.28,1.07-.3,1.14-.24.96-.27,1.1-.31,1.26-.27,1.05-.27,1.09-.27,1.09-.29,1.16-.26,1.05-.26,1.11-.32,1.24-.26,1.04-.29,1.25c-.03.11,0,.39.11.39l4.58.02-.37,1.37-.28,1.22-.26.98Z"/>
        <path class="cls-1" d="M140.3,51.6l-2.04,8.07h-5.62c.03-.52,1.92-8.21,1.92-8.21l.9-20.81h5.65s-.08,1.21-.08,1.21c-.03.41-.14.71-.19,1.11l-.17,1.37-.24,1.65-.24,1.62-.19,1.32-.18,1.24-.25,1.86c-.07.56-.21.94-.03,1.44.37-.36.39-.52.51-.85l1.02-2.86,3.22-9.12h5.76s-1.17,2.56-1.17,2.56l-.93,1.99-.5,1.1-.94,1.98-2.34,4.97-3.87,8.35Z"/>
      </g>
      <g>
        <path class="cls-1" d="M42.56,51.07c-.44.22-1.08.69-1.46.23-.36-.43.02-1.19.12-1.63l2.79-11.16c.07-.25.26-.71.43-.91,0,0,.37-.34.96.03l1.18.76,1.57,1.01,1.46.96,1.79,1.15,1.27.8,2.21,1.45c.13.09.33.29.41.4s.08.4-.14.6c-1.33.84-5.69,2.92-5.69,2.92l-1.99.96-1.93.96-2.96,1.46Z"/>
        <g>
          <path class="cls-1" d="M16.34,57.4l-.27,1.11-.21,1.17h-5.88c-.08-.27.06-.56.16-.88l.32-.97.24-.99.31-1.28.28-1.15.27-1.09.26-1,.32-1.21.26-1.08.27-1.09.25-.97.33-1.24.24-.96.29-1.21.3-1.15.27-1.05.27-1.1.27-1.09.31-1.25.27-1.07.25-1,.34-1.33.29-1.3.92-3.56h10.62c-.16.37-.25.63-.33.96l-.33,1.35-.27,1.1c-.11.43-.18.81-.24,1.35l-4.58.03c-.26,0-.43.61-.49.83l-.28,1.08-.28,1.11-.26,1.05-.31,1.26-.23,1.02c-.02.11-.11.3-.23.57l4.47.04c0,.46-.11.75-.2,1.13l-.3,1.29-.27,1.09-.43,1.5h-4.33c-.26.32-.34.75-.44,1.14l-.27,1.11-.24.96-.31,1.25-.3,1.2-.26,1.07-.59,2.32-.24.95Z"/>
          <path class="cls-1" d="M32.7,57.68l-.28,1.06-.08.94h-10.6s.16-.91.16-.91l.26-1.08.27-1.09.29-1.14.31-1.29.25-.99.55-2.15.23-1.03.9-3.56.31-1.27.32-1.25.24-.96.27-1.1.29-1.16.28-1.15.26-1.1.27-1.09.3-1.14.27-1.05.27-1.1.29-1.16.29-1.17c.08-.33.1-.78.35-1.08h5.61c-.03.42-.11.75-.2,1.12l-.28,1.08-.31,1.25-.26,1.08-.25,1-.32,1.24-.27,1.05-.25,1.01-.29,1.17-.29,1.13-.28,1.19-.29,1.21-.3,1.23-.27,1.08-.61,2.46-.23.96-.27,1.09-.3,1.14-.27,1.05-.31,1.14,4.66.02c.13.25-.03.63-.11.93l-.32,1.22-.27,1.16Z"/>
        </g>
      </g>
    </g>
  </g>
</svg>