<?xml version="1.0" encoding="UTF-8"?>
<svg id="Layer_2" data-name="Layer 2" xmlns="http://www.w3.org/2000/svg" viewBox="0 0 160 90">
  <defs>
    <style>
      .cls-1 {
        fill: #f5f6f7;
      }

      .cls-2 {
        fill: #f49a3c;
      }

      .cls-3 {
        fill: #fbc187;
      }

      .cls-4 {
        fill: #aedee3;
      }

      .cls-5 {
        fill: #1e88c5;
      }

      .cls-6 {
        fill: #12bdd2;
      }

      .cls-7 {
        fill: #6f8bc6;
      }

      .cls-8 {
        fill: #1b5884;
      }

      .cls-9 {
        fill: #0cbdd1;
      }

      .cls-10 {
        fill: #d58fb3;
      }

      .cls-11 {
        fill: #201d53;
      }

      .cls-12 {
        fill: #19658d;
      }

      .cls-13 {
        fill: #fad09d;
      }

      .cls-14 {
        fill: #58bbea;
      }

      .cls-15 {
        fill: #f79a34;
      }

      .cls-16 {
        fill: #f29a41;
      }

      .cls-17 {
        fill: #a88ec2;
      }

      .cls-18 {
        fill: #1d5a85;
      }

      .cls-19 {
        fill: #ee7331;
      }

      .cls-20 {
        fill: #f39b41;
      }

      .cls-21 {
        fill: #1a5c87;
      }

      .cls-22 {
        fill: #14bdd1;
      }

      .cls-23 {
        fill: #aedee2;
      }

      .cls-24 {
        fill: #ee9b3c;
      }

      .cls-25 {
        fill: #221f53;
      }

      .cls-26 {
        fill: #f27331;
      }

      .cls-27 {
        fill: #1487a6;
      }

      .cls-28 {
        fill: #49addd;
      }

      .cls-29 {
        fill: #f79c6b;
      }

      .cls-30 {
        fill: #185f8a;
      }

      .cls-31 {
        fill: #175782;
      }

      .cls-32 {
        fill: #e1dccb;
      }

      .cls-33 {
        fill: #75cfee;
      }

      .cls-34 {
        fill: #1a7599;
      }

      .cls-35 {
        fill: #b2dfe1;
      }

      .cls-36 {
        fill: #0ebdd0;
      }

      .cls-37 {
        fill: #16517e;
      }
    </style>
  </defs>
  <path class="cls-25" d="M37.34,38.97s-.03-.02-.03-.05l-3.05-.36-5.08.64-5.47,3.25-1.79,2.26-5.57,7.09c-.15.19-.3.41-.13.62l.33.41-.92,1.51c-.2-.22-.59-.35-.76-.07l-4.6,7.67c-.08.14-.14.34-.07.48.06.1.16.27.33.27h8.84c.11,0,.27-.14.3-.24l1.19-3.08c.1-.25.05-.48-.17-.66l.55-.85c.16.08.24.12.35.1l4.3-.87,2.31-1.29,3.72-.82,3.13-.94c.39-.12.72-.43.86-.8.19-.51.12-1.08-.16-1.56-.25-.41-.65-.64-1.08-.82l.09-2.5c.07-.05.16.02.07.09.45.85,1.18,1.47,2.17,1.47.52,0,1.03-.21,1.31-.66.06-.1.03-.31-.02-.43l-1.32-3.48c-.04-.11-.1-.24-.2-.31l-3.44-2.74,1.04-.23h1.74c1.18.02,2.3-.7,2.5-1.88-.34-.46-1.1-.64-1.27-1.22ZM29.12,40.23c.07.07.09.11.1.14l.2.58.5,1.32s0,.12-.01.15c-.01.02-.04.03-.08.05l-2.87,2.03-1.56-1.18-.64-.5,4.35-2.58ZM33.21,48.39l-.79.23-.77-1.01c-.13-.17-.2-.3-.07-.53l.41-.72c.09-.16.1-.39.31-.56l1.43,2.4c-.17.12-.35.13-.51.18ZM33.9,49.05v.81s-.06.85-.06.85c-.01.21-.35.08-.47.1l-.63.09c-.21-.41-.17-1.31.01-1.43.2-.14.46-.16.67-.25.15-.06.27-.07.49-.17ZM31.93,43.41c.06.09,0,.19-.02.3l-.2,1.01c-.19.15-.46.12-.7.15l-.57.07-.88.09-.95.09-.13-.65,1.36-.97.73-.51c.37-.26,1.53-.16,1.48-.21.08.07.02.45-.11.64ZM31.35,45.69l-.64,1.29-1.17-.04c-.2,0-.39.02-.57-.07l-.15-.81c-.03-.16.19-.11.28-.12l.64-.07.49-.05,1.11-.13ZM28.19,47.25l-1.81,3.1-.96-1.66,1.82-3.28c.13-.17.27-.28.48-.38l.46,2.22ZM24.06,43.39l.52.36,1.83,1.37-1.57,2.81c-.06.11-.14.3-.25.33l-.69.07h-.8c-.13,0-.24,0-.34.13l-4.32,5.14-.93-.97-.4-.44,6.93-8.8ZM12.27,61.86h-.19c-.24-.02-.5.02-.72-.07l3.93-6.6.65.54,2.24,1.91-2.31,4.2-3.59.02ZM19.15,61.45c-.04.12-.09.41-.26.41l-1.94.02s-.08-.08-.08-.11l1.85-3.38c.04-.08.13-.12.19-.07l1.08.91-.84,2.22ZM20.03,58.14l-3.2-2.76-.55-.47.87-1.44.53.53c.09.09.18.21.28.31l.74.79.7.75.62.67.62.71-.61.91ZM21.85,57s-.07.02-.15.08c-.17-.12-.31-.31-.47-.48l-.7-.74-.63-.68c-.29-.31-.62-.58-.86-.97l4.24-5.04h.89s.51-.05.51-.05l1.13,2-1.7-.31c-.32-.06-.53,0-.74.24l-1.88,2.15c-.2.23-.32.41-.25.72l.61,2.9c.01.07,0,.15,0,.18ZM27.47,55.24l-1.86,1.01-1.34.31c-.07.02-.12.02-.2.04l-.75.15-.3.06c-.07.01-.17.05-.26.01-.02,0-.14-.63-.15-.55v-.12c-.05-.08-.05-.16-.07-.23l-.34-1.65-.1-.47,1.77-2.01c.06-.06.12-.13.17-.12l.18.04,3.09.59c.17.21-.01.56.1.76.04.09.03.12.02.21-.01.16.04.32.05.47l.04.58.04.55c0,.06.06.15.04.22-.01.05-.06.12-.13.16ZM31.34,54.23l-2.95.66c-.01-.29-.04-.5-.05-.72l-.02-.45-.05-.69c-.02-.22-.09-.46-.02-.71l2.81-.31.12.69.04.23c.04.21.03.39.07.57l.09.48c.01.06.07.24-.04.26ZM27.8,51.49c-.32.03-.63-.14-.97-.19l.56-1.03,1.46-2.52,1.89.07,1.08,1.47c-.13.58-.13,1.13.03,1.76l-4.07.44ZM35.04,52.16c.3.46.12.93-.16,1.02l-2.62.83-.25-1.49-.1-.54s.06-.11.08-.11l1.87-.26c.48-.07.93.18,1.18.55ZM34.08,47.12c.13,0,.25.09.28.18l.21.49s.05.15,0,.23l-.48-.89ZM37.44,48.96c-.17.12-.36.12-.56.11-.43-.01-.79-.26-1.05-.61-.21-.29-.33-.6-.47-.93l-.18-.43.67-.58c.16-.14.29-.31.51-.4l1.08,2.84ZM35.87,45.39l-.46.39-.78.67-2.11-1.45.28-1.22c.05-.23.05-.77.18-.67l2.89,2.28ZM33.85,41.31l-3.13.72-.5-1.39-.25-.67,3.87-.49.02.72v1.11ZM37.68,40.4c-.33.58-1,.85-1.67.83l-1.32-.03v-1.09s0-.66,0-.66l3.05.38c.08.18.03.39-.07.56Z"/>
  <path class="cls-36" d="M17.53,52.62l6.73-8.55c.11-.14.18-.25.32-.33l1.83,1.37-1.57,2.81c-.06.11-.14.3-.25.33l-.69.07h-.8c-.13,0-.24,0-.34.13l-4.32,5.14-.93-.97Z"/>
  <path class="cls-36" d="M12.27,61.86l3.3-5.65c.11-.19.18-.36.37-.48l2.24,1.91-2.31,4.2-3.59.02Z"/>
  <path class="cls-18" d="M21.86,56.82c.01.07,0,.15,0,.18,0,.03-.07.02-.15.08-.17-.12-.31-.31-.47-.48l-.7-.74-.63-.68c-.29-.31-.62-.58-.86-.97l4.24-5.04h.89s.51-.05.51-.05l1.13,2-1.7-.31c-.32-.06-.53,0-.74.24l-1.88,2.15c-.2.23-.32.41-.25.72l.61,2.9Z"/>
  <path class="cls-15" d="M27.41,53.05c.04.09.03.12.02.21-.01.16.04.32.05.47l.04.58-2.02,1.02-2.67.53c-.09.02-.18.07-.29.05l-.34-1.65.37-.31.95-.88c.19-.18.36-.43.6-.53.2-.09.48.03.68.07l2.14.41c.16.03.3.07.46.04Z"/>
  <path class="cls-6" d="M29.43,40.96l.5,1.32s0,.12-.01.15c-.01.02-.04.03-.08.05l-2.87,2.03-1.56-1.18c.01-.07.06-.09.12-.13l3.69-2.18c.08-.05.13-.1.21-.05Z"/>
  <path class="cls-31" d="M26.38,50.35l-.96-1.66,1.82-3.28c.13-.17.27-.28.48-.38l.46,2.22-1.81,3.1Z"/>
  <path class="cls-23" d="M24.59,43.75c-.14.08-.21.19-.32.33l-6.73,8.55-.4-.44,6.93-8.8.52.36Z"/>
  <path class="cls-26" d="M19.15,61.45c-.04.12-.09.41-.26.41l-1.94.02s-.08-.08-.08-.11l1.85-3.38c.04-.08.13-.12.19-.07l1.08.91-.84,2.22Z"/>
  <path class="cls-35" d="M15.93,55.74c-.19.12-.26.29-.37.48l-3.3,5.65h-.19c-.24-.02-.5.02-.72-.07l3.93-6.6.65.54Z"/>
  <path class="cls-37" d="M16.83,55.37l.84-1.37c.09.09.18.21.28.31l.74.79.7.75.62.67.62.71-.61.91-3.2-2.76Z"/>
  <path class="cls-19" d="M27.52,54.31l.04.55c0,.06.06.15.04.22-.01.05-.06.12-.13.16l-1.86,1.01-1.34.31c-.07.02-.12.02-.2.04l-.75.15-.3.06c-.07.01-.16.05-.26.01-.02,0-.14-.63-.15-.55v-.12c-.05-.08-.05-.16-.07-.23.11.01.2-.04.29-.05l2.67-.53,2.02-1.02Z"/>
  <path class="cls-36" d="M33.85,40.2v1.11s-3.13.72-3.13.72l-.5-1.39c.24-.07.49-.06.73-.09l.85-.1,2.06-.25Z"/>
  <path class="cls-30" d="M31.93,43.41c.06.09,0,.19-.02.3l-.2,1.01c-.19.15-.46.12-.7.15l-.57.07-.88.09-.95.09-.13-.65,1.36-.97.08.07s.12-.04.16-.04l.71-.04.82-.03c.12,0,.22-.07.31-.04Z"/>
  <path class="cls-13" d="M27.41,53.05c-.16.03-.3,0-.46-.04l-2.14-.41c-.2-.04-.49-.16-.68-.07-.24.11-.41.35-.6.53l-.95.88-.37.31-.1-.47,1.77-2.01c.06-.06.12-.13.17-.12l.18.04,3.09.59c.17.21-.01.56.1.76Z"/>
  <path class="cls-9" d="M35.04,52.16c.3.46.12.93-.16,1.02l-2.62.83-.25-1.49.22-.06,1.44-.26c.35-.06.7-.1,1.04-.03.12.02.22.05.33-.02Z"/>
  <path class="cls-23" d="M29.43,40.96c-.08-.06-.13,0-.21.05l-3.69,2.18c-.07.04-.11.06-.12.13l-.64-.5,4.35-2.58c.07.07.09.11.1.14l.2.58Z"/>
  <path class="cls-34" d="M35.41,45.78l-.78.67-2.11-1.45.28-1.22c.09.01.14.07.2.11l2.42,1.89Z"/>
  <path class="cls-22" d="M31.17,52.69l.04.23c.04.21.03.39.07.57-.09.05-.16.05-.25.07l-2.7.6-.02-.45-.05-.69c.13.01.24-.03.35-.04l2.56-.29Z"/>
  <path class="cls-4" d="M33.85,40.2l-2.06.25-.85.1c-.24.03-.49.02-.73.09l-.25-.67,3.87-.49.02.72Z"/>
  <path class="cls-6" d="M35.26,40.17c-.2-.02-.38-.09-.56-.04v1.09s1.31.03,1.31.03c.67.01,1.34-.25,1.67-.83l-.55-.05-1.87-.19Z"/>
  <path class="cls-31" d="M28.97,46.86l-.15-.81c-.03-.16.19-.11.28-.12l.64-.07.49-.05,1.11-.13-.64,1.29-1.17-.04c-.2,0-.39.02-.57-.07Z"/>
  <path class="cls-12" d="M31.28,53.49l.09.48c.01.06.07.24-.04.26l-2.95.66c-.01-.29-.04-.5-.05-.72l2.7-.6c.09-.02.16-.03.25-.07Z"/>
  <path class="cls-2" d="M35.41,45.78l-2.42-1.89c-.06-.05-.11-.1-.2-.11.05-.23.05-.77.18-.67l2.89,2.28-.46.39Z"/>
  <path class="cls-27" d="M35.85,46.52s.07.02.08.04l.03.09.6,1.48.32.94c-.43-.01-.79-.26-1.05-.61-.21-.29-.33-.6-.47-.93l-.18-.43.67-.58Z"/>
  <path class="cls-23" d="M31.17,52.69l-2.56.29c-.11.01-.22.06-.35.04-.02-.22-.09-.46-.02-.71l2.81-.31.12.69Z"/>
  <path class="cls-8" d="M31.98,46.38c.06.03.09.06.12.11l.87,1.46c.09.15.2.29.24.45l-.79.23-.77-1.01c-.13-.17-.2-.3-.07-.53l.41-.72Z"/>
  <path class="cls-4" d="M34.7,39.46v.66c.18-.04.36.03.56.04l1.87.19.55.05c.1-.17.15-.38.07-.56l-3.05-.38Z"/>
  <path class="cls-23" d="M35.04,52.16c-.1.07-.21.04-.33.02-.35-.07-.7-.04-1.04.03l-1.44.26-.22.06-.1-.54s.06-.11.08-.11l1.87-.26c.48-.07.93.18,1.18.55Z"/>
  <path class="cls-32" d="M36.88,49.07l-.32-.94-.6-1.48-.03-.09s-.05-.02-.08-.04c.16-.14.29-.31.51-.4l1.08,2.84c-.17.12-.36.12-.56.11Z"/>
  <path class="cls-24" d="M33.21,48.39c-.03-.16-.14-.3-.24-.45l-.87-1.46s-.06-.08-.12-.11c.09-.16.1-.39.31-.56l1.43,2.4c-.17.12-.35.13-.51.18Z"/>
  <polygon class="cls-33" points="17.67 54 16.83 55.37 16.28 54.91 17.15 53.47 17.67 54"/>
  <path class="cls-16" d="M31.93,43.41c-.1-.03-.2.03-.31.04l-.82.03-.71.04s-.11.08-.16.04l-.08-.07.73-.51c.37-.26,1.53-.16,1.48-.21.08.07.02.45-.11.64Z"/>
  <path class="cls-21" d="M33.41,49.22l-.02.83-.03.76-.63.09c-.21-.41-.17-1.31.01-1.43.2-.14.46-.16.67-.25Z"/>
  <path class="cls-20" d="M33.36,50.81l.03-.76.02-.83c.15-.06.27-.07.49-.17v.81s-.06.85-.06.85c-.01.21-.35.08-.47.1Z"/>
  <path class="cls-1" d="M34.57,47.79s.05.15,0,.23l-.48-.89c.13,0,.25.09.28.18l.21.49Z"/>
  <g>
    <path class="cls-11" d="M81.18,55.98h-9.68c-.77,0-1.07-.13-1.23-.54-.13-.33-.15-.69-.16-1.07v-19.52s3.69,0,3.69,0l.04,18.64c0,.21.09.4.26.54.18.15.44.22.66.19.43-.08.68-.4.68-.87l-.02-17.91v-1.45c-.01-.34-.33-.74-.74-.74h-5.33c-.5,0-.84.34-.84.85v20.43c0,.54.1,1.06.3,1.54.39.96,1.2,1.46,2.47,1.52h9.07s0,3.55,0,3.55h-11.09c-.45.04-.77.4-.74.85.03.45.37.76.84.76h11.8c.43,0,.8-.35.8-.77v-5.16c0-.39-.29-.82-.76-.82Z"/>
    <path class="cls-11" d="M64.79,48.93l-6.76-.69c-.21-.02-.42.05-.58.19-.17.15-.27.37-.27.59v2.82c.03.34.24.71.65.77l.91.13v5.92c0,.45.35.81.8.82.21-.02.41-.08.56-.23.16-.15.24-.36.24-.58v-6.6c0-.37-.21-.68-.54-.8l-1.02-.14v-1.14s5.08.51,5.08.51v7.47c0,.07-.04.14-.09.23l-.76.96c-.93,1.05-2.1,1.81-3.38,2.19-1.68.5-3.12.09-3.95-1.13-.22-.33-.36-.64-.44-1.02-.16-.72-.26-1.49-.33-2.49-.1-1.41-.15-2.85-.15-4.41v-4.29c0-1.27.05-2.58.16-3.98.08-.98.19-1.79.34-2.55.11-.53.27-.98.48-1.39.22-.41.56-.63,1.03-.65.37,0,.52.15.6.27.16.25.29.54.36.85.16.65.25,1.19.27,1.73l.13,2.7c0,.19.11.38.28.52.18.16.4.24.6.22l5.73-.51c.46-.04.75-.45.71-.99-.14-1.81-.36-3.19-.72-4.49-.52-1.86-1.25-3.32-2.26-4.46-1.02-1.16-2.36-1.94-3.85-2.26-1.32-.28-2.66-.26-3.98.07-2.26.55-4.09,2.16-5.28,4.65-1.57,3.27-1.88,7.58-1.86,10.62.03,4.66.66,8.09,1.95,10.51.48.9.96,1.57,1.52,2.1.13.13.32.19.51.18.23-.02.46-.14.59-.32.26-.34.24-.77-.04-1.08-.95-1.03-1.67-2.48-2.15-4.31-.27-1.05-.46-2.12-.58-3.27-.25-2.45-.26-4.93-.05-7.39.25-2.82.86-5.13,1.83-6.87.62-1.13,1.76-2.58,3.66-3.14,1.15-.34,2.38-.39,3.54-.14,1.78.38,3.21,1.59,4.13,3.52.7,1.48,1.13,3.24,1.34,5.53l-4.05.34v-.16c-.06-1.4-.11-2.85-.56-4.23-.53-1.46-1.42-1.79-2.07-1.81-1.01-.03-1.78.26-2.33.9-.77.89-1.06,2.19-1.2,3.1-.27,1.64-.41,3.79-.41,6.37v3.89c0,1.83.05,3.34.16,4.75.08,1.07.2,1.91.39,2.73.34,1.49,1.36,2.72,2.73,3.28.57.23,1.2.35,1.85.35,1.05,0,2.19-.3,3.33-.89.89-.47,1.7-1.09,2.46-1.9.73-.78,1.41-1.61,1.41-2.35v-8.33c0-.35-.33-.71-.69-.75Z"/>
    <path class="cls-11" d="M91.09,33.25h-5.36c-.36,0-.72.36-.72.73v3.26c0,.21.09.4.24.55.16.15.39.24.6.22.42-.03.74-.37.76-.8v-2.35s3.63,0,3.63,0v26.27h-3.63v-18.77c.05-.9.28-1.3.79-1.36l1.16-.03c.49-.01.83-.28.88-.71.03-.23-.05-.47-.2-.65-.14-.16-.34-.25-.56-.25h-.73s-.02,0-.04,0c-1.37,0-2.32.6-2.68,1.69-.15.47-.23.94-.23,1.44v19.46c0,.21.08.41.22.56.15.15.37.24.6.24h5.2c.44,0,.8-.36.8-.81v-27.85c0-.4-.29-.82-.73-.82Z"/>
    <path class="cls-11" d="M148.98,33.27h-5.37c-.4,0-.76.35-.76.75v12.72c0,.19.08.36.21.49.16.15.39.23.61.23.46-.02.77-.34.77-.79v-11.78s3.75,0,3.75,0v26.24h-3.75s0-11.05,0-11.05c0-.46-.35-.81-.81-.81h-2.16c-.21,0-.44-.04-.74-.11-.33-.08-.56-.3-.64-.63-.09-.34-.13-.7-.13-1.13v-13.37c0-.42-.35-.75-.79-.75h-5.37c-.43,0-.8.35-.8.77v27.88c0,.46.34.81.8.81l5.4.03h0c.2,0,.38-.08.52-.21.15-.15.23-.36.23-.57v-9.25c0-.23-.15-.45-.26-.55-.23-.2-.54-.25-.84-.12-.26.11-.44.35-.47.67v8.43s-3.78-.03-3.78-.03v-26.24h3.78s0,12.71,0,12.71c.06,1.14.22,2.3,1.39,2.89h0c.49.24.97.35,1.47.36l1.59.02v11.1c0,.47.42.76.82.76h5.34c.34,0,.82-.28.82-.73v-27.98c0-.45-.44-.75-.86-.75Z"/>
    <path class="cls-11" d="M119.51,43.31c.08-.86.2-1.57.37-2.23.09-.37.24-.73.44-1.08.2-.35.5-.52.94-.55.33-.02.55.09.7.36.21.38.34.76.39,1.13l.22,1.82.1,2.24c0,.18.1.35.26.49.18.16.4.24.61.22l5.73-.51c.52-.05.75-.53.71-.99-.09-1.13-.23-2.47-.56-3.83-.55-2.33-1.41-4.08-2.63-5.35-1.04-1.09-2.37-1.8-3.83-2.07-1.16-.21-2.33-.2-3.48.04-2.27.46-4.07,1.87-5.33,4.2-2.38,4.39-2.27,10.96-1.99,14.48.1,1.25.27,2.41.53,3.55.54,2.41,1.45,4.31,2.71,5.65.18.19.43.29.68.26.24-.03.47-.19.58-.41.14-.27.18-.67-.07-.94-.6-.66-1.07-1.39-1.45-2.24-.73-1.64-1.2-3.74-1.39-6.23-.15-1.94-.16-3.82-.03-5.74.19-2.91.85-6.85,2.92-9.13.75-.83,1.65-1.4,2.65-1.7,1.11-.32,2.29-.38,3.43-.15,1.84.36,3.3,1.59,4.23,3.56.89,1.87,1.2,3.98,1.34,5.5l-4.05.34-.11-2.12c-.04-.69-.17-1.38-.41-2.19-.3-.84-.89-1.96-2.41-1.9-.97.04-1.78.48-2.26,1.24-.3.48-.52.99-.68,1.55-.22.82-.37,1.69-.48,2.84l-.21,4.12v5.31s.15,3.99.15,3.99c.04.93.3,2.73.64,3.54.35.82.91,1.53,1.64,2.06.67.49,1.44.74,2.3.74.04,0,.08,0,.12,0,3.13-.08,5.4-2.33,6.54-6.5.39-1.4.62-2.84.71-4.39.02-.33-.21-.81-.62-.84l-5.7-.43c-.21-.02-.44.06-.6.21-.13.12-.21.27-.22.43l-.05.97c0,.65-.02,1.35-.11,2.08-.12.97-.41,1.63-.85,1.96-.35.26-.46.7-.25,1.08.18.34.64.57,1.02.37.5-.26.8-.69,1.08-1.14.68-1.3.69-2.79.71-4.23v-.02s3.92.28,3.92.28c-.24,2.25-.72,4.07-1.48,5.56-.98,1.92-2.36,2.92-4.1,2.97-.63.03-1.18-.16-1.65-.55-.74-.62-1.14-1.39-1.26-2.44l-.21-1.9-.14-3.77v-5.39s.22-4.16.22-4.16Z"/>
    <path class="cls-11" d="M109.37,33.24h-13.81c-.44,0-.73.44-.73.84v5.09c0,.39.29.82.75.82h7.52c.2,0,.39.03.59.09.36.11.54.48.6,1.22v19.82h-3.65v-18.49c-.01-.24-.11-.45-.27-.6-.15-.14-.36-.22-.57-.2-.45.02-.77.37-.77.82v19.27c0,.45.35.8.8.8h5.26c.46,0,.81-.35.81-.81v-20.43c0-.53-.09-1.03-.28-1.53-.37-1.01-1.27-1.55-2.59-1.56h-6.6s0-3.54,0-3.54h12.17s0,3.66,0,3.66h-.54s0,0,0,0c-.23,0-.44.09-.59.25-.15.16-.23.37-.22.59.02.43.38.77.82.77h1.39c.43-.01.76-.38.76-.84v-5.22c0-.47-.36-.81-.85-.81Z"/>
  </g>
  <g>
    <path class="cls-25" d="M45.34,37.54l-1.28-1.93c-.08-.12-.23-.17-.35-.18l-1.36-.08c.44-.36.74-.79.91-1.28.17-.49.16-.95-.03-1.52l-1.81-5.42c-.07-.2-.28-.29-.41-.3-.51,0-1.88,1.76-2.37,2.52l-1.88-2c-.14-.15-.29-.2-.46-.16-.15.03-.28.14-.35.3l-.27.64c-1.17,2.77-.64,5.37.21,7.79-.07-.03-.14-.04-.21-.06-.07-.11-.14-.23-.21-.35-.14-.24-.28-.48-.47-.71-.52-.6-1.08-.97-1.72-1.13-.22-.06-.45,0-.52.18-.11.29.26.41.35.43l.07.02c1.01.3,1.49,1.15,1.9,1.78-.93-.83-1.9-1.18-2.57-1.12-.11,0-.37.06-.34.38.02.2.24.29.46.29.69-.02,1.37.28,2.01.9-.11.31-.03.66.23.97.24.28.61.27.87.26.17.27.39.57.71.77l.71.45.02.06c.16.57,1.08,1.07,1.41,1.12l.69.63.69.59c.13.11.28.16.43.16s.31-.06.43-.17c.43-.41,0-1.02-.47-1.58l2.86,1.55.08.02s.11,0,.18-.04l1.74-1c.16-.09.24-.27.22-.43l-.08-2.34ZM43.67,37.53l-.31.07s-.09.01-.13.01c-.06,0-.12.01-.16.02l-.26.07c-.06.02-.16.01-.29-.01l-3.2-.41c-.07,0-.13-.01-.2-.02-.03,0-.05,0-.08,0l1.83-1.04.69.03c.1,0,.2.01.29.02l1.62.09.73,1.07-.53.1ZM43.49,38.5l.3-.05c.09-.01.18-.03.27-.05.14-.03.28-.06.41-.07l.05,1.31-.91.52s-.01-.06-.02-.09c-.01-.07-.03-.15-.05-.24l-.33-1.29c.07-.01.17-.03.29-.05ZM42.24,38.55l.34,1.39-2.99-1.63-.15-.09,2.8.33ZM37.59,31.76l-1.57-1.1c-.06-.05-.07-.07-.04-.27v-.02c.09-.52.2-.98.37-1.41l.18-.47.63.63,1.03,1.11-.59,1.53ZM37.31,32.7l-.18.87c-.04.19-.08.36-.1.56-.01.11-.04.23-.07.36-.04.17-.08.36-.09.56l-.03.34c0,.08-.03.18-.05.27,0,.02,0,.04-.01.06-.35-.99-.66-1.94-.78-2.96l-.07-.56c-.02-.17-.03-.34-.03-.5l1.41,1.01ZM37.67,36l.2-1.45c.23-1.44.55-2.58,1.02-3.63l.87,1.87-2.1,3.21ZM40.51,32.25l-1.09-2.41c.44-.66.85-1.22,1.35-1.71l1.15,3.42-1.41.69ZM41.71,34.68l-3.3,1.88,2.13-3.3.45-.25,1.22-.59.22.68c.12.61-.18,1.26-.72,1.57Z"/>
    <path class="cls-7" d="M41.8,34.84l-3.95,2.25,2.57-3.96.5-.27,1.41-.68.29.9c.13.65-.17,1.4-.81,1.76Z"/>
    <path class="cls-17" d="M40.42,32.49l-.79-1.77-.42-.9c.48-.72.98-1.43,1.64-2.02l1.29,3.85-1.72.84Z"/>
    <path class="cls-3" d="M43.12,37.81l-.26.07c-.12.03-.29,0-.37,0l-.34-.06-.42-.04-1.47-.19-.96-.11c-.29-.03-.56-.03-.76-.13l2.29-1.3.74.03c.18,0,.32.02.5.03l1.5.08.93,1.37-.48.12-.31.04-.31.07c-.09.02-.22.02-.28.03Z"/>
    <path class="cls-10" d="M37.53,36.55c.03.15-.12.14-.14.12l.3-2.16c.22-1.38.55-2.7,1.2-4.04l1.08,2.32-2.45,3.75Z"/>
    <path class="cls-5" d="M37.68,32.05l-1.76-1.24c-.17-.12-.14-.27-.11-.47.08-.5.2-.98.37-1.45l.28-.74.84.84,1.1,1.2-.44,1.12-.28.74Z"/>
    <path class="cls-28" d="M37.06,35.06l-.03.34c-.02.23-.13.55-.09.66.03.07-.05.22-.11.31-.43-1.19-.85-2.36-1-3.6l-.07-.56c-.03-.29-.05-.55-.01-.86l1.77,1.27-.11.56-.07.34c-.05.21-.09.41-.11.62-.03.26-.13.58-.16.92Z"/>
    <polygon class="cls-14" points="42.39 38.38 38.65 37.94 39.5 38.47 42.86 40.3 42.39 38.38"/>
    <path class="cls-29" d="M43.14,39.09l-.14-.55v-.13s.22-.06.45-.09l.3-.05c.26-.04.58-.14.86-.13l.05.38.02,1.22-1.17.67c-.09-.03-.1-.25-.18-.53l-.21-.8Z"/>
  </g>
</svg>