<?xml version="1.0" encoding="UTF-8"?>
<svg id="Layer_2" data-name="Layer 2" xmlns="http://www.w3.org/2000/svg" viewBox="0 0 160 90">
  <defs>
    <style>
      .cls-1 {
        fill: #010000;
      }

      .cls-2 {
        fill: #fe6d0e;
      }

      .cls-3 {
        fill: #fda02f;
      }

      .cls-4 {
        fill: #fd9729;
      }

      .cls-5 {
        fill: #fbcf4f;
      }

      .cls-6 {
        fill: #fe5e0a;
      }

      .cls-7 {
        fill: #fe670b;
      }

      .cls-8 {
        fill: #fdbc41;
      }

      .cls-9 {
        fill: #fcc145;
      }

      .cls-10 {
        fill: #fe8c22;
      }

      .cls-11 {
        fill: #fe7f19;
      }

      .cls-12 {
        fill: #fddc56;
      }

      .cls-13 {
        fill: #fdb53c;
      }

      .cls-14 {
        fill: #fe7110;
      }

      .cls-15 {
        fill: #fda935;
      }
    </style>
  </defs>
  <g>
    <path d="M120.72,65.06l-2.91-3.07c-1.64.72-3.29.77-5.07.81-2.9.06-5.73-.66-7.92-2.65-1.72-1.57-2.81-3.76-3.14-6.07-.76-5.19,1.04-10.19,5.94-12.24,2.95-1.23,6.18-1.32,9.23-.43s5.43,2.96,6.55,6.02l.7,3.47c.14.7.04,1.25-.02,1.95-.22,2.39-.93,4.73-2.61,6.59l2.37,2.49-3.12,3.14ZM114.92,53.05l2.64,2.65c1.24-2.27,1.35-4.95.19-7.37-.92-1.91-2.89-2.8-4.99-2.82-2.5-.02-4.64,1.4-5.28,3.85-.61,2.32-.52,4.9.92,6.91,1.23,1.71,3.63,2.29,5.66,1.8l-2.03-2.31,2.89-2.71Z"/>
    <path class="cls-1" d="M71.05,54.62l-.02-3.63h11.97s0,11.43,0,11.43h-3.98s-.04-1.52-.04-1.52c-2.15,1.51-4.49,1.93-7.05,1.94-2.72,0-5.25-.55-7.45-2.24-3.61-2.78-4.37-7.66-3.4-12.15.25-1.18.86-2.28,1.57-3.33,3.15-4.65,10.62-5.38,15.62-2.85,2.27,1.37,3.85,3.39,4.48,6.12l-6.04.06c-.71-1.98-2.53-3.04-4.6-2.9-2.08-.12-4.16.78-5.06,2.73-1.34,2.9-1.04,7.24,1.41,8.9,2.07,1.4,4.77,1.43,6.91.15.99-.59,1.54-1.61,1.86-2.7h-6.19Z"/>
    <path d="M132.44,45.83c-.44,1.38.42,2.64-.09,3.69l8.65.03.04,4.68h-8.69c.2.33,0,.61,0,.92l-.02,7.25h-5.44s.01-21.21.01-21.21l10.49.04c.99,0,1.92.34,2.92-.16.8.3,1.53.32,2.36.28v4.35s-5.57.08-5.57.08c-.7.01-1.21.17-1.92,0-.86-.19-1.82-.09-2.74.04Z"/>
    <path class="cls-1" d="M100.57,57.88l.02,4.53h-14.86s-.09-16.95-.09-16.95l-.04-4.24,5.02-.04c.2,0,.72.11.72.38v16.32s9.23,0,9.23,0Z"/>
  </g>
  <g>
    <path class="cls-13" d="M51.43,52.47c2.3,4.51,5,8.77,8.14,12.88l6.03,1.95c.18.06.3.06.34.24-.27.1-.52.13-.98.07-.01.96.43,2.08,1.02,2.76.28.32.16.96.15,1.3l-.93-.23-5.84-1.39c-.22-.05-.62.14-.53.31l.43.75c-.76-.46-1.16-1.3-1.97-1.57l-2.41-.8-3.27-1.09c-.04-.07-.11-.13-.18-.17h-.18c-.03-.08-.1-.15-.17-.2-.05-.02-.15-.04-.21.03.12-.37-.41-.45-.51-.62-.24-.42.23-1.01.39-1.36l1.19-2.53-.68-.97-3.11-4.69-1.17-1.94c-.19-.32-.58-.6-.45-1.03.09-.29-.03-.99.35-1.21,1.03-.6,2.14-.96,3.28-1.34l1.28.83Z"/>
    <path class="cls-7" d="M36.55,28.36c2.37.03,4.74.16,7.09.47l4.17.55c.18.02.29.11.34.23-.57,0-1.16.25-1.71.66.77.69.87,1.54,1.3,2.26.71,1.18,1.2,2.3,1.71,3.58l.67.96.94,2.18c.16.37.94.62.75,1.17l-.7-.19c-2.92-.79-5.83-1.6-8.78-2.25-.12-.61-.63-.93-1.07-1.33l-2.48-2.24c-.69-.62-1.25-1.26-1.86-1.96-.25-.29-.68-.55-.97-.83l-1.38-1.36c-.59-.58-1.34-1.01-1.66-1.76.59-.02,1.17-.18,1.83-.17l1.79.02Z"/>
    <path class="cls-7" d="M68.4,19.73l.91,1.03-.82.09c0,1.24-.42,2.31-.67,3.47l-.72,3.31c-.31,1.45-.52,2.87-1.17,4.22l-1.38-1.82c-1.41-1.86-2.86-3.73-4.53-5.37-.41-.4-.86-.76-1.13-1.28.16.21.84.47,1,.21l-.38-3.54-.7-6.07-.26-1.98c.17.04.4.08.63.22,3.44,2.13,6.41,4.73,9.22,7.51Z"/>
    <path class="cls-6" d="M69.32,20.75c1.34,1.5,2.7,3.01,4.05,4.51l.43.59,1.64,2.02c1.77,2.17,1.52,5.16-.61,6.99-1.92,1.65-4.88,1.82-6.71,0l-2.19-3.03c.65-1.35.86-2.78,1.17-4.22l.72-3.31c.25-1.16.67-2.23.67-3.47l.82-.09Z"/>
    <path class="cls-15" d="M42.34,37.98c2.95.65,5.86,1.46,8.78,2.25-.31.02-.5.21-.74.45l-2.88,2.77c.2.96.6,1.79.99,2.67l1.84,4.16,1.12,2.19-1.28-.83c-1.14.39-2.25.74-3.28,1.34-.37.22-.25.91-.35,1.21-.5-.25-.67-.84-.94-1.35l-2.31-4.39c-.91-1.74-1.67-3.53-2.48-5.44-.1.1-.21.22-.34.29.23-.89-.2-1.69-.56-2.56-.33-.8-.44-1.64-.89-2.4-.12-.2-.1-.47-.09-.63.37-.22.82-.12,1.31-.05l2.1.31Z"/>
    <path class="cls-6" d="M52.3,30.36c1.53.34,3.07.63,4.63,1.18,1.05.37,1.89,1.19,2.42,2.08.8,1.37.9,3.13.14,4.73-.58,1.21-1.75,2.48-3.37,2.79-.66.13-1.47.2-2.1,0l-2.2-.71c.2-.55-.59-.8-.75-1.17l-.94-2.18-.67-.96c-.51-1.28-.99-2.4-1.71-3.58-.43-.72-.53-1.56-1.3-2.26.54-.41,1.13-.67,1.71-.66,1.38.01,2.78.44,4.14.75Z"/>
    <path class="cls-14" d="M32.93,28.51c.32.75,1.07,1.18,1.66,1.76l1.38,1.36c.28.28.71.54.97.83.61.7,1.17,1.34,1.86,1.96l2.48,2.24c.44.4.95.73,1.07,1.33l-2.1-.31c-.48-.07-.94-.17-1.31.05-.07-.17-.27-.36-.55-.34-.72.07-2.89-.3-4.54-.33l-2.39-.05c.03-.73-1.22-1.09-1.78-1.46l-1.51-1-3.7-2.14c-.73-.42-1.42-.95-2.23-.79.19-.26.48-.46.85-.65,3.1-1.58,6.45-2.37,9.85-2.45Z"/>
    <path class="cls-14" d="M58.55,11.99l.26,1.98.7,6.07.38,3.54c-.17.26-.84,0-1-.21-.1-.19-.41-.26-.61-.46-1.95-2.01-4.09-3.73-6.48-5.06.8-.6-.14-2.38-.74-3.98-.28-.75-.47-1.41-.76-2.19l-1.02-2.72c-.24-.04-.66-.13-.56-.42,2.95.04,5.75,1,8.42,2.53.49.28.83.8,1.41.94Z"/>
    <path class="cls-2" d="M95.56,19.58c1.45,1.88,2.3,4.22,2.39,6.69l.06,1.88c-.56-.28-1.27-.15-1.91.2l-3.05,1.66-2.23,1.23-2.48,1.32c-.52.27-.94.56-1.51.47.22-2.01,2.32-4.86,1.1-8.17.5.11.91-.13,1.31-.46l1.08-.92,4.51-3.66c.21-.17.45-.21.74-.23Z"/>
    <path class="cls-12" d="M34.34,66.41c.44,8.96,14.24,5.47,20.55,2.34l2.41.8c-.11.34-.36.44-.67.61-4.86,2.5-9.71,4.52-15.23,4.88-1.91.13-3.81-.32-5.62-.95-2.14-.97-3.84-2.62-4.54-4.75.07-.09-.02-.21-.12-.22v-.54c.02-.3.09-.62.41-.85l1.69-1.22c.32-.23.9-.06,1.13-.1Z"/>
    <path class="cls-6" d="M98.01,28.14c-.15,2-.49,3.96-1,5.96-.49,1.88-1.42,3.49-3.13,4.19-1.87.76-3.91.33-5.42-.92-1.34-1.1-1.82-2.73-1.64-4.35.57.09,1-.19,1.51-.47l2.48-1.32,2.23-1.23,3.05-1.66c.64-.35,1.35-.47,1.91-.2Z"/>
    <path class="cls-3" d="M38.56,54.98l4.53,2.95c-.86-.23-1.64,0-2.5.29l-5.27,1.84-3.42-1.85c-.08-.04-.18-.2-.28-.3-1.9-1.26-3.72-2.5-5.41-4.01l-1.16-1.05c.05-.22.11-.33.18-.41.17-.17.39-.12.62-.12l5.27-.02c.25,0,.83-.41,1.04-.3.81.43,1.68.57,2.24-.05.04-.05.11-.09.2-.06.01.19.13.38.33.53l3.63,2.56Z"/>
    <path class="cls-10" d="M87.94,15.02c-.02.35-.42.39-.57.6l-1.06,1.49-2.75,3.25-1.64,2.16c-.27.35-.51.64-.33,1.13-2.64.53-5.19,1.36-7.78,2.2l-.43-.59c.27.01.5-.04.67-.19-.05.04,1.01-1.92,1.59-3.02l1.82-3.47c.4-.76.82-1.36,1.06-2.34-.44-.02-.73-.06-.99-.21.13-.23.36-.27.64-.35,2.18-.62,5.82-1.06,7.92-.85l1.85.18Z"/>
    <path class="cls-11" d="M95.56,19.58c-.28.02-.52.06-.74.23l-4.51,3.66-1.08.92c-.4.34-.8.57-1.31.46,0-.04,0-.13-.02-.17-.04-.07-.11-.14-.19-.17-.54-.47-1.11-.87-1.92-1-1.41-.21-2.86-.12-4.2.14-.18-.5.07-.78.33-1.13l1.64-2.16,2.75-3.25,1.06-1.49c.15-.21.55-.24.57-.6,3.03.49,5.76,2.15,7.62,4.56Z"/>
    <path class="cls-11" d="M48.72,8.52c-.1.29.32.38.56.42l1.02,2.72c.29.78.48,1.45.76,2.19.6,1.6,1.55,3.39.74,3.98l-1.7-.71c-1.41-.59-3.01-.69-4.4,0-.34.17-.57.63-.97.61,0-.64-.23-1.16-.59-1.74l-2.88-4.58c-.28-.12-.69.15-.89.22.15-.48.65-.66,1.05-.98,2.07-1.65,4.75-2.2,7.3-2.16Z"/>
    <path class="cls-4" d="M28.62,47l3.33,2.96,2.45,2c-.56.62-1.43.48-2.24.05-.22-.11-.79.3-1.04.3l-5.27.02c-.23,0-.45-.05-.62.12-.07.07-.12.19-.18.41-2.28-2.05-4.49-4.38-5.95-7.09-.03-.06-.03-.19-.14-.22l.03-.19c-.12-.8,1.87-.23,3.51.09,1.82.35,3.64.5,5.39,1.16l.73.4Z"/>
    <path class="cls-11" d="M31.45,37l-1.62.21c-2.12.27-4.32.84-4.83,2.75l-5.54-2c-.48-.18-1.17-.61-1.55,0-.59.94.21,2.62-.56,2.51-.26-2.93,1.08-5.77,3.27-7.75.53-.48.94-.96,1.61-1.1.81-.17,1.5.37,2.23.79l3.7,2.14,1.51,1c.55.36,1.81.73,1.78,1.46Z"/>
    <path class="cls-10" d="M44.72,17.74v.23c-.37.08-.36.35-.42.53-.26.82-.66,1.61-.84,2.58-.19,1.03-.46,2.22-.35,3.22-.68,0-.96-.57-1.38-1.02l-2.16-2.33-1.77-1.88c-.2-.21-.58-.27-.87-.19.06.4-.08.73-.36.74-.09-.69.27-1.36.46-2.09.49-1.94,1.36-3.71,2.61-5.18l.17-.19c.1-.25.31-.41.55-.51.2-.08.61-.34.89-.22l2.88,4.58c.36.58.59,1.09.59,1.74Z"/>
    <path class="cls-9" d="M66.49,67.5c.03.08.1.15.18.18h.36c.02.09.09.16.18.18h.54c.02.09.1.16.18.18.05.01.13.01.18,0,.08.3.41.12.58.14,3.41.74,6.98,1.44,10.52,1.71-.07.06-.11.16-.1.24s.08.23.18.31l2.28,1.92c.22.18.53.24.52.56l-.72.22-4.82-.12-2.55-.17c-2.7-.18-5.32-.56-7.86-1.18,0-.34.13-.98-.15-1.3-.59-.68-1.03-1.8-1.02-2.76.46.05.71.03.98-.07.16-.06.38-.05.55-.04Z"/>
    <path class="cls-10" d="M25,39.95c-.57,2.13,1.66,4.95,3.44,6.63.12.12.15.32.18.42l-.73-.4c-1.75-.65-3.57-.81-5.39-1.16-1.64-.31-3.63-.89-3.51-.09-.92-1.44-1.49-3.18-1.65-4.9.77.11-.03-1.57.56-2.51.38-.61,1.07-.18,1.55,0l5.54,2Z"/>
    <path class="cls-3" d="M64.55,30.01c-.1.34-.37.42-.66.6l-4.02,2.5c-.23.14-.39.3-.52.51-.53-.9-1.37-1.72-2.42-2.08-1.55-.54-3.1-.84-4.63-1.18.42.06.6-.2.91-.47,2.18-1.92,4.44-3.62,6.82-5.24,1.67,1.64,3.12,3.5,4.53,5.37Z"/>
    <path class="cls-4" d="M43.11,24.31l.53,4.53c-2.35-.31-4.72-.44-7.09-.47.15-.85-.14-1.69-.14-2.59v-4.71c0-.52.22-.99.17-1.44.28,0,.43-.35.36-.74.29-.07.67-.02.87.19l1.77,1.88,2.16,2.33c.42.45.7,1.02,1.38,1.02Z"/>
    <path class="cls-4" d="M77.53,16.03c.26.15.55.19.99.21-.24.98-.67,1.59-1.06,2.34l-1.82,3.47c-.58,1.1-1.64,3.06-1.59,3.02-.18.15-.41.21-.67.19-1.35-1.5-2.72-3-4.05-4.51l-.91-1.03c2.18-1.31,4.42-2.42,6.77-3.07.07-.02.17-.02.2-.14h.36c.08,0,.16-.1.18-.18h.36c.08,0,.16-.1.18-.18h.54s.18-.18.18-.18c.1,0,.25,0,.33.05Z"/>
    <path class="cls-9" d="M65.21,71.45c.72.96,1.6,1.77,2.59,2.53l2.81,2.24c-.32-.11-.77-.18-1.03.06.25.91.18,1.79.68,2.52.3.43.81.71.97,1.22-3.6-1.72-6.94-4.03-9.88-6.84-.74-.71-1.6-1.22-2.08-2.06l-.43-.75c-.09-.17.3-.36.53-.31l5.84,1.39Z"/>
    <path class="cls-5" d="M86.23,72.95c-.11-.33-.39-.39-.8-.32l-1.55.25-1.79.05c0-.33-.3-.38-.52-.56l-2.28-1.92c-.1-.08-.17-.24-.18-.31s.03-.18.1-.24l.7-.07c-.03.09-.03.23,0,.29s.19.11.34.11h3.48c.15,0,.29-.05.34-.11.04-.06.03-.2.01-.21,2.78-.19,6.97-.95,8.43-3.23.36-.56.98-.84,1.55-.54.45.24.76.91.47,1.48-1.4,2.74-4.71,4.07-7.73,4.75-.43.1-.52.22-.57.57Z"/>
    <path class="cls-5" d="M35.32,60.07l.34.32c-1,1.48-1.4,4.2-1.31,6.02-.23.04-.81-.13-1.13.1l-1.69,1.22c-.32.23-.39.55-.4.85-1.11-2.3-.75-5.64.02-8.31.21-.73.28-1.47.75-2.05l3.42,1.85Z"/>
    <path class="cls-12" d="M86.23,72.95c-.65,4.62-3.49,8.3-8.31,8.52-.28-.87-1.29-1.46-.7-2.73h.7c.25.28.84.28,1.09,0,.05,0,.13-.02.18,0,.25.11.4-.13.54-.18,1.67-.67,2.98-1.83,3.7-3.57.35-.85.98-1.68.46-2.11l1.55-.25c.41-.07.69-.01.8.32Z"/>
    <path class="cls-5" d="M70.62,76.23c.06,0,.17-.03.23-.02.04.07.1.14.18.18h.18c.07.13.2.32.35.41,1.73.97,3.7,1.58,5.66,1.95-.59,1.27.42,1.86.7,2.73-2.31.11-4.61-.45-6.69-1.44-.16-.51-.68-.78-.97-1.22-.5-.73-.42-1.61-.68-2.52.26-.24.71-.17,1.03-.06Z"/>
    <path class="cls-9" d="M84.09,69.91s.03.15-.01.21c-.04.06-.19.11-.34.11h-3.48c-.15,0-.29-.05-.34-.11s-.04-.2,0-.29c1.38.35,2.78.17,4.17.08Z"/>
    <path class="cls-13" d="M68.7,68.18c-.16-.03-.5.16-.58-.14.2-.04.44-.02.58.14Z"/>
    <path class="cls-10" d="M76.29,16.33c.01-.08.1-.17.18-.17-.02.08-.1.17-.18.17Z"/>
    <path class="cls-10" d="M75.18,16.66s.12-.11.2-.14c-.03.12-.13.12-.2.14Z"/>
    <path class="cls-2" d="M87.9,24.68l-.19-.17c.08.04.15.1.19.17Z"/>
    <path class="cls-5" d="M31.24,69.34s-.12-.13-.12-.22c.1,0,.19.13.12.22Z"/>
    <path class="cls-13" d="M67.22,67.86c-.09-.03-.16-.09-.18-.18.08,0,.16.1.18.18Z"/>
    <path class="cls-13" d="M66.67,67.68c-.09-.03-.16-.09-.18-.18.09,0,.18.09.18.18Z"/>
    <path class="cls-11" d="M39.65,12.35c.05-.05.14-.12.17-.19l-.17.19Z"/>
    <path class="cls-10" d="M75.74,16.51c.03-.08.09-.15.18-.18-.02.08-.1.18-.18.18Z"/>
    <path class="cls-10" d="M19.11,45.76c-.06-.04-.16-.14-.14-.22.11.03.11.16.14.22Z"/>
    <path class="cls-10" d="M77.01,16.16l.18-.18-.18.18Z"/>
    <path class="cls-13" d="M67.94,68.03c-.09-.02-.16-.09-.18-.18.09,0,.17.09.18.18Z"/>
    <path class="cls-15" d="M43.09,57.93s.13-.06.18-.05c.05.08.11.12.2.16l2.5,1.32,3.96,2.03c.46.23.9.4,1.34.47l.68.97-1.19,2.53c-.17.36-.64.94-.39,1.36.1.16.63.25.51.62-5.25-1.86-10.33-4.24-15.21-6.94l-.34-.32,5.27-1.84c.87-.29,1.64-.52,2.5-.29Z"/>
    <path class="cls-15" d="M51.62,67.66c-.08-.03-.15-.1-.18-.17.08.04.14.1.18.17Z"/>
    <path class="cls-15" d="M51.25,67.49c-.09-.04-.15-.11-.17-.2.08.04.14.11.17.2Z"/>
    <path class="cls-8" d="M43.28,48.46c-.46-.05-.63.37-.92.71-1.35,1.63-2.56,3.24-3.67,5.05-.18.29-.35.5-.14.77l-3.63-2.56c-.21-.15-.32-.34-.33-.53,1.22-2.19,2.53-4.34,4.08-6.41.58-.78.97-1.71,1.79-2.17.13-.07.24-.18.34-.29.81,1.91,1.56,3.7,2.48,5.44Z"/>
    <path class="cls-11" d="M44.3,18.5c.06-.18.05-.46.42-.53l-.42.53Z"/>
    <path class="cls-5" d="M79.01,78.74c-.25.28-.84.28-1.09,0h1.09Z"/>
    <path class="cls-5" d="M79.73,78.56c-.14.06-.29.29-.54.18.11-.19.35-.22.54-.18Z"/>
    <path class="cls-9" d="M71.03,76.38c-.08-.04-.14-.1-.18-.18.08.02.16.1.18.18Z"/>
    <path class="cls-9" d="M71.56,76.79c-.15-.08-.28-.27-.35-.41.17.06.3.19.35.41Z"/>
    <path class="cls-3" d="M43.47,58.04c-.08-.04-.15-.08-.2-.16.09.01.17.09.2.16Z"/>
  </g>
</svg>