<?xml version="1.0" encoding="UTF-8"?>
<svg id="Layer_2" data-name="Layer 2" xmlns="http://www.w3.org/2000/svg" viewBox="0 0 160 90">
  <defs>
    <style>
      .cls-1 {
        fill: #faab18;
      }

      .cls-2 {
        fill: #1e2952;
      }
    </style>
  </defs>
  <g id="U9kCKu.tif">
    <g>
      <g>
        <path class="cls-2" d="M151.6,52.55c-1.33-3.48-2.65-5.71-5.84-4.93-1.17,5.48,1.37,6.25,1.76,6.9,1.43,2.34-4.26,2.01-9.05,1.65-.44-.03-.63-.77-.57-1.03.31-1.24,2.19-1.57,2.2-3.97l.05-11.95c.01-2.91-2.26-3.31-2.25-4.68,0-.39.48-.88,1.1-.89,6.92-.06,15.79-1.1,18.28,4.82,1.41,3.35.13,7.29-3.29,8.64l3.08,5.16c.51.85,1.33,1.38,2.17,1.99.37.27.47,1.69.02,1.78-2.79.59-8.15.5-8.47-.38-.41-1.12,1.17-2.17.81-3.12ZM151.48,44.37c1.57-1.73,1.25-5.54-1.06-7.49-1.37-1.16-3.14-1.34-4.9-.84l.02,7.91c0,1.67,4.16,2.37,5.94.41Z"/>
        <path class="cls-2" d="M83.73,53.91c2.05-.19,2.65-1.49,2.68-3.07.1-4.18-3.42-3.22-4.49-4.5-1.49-1.78,4.47-1.67,9.17-1.36.4,2.34.25,4.5.17,6.85-.12,3.65-9.07,6.68-15.51,3.35-5.07-2.62-6.93-8.79-4.8-14,2.45-5.98,8.71-8.78,15.03-7.62,1.25.23,2.58.67,3.77.15.66-.29,1.23-.62,1.78-.31.62.36.98,1.22.64,2.02l-2.36,5.51c-.29.67-.89,1.09-1.46.94-1.69-.42-.27-4.23-2.92-5.59-1.95-1-4.24-.91-6.37.29-4.26,2.4-4.22,8.86-1.89,13.52,1.22,2.45,3.68,4.08,6.56,3.81Z"/>
        <path class="cls-2" d="M125.81,45.05c-1.31,2.24-.17,5.77-.46,8.32,2.11.86,4.49.99,6.39,0,1.61-.83,2.18-4.48,3.62-4.4.47.02.95.46.96,1.09.04,3.52-.15,6.22-2.73,6.23l-14.57.02c-.75,0-1.16-.36-1.32-1-.29-1.2,2.18-1.6,2.18-4.13l.02-12.35c0-2.66-2.8-3.3-2.19-4.53.19-.37.75-.7,1.31-.7h14.28c.98,0,1.71.46,2.02,1.35.77,2.21,1.35,4.55.35,4.94-1.95.76-2.55-5.96-10.16-3.5-.18,1.5-.7,3.8.23,5.09,1.44,2,5.67-1.62,6.04-.08l1.08,4.58c.17.7-.04,1.4-.65,1.6-.44.15-1.26-.11-1.61-1-.56-1.4-3.66-3.48-4.79-1.55Z"/>
        <path class="cls-2" d="M98.77,55.01c-4.36-2.56-5.83-7.49-4.73-12.12,1.16-4.86,4.87-8.65,9.85-9.39,3.43-.51,6.67.28,9.15,2.42,5.6,4.84,4.45,14.92-1.83,18.76-3.84,2.35-8.47,2.67-12.44.33ZM108.51,38.09c-1.35-1.72-3.25-2.45-5.38-2.11-5.3.85-5.59,10.32-.98,15.8,1.41,1.68,3.45,2.26,5.52,1.82,5.09-1.09,4.84-10.43.84-15.51Z"/>
      </g>
      <g>
        <path class="cls-2" d="M29.2,27.26c-16.65-.05-29.99,14.14-28.67,30.99,7.99.18,17.32.87,24.37,4.44.98-1.64,2.4-2.39,3.97-2.47,1.69-.09,2.93.66,4.16,2.52,7.45-4.41,16.55-4.32,24.79-4.51,1.26-16.91-11.94-30.91-28.62-30.97ZM51.57,55.62c-6.03.19-11.88.67-17.89,2.68-2.82-2.84-6.89-2.87-9.66,0-5.57-1.88-11.26-2.51-17.14-2.68-.51-.01-.8-.29-.88-.53-.17-.5.11-1.04.81-1.05l7.15-.05c2.8-.02,5-3.34,4.04-6-.52-1.42-1.95-2.24-1.86-4.05l3.77,2.1c1.56.87,3.17.64,4.74-.11,1.35-.65,2.44-2.13,2.61-3.96l.74-8.24c.04-.5.24-.79.48-.95.44-.28,1.21-.12,1.28.47l1.13,8.98c.23,1.85,1.59,3.15,2.85,3.8,3.53,1.82,5.71-.82,8.79-1.9,1.2,1.14-2.99,2.98-2.21,6.44.29,1.25,1.39,3.34,3.15,3.36l8.15.13c.51,0,.78.32.82.68.04.35-.26.86-.87.88Z"/>
        <path class="cls-1" d="M52.44,54.74c.04.35-.26.86-.87.88-6.03.19-11.88.67-17.89,2.68-2.82-2.84-6.89-2.87-9.66,0-5.57-1.88-11.26-2.51-17.14-2.68-.51-.01-.8-.29-.88-.53-.17-.5.11-1.04.81-1.05l7.15-.05c2.8-.02,5-3.34,4.04-6-.52-1.42-1.95-2.24-1.86-4.05l3.77,2.1c1.56.87,3.17.64,4.74-.11,1.35-.65,2.44-2.13,2.61-3.96l.74-8.24c.04-.5.24-.79.48-.95.44-.28,1.21-.12,1.28.47l1.13,8.98c.23,1.85,1.59,3.15,2.85,3.8,3.53,1.82,5.71-.82,8.79-1.9,1.2,1.14-2.99,2.98-2.21,6.44.29,1.25,1.39,3.34,3.15,3.36l8.15.13c.51,0,.78.32.82.68Z"/>
      </g>
    </g>
  </g>
</svg>