<?xml version="1.0" encoding="UTF-8"?>
<svg id="Layer_2" data-name="Layer 2" xmlns="http://www.w3.org/2000/svg" xmlns:xlink="http://www.w3.org/1999/xlink" viewBox="0 0 160 90">
  <defs>
    <style>
      .cls-1 {
        fill: #2d5565;
      }

      .cls-2 {
        fill: #fcd173;
      }

      .cls-3 {
        fill: #231f20;
      }

      .cls-4 {
        fill: #ee8329;
      }

      .cls-5 {
        fill: #408790;
      }

      .cls-6 {
        fill: url(#linear-gradient);
      }

      .cls-7 {
        fill: #6c5131;
      }

      .cls-8 {
        fill: #bc8841;
      }

      .cls-9 {
        fill: #fcbc3a;
      }
    </style>
    <linearGradient id="linear-gradient" x1="34.57" y1="67.16" x2="125.43" y2="67.16" gradientUnits="userSpaceOnUse">
      <stop offset=".05" stop-color="#2d5465"/>
      <stop offset=".53" stop-color="#356d7a"/>
      <stop offset=".95" stop-color="#3f8891"/>
    </linearGradient>
  </defs>
  <g>
    <g>
      <circle class="cls-5" cx="114.1" cy="42.89" r="7.43"/>
      <circle class="cls-1" cx="45.81" cy="42.9" r="7.42"/>
      <path class="cls-6" d="M119.36,52.17c-5.59-1.58-11.11,1.64-15.31-2.75l-4.21-4.4c-2.65-1.09-2.51-.67-3.94-.14-.84.31-1.52,1.18-1.46,2.27.07,1.51.87,2.85,1.8,3.86l3.16,3.43c2.64,2.09,5.34,4.16,8.78,4.99.59.14.97.32,1.03.87v1.27s-.09,8.22-.09,8.22c-6.25,6.81-14.52,11.16-23.66,12.5-.68.1-6.11.58-7.62.33-1.08-.18-4.33-.49-4.8-.59l-3.7-.75-3.92-1.25c-5.43-2.26-10.37-5.39-14.48-9.91l-.15-10.29c3.66-.99,7.1-2.73,9.65-5.4l3.3-3.47c.71-.74,1.41-1.7,1.68-2.77.37-1.48-.26-2.65-1.33-3.35-1.38-.9-2.1-.63-4.08.68-1.55,1.03-2.75,3.17-5.93,5.4-2.99,2.1-7.79-.16-13.34,1.2-3.28.8-6.14,4.07-6.14,7.47v11.59c-.01,1.92,2.08,2.94,3.75,2.94h6.38c4.88,5.42,10.85,9.56,17.41,12.27,1.47.61,2.93,1.14,4.45,1.58,1.81.52,3.63.97,5.51,1.25l3.42.5c3.03.44,6.1.31,9.37-.03,11.76-1.2,22.42-6.9,30.18-15.56l7.32-.1c1.65-.02,3.04-1.51,3.04-3.3v-10.39c0-3.66-2.43-7.14-6.07-8.17Z"/>
    </g>
    <g>
      <path class="cls-4" d="M100.15,25.32c.24-1.25,5.26-4.23.61-10.11-1.25-1.58-2.39-2.96-2.85-5.01-2.44,2.86-.7,6.64-2.69,7.87-.76.47-1.43-.39-2.03-1.22-1.5,2.61-.43,5.4,1.58,7.29.4.37.8.64.58,1.16l-.25-.09c-4-1-6.41-4.72-6.45-8.85-.03-2.63.46-5.14,2.42-7.1,1.09.75.57,2.71,2.1,3.58-.82-5.17,1.7-10.31,6.73-12.84-1.06,7.7,3.91,9.21,6.12,13.51,1.29,2.51,1.57,5.32,0,7.96-1.09,1.83-3.33,3.42-5.86,3.85Z"/>
      <path class="cls-7" d="M100.66,32.66l-.82,12.36c-2.65-1.09-2.51-.67-3.94-.14l-.48-10.84.12-1.3,5.13-.08Z"/>
      <path class="cls-8" d="M104.15,28.55c-1,.38-1.22,4.07-3.49,4.11l-5.13.08s-.12.2-.39.04c-1.79-.48-2.91-2.17-2.81-3.95h8.92c1.06,0,2.03-.04,2.91-.27Z"/>
      <path class="cls-7" d="M99.4,54.43c.11.96-.42,1.75-1.28,1.9s-1.62-.48-1.69-1.5l-.19-3.82,3.16,3.43Z"/>
      <path class="cls-7" d="M104.8,27.12c-.07-.88.01-1.52-3.3-1.41l-1.26.03c-1.66.04-3.38.12-5.05.01l-.65-.04s-2.79-.12-2.9.3c-.6.24-.68,1.06-.62,1.7.05.57.66,1.11,1.31,1.11h8.92c1.06,0,2.03-.04,2.91-.27.61-.23.7-.85.65-1.43Z"/>
      <path class="cls-9" d="M100.15,25.32c-.19.03-.43.06-.61,0-.1-.7.61-1.53.61-2.29,0-1.59-.61-3.12-1.53-4.68-1.29,1.25-2.37,2.73-2.84,4.38l-.07,2.67c-.11-.07-.25-.07-.37-.11.23-.53-.18-.79-.58-1.16-2.01-1.89-3.08-4.67-1.58-7.29.6.83,1.27,1.69,2.03,1.22,2-1.23.25-5.01,2.69-7.87.47,2.05,1.61,3.44,2.85,5.01,4.65,5.88-.37,8.85-.61,10.11Z"/>
      <path class="cls-2" d="M99.54,25.33c-1.19.18-2.28.27-3.83.08l.07-2.67c.47-1.65,1.55-3.13,2.84-4.38.92,1.56,1.53,3.09,1.53,4.68,0,.76-.72,1.59-.61,2.29Z"/>
    </g>
    <g>
      <path class="cls-7" d="M64.65,32.69l-.58,12.16c-1.38-.9-2.1-.63-4.08.68l-.85-12.81c1.84.04,3.68.09,5.51-.03Z"/>
      <path class="cls-8" d="M67.41,28.8c.29,1.87-.99,3.45-2.76,3.89-1.82.12-3.67.06-5.51.03-1.77-.39-2.8-2.06-2.84-3.91h11.11Z"/>
      <path class="cls-7" d="M60.42,54.43l3.3-3.47-.32,3.85c-.08,1.03-.79,1.66-1.74,1.56-.84-.09-1.33-1.02-1.24-1.95Z"/>
      <path class="cls-4" d="M68.74,9.14l-1.45,3.05c-.75-.57.02-1.86-.69-3.9-1.18-3.42-3.09-6.76-6.7-8.28-.08,1.49.22,2.98-.11,4.47-1.17,5.36-8.24,7.43-6.93,14.8.57,3.19,3.43,5.3,6.39,6,.06.01.15.06.22.03.14-.69-.56-1.01-.98-1.5-2.48-2.82-1.61-6.69.88-9.2,1.25-1.26,1.96-2.64,2.48-4.49,2.5,3.38.36,7.71,3.4,7.89.39-.18.75-.81,1.54-.88,1.88,4.91-2.43,7.07-2.38,7.95,3.13-.47,5.55-2.99,6.36-6.18.84-3.34.4-7.02-2.05-9.77Z"/>
      <path class="cls-7" d="M68.2,25.94c-.7-.55-1.78-.29-2.77-.23l-.96.06c-1.76.11-3.44.21-5.13,0-.13-.01-2.32.02-3.21.17-.95-.04-1.25.79-1.27,1.46-.03.81.53,1.39,1.44,1.39h11.11c.78-.01,1.38-.54,1.42-1.09.05-.72-.09-1.34-.63-1.77Z"/>
      <path class="cls-9" d="M64.44,25.09l-.67.14c.59-.86.59-2.24,0-3.15l-2.4-3.74c-1.64,1.94-2.07,4.95-.92,7.02-.3-.03-.7-.17-.96-.05.14-.69-.56-1.01-.98-1.5-2.48-2.82-1.61-6.69.88-9.2,1.25-1.26,1.96-2.64,2.48-4.49,2.5,3.38.36,7.71,3.4,7.89.39-.18.75-.81,1.54-.88,1.88,4.91-2.43,7.07-2.38,7.95Z"/>
      <path class="cls-2" d="M63.77,25.23c-1.2.14-2.11.24-3.31.13-1.15-2.07-.72-5.08.92-7.02l2.4,3.74c.58.91.58,2.29,0,3.15Z"/>
    </g>
  </g>
  <g>
    <path class="cls-3" d="M66.29,54.95h1.37v6.22h-1.37v-6.22Z"/>
    <path class="cls-3" d="M68.74,56.9h1.26v.58h.02c.04-.08.1-.16.18-.25.08-.08.17-.16.27-.22.11-.06.23-.12.36-.16.13-.04.28-.06.44-.06.33,0,.6.05.81.15.2.1.36.24.48.43.11.18.19.4.23.64.04.25.06.51.06.8v2.35h-1.32v-2.09c0-.12,0-.25-.01-.38s-.04-.25-.08-.36c-.04-.11-.11-.2-.2-.27-.09-.07-.22-.11-.39-.11s-.31.03-.41.09c-.11.06-.19.14-.24.25-.06.1-.09.22-.11.35s-.03.26-.03.4v2.13h-1.32v-4.27Z"/>
    <path class="cls-3" d="M76.2,58.16c-.19-.24-.45-.36-.76-.36-.11,0-.22.03-.33.08-.11.05-.16.14-.16.27,0,.11.05.18.16.23.11.05.25.09.41.13.17.04.35.08.54.12s.37.11.54.21.3.22.41.38c.11.16.16.38.16.65s-.06.5-.18.68c-.12.18-.27.32-.46.43s-.4.18-.63.23-.47.07-.69.07c-.3,0-.6-.04-.9-.13-.3-.08-.56-.24-.77-.45l.8-.89c.12.15.26.27.41.35.15.08.32.12.52.12.15,0,.29-.02.41-.07.12-.04.18-.12.18-.24s-.05-.19-.16-.25c-.11-.06-.25-.1-.41-.14-.17-.04-.35-.08-.54-.12-.19-.04-.37-.11-.54-.2-.17-.09-.3-.21-.41-.37-.11-.16-.16-.38-.16-.65,0-.25.05-.47.15-.65.1-.18.24-.33.4-.45s.36-.2.58-.26c.22-.06.44-.08.66-.08.28,0,.56.04.85.12.29.08.53.23.73.44l-.81.8Z"/>
    <path class="cls-3" d="M77.76,55.56c0-.21.07-.39.22-.54.15-.15.33-.22.54-.22s.39.07.54.22.22.33.22.54-.07.39-.22.54-.33.22-.54.22-.39-.07-.54-.22c-.15-.15-.22-.33-.22-.54ZM77.87,56.9h1.32v4.27h-1.32v-4.27Z"/>
    <path class="cls-3" d="M84.61,60.81c0,.81-.2,1.42-.61,1.84s-1.03.63-1.86.63c-.38,0-.76-.04-1.12-.13s-.71-.25-1.02-.5l.73-1.09c.21.17.42.3.65.4s.47.15.74.15c.4,0,.7-.1.89-.29.19-.2.29-.45.29-.75v-.41h-.02c-.15.21-.34.35-.57.43-.23.08-.44.13-.64.13-.32,0-.6-.05-.86-.16-.26-.11-.48-.26-.66-.46-.18-.2-.33-.43-.43-.7-.1-.27-.15-.56-.15-.89,0-.28.05-.56.14-.83.09-.27.22-.51.39-.71.17-.2.37-.37.61-.5.24-.13.51-.19.82-.19.19,0,.36.02.51.06.16.04.29.09.42.16.12.06.23.14.32.22.09.08.16.16.21.23h.02v-.56h1.21v3.91ZM81.29,59.01c0,.14.03.27.08.4.05.13.13.24.22.33.1.1.21.17.33.23.13.06.26.09.42.09s.28-.03.41-.09c.13-.06.24-.14.34-.23.1-.1.17-.21.22-.33.05-.13.08-.26.08-.4s-.03-.27-.08-.4-.13-.24-.22-.33c-.1-.1-.21-.17-.34-.23-.13-.06-.27-.09-.41-.09s-.29.03-.42.09c-.13.06-.24.14-.33.23-.1.1-.17.21-.22.33s-.08.26-.08.4Z"/>
    <path class="cls-3" d="M86.98,54.53v2.95h.02c.03-.08.08-.16.15-.25.07-.08.16-.16.25-.22.1-.06.22-.12.35-.16.13-.04.28-.06.44-.06.33,0,.6.05.81.15.2.1.36.24.48.43.11.18.19.4.23.64.04.25.06.51.06.8v2.35h-1.32v-2.09c0-.12,0-.25-.01-.38s-.04-.25-.08-.36c-.04-.11-.11-.2-.2-.27-.09-.07-.22-.11-.39-.11s-.31.03-.41.09c-.11.06-.19.14-.24.25-.06.1-.09.22-.11.35s-.03.26-.03.4v2.13h-1.32v-6.64h1.32Z"/>
    <path class="cls-3" d="M93.62,57.96h-1.16v1.42c0,.12,0,.22.02.32.01.1.04.18.08.25.04.07.1.12.19.16s.2.06.34.06c.07,0,.16,0,.28-.02.11-.01.2-.05.26-.1v1.1c-.15.05-.3.09-.46.11-.16.02-.31.03-.47.03-.22,0-.43-.02-.62-.07-.19-.05-.35-.12-.49-.22s-.25-.24-.33-.4c-.08-.16-.12-.36-.12-.6v-2.03h-.84v-1.05h.84v-1.26h1.32v1.26h1.16v1.05Z"/>
    <path class="cls-3" d="M55.65,65.5h2.41c.32,0,.62.03.9.09.28.06.53.16.75.31.21.14.38.34.51.58s.19.55.19.91c0,.44-.11.81-.34,1.12s-.56.5-1,.58l1.58,2.63h-1.64l-1.3-2.49h-.68v2.49h-1.37v-6.22ZM57.02,68.07h.81c.12,0,.25,0,.39-.01.14,0,.26-.04.37-.08.11-.04.2-.11.28-.21.07-.09.11-.23.11-.4,0-.16-.03-.28-.1-.38s-.15-.17-.25-.22c-.1-.05-.21-.08-.34-.1-.13-.02-.25-.03-.38-.03h-.9v1.41Z"/>
    <path class="cls-3" d="M65.22,70.98c-.21.27-.48.48-.8.62-.32.15-.66.22-1,.22s-.64-.05-.93-.16c-.29-.11-.54-.26-.76-.45-.21-.2-.38-.43-.51-.71s-.18-.58-.18-.92.06-.65.18-.92.29-.51.51-.71c.21-.2.47-.35.76-.45.29-.11.6-.16.93-.16.3,0,.58.05.83.16.25.11.46.26.63.45.17.2.31.43.4.71s.14.58.14.92v.41h-3.06c.05.25.17.45.34.6s.39.22.65.22c.22,0,.4-.05.55-.14.15-.1.28-.22.39-.37l.92.68ZM64.11,69.1c0-.22-.07-.41-.22-.57-.15-.16-.35-.24-.59-.24-.15,0-.28.02-.39.07s-.21.11-.29.18c-.08.07-.14.16-.18.25-.04.1-.07.2-.07.3h1.74Z"/>
    <path class="cls-3" d="M69.11,68.83c-.06-.09-.16-.17-.27-.23-.12-.06-.24-.09-.38-.09-.33,0-.59.1-.78.3-.18.2-.28.46-.28.78s.09.58.28.78c.18.2.44.3.78.3.15,0,.27-.03.38-.1.11-.06.2-.14.27-.23l.87.91c-.21.21-.45.36-.72.44-.28.08-.54.13-.8.13-.33,0-.64-.05-.93-.16-.29-.11-.54-.26-.76-.45-.21-.2-.38-.43-.51-.71s-.18-.58-.18-.92.06-.65.18-.92.29-.51.51-.71c.21-.2.47-.35.76-.45.29-.11.6-.16.93-.16.25,0,.52.04.8.13.28.08.52.23.72.44l-.87.91Z"/>
    <path class="cls-3" d="M70.3,69.58c0-.34.06-.65.18-.92s.29-.51.51-.71c.21-.2.47-.35.76-.45.29-.11.6-.16.93-.16s.64.05.93.16c.29.11.54.26.76.45.21.2.38.43.51.71s.18.58.18.92-.06.65-.18.92-.29.51-.51.71c-.21.2-.47.35-.76.45-.29.11-.6.16-.93.16s-.64-.05-.93-.16c-.29-.11-.54-.26-.76-.45-.21-.2-.38-.43-.51-.71s-.18-.58-.18-.92ZM71.62,69.58c0,.32.09.58.28.78s.44.3.78.3.59-.1.78-.3.28-.46.28-.78-.09-.58-.28-.78-.44-.3-.78-.3-.59.1-.78.3-.28.46-.28.78Z"/>
    <path class="cls-3" d="M80.29,71.36c0,.81-.2,1.42-.61,1.84s-1.03.63-1.86.63c-.38,0-.76-.04-1.12-.13s-.71-.25-1.02-.5l.73-1.09c.21.17.42.3.65.4s.47.15.74.15c.4,0,.7-.1.89-.29.19-.2.29-.45.29-.75v-.41h-.02c-.15.21-.34.35-.57.43-.23.08-.44.13-.64.13-.32,0-.6-.05-.86-.16-.26-.11-.48-.26-.66-.46-.18-.2-.33-.43-.43-.7-.1-.27-.15-.56-.15-.89,0-.28.05-.56.14-.83.09-.27.22-.51.39-.71.17-.2.37-.37.61-.5.24-.13.51-.19.82-.19.19,0,.36.02.51.06.16.04.29.09.42.16.12.06.23.14.32.22.09.08.16.16.21.23h.02v-.56h1.21v3.91ZM76.97,69.55c0,.14.03.27.08.4.05.13.13.24.22.33.1.1.21.17.33.23.13.06.26.09.42.09s.28-.03.41-.09c.13-.06.24-.14.34-.23.1-.1.17-.21.22-.33.05-.13.08-.26.08-.4s-.03-.27-.08-.4-.13-.24-.22-.33c-.1-.1-.21-.17-.34-.23-.13-.06-.27-.09-.41-.09s-.29.03-.42.09c-.13.06-.24.14-.33.23-.1.1-.17.21-.22.33s-.08.26-.08.4Z"/>
    <path class="cls-3" d="M81.35,67.45h1.26v.58h.02c.04-.08.1-.16.18-.25.08-.08.17-.16.27-.22.11-.06.23-.12.36-.16.13-.04.28-.06.44-.06.33,0,.6.05.81.15.2.1.36.24.48.43.11.18.19.4.23.64.04.25.06.51.06.8v2.35h-1.32v-2.09c0-.12,0-.25-.01-.38s-.04-.25-.08-.36c-.04-.11-.11-.2-.2-.27-.09-.07-.22-.11-.39-.11s-.31.03-.41.09c-.11.06-.19.14-.24.25-.06.1-.09.22-.11.35s-.03.26-.03.4v2.13h-1.32v-4.27Z"/>
    <path class="cls-3" d="M86.3,66.1c0-.21.07-.39.22-.54.15-.15.33-.22.54-.22s.39.07.54.22.22.33.22.54-.07.39-.22.54-.33.22-.54.22-.39-.07-.54-.22c-.15-.15-.22-.33-.22-.54ZM86.41,67.45h1.32v4.27h-1.32v-4.27Z"/>
    <path class="cls-3" d="M91.58,68.5h-1.16v1.42c0,.12,0,.22.02.32.01.1.04.18.08.25.04.07.1.12.19.16s.2.06.34.06c.07,0,.16,0,.28-.02.11-.01.2-.05.26-.1v1.1c-.15.05-.3.09-.46.11-.16.02-.31.03-.47.03-.22,0-.43-.02-.62-.07-.19-.05-.35-.12-.49-.22s-.25-.24-.33-.4c-.08-.16-.12-.36-.12-.6v-2.03h-.84v-1.05h.84v-1.26h1.32v1.26h1.16v1.05Z"/>
    <path class="cls-3" d="M92.16,66.1c0-.21.07-.39.22-.54.15-.15.33-.22.54-.22s.39.07.54.22.22.33.22.54-.07.39-.22.54-.33.22-.54.22-.39-.07-.54-.22c-.15-.15-.22-.33-.22-.54ZM92.27,67.45h1.32v4.27h-1.32v-4.27Z"/>
    <path class="cls-3" d="M94.38,69.58c0-.34.06-.65.18-.92s.29-.51.51-.71c.21-.2.47-.35.76-.45.29-.11.6-.16.93-.16s.64.05.93.16c.29.11.54.26.76.45.21.2.38.43.51.71s.18.58.18.92-.06.65-.18.92-.29.51-.51.71c-.21.2-.47.35-.76.45-.29.11-.6.16-.93.16s-.64-.05-.93-.16c-.29-.11-.54-.26-.76-.45-.21-.2-.38-.43-.51-.71s-.18-.58-.18-.92ZM95.69,69.58c0,.32.09.58.28.78s.44.3.78.3.59-.1.78-.3.28-.46.28-.78-.09-.58-.28-.78-.44-.3-.78-.3-.59.1-.78.3-.28.46-.28.78Z"/>
    <path class="cls-3" d="M99.89,67.45h1.26v.58h.02c.04-.08.1-.16.18-.25.08-.08.17-.16.27-.22.11-.06.23-.12.36-.16.13-.04.28-.06.44-.06.33,0,.6.05.81.15.2.1.36.24.48.43.11.18.19.4.23.64.04.25.06.51.06.8v2.35h-1.32v-2.09c0-.12,0-.25-.01-.38s-.04-.25-.08-.36c-.04-.11-.11-.2-.2-.27-.09-.07-.22-.11-.39-.11s-.31.03-.41.09c-.11.06-.19.14-.24.25-.06.1-.09.22-.11.35s-.03.26-.03.4v2.13h-1.32v-4.27Z"/>
  </g>
</svg>