<?xml version="1.0" encoding="UTF-8"?>
<svg id="Layer_2" data-name="Layer 2" xmlns="http://www.w3.org/2000/svg" viewBox="0 0 160 90">
  <g id="_9vzLG8.tif" data-name="9vzLG8.tif">
    <g>
      <polygon points="28.9 59.13 23.45 59.16 17.34 43.51 17.01 45.51 16.48 49.98 15.81 55.72 15.37 59.15 10.94 59.13 13.74 37.11 19.17 37.08 26.13 54.93 33.13 37.08 38.57 37.09 41.34 59.1 36.89 59.14 35 43.49 28.9 59.13"/>
      <polygon points="144.6 59.18 142.71 43.56 136.61 59.11 131.17 59.15 125 43.47 123.11 59.1 118.68 59.05 121.44 37.12 126.88 37.08 133.86 54.96 140.83 37.12 146.22 37.04 147.01 42.89 149.06 59.11 144.6 59.18"/>
      <path d="M114.19,37.07v12.95c0,1.15-.24,2.26-.53,3.33-.83,3.04-3.15,5.21-6.22,5.84-5.09,1.03-10.74-.33-12.22-5.52-.32-1.12-.68-2.42-.68-3.64l-.02-12.97,4.7.05v12.73c0,1.49.33,3.06,1.45,4.1,1.73,1.62,4.36,1.86,6.51.71,1.35-.72,2.36-2.34,2.38-4l.11-13.58h4.52Z"/>
      <path d="M82.91,59.03c-1.49.17-2.94.14-4.6.08v-17.91s-7.61,0-7.61,0v-4.13s19.83,0,19.83,0l.02,4.12h-7.63s0,17.84,0,17.84Z"/>
      <g>
        <path d="M67.89,51.03c-1.29,6.57-7.97,9.66-14.45,8.11-3.34-.8-6.09-2.9-7.37-6.17-1.99-5.09-.79-11.76,4.2-14.63,3.19-1.83,6.99-2.1,10.55-1.02,5.96,1.81,8.24,7.79,7.08,13.71ZM62.97,51.39c1.16-2.87.69-7.27-2.04-9.24-1.8-1.31-4.06-1.44-6.21-1.03s-3.65,1.79-4.4,3.77c-.55,1.46-.59,3.05-.44,4.61.29,3.12,2.62,5.46,5.71,5.75,3.28.31,6.11-.75,7.37-3.86Z"/>
        <rect x="51.65" y="30.47" width="10.13" height="3.06"/>
      </g>
    </g>
  </g>
</svg>