<?xml version="1.0" encoding="UTF-8"?>
<svg id="Layer_2" data-name="Layer 2" xmlns="http://www.w3.org/2000/svg" viewBox="0 0 160 90">
  <defs>
    <style>
      .cls-1 {
        fill: #592981;
      }

      .cls-2 {
        fill: #eda804;
      }

      .cls-3 {
        fill: #b094d9;
      }
    </style>
  </defs>
  <g>
    <path class="cls-2" d="M65.56,89.67l-1.74.02-4.97-7.29-.05,7.29c-.46.03-.85.05-1.36-.04v-9.3s1.73,0,1.73,0l4.95,7.31.06-7.3h1.36s0,9.32,0,9.32Z"/>
    <path class="cls-2" d="M75.29,85.76l-1.98-.05v-1.25s3.37,0,3.37,0v4.71c-2.54,1.15-5.68,1.28-7.49-.88-1.92-2.29-1.39-6,1.15-7.53,1.28-.77,2.42-.77,3.96-.63.87.08,1.63.66,2.31,1.17l-1.07,1.09c-1.61-1.52-4.19-1.32-5.39.53-.77,1.18-.81,2.58-.15,3.86.54,1.05,1.72,1.8,3.1,1.9l1.76-.29c.29-.05.45-.27.45-.56l-.02-2.07Z"/>
    <path class="cls-2" d="M52.97,87.46h-4.29s-.9,2.23-.9,2.23c-.56,0-1.1.08-1.65-.06l4.08-9.23,1.36-.04,3.93,9.27c-.52.15-1,.06-1.57.07l-.97-2.24ZM52.48,86.2l-1.63-3.93-1.7,3.93h3.33Z"/>
    <polygon class="cls-2" points="101.93 85.55 97.58 85.61 97.58 88.43 102.54 88.46 102.54 89.71 96.17 89.71 96.17 80.34 102.29 80.33 102.29 81.58 97.58 81.61 97.58 84.19 101.91 84.21 101.93 85.55"/>
    <polygon class="cls-2" points="85.44 85.55 81.09 85.61 81.09 88.43 86.04 88.46 86.04 89.71 79.68 89.71 79.68 80.34 85.79 80.34 85.79 81.58 81.09 81.61 81.06 84.21 85.42 84.21 85.44 85.55"/>
    <path class="cls-2" d="M110.33,85.93c.6,1.3,0,2.99-1.28,3.63-1.56.77-4.16.44-4.86-.95.38-.33.62-.72,1.11-.99.5.65,1.11,1.01,1.85,1.04.66.02,1.39-.33,1.77-.94.32-.53.07-1.14-.42-1.46-1.11-.72-3.33-.74-3.89-2.45-.31-.94-.22-1.83.34-2.55.71-.9,1.74-1.23,2.84-1.2,1.04.04,2.04.25,2.67,1.17-.33.35-.72.64-1.14.91-.57-.56-1.23-.88-1.97-.77-.84.13-1.61.78-1.37,1.68.1.37.55.82.89.94l1.89.65c.63.22,1.27.63,1.58,1.29Z"/>
    <polygon class="cls-2" points="94.15 88.45 94.16 89.71 88.55 89.71 88.55 80.35 89.93 80.35 89.93 88.45 94.15 88.45"/>
    <g>
      <path class="cls-2" d="M32.38,85.02c0,2.75-2.23,4.98-4.99,4.98s-4.99-2.23-4.99-4.98,2.23-4.98,4.99-4.98,4.99,2.23,4.99,4.98ZM29.49,87.9c1.55-1.22,1.76-3.45.68-5.07s-3.53-1.99-5.06-.57c-1.64,1.52-1.55,4.33.18,5.66,1.3.99,2.89,1.01,4.2-.01Z"/>
      <path class="cls-2" d="M38.59,89.69c-1.48.59-3.85.26-4.57-1.11.35-.42.72-.64,1.18-.97.55.98,1.88,1.33,2.92.76.46-.25.7-.63.72-1.12s-.24-.99-.79-1.18l-1.94-.68c-1.39-.48-2.03-1.81-1.76-3.22.26-1.34,1.54-2.12,2.96-2.13,1.1,0,2.16.12,2.94,1.06-.29.44-.68.76-1.1,1.16-.56-.82-1.44-1.11-2.33-.81-.44.15-.77.35-.92.69-.18.41-.19.99.12,1.31,1.28,1.33,4.2.67,4.31,3.36.05,1.22-.49,2.35-1.76,2.86Z"/>
      <polygon class="cls-2" points="21.04 88.45 21.06 89.71 15.45 89.71 15.45 80.36 16.82 80.35 16.84 88.43 21.04 88.45"/>
    </g>
  </g>
  <path class="cls-1" d="M103.03,55.26c-.54.89-1.63,1.13-2.38.51-.6-.5-.87-1.16-.67-1.91.16-.65.68-1.26,1.48-1.35.69-.08,1.33.3,1.62.79.36.61.33,1.35-.05,1.97Z"/>
  <g>
    <g>
      <path class="cls-1" d="M92.56,44.73l-.07-12.48-6.19,15.33c-.32.07-.57.09-.81-.01l-5.79-15.48v12.24c0,.66.32,1.46.78,1.83.63.5,1.42.59,2.18.74v1.09s-7.34,0-7.34,0v-1.11c.8-.06,1.8-.12,2.37-.76.49-.55.56-1.45.57-2.2l.05-10.3c0-.53-.13-1.18-.39-1.61-.5-.85-1.52-1.17-2.46-1.14v-1.12s6.24,0,6.24,0l5.12,13.37,3.8-9.69c.48-1.23.91-2.38,1.19-3.69h5.98s0,1.11,0,1.11c-1.22.03-2.48.24-2.48,1.27v13.34c0,1.06,1.26,1.42,2.49,1.4v1.12s-8.1,0-8.1,0v-1.15c.89.08,1.74.02,2.47-.5.31-.46.4-1.02.4-1.61Z"/>
      <path class="cls-1" d="M102.48,48.27c-2.14-.04-3.5-1.82-3.13-3.86.43-2.37,2.28-2.73,4.36-3.5l2.93-1.08c.14-1.35-.13-2.98-1.23-3.59-.92-.5-2.08-.3-2.87.4.17.66.44,1.35.15,2.02-.33.75-1.49,1.04-2.16.59-.51-.34-.65-1-.6-1.55s.39-.97.83-1.4c1.46-1.41,3.31-1.41,5.25-1.28,1.69.11,2.97,1.43,3.09,3.14v4.5s-.05,2.82-.05,2.82c0,.49.41,1.04.88,1.2.39.14.82,0,1.21.03.05.4.06.69-.04,1.07-.69.16-1.35.45-2.05.44-1.15-.02-2.11-.61-2.41-1.82-1.05,1.33-2.47,1.89-4.17,1.86ZM106.63,43.98l.02-2.9-1.53.47c-1.68.52-3.2,1.63-3.09,3.45.07,1.08,1.02,1.91,2.16,1.73,1.64-.25,2.44-1.15,2.44-2.75Z"/>
      <path class="cls-1" d="M133.38,37.91l-4.33,10.31-1.03,2.12c-.45.93-1.02,1.75-1.8,2.44-1.05.95-2.6,1.15-3.71.23-.38-.32-.53-.85-.47-1.32.05-.36.29-.89.74-1.1.9-.43,1.9.19,2.31,1.07l.19.27c.3.43,2.24-2.77,2.73-4.09l-4-9.8c-.4-.99-1.08-1.67-2.21-1.77v-1.02s5.85,0,5.85,0v1.13c-.52-.02-.98.04-1.44.38l3.19,7.73,2.9-7.28c-.15-.59-1.04-.87-1.6-.97-.1-.36-.06-.64-.03-.99h4.71s0,.98,0,.98c-.97.21-1.62.75-2.02,1.7Z"/>
      <path class="cls-1" d="M139.29,47.95h-1.13s-.03-3.21-.03-3.21c0-.42-.21-.8-.08-1.24.34-.04.69-.05,1.05.04.2,1.03.73,1.84,1.44,2.54,1.22,1.2,3.08,1.49,4.32.48.59-.48.64-1.29.47-2.05-.13-.59-.7-1.09-1.4-1.34l-2.75-.98c-.89-.32-1.68-.82-2.26-1.65-.81-1.19-.73-2.95.18-4.07,1.53-1.87,4.08-1.82,6.27-.99l.3-.6c.31-.05.64-.06.93,0,.29.9.11,1.79.17,2.72.03.5.22.96.09,1.48-.3.04-.62.04-.98-.01-.29-1.3-1.01-2.47-2.3-2.89-.97-.31-2.01-.24-2.71.53-.42.46-.5,1.32-.22,1.87s.85.89,1.41,1.09l2.67.96c1.01.36,1.97,1.01,2.46,2.02.72,1.49.32,3.37-.9,4.43-1.01.87-2.24,1.18-3.53,1.14-.59-.02-1.17.05-1.7-.2l-1.57-.74c-.13.2-.15.35-.22.65Z"/>
      <path class="cls-1" d="M111.85,47.05c.89-.2,1.8-.19,1.8-1.1l.02-7.84c0-1.08-.93-1.77-1.98-1.73v-1.03c.76.1,1.46-.02,2.22-.09.6-.05,1.17.05,1.76-.15.19-.07.48.08.49.26l.05,1.55c1.22-1.5,3.5-2.62,4.78-1.43.43.4.58.99.57,1.64-.01.93-.64,1.72-1.58,1.58-.49-.07-.93-.29-1.13-.6-.28-.45-.24-.99-.06-1.52-1.13.09-2.02.86-2.62,1.8v7.23c-.01.59.26,1.05.87,1.15l1.5.25v.97s-6.72,0-6.72,0c-.02-.28-.09-.62.04-.93Z"/>
      <path class="cls-1" d="M136.49,35.4l-.45-.89,1.45-.95c.64-.42,1.04-1.27,1.07-2.08-.76.07-1.55.08-1.96-.51s-.43-1.36-.07-1.89c.41-.61,1.09-.81,1.84-.67.8.15,1.29.62,1.45,1.46.12.65.21,1.49,0,2.16-.43,1.44-1.87,2.72-3.33,3.37Z"/>
    </g>
    <g>
      <path class="cls-1" d="M25.59,42.49c.12,3.3-2.25,5.47-5.49,5.81-1.67.17-3.4-.27-4.94-1.06-.34-.17-.7.42-.71.7l-1.25.03-.07-3.8-.06-2.55h1.15c.36,1.42.91,2.71,1.88,3.83,1.49,1.72,4.15,2.25,5.98.79.9-.72.98-2.06.75-3.14-.21-.97-.89-1.9-1.95-2.32l-1.95-.78c-.9-.36-1.75-.71-2.62-1.12-1.89-.9-2.9-2.66-2.76-4.79s1.75-3.88,3.9-4.49c3.17-.9,5.24.99,5.65.88.27-.07.29-.73.59-.72h1c0,.83.04,1.6.06,2.42l.08,3.67h-1.16s-.73-2.13-.73-2.13c-.27-.79-.75-1.55-1.37-2.09-1.26-1.11-3.09-1.42-4.39-.43-1.07.8-1.39,2.02-.92,3.24.39,1.01,1.3,1.66,2.29,2.07l1.24.51c2.71,1.12,5.66,1.92,5.79,5.47Z"/>
      <path class="cls-1" d="M50.93,45.74c0,.87.86,1.13,1.86,1.27v.98s-6.22,0-6.22,0v-.98c.47-.09,1.05-.04,1.43-.33s.44-.95.44-1.44l-.05-7.33c0-.98-.95-1.55-1.85-1.48-.19-.36-.15-.76-.04-1.08.77.08,1.37-.07,2.06-.09l1.36-.04c.24,0,.93-.26.95.06l.08,1.58c.38-.2.7-.54,1-.82.98-.91,2.17-1.09,3.5-1.07,1.67.03,3.15,1.32,3.16,3.11l.07,7.41c.01,1.15.58,1.32,1.84,1.52v.98s-6.21,0-6.21,0v-.99s.99-.14.99-.14c.41-.06.87-.39.87-.88l-.06-7.3c0-.86-.67-1.8-1.48-1.99-1.48-.34-2.94.44-3.71,1.67v7.37Z"/>
      <path class="cls-1" d="M29.12,48.11c-1.85-.54-2.53-2.51-2.02-4.2.28-.91.88-1.59,1.75-2.02,1.68-.85,3.67-1.22,5.44-2.05.09-.86,0-1.71-.31-2.5-.4-1-1.35-1.5-2.42-1.33-.5.08-.98.32-1.4.59.15.67.44,1.32.21,2-.27.8-1.5,1.16-2.19.67s-.82-1.48-.39-2.18c.74-1.2,2.02-1.87,3.43-2.04h2.43c1.83,0,3.12,1.59,3.11,3.39l-.02,3.76-.03,3.4c0,.56.43,1.14.96,1.14l1.12.02c.04.34.04.62-.01.97-.75.27-1.52.56-2.32.51-1.08-.07-1.88-.7-2.16-1.78-.65.64-1.28,1.23-2.14,1.52s-2.04.44-3.05.15ZM34.23,45.15c-.08-.73-.08-1.37.1-2.03l-.06-2.05c-1.78.48-3.62,1.11-4.38,2.62-.35.7-.32,1.8.18,2.42.95,1.18,3.22.65,4.16-.96Z"/>
      <path class="cls-1" d="M69.25,46.3c.11.38.1.72,0,1.12l-2.07.67c-1.01.33-2.13.25-3.1-.27-.6-.32-1.09-1.14-1.09-1.88l-.05-9.2h-2.23s0-1.38,0-1.38h2.24s0-3.87,0-3.87h2.5s0,3.87,0,3.87h3.62s0,1.37,0,1.37h-3.63s.05,8.06.05,8.06c0,.51.26,1.06.53,1.31.58.55,2.09.49,3.25.2Z"/>
      <path class="cls-1" d="M39.52,46.97c.46.08,1.72-.07,1.73-.77l.09-7.96c0-.9-.53-1.6-1.43-1.73-.22-.03-.62-.05-.78-.21-.14-.24-.07-.63-.04-.95.81.05,1.54-.09,2.35-.11l1.35-.03c.34,0,.63-.18,1.02-.02l.02,10.53c0,.86.88,1.12,1.85,1.29v.97s-6.21,0-6.21,0c-.02-.32-.09-.56.06-1.02Z"/>
      <path class="cls-1" d="M43.3,31.83c-.6.51-1.61.39-2.12-.18-.43-.48-.58-1.03-.46-1.67.09-.47.4-1.11,1.02-1.3.36-.11.91-.12,1.27,0,.63.21.99.88,1.06,1.38.09.71-.18,1.26-.77,1.77Z"/>
    </g>
  </g>
  <g>
    <g>
      <path class="cls-1" d="M101.58,25.47c-1.91-1.21-4.12-3.26-5.33-5.17-.74-1.14-1.16-2.34-1.31-3.71v-7.64s9.48,2.4,9.48,2.4v15.82c-1.06-.42-1.91-1.1-2.84-1.69Z"/>
      <path class="cls-3" d="M112.72,22.17c-1.56,1.87-3.7,3.22-5.77,4.48-.33.2-.62.42-1.03.34v-15.6s9.35-2.37,9.35-2.37l.03,7.99c-.32,1.98-1.23,3.71-2.58,5.16Z"/>
      <path class="cls-1" d="M101.48,1.89l-2.41-.78c2.58-.62,6.57.08,8.1,2.01.1.13.12.34.21.38.13.05.32,0,.47-.07,1.42-.67,2.17-1.95,2.93-3.43.83,1.58.11,3.22-1.21,4.18-1.01.73-2.15,1.15-3.37,1.48-.35-1.95-2.8-3.15-4.72-3.77Z"/>
      <path class="cls-2" d="M104.37,9.93l-9.03-2.14c1.14-1.03,2.59-1.31,4.02-1.1,1.94.4,3.87,1.32,5.01,3.24Z"/>
      <path class="cls-2" d="M106.17,10.04c-.35-.46.05-.98.48-1.33,1.83-1.49,4.86-.19,7.53-2.18l1.04-.98c.36.68.36,1.41.29,2.23l-9.34,2.25Z"/>
      <path class="cls-2" d="M104.63,8.47c-2.51-2.58-5.2-4.58-8.51-2.79,1.12-1.74,3.47-2.43,5.33-1.7,1.58.62,2.93,2.79,3.18,4.48Z"/>
      <path class="cls-2" d="M113.71,5.15c-1.21,1.41-3.77,2.09-5.65,1.76,1.01-.5,1.88-.84,2.71-1.44.99-.68,1.74-1.58,2.14-2.81.51.81.61,1.6.8,2.49Z"/>
    </g>
    <g>
      <path class="cls-1" d="M47.59,20.78c-.75,1.8-2.26,3.07-4.18,3.46-2.02.41-4.1-.01-5.62-1.49-2.68-2.62-2.64-7.81.19-10.32,1.23-1.09,2.82-1.45,4.46-1.43,2.06.02,3.85,1.11,4.9,2.86,1.13,1.91,1.12,4.85.25,6.92ZM44.77,13.93c-.66-1.4-1.91-2.09-3.43-1.75-3.22.72-3.56,7.54-1.36,10.16.64.76,1.57,1.07,2.58.88,3.18-.59,3.5-6.56,2.2-9.29Z"/>
      <g>
        <path class="cls-1" d="M68.18,21.75c0,.85.89,1.18,1.87,1.25v1s-6.23,0-6.23,0v-1.01c.56.04,1.16-.01,1.58-.41.26-.25.3-.71.29-1.09l-.05-7.58c0-.97-.94-1.54-1.81-1.42-.2-.2-.26-.77-.09-.92.42-.36,1.06-.14,1.56-.21.75-.1,1.38-.16,2.13-.12l.42-.1c.11-.03.31.18.31.36l.05,1.56c1.07-1.37,2.39-2.06,4.1-2.11,1.8-.05,3.38,1.04,3.54,3.01l.1,7.85c.01.82.87,1.1,1.84,1.16v1s-6.23,0-6.23,0c-.02-.35-.08-.65.05-1.02.46.09,1.74-.07,1.74-.77l.02-7.52c0-.73-.52-1.38-.92-1.68-1.23-.93-3.36-.07-4.28,1.41v7.32Z"/>
        <path class="cls-1" d="M62.81,22.71c.23.24.13.59.13.96-.7.23-1.47.16-2.25.22-.72.06-1.38.17-2.13.08l-.03-1.63c-1.29,1.33-2.33,2-4.22,1.93-.86-.03-1.72-.13-2.35-.82-.53-.58-.98-1.38-.99-2.22l-.06-7.19c0-1.03-.86-1.64-1.91-1.52-.11-.27-.07-.58-.07-.95.66-.26,1.39-.16,2.13-.22.91-.08,2.08-.21,2.12-.18.14.09.25.24.25.46l.05,9.33c0,.77.69,1.55,1.37,1.71,1.56.37,2.94-.48,3.72-1.82l-.04-6.82c0-.68-.48-1.34-1.1-1.5l-1.23-.03-.03-.93c.63-.25,1.32-.16,2.02-.22,1.05-.08,2.6-.19,2.61-.18.14.09.26.24.26.46v10.09c.26.7.85,1.16,1.74.99Z"/>
        <path class="cls-1" d="M86.52,22.31v1.17s-1.58.53-1.58.53c-1.53.51-3.94.44-4.46-1.19-.11-.34-.29-.71-.29-1.09v-8.97s-2.25,0-2.25,0v-1.37s2.24,0,2.24,0v-3.87s2.5,0,2.5,0v3.87s3.62,0,3.62,0v1.37s-3.62,0-3.62,0l.02,7.73.22,1.02c.28,1.3,2.04,1.27,3.61.81Z"/>
      </g>
      <g>
        <path class="cls-1" d="M29.76,21.37l-.05-13.11-6.27,15.37c-.09.23-.67.23-.75.01l-5.83-15.43v12.13c-.01.66.29,1.37.7,1.8.56.58,1.63.55,2.36.91.05.31.05.62,0,.96h-7.44c-.07-.36-.09-.73.06-1.03.67-.2,1.4-.12,2-.54s.87-1.33.87-2.13l.02-11.12c0-1.48-1.34-2.31-2.84-2.29v-1.01s6.31,0,6.31,0l5.09,13.29,4.11-10.51c.37-.94.64-1.79.86-2.78h5.98s0,.99,0,.99c-1.24.07-2.49.32-2.49,1.41v13.2c0,.73.61,1.16,1.23,1.28l1.23.25c.06.35.06.65,0,.99h-8.08c-.04-.35-.05-.66,0-.97l1.96-.35c.38-.07.96-.76.96-1.32Z"/>
        <path class="cls-1" d="M29.76,21.37l-.05-13.11.05,13.11Z"/>
      </g>
    </g>
  </g>
  <g>
    <path class="cls-1" d="M23.95,54.06c.27-.1.64-.13.99-.08.54.07,1.01-.09,1.52-.1l4.88-.02c-.06.38-.04.61.07.77-.06.31-1.48.1-2.23.85-.42.42-.56,1.18-.56,1.8l-.1,9.91c-.01,1.41-.81,2.73-1.88,3.57-1.71,1.35-3.86,1.78-5.98,1.49-1.39-.2-2.7-.58-3.75-1.52-.83-.74-1.65-1.74-1.66-2.95l-.07-11.43c0-1.09-1.1-1.47-2.29-1.55-.11-.38-.1-.7-.04-1.09h7.57c.05.35.05.64-.01.99l-1.56.32c-.28.06-.77.45-.77.84l.02,11.3c0,.79.43,1.55.86,2.15.82,1.14,2.15,1.37,3.49,1.42,2.41.1,4.68-1.53,4.68-4.1v-8.74c0-.75-.15-1.72-.61-2.26-.6-.71-1.66-.68-2.45-.91-.22-.08-.14-.52-.13-.68Z"/>
    <path class="cls-1" d="M35.82,62.3v7.42c0,.5.28.88.76.99l1.07.26c.08.3.11.67-.05.87l-6.15-.02c-.04-.33-.05-.58.01-.76.12-.38,1.83.11,1.83-1.39v-7.56c0-1.11-.9-1.83-1.96-1.77v-1.02c.53.05.97-.09,1.5-.09l1.24-.02c.59-.01,1.18-.26,1.74-.01.05.56-.1,1.06.1,1.62,1.77-2.15,5.3-2.71,6.82-.74.41.53.78,1.29.78,2.05l.07,7.67c0,.42.27.77.64.87l1.19.32.03.84h-6.24c-.03-.33-.05-.58.02-.76.05-.16.33-.25.62-.22.53.05,1.22-.39,1.22-1.01l-.05-7.18c0-.94-.7-1.84-1.58-2.02-1.42-.29-2.81.44-3.61,1.66Z"/>
    <path class="cls-1" d="M71.35,70.55c2.09.6,3.67-.31,4.74-2.33l.97.63c-.92,2.02-2.79,3.27-4.98,3.39-2.85.16-5.3-1.56-5.98-4.33-.72-2.91-.2-6.14,2.21-7.96,1.99-1.5,4.85-1.49,6.83.07.91.72,1.29,1.88,1.51,2.97l.04,2.22h-8.25c0,2.26.75,4.71,2.92,5.33ZM74.02,64.07c.16-1.82-.36-3.61-1.9-4.01-.95-.25-1.87.08-2.54.83-.78.86-1.08,2.03-1.15,3.21l5.59-.03Z"/>
    <path class="cls-1" d="M97.43,67.64c.22,1.9-.67,3.42-2.35,4.14-1.81.78-3.9.58-5.58-.55-.2.03-.19.41-.27.59-.12.27-1.01.27-1.11-.02l-.08-4.29c.37-.05.65-.06.98,0,.31,1.12.86,2.14,1.78,2.84,1.1.84,2.54,1.08,3.77.37.62-.36.95-1.29.8-1.95-.16-.74-.63-1.32-1.4-1.59l-3.28-1.18c-1.13-.4-1.94-1.34-2.22-2.3-.38-1.28-.09-2.5.73-3.43,1.52-1.73,3.98-1.65,6.09-.79l.31-.59h1.08s.03,2.23.03,2.23c0,.63.18,1.21.08,1.86h-.99c-.17-.95-.62-1.65-1.33-2.28-.91-.81-2.31-.98-3.35-.28-.58.39-.77,1.04-.67,1.74.08.52.49,1.1,1.14,1.35l3.51,1.32c1.24.47,2.19,1.46,2.35,2.84Z"/>
    <path class="cls-1" d="M60.95,59.22h4.96c.06.34.07.63-.05.94-.89.1-1.61.69-1.97,1.52l-3.46,8.02-.77,2.23c-.4.05-.8.07-1.17,0l-4.5-10.76c-.26-.63-1.22-.77-1.74-.98-.12-.31-.08-.63-.04-.97h5.95c.05.35.05.64,0,.97l-1.13.24c-.25.05-.44.24-.32.52l3.06,7.51,2.41-5.76c.24-.57.47-1.11.55-1.75-.47-.51-1.08-.7-1.77-.75v-.99Z"/>
    <g>
      <path class="cls-1" d="M125.69,61.82l-3.1,7.44-2.39,5.24c-.37.82-.94,1.54-1.57,2.15-.97.94-2.37,1.2-3.52.51-.45-.27-.76-.71-.77-1.18s.16-1.09.63-1.36c.86-.5,1.88-.01,2.32.84.07.15.2.25.27.32.5.46,2.3-2.69,2.76-4.04l-4.33-10.46c-.28-.69-1.15-.92-1.77-1.09-.09-.33-.06-.63-.03-.98h5.83c.05.34.05.65-.01.99-.54.12-1.07.15-1.48.48l3.16,7.77,2.83-6.89c.1-.25.05-.54-.04-.76-.45-.35-.95-.54-1.54-.6v-.98s4.71,0,4.71,0c.05.35.04.64,0,.97-.93.21-1.58.73-1.96,1.62Z"/>
      <path class="cls-1" d="M113.65,71.35c-.71.28-1.43.63-2.24.71l-1.13.12c-.37.04-.79-.06-1.2-.15-.98-.21-1.72-1.19-1.73-2.26l-.06-9.17h-2.23s0-1.25,0-1.25h2.37s0-4,0-4h2.37s0,4,0,4h3.61s0,1.25,0,1.25h-3.62s.06,7.81.06,7.81c0,.78.28,1.69,1.06,1.94.85.27,1.76.12,2.7-.04.13.3.09.64.05,1.04Z"/>
    </g>
    <path class="cls-1" d="M77.86,71.85c-.1-.29-.13-.69.05-.94.88-.09,1.75-.08,1.76-.98v-7.95c.02-1.09-.8-1.65-1.97-1.64v-1c.53.05.98-.08,1.5-.09l1.35-.04c.54-.01,1.04-.2,1.6-.04l.07,1.73c1.22-1.54,3.53-2.6,4.75-1.53.94.82.71,2.62-.05,3.1-.46.29-1.31.18-1.74-.09-.64-.4-.56-1.12-.39-1.88-.84.19-2.29.85-2.52,1.87l-.05,7.48c0,1.08,2.09.96,2.26,1.16.14.16.11.47.07.83l-6.68.02Z"/>
    <path class="cls-1" d="M98.7,71.84c-.51-1.61,1.84-.47,1.84-1.88v-8.35c-.36-.92-1.25-1.25-2.23-1.25v-1.01c.58.04,1.07-.08,1.63-.09l1.47-.04c.54-.01,1.04-.2,1.62-.04l.04,10.65c0,.89,1.66,1.02,1.77,1.17.13.17.1.48.06.83l-6.21.02Z"/>
    <path class="cls-1" d="M46.96,70.85c.56.06,1.21-.39,1.21-1.04v-7.92c0-.67-.57-1.24-1.14-1.35l-1.08-.21v-.99c.53.05.98-.08,1.5-.09l1.47-.04c.57-.02,1.13-.19,1.74-.04l.07,10.88c0,.67,1.09.73,1.51.84.3.13.26.78.09.95h-6.02c-.04-.34-.05-.6.01-.77.05-.16.33-.25.62-.22Z"/>
    <path class="cls-1" d="M50.83,54.79c-.27.95-1.08,1.43-1.92,1.29-.96-.17-1.44-.99-1.36-1.99.08-1.06,1.01-1.74,2.01-1.54s1.59,1.17,1.28,2.24Z"/>
    <path class="cls-1" d="M31.42,54.64c-.11-.16-.13-.39-.07-.77l-4.88.02c-.51,0-.98.17-1.52.1-.35-.05-.73-.02-.99.08,0-.06-.03-.27.03-.33h7.44c.04.33.05.61,0,.9Z"/>
  </g>
</svg>