<?xml version="1.0" encoding="UTF-8"?>
<svg id="Layer_2" data-name="Layer 2" xmlns="http://www.w3.org/2000/svg" viewBox="0 0 160 90">
  <defs>
    <style>
      .cls-1 {
        fill: #231f20;
      }
    </style>
  </defs>
  <path class="cls-1" d="M90.66,40.32c-.1-.23-.47-.51-.63-.71l-2.2-2.7-2.25-2.18-2.69-2.18-1.63-1.11-1.75-1.2-1-.54-.4-.24c-.08-.05,0-.29.07-.34l.29-.19,2.87-2.12,8.57.05c2.2-.12,1.82-2.14,1.56-2.71-.26-.57-1.61-.75-1.61-.75l-9.21-.47-3.18,2.22s-4.02,2.93-4.52,3.54l-1.63,1.8c-.33.36-.61.76-.84,1.18-.44.81-1.21,2.17-1.21,2.17-.21.35-3.16,6.65-3.16,6.65,0,0-6,4.12-6.37,4.5-.23-.1-.56-.26-.61-.44,0,0-1.31-3.67-1.65-4.16-.47-.66-1.19-1.08-1.99-1.22l-.53-.09c-.47.02-.92.16-1.32.41l-.35.23c-.6.39-.97,1.06-.97,1.77v.69c0,.81.36,1.57,1,2.06.56.44,1.32.7,1.51.75l3.4.26c.33,0,.66.12,1,.45-.1.28-.21.79-.2,1,.04,1.01,1.34,1.66,2.12,1.18l.85-.52,5.16-3.45c1.08-.63,1.8-1.03,2.16-1.75,0,0,2.88-6.13,3.37-6.22.53-.1,3.1,2,3.1,2l4.47,3.79s-9.42,2.88-9.83,3.02c-.94.9-.92,1.65-.66,3.05.24.7,1.19,3.69,2.03,6.3l-21.16,4.32,1.66,1.35,19.88-4.45c.54,1.68.95,2.98.95,2.98.57,1.93,2.22,2.63,3.3,1.68l.2-.17c.57-.5.61-1.16.62-1.93,0-.34-.52-2.17-.91-3.49l15.64-3.5,8.23,10.51c.14.18.65.31,1.14.4.78.14,1.57-.16,2.04-.8.29-.39.43-1.23.33-1.58-.29-1-3.28-5.41-6.32-9.75l12.51-2.8v-.54l-12.99,2.65c-3.02-4.27-5.96-8.28-6.25-8.63ZM75.99,53.22c-.05-.15-.08-.25-.08-.25,0,0-1.36-4.5-1.29-4.86l.46-.24c.68-.64,7.79-2.51,10.37-3.18.53-.14,1.15-.21,1.53.18.54.55,1.17,1.28,1.64,1.7l2.75,3.51-15.38,3.14Z"/>
  <circle class="cls-1" cx="48.09" cy="47.15" r="1.47"/>
  <path class="cls-1" d="M69.02,31.27c1.8-.89,2.42-3.33,1.37-5.44-1.05-2.11-3.36-3.1-5.16-2.2s-2.42,3.33-1.37,5.44c1.05,2.11,3.36,3.1,5.16,2.2Z"/>
  <polygon class="cls-1" points="62.77 69.41 65.91 72.57 79.47 66.78 77.12 64.7 62.77 69.41"/>
  <polygon class="cls-1" points="85.01 62.06 87.36 64.19 97.11 60.03 95.83 58.89 85.01 62.06"/>
  <polygon class="cls-1" points="103.2 56.49 104.22 57.53 109.67 55.03 108.59 54.64 103.2 56.49"/>
  <path class="cls-1" d="M124.15,42.94L82.06.85c-1.13-1.13-2.98-1.14-4.11,0l-42.09,42.09c-.55.55-.85,1.28-.85,2.06s.3,1.51.85,2.06l42.09,42.09c.55.55,1.28.85,2.06.85s1.51-.3,2.06-.85l42.09-42.09c1.13-1.13,1.13-2.98,0-4.11ZM123.23,46.14l-42.09,42.09c-.6.61-1.68.61-2.28,0l-42.09-42.09c-.3-.3-.47-.71-.47-1.14s.17-.84.47-1.14L78.86,1.77c.32-.31.73-.47,1.14-.47s.83.16,1.14.47l42.09,42.09c.63.63.63,1.65,0,2.28Z"/>
</svg>