<?xml version="1.0" encoding="UTF-8"?>
<svg id="Layer_2" data-name="Layer 2" xmlns="http://www.w3.org/2000/svg" viewBox="0 0 160 90">
  <defs>
    <style>
      .cls-1 {
        fill: #d8d679;
      }
    </style>
  </defs>
  <g id="_6OXfAD.tif" data-name="6OXfAD.tif">
    <g>
      <g>
        <path d="M85.69,86.82c-3.01,2.67-7.48,3.73-11.46,2.9l-1.71-.35c-3.86-1.09-6.83-3.91-7.82-7.85l-.52-2.7c-.22-1.13-.22-2.45,0-3.58l.52-2.53c1.85-6.83,7.97-10.03,14.91-9.22,4.1.48,7.56,2.91,9.13,6.69l.54,1.3.48,1.93c.23,1.82.23,3.7,0,5.54l-.53,2.16c-.55,2.26-1.85,4.19-3.56,5.71ZM80.61,83.66c1.23-.79,2.09-1.96,2.61-3.25.32-.79.42-1.57.58-2.37.68-3.41-.6-7.68-3.86-8.95-2.37-.92-4.77-.53-6.78.96-1.48,1.1-2.25,2.73-2.84,4.55,0,0-.38,1.42-.38,2.49s.41,2.69.41,2.69l.53,1.14c.36.77.91,1.7,1.63,2.27,2.29,1.83,5.65,2.06,8.1.48Z"/>
        <path d="M127.9,89.76c-1.93.43-5.1.1-6.84-.49-2.52-.85-4.51-2.63-5.28-5.25l-.27-2.06,4.03-.66,1.24-.21.49,1.21c.98,2.41,3.16,2.81,5.74,2.61,1.16-.09,2.28-.55,2.88-1.65l-.02-1.79c-.69-.85-1.69-1.33-2.7-1.62l-1.34-.38-1.53-.39-3.25-1.16c-1.57-.56-2.86-1.83-3.5-3.35-.78-1.85-.71-3.84-.08-5.72,1.63-4.84,8.11-6.47,13.05-4.9,2.3.73,4.1,2.47,4.86,4.66.22.65.47,1.29.32,1.91l-1.7.35-2.78.51c-.15.03-.57.11-.62-.02l-.24-.73c-.55-1.69-2.87-2.75-4.88-2.23-1.2.31-2.15.98-2.52,2.38-.22.83.51,2,1.39,2.45,3.67,1.86,9.37,1.47,11.38,6.14l.11,1.14c.4.82.22,1.78.03,2.66-.15.73-.25,1.36-.61,2.03-1.06,1.95-2.84,3.35-4.96,4.04l-2.39.53Z"/>
        <path d="M110.42,87.54c-2.55,2.09-6.87,2.87-10.07,2.19l-2.27-.48c-3.22-1.06-5.51-3.84-5.48-7.35l2.96-.48,2.3-.35.8,1.88c1.07,2.51,7.59,2.92,8.36.01.3-1.13-.33-2.19-1.35-2.58l-1.14-.44-1.82-.54c-3.31-.98-7.29-1.71-8.37-5.74-.33-1.23-.34-2.87,0-4.12,1.45-5.54,8.24-7.26,13.35-5.6,2.38.77,4.14,2.6,4.88,4.95.16.5.3,1.2.2,1.63l-1.61.32-2.92.54c-.12.02-.49.11-.52.01l-.19-.59c-.65-1.98-3.01-2.92-5.05-2.42-1.32.33-2.51,1.37-2.4,2.88.09,1.16,1.1,1.94,2.12,2.29l1.52.52c3.46,1.17,8.08,1.55,9.12,5.68.74,2.96-.05,5.84-2.41,7.78Z"/>
        <path d="M55.22,88.86c0,.48-.34.8-.69.8l-5.24-.04v-20.67s-7.28-.02-7.28-.02l-.57.05c-.12.01-.26-.28-.35-.44l.04-4.82h22.57s-.65,5.21-.65,5.21h-6.82c-.29,0-.75.19-1.02.36v19.59Z"/>
      </g>
      <g>
        <path d="M86.23,8.61l-.52,1.78-.46,1.58-.47,1.64-.46,1.6-.49,1.72-.46,1.61-.28,1-.49,1.74-.42,1.43-.49,1.64-.44,1.46-6.5.02c-.45-.79-.6-1.65-.79-2.51l-.48-2.12-.45-1.94-.49-2.12-.45-1.96-.49-2.06-.5-2.1-.33-1.53c-.13-.61-.23-1.21-.72-1.49l-.6,2.29-.41,1.46-.48,1.71-.49,1.77-.52,1.89-.41,1.49-.51,1.85-.45,1.63-.54,1.86c-.17.59-.2,1.32-.7,1.83h-6.47s-.71-2.47-.71-2.47l-.55-2.2-.44-1.79-.48-1.93-.51-2.05-.44-1.78-.46-1.82-.47-1.89-.51-2.06-.45-1.78-.48-1.93-.51-2.09c-.16-.66-.43-1.24-.36-1.98h5.71c.32.82.55,1.65.75,2.53l.41,1.83.52,2.25.49,2.09.45,1.93.45,1.94.49,2.12c.38,1.65.37,2.59.79,2.51.13-.02.3-.29.34-.42l.47-1.94.49-1.71.52-1.88.45-1.64.49-1.76.44-1.59.51-1.91.49-1.76.42-1.46.31-1.14,6.93-.02c.45.79.54,1.77.76,2.7l.46,1.95.5,2.23.5,2.24.42,1.83.51,2.26.47,2.09.55,2.02c.26-.49.5-1.02.63-1.51l.46-1.77.42-1.49.49-1.76.48-1.74.51-1.89.48-1.79.44-1.61.48-1.73c.18-.67.31-1.48.77-2.01h5.22c-.03.74-.22,1.32-.41,2l-.5,1.71-.5,1.74-.43,1.49-.48,1.66Z"/>
        <path d="M126.31,25.78l-5.17.02-10.73-15.01-.38-.45c-.09-.1-.52.08-.54.21v15.25s-5.19.04-5.19.04c-.17-.17-.35-.62-.35-.92V.06s5.33-.04,5.33-.04l10.93,15.33.27.22c.06.05.16-.04.31-.16V.05s5.01-.05,5.01-.05l.36.17c.14.07.16.52.16.74v24.87Z"/>
        <rect x="92.11" y=".02" width="5.88" height="25.8"/>
      </g>
    </g>
  </g>
  <g>
    <path class="cls-1" d="M71.48,31.92h-5.49s-.01,9.96-.01,9.96c0,.26-.47.35-.68.35h-9.77c-.37-.09-.36-.43-.36-1.05l-.02-9.22-5.27-.03c-.31,0-.58.22-.64.52-.05.28-.06.54-.06.87l.02,24.48h5.94s.03-9.53.03-9.53c.07-.38.27-.74.68-.74l9.55.02c.31,0,.57.25.57.57l.03,9.71,5.49.02c.29-.02.68-.17.68-.65v-24.56c.01-.44-.28-.71-.68-.71Z"/>
    <path class="cls-1" d="M84.52,52.56c-.32,0-.49-.28-.49-.57l.02-4.43h10.27c.47-.01.82-.22.82-.82v-3.98c0-.37-.31-.66-.69-.66l-10.41-.04v-4.84s11.12,0,11.12,0c.35-.04.68-.31.68-.66v-4.13c-.02-.38-.27-.68-.69-.68l-17.31.02v25.87c0,.28.47.36.69.36h16.94c.33-.44.52-.99.52-1.54v-3.89s-11.48-.01-11.48-.01Z"/>
  </g>
  <path class="cls-1" d="M38.06,57.13c0,.48-.34.8-.69.8l-5.24-.04v-20.67s-7.28-.02-7.28-.02h-.54c-.2-.02-.33-.15-.38-.39l.04-4.82h22.57s-.65,5.21-.65,5.21l-7.84.02v19.92Z"/>
</svg>