<svg width="70" height="70" viewBox="0 0 70 70" fill="none" xmlns="http://www.w3.org/2000/svg">
<circle cx="35" cy="35" r="35" fill="#0C9FAA"/>
<path d="M34.6875 15C23.8144 15 15 23.8144 15 34.6875C15 45.5606 23.8144 54.375 34.6875 54.375C45.5606 54.375 54.375 45.5606 54.375 34.6875C54.375 23.8144 45.5606 15 34.6875 15ZM46.7525 46.7525C43.7608 49.7352 39.7659 51.4973 35.546 51.6954C31.3261 51.8935 27.1837 50.5134 23.9258 47.8241C20.6679 45.1347 18.5279 41.3288 17.9228 37.1478C17.3178 32.9668 18.291 28.7104 20.6529 25.2078C23.0147 21.7052 26.596 19.2074 30.6989 18.201C34.8018 17.1947 39.1324 17.752 42.8469 19.7642C46.5614 21.7765 49.3937 25.0995 50.7919 29.086C52.19 33.0724 52.054 37.4366 50.4102 41.3282C49.5535 43.356 48.3113 45.1981 46.7525 46.7525Z" fill="#FEFFFF"/>
<path d="M26 34.3253L27.8562 36.1814L34.0129 30.0248V45.3973H36.6379V30.0248L42.7946 36.1814L44.6508 34.3253L35.3254 25L26 34.3253V34.3253Z" fill="#FEFFFF"/>
</svg>
