<svg width="465" height="557" viewBox="0 0 465 557" fill="none" xmlns="http://www.w3.org/2000/svg">
<path d="M387.13 265.803L417.961 256.585C409.728 248.068 406.147 240.045 407.217 232.515H387.13V265.803Z" fill="#9F616A"/>
<path d="M419.24 519.931L409.385 521.452L397.513 401.768L378.56 520.945L368.39 521.452V370.326H431.26L419.24 519.931Z" fill="#2F2E41"/>
<path d="M373.395 544.085C374.961 544.133 376.497 543.617 377.759 542.621C379.02 541.625 379.935 540.205 380.356 538.587L381.085 526.929L379.615 518.66C375.738 515.246 371.819 515.317 367.86 518.66L366.597 535.979C366.523 536.995 366.643 538.017 366.948 538.982C367.254 539.947 367.739 540.836 368.375 541.594C369.01 542.352 369.783 542.963 370.646 543.391C371.509 543.82 372.444 544.055 373.395 544.085Z" fill="#2F2E41"/>
<path d="M414.219 544.085C415.72 544.133 417.192 543.617 418.401 542.621C419.61 541.625 420.486 540.205 420.89 538.587L421.589 526.929L420.18 518.66C416.465 515.246 412.709 515.317 408.915 518.66L407.705 535.979C407.634 536.995 407.748 538.017 408.041 538.982C408.334 539.947 408.799 540.836 409.408 541.594C410.017 542.352 410.758 542.963 411.585 543.391C412.412 543.82 413.308 544.055 414.219 544.085Z" fill="#2F2E41"/>
<path d="M391.361 248.493C381.679 248.493 373.83 239.849 373.83 229.186C373.83 218.523 381.679 209.879 391.361 209.879C401.044 209.879 408.893 218.523 408.893 229.186C408.893 239.849 401.044 248.493 391.361 248.493Z" fill="#9F616A"/>
<path d="M367.786 374.321H437.91C428.821 329.951 428.847 294.216 436.086 265.316C436.548 263.476 436.348 261.522 435.525 259.828C434.702 258.134 433.314 256.819 431.628 256.136L412.762 248.493C407.098 256.198 399.106 259.563 386.647 254.606L376.761 256.742C374.353 257.259 372.206 258.678 370.715 260.735C369.224 262.792 368.492 265.348 368.654 267.931C369.381 279.233 369.094 290.623 369.72 300.454C371.659 330.9 372.496 354.634 367.786 374.321Z" fill="#0C9FAA"/>
<path d="M407.794 205.988C407.794 205.988 400.437 191.166 386.333 200.156L382.987 200.368L384.829 202.904C384.829 202.904 371.937 205.954 370.31 218.553C370.31 218.553 372.208 218.503 373.006 219.22C373.803 219.937 373.141 225.494 373.141 225.494C373.141 225.494 375.297 221.867 375.847 221.483C376.397 221.099 381.474 228.597 393.623 222.243C393.623 222.243 394.949 231.932 398.745 231.831C402.541 231.73 407.381 233.448 408.313 240.44C408.313 240.44 426.301 214.728 407.794 205.988Z" fill="#2F2E41"/>
<path d="M437.358 360.554L431.562 369.291C430.958 370.201 430.522 371.237 430.277 372.339C430.033 373.441 429.986 374.586 430.139 375.709C430.291 376.831 430.641 377.908 431.167 378.877C431.694 379.846 432.386 380.687 433.204 381.352C434.258 382.209 435.489 382.748 436.78 382.918C438.071 383.087 439.38 382.882 440.58 382.322C441.781 381.762 442.834 380.865 443.64 379.717C444.445 378.57 444.976 377.209 445.181 375.765L446.839 364.109L450 313.831L447.742 288.438L433.294 294.533L437.358 316.37V360.554Z" fill="#9F616A"/>
<path d="M431.367 301.088L449.396 291.869L448.471 284.614C448.471 278.606 446.832 272.74 443.768 267.783C440.704 262.827 436.359 259.012 431.303 256.84L425.819 254.485L431.367 301.088Z" fill="#0C9FAA"/>
<path d="M365.093 362.551L371.064 371.288C371.686 372.199 372.136 373.235 372.388 374.336C372.64 375.438 372.688 376.583 372.531 377.706C372.373 378.828 372.013 379.905 371.471 380.874C370.928 381.843 370.215 382.684 369.372 383.349C368.287 384.206 367.018 384.745 365.688 384.915C364.358 385.084 363.01 384.879 361.772 384.319C360.535 383.759 359.45 382.862 358.62 381.715C357.79 380.567 357.244 379.206 357.032 377.762L355.324 366.106L352.067 315.828L354.393 290.436L369.279 296.53L365.093 318.367V362.551Z" fill="#9F616A"/>
<path d="M371.305 303.085L353.276 293.867L354.201 286.611C354.201 280.604 355.84 274.737 358.904 269.781C361.968 264.824 366.313 261.01 371.369 258.838L376.853 256.482L371.305 303.085Z" fill="#0C9FAA"/>
<path d="M85.9364 537.317L95.1431 537.392L102.898 500.764L89.3095 500.653L85.9364 537.317Z" fill="#FFB6B6"/>
<path d="M117.5 537.361C117.741 537.862 117.744 539.472 117.691 540.052C117.527 541.834 115.995 543.267 114.269 543.252L85.7573 543.018C84.58 543.008 83.7163 542.015 83.8282 540.799L83.941 539.574C83.941 539.574 82.8696 535.879 86.1914 531.363C86.1914 531.363 89.4733 534.947 95.3787 529.424L97.2429 526.462L107.954 535.249L114.261 536.113C115.64 536.302 116.897 536.107 117.5 537.361Z" fill="#2F2E41"/>
<path d="M40.6865 536.975L50.113 536.974L54.5973 501.139L40.6846 501.14L40.6865 536.975Z" fill="#FFB6B6"/>
<path d="M72.9832 536.764C73.2767 537.252 73.4316 538.824 73.4316 539.391C73.4316 541.132 71.9992 542.544 70.2322 542.544H41.0392C39.8338 542.544 38.8565 541.581 38.8565 540.393V539.195C38.8565 539.195 37.4124 535.595 40.3856 531.157C40.3856 531.157 44.081 534.632 49.6028 529.19L51.2311 526.282L63.018 534.778L69.5513 535.571C70.9806 535.744 72.248 535.544 72.9832 536.764Z" fill="#2F2E41"/>
<path d="M47.7964 341.699L43.9162 368.59L38.8691 515.46H56.6017L75.7683 380.115L81.8467 453.259L86.0784 521.785H102.191L105.725 453.259L112.072 356.474L104.335 342.29L47.7964 341.699Z" fill="#2F2E41"/>
<path d="M89.4249 234.599L72.5474 233.847L67.1894 242.294L44.9019 253.171L47.9588 318.061L41.9492 347.658C41.9492 347.658 98.2551 367.782 112.678 355.944L108.656 313.917L111.786 254.05L97.2373 247.029L89.4249 234.599Z" fill="#92BDC0"/>
<path d="M79.4297 230.518C90.7811 230.518 99.9833 220.831 99.9833 208.881C99.9833 196.931 90.7811 187.244 79.4297 187.244C68.0782 187.244 58.876 196.931 58.876 208.881C58.876 220.831 68.0782 230.518 79.4297 230.518Z" fill="#FFB6B6"/>
<path d="M63.2388 226.8C64.7227 226.954 64.8067 229.999 66.2171 230.457C67.5071 230.875 69.7577 229.082 69.9792 227.133C70.1557 225.579 68.9153 225.057 67.1577 221.814C66.1244 219.908 67.8023 220.42 67.7425 217.71C67.7248 216.903 64.9238 211.998 66.3739 209.848C66.8538 209.137 67.534 208.128 68.7252 207.687C70.5177 207.024 71.4803 208.381 73.7413 208.518C75.9025 208.65 72.3438 210.819 74.8487 209.118C77.4094 207.379 78.3811 202.861 78.3665 200.913C78.3515 198.908 77.9306 202.688 78.3665 200.913C78.5862 200.018 87.1602 208.018 87.5794 207.748C90.2797 206.009 91.6369 202.748 94.5484 204.642C97.7074 206.698 99.1381 205.878 100.177 205.388C101.03 204.986 100.327 197.3 100.076 196.054C99.3842 192.624 95.8071 191.021 95.5299 190.901C93.6796 190.105 93.0022 190.687 91.9246 189.738C90.3941 188.391 91.2642 186.781 90.0436 185.417C88.6991 183.915 87.1202 186.666 81.3151 186.715C77.5838 186.748 77.4341 184.463 75.4655 184.586C73.8325 184.688 68.4119 185.026 63.5523 189.073C58.2917 193.455 56.8997 199.509 56.4984 201.372C55.5606 205.726 55.1772 213.489 58.693 217.659C59.5359 218.659 60.8259 219.717 61.3578 221.814C61.9576 224.179 61.2636 226.566 62.1415 226.967C62.5095 227.135 62.6937 226.744 63.2388 226.8Z" fill="#2F2E41"/>
<path d="M22.8201 365.504C23.0697 363.693 23.7174 362.086 24.5929 360.881L22.6045 321.688L37.7175 319.729L32.1222 361.858C32.6405 363.244 32.8303 364.959 32.5806 366.77C32.0102 370.907 29.3629 373.977 26.6676 373.627C23.9723 373.278 22.2497 369.641 22.8201 365.504Z" fill="#FFB6B6"/>
<path d="M61.2938 254.971C61.2938 254.971 47.1043 249.727 42.3849 254.48C37.6655 259.234 22 312.222 22 312.222L23.4675 351.685L34.6457 349.797L61.2938 254.971Z" fill="#92BDC0"/>
<path d="M91.1149 281.993C92.2815 283.403 93.029 284.956 93.3269 286.398L123.559 311.663L114.814 323.723L87.5307 291.077C86.1599 290.502 84.7677 289.47 83.6011 288.06C80.936 284.839 80.4576 280.87 82.5325 279.195C84.6074 277.52 88.4499 278.773 91.1149 281.993Z" fill="#FFB6B6"/>
<path d="M103.402 255.016C103.402 255.016 111.792 250.888 116.586 257.965C121.38 265.042 126.259 301.629 126.259 301.629C126.259 301.629 132.166 326.966 120.781 326.376C109.395 325.787 88.4971 294.139 88.4971 294.139L96.5004 287.138L97.4098 278.606L103.402 255.016Z" fill="#92BDC0"/>
<path d="M181.418 205.739C176.564 202.89 170.605 201.956 165.667 204.603C160.729 207.25 157.362 214.036 158.959 220.041C159.683 222.764 161.332 225.442 160.689 228.192C160.195 230.308 158.47 231.706 156.776 232.699C155.082 233.693 153.229 234.528 152.004 236.204C150.778 237.88 150.523 240.765 152.053 242.065C152.558 242.493 153.188 242.696 153.677 243.147C154.093 243.574 154.394 244.155 154.537 244.808C154.68 245.461 154.657 246.154 154.473 246.79C154.065 248.071 153.392 249.189 152.523 250.027C150.786 251.918 148.49 254.081 149.029 256.765C149.23 257.483 149.564 258.128 150.004 258.648C150.444 259.167 150.977 259.545 151.558 259.749C152.763 260.188 154.014 260.396 155.269 260.367L206.535 262.405C208.227 262.565 209.929 262.446 211.597 262.048C212.407 261.862 213.179 261.466 213.863 260.886C214.547 260.307 215.129 259.555 215.572 258.679C216.554 256.386 215.909 253.561 214.697 251.42C213.484 249.279 211.768 247.59 210.351 245.624C208.933 243.657 207.773 241.203 208.023 238.662C208.223 236.628 209.286 234.87 210.049 233.021C210.812 231.173 211.256 228.863 210.267 227.163C208.874 224.767 205.53 224.984 203.946 222.751C202.751 221.066 202.982 218.641 202.863 216.468C202.577 211.242 199.71 206.306 195.628 204.014C193.552 202.889 191.294 202.404 189.041 202.598C186.787 202.791 184.602 203.659 182.667 205.128L181.418 205.739Z" fill="#2F2E41"/>
<path d="M149.21 533.436L141.09 530.412L146.636 490.162L158.621 494.624L149.21 533.436Z" fill="#A0616A"/>
<path d="M148.846 544.088L122.955 534.461L123.053 534.056C123.451 532.418 124.105 530.893 124.979 529.569C125.853 528.244 126.929 527.145 128.146 526.335C129.363 525.525 130.697 525.019 132.071 524.847C133.446 524.675 134.835 524.839 136.158 525.331L136.159 525.332L151.972 531.211L148.846 544.088Z" fill="#2F2E41"/>
<path d="M224.513 534.101L216.321 534.101L212.424 492.825L224.514 492.826L224.513 534.101Z" fill="#A0616A"/>
<path d="M226.931 544.088L199.729 544.086V543.667C199.728 541.974 200.002 540.297 200.534 538.733C201.067 537.168 201.846 535.747 202.83 534.549C203.813 533.352 204.98 532.402 206.265 531.754C207.549 531.106 208.926 530.772 210.317 530.772L226.932 530.773L226.931 544.088Z" fill="#2F2E41"/>
<path d="M212.838 502.811C212.112 502.811 211.411 502.482 210.858 501.885C210.306 501.287 209.94 500.46 209.825 499.551L197.475 401.807C197.393 401.16 197.147 400.564 196.774 400.11C196.401 399.656 195.921 399.369 195.408 399.292C194.895 399.215 194.376 399.353 193.93 399.684C193.484 400.016 193.135 400.523 192.937 401.128L160.94 498.855C160.642 499.758 160.087 500.484 159.385 500.89C158.684 501.296 157.887 501.351 157.155 501.045L145.598 496.157C144.878 495.856 144.273 495.225 143.901 494.387C143.529 493.55 143.416 492.566 143.586 491.629L169.807 344.421C169.936 343.711 170.218 343.062 170.622 342.546C171.027 342.03 171.537 341.668 172.095 341.501L207.261 331.144C207.693 331.02 208.142 331.015 208.576 331.129C209.009 331.243 209.419 331.474 209.776 331.807C232.933 353.153 230.976 422.893 226.661 498.62C226.607 499.568 226.28 500.458 225.743 501.12C225.206 501.783 224.496 502.171 223.747 502.213L212.972 502.808C212.927 502.81 212.883 502.811 212.838 502.811Z" fill="#2F2E41"/>
<path d="M183.104 261.808C192.285 261.808 199.728 252.27 199.728 240.504C199.728 228.738 192.285 219.2 183.104 219.2C173.922 219.2 166.479 228.738 166.479 240.504C166.479 252.27 173.922 261.808 183.104 261.808Z" fill="#A0616A"/>
<path d="M183.824 350.354C179.817 350.321 175.865 349.166 172.254 346.97L172.13 346.896L172.08 346.734L157.108 297.642L156.823 289.112C156.728 286.26 157.105 283.414 157.932 280.757C158.758 278.101 160.015 275.692 161.621 273.688C163.228 271.683 165.148 270.127 167.259 269.118C169.369 268.11 171.623 267.672 173.876 267.833L189.771 268.966C193.877 269.261 197.74 271.526 200.573 275.299C203.406 279.072 204.997 284.069 205.021 289.274C205.433 290.277 208.365 298.126 202.619 305.5C202.405 307.179 200.395 324.635 207.98 334.234L208.193 334.504L208.006 334.804C207.886 334.998 198.145 350.351 183.824 350.354Z" fill="#FFB4B4"/>
<path d="M206.468 354.469C207.397 354.035 208.241 353.344 208.94 352.443C209.64 351.543 210.178 350.456 210.516 349.259C210.854 348.062 210.985 346.784 210.899 345.515C210.812 344.246 210.511 343.016 210.016 341.913L225.723 318.477L213.341 316.4L200.323 338.974C198.941 340.168 197.947 341.975 197.529 344.051C197.11 346.127 197.298 348.329 198.055 350.239C198.813 352.149 200.087 353.635 201.638 354.414C203.188 355.194 204.907 355.214 206.468 354.469Z" fill="#A0616A"/>
<path d="M177.368 349.013C176.362 349.071 175.359 348.854 174.428 348.376C173.498 347.898 172.662 347.172 171.981 346.248C171.299 345.324 170.789 344.225 170.485 343.028C170.181 341.831 170.091 340.566 170.221 339.321L148.345 325.664L159.352 317.731L178.439 331.917C180.101 332.329 181.584 333.487 182.607 335.172C183.63 336.857 184.122 338.951 183.99 341.058C183.858 343.166 183.111 345.139 181.89 346.605C180.67 348.071 179.061 348.928 177.368 349.013Z" fill="#A0616A"/>
<path d="M216.392 336.373C215.796 336.373 215.213 336.15 214.715 335.732L206.864 329.173C206.204 328.624 205.736 327.771 205.559 326.792C205.382 325.814 205.508 324.786 205.913 323.924L211.597 311.76C211.904 311.102 212.099 310.369 212.168 309.608C212.237 308.848 212.179 308.077 211.998 307.347C211.817 306.617 211.516 305.943 211.117 305.372C210.717 304.8 210.226 304.342 209.678 304.029L193.349 294.704C191.341 293.543 189.702 291.548 188.7 289.045C187.699 286.542 187.394 283.68 187.836 280.928C188.142 279.072 188.779 277.331 189.699 275.84C190.618 274.349 191.796 273.148 193.139 272.331C194.483 271.515 195.956 271.103 197.444 271.13C198.933 271.157 200.397 271.621 201.722 272.485L226.493 288.654C228.164 289.744 229.631 291.282 230.792 293.162C231.953 295.042 232.782 297.219 233.221 299.544C233.66 301.87 233.699 304.289 233.336 306.636C232.973 308.982 232.217 311.201 231.118 313.141L218.872 334.755C218.589 335.256 218.217 335.664 217.786 335.945C217.354 336.227 216.877 336.373 216.392 336.373Z" fill="#FFB4B4"/>
<path d="M165.371 339.701C164.917 339.701 164.468 339.574 164.058 339.329L144.996 328.03C143.286 327.016 141.769 325.549 140.551 323.728C139.333 321.907 138.441 319.776 137.937 317.481C137.434 315.186 137.329 312.781 137.632 310.431C137.935 308.08 138.637 305.84 139.691 303.863L155.315 274.562C156.151 272.995 157.262 271.691 158.562 270.753C159.863 269.815 161.318 269.268 162.814 269.154C164.31 269.04 165.807 269.362 167.188 270.095C168.569 270.828 169.797 271.953 170.776 273.382C172.22 275.507 173.047 278.187 173.124 280.982C173.2 283.777 172.521 286.522 171.197 288.767L160.388 306.922C160.025 307.532 159.768 308.231 159.635 308.975C159.502 309.719 159.495 310.49 159.615 311.237C159.735 311.984 159.979 312.691 160.331 313.311C160.684 313.931 161.136 314.45 161.659 314.834L171.322 321.935C172.009 322.437 172.514 323.254 172.733 324.215C172.951 325.176 172.866 326.206 172.495 327.09L168.093 337.627C167.833 338.252 167.442 338.777 166.962 339.142C166.482 339.508 165.932 339.701 165.371 339.701Z" fill="#FFB4B4"/>
<path d="M165.841 237.556C171.155 237.022 175.567 230.39 175.015 223.765C174.952 226.496 175.696 229.159 177.103 231.25C178.511 233.341 180.484 234.712 182.648 235.103C185.085 235.439 187.758 234.517 189.879 236.054C192.229 237.755 192.981 241.888 195.43 243.358C197.795 244.778 200.799 242.841 201.968 239.905C203.137 236.969 202.85 233.442 202.075 230.309C200.971 225.842 198.96 221.807 196.237 218.598C193.515 215.39 190.175 213.115 186.541 211.997C182.907 210.879 179.103 210.955 175.499 212.218C171.896 213.481 168.615 215.887 165.977 219.203C163.742 222.011 161.968 225.59 161.68 229.533C161.392 233.476 162.857 237.755 165.691 239.527L165.841 237.556Z" fill="#2F2E41"/>
<path d="M53.4357 122H50.4131V124.663H53.4357V122Z" fill="#F0F0F0"/>
<path d="M246.506 391.691C247.268 391.186 247.919 390.503 248.416 389.691C248.912 388.879 249.24 387.957 249.377 386.99C249.515 386.023 249.458 385.035 249.211 384.095C248.964 383.155 248.533 382.286 247.949 381.549L258.654 360.885L247.451 361.682L239.003 381.182C237.944 382.346 237.31 383.898 237.22 385.543C237.13 387.188 237.592 388.812 238.517 390.107C239.441 391.402 240.766 392.279 242.238 392.571C243.711 392.862 245.229 392.549 246.506 391.691Z" fill="#FFB6B6"/>
<path d="M328.915 532.559H321.503L317.978 501.077L328.916 501.078L328.915 532.559Z" fill="#FFB6B6"/>
<path d="M330.805 540.472L306.908 540.471V540.138C306.908 537.421 307.888 534.816 309.633 532.895C311.377 530.974 313.743 529.895 316.21 529.895H316.21L330.806 529.895L330.805 540.472Z" fill="#2F2E41"/>
<path d="M278.134 532.559H270.723L267.197 501.077L278.135 501.078L278.134 532.559Z" fill="#FFB6B6"/>
<path d="M280.026 540.472L256.129 540.471V540.138C256.129 537.421 257.109 534.816 258.853 532.895C260.598 530.974 262.964 529.895 265.43 529.895H265.431L280.026 529.895L280.026 540.472Z" fill="#2F2E41"/>
<path d="M259.077 361.773C259.077 361.773 257.039 393.743 261.053 409.844C265.068 425.946 265.785 523.316 265.785 523.316H279.243L290.907 390.774L317.797 523.783L330.616 522.813L323.586 366.079L259.077 361.773Z" fill="#2F2E41"/>
<path d="M318.025 254.002L307.737 245.734L290.498 249.868L285.831 262.08L277.79 266.47C275.146 267.914 272.86 270.043 271.129 272.675C269.397 275.306 268.271 278.361 267.848 281.578L256.36 368.941L323.586 366.079L331.725 263.192C331.81 262.117 331.698 261.035 331.397 260.008C331.095 258.982 330.61 258.032 329.969 257.216C329.328 256.4 328.545 255.734 327.667 255.257C326.788 254.78 325.831 254.502 324.853 254.439L318.025 254.002Z" fill="#FFEECC"/>
<path d="M273.536 273.294L267.327 282.512L240.283 373.351L252.96 378.941L273.258 336.612L273.536 273.294Z" fill="#FFEECC"/>
<path d="M295.766 240.393C307.13 240.393 316.342 230.247 316.342 217.732C316.342 205.217 307.13 195.072 295.766 195.072C284.402 195.072 275.189 205.217 275.189 217.732C275.189 230.247 284.402 240.393 295.766 240.393Z" fill="#2F2E41"/>
<path d="M296.044 241.418C304.337 241.418 311.059 234.014 311.059 224.882C311.059 215.749 304.337 208.346 296.044 208.346C287.752 208.346 281.029 215.749 281.029 224.882C281.029 234.014 287.752 241.418 296.044 241.418Z" fill="#FFB9B9"/>
<path d="M307.445 222.738C297.884 218.94 294.649 216.607 284.088 222.738L280.195 205.59H311.338L307.445 222.738Z" fill="#2F2E41"/>
<path d="M294.097 208.04C300.547 208.04 305.776 202.282 305.776 195.179C305.776 188.076 300.547 182.317 294.097 182.317C287.648 182.317 282.419 188.076 282.419 195.179C282.419 202.282 287.648 208.04 294.097 208.04Z" fill="#2F2E41"/>
<path d="M280.195 192.116C280.197 188.813 281.353 185.638 283.424 183.249C285.495 180.86 288.322 179.44 291.317 179.286C291.132 179.276 290.949 179.255 290.761 179.255C287.664 179.255 284.694 180.61 282.504 183.022C280.313 185.434 279.083 188.705 279.083 192.116C279.083 195.527 280.313 198.799 282.504 201.21C284.694 203.622 287.664 204.977 290.761 204.977C290.949 204.977 291.132 204.956 291.317 204.947C288.322 204.792 285.495 203.373 283.424 200.984C281.353 198.595 280.197 195.419 280.195 192.116Z" fill="#2F2E41"/>
<path opacity="0.1" d="M323.046 278.525L318.857 324.519L304.062 356.632L323.046 278.525Z" fill="black"/>
<path d="M298.809 372.933C298.747 371.957 298.88 370.978 299.198 370.064C299.517 369.15 300.014 368.325 300.654 367.646C301.293 366.966 302.061 366.45 302.901 366.132C303.742 365.815 304.636 365.704 305.519 365.808L314.731 344.289L320.572 354.846L310.929 373.663C310.672 375.286 309.883 376.749 308.712 377.775C307.541 378.8 306.069 379.317 304.575 379.227C303.081 379.137 301.669 378.447 300.606 377.287C299.543 376.127 298.904 374.578 298.809 372.933Z" fill="#FFB6B6"/>
<path d="M323.853 260.369L327.647 254.921C327.647 254.921 336.89 252.848 338.46 266.829L337.471 328.988L317.216 364.097L304.062 360.398L321.261 318.691L323.853 260.369Z" fill="#FFEECC"/>
<path opacity="0.7" d="M45.5 88.5002C45.5 88.5002 83.4509 71.0279 109.5 69.0002C144.594 66.2685 151 78.5001 180.5 78.5C198.198 78.4999 224.68 54.8673 253.5 54.9999C279.216 55.1182 292 82.5002 324.5 82.5002C357 82.5002 454 82.5002 454 82.5002" stroke="#FCD991" stroke-width="3" stroke-linecap="round"/>
<path opacity="0.7" d="M33.5 80.4997C33.5 80.4997 95.0632 18.9952 143.5 22.4997C182.032 25.2877 203.37 75.0506 242 75.5C266.031 75.7796 294 53 294 53C294 53 336.524 21.7709 370.5 22.4997C406.496 23.2719 454.5 60.4997 454.5 60.4997" stroke="#AB8E8E" stroke-width="3" stroke-linecap="round"/>
<path d="M464.136 56.4858H454.609V53.6572H464.136V56.4858ZM445.082 56.4858H435.555V53.6572H445.082V56.4858ZM426.028 56.4858H416.502V53.6572H426.028V56.4858ZM406.975 56.4858H397.448V53.6572H406.975V56.4858ZM387.921 56.4858H378.394V53.6572H387.921V56.4858ZM368.867 56.4858H359.34V53.6572H368.867L368.867 56.4858ZM349.814 56.4858H340.287V53.6572H349.814V56.4858ZM330.76 56.4858H321.233V53.6572H330.76V56.4858ZM311.706 56.4858H302.179V53.6572H311.706V56.4858ZM292.652 56.4858H283.125V53.6572H292.652L292.652 56.4858ZM273.599 56.4858H264.072V53.6572H273.599L273.599 56.4858ZM254.545 56.4858H245.018V53.6572H254.545L254.545 56.4858ZM235.491 56.4858H225.964V53.6572H235.491L235.491 56.4858ZM216.437 56.4858H206.911V53.6572H216.437L216.437 56.4858ZM197.383 56.4858H187.857V53.6572H197.384L197.383 56.4858ZM178.33 56.4858H168.803V53.6572H178.33L178.33 56.4858ZM159.276 56.4858H149.749V53.6572H159.276L159.276 56.4858ZM140.222 56.4858H130.696V53.6572H140.223L140.222 56.4858ZM121.168 56.4858H111.642V53.6572H121.168L121.168 56.4858ZM102.115 56.4858H92.5882V53.6572H102.115L102.115 56.4858ZM83.0609 56.4858H73.5345V53.6572H83.0611L83.0609 56.4858ZM64.0072 56.4858H54.4804V53.6572H64.0075L64.0072 56.4858ZM44.9535 56.4858H35.4268V53.6572H44.9538L44.9535 56.4858ZM25.8998 56.4858H16.373V53.6572H25.9001L25.8998 56.4858Z" fill="#F0F0F0"/>
<path opacity="0.7" d="M458.276 23.8327C458.137 24.1014 457.914 24.314 457.644 24.4364C457.373 24.5588 457.07 24.5837 456.784 24.5072C452.912 23.5933 448.945 23.1717 444.973 23.2519C413.008 23.8327 388.432 50.3253 357.176 54.288C328.997 57.8571 302.473 43.749 275.976 36.3764C262.209 32.5449 248.015 30.5121 233.848 33.1163C219.79 35.6925 206.596 41.6131 193.348 46.8685C180.591 51.9272 167.333 56.6299 153.521 56.8641C138.335 57.1264 124.659 50.6812 110.573 45.7724C103.249 43.215 95.7329 41.1915 87.9714 40.9948C80.4069 40.9014 72.8798 42.1012 65.6969 44.5452C50.7289 49.4447 37.2441 58.1756 24.1141 66.8503C23.8891 67.0139 23.6152 67.0903 23.3407 67.0658C23.0573 67.0268 22.7922 66.8999 22.5804 66.7021C22.3687 66.5043 22.2204 66.2448 22.1553 65.9582C22.0901 65.6716 22.1111 65.3714 22.2156 65.0974C22.3201 64.8234 22.5031 64.5885 22.7402 64.4241L23.3407 64.0306C26.3525 62.0352 29.3825 60.0492 32.4398 58.1288C45.497 49.885 59.4732 42.1752 74.705 39.3179C81.9083 37.9322 89.2898 37.8371 96.5245 39.0368C104.168 40.339 111.483 43.0558 118.726 45.7818C125.869 48.4798 133.03 51.262 140.5 52.8265C147.78 54.3009 155.253 54.453 162.584 53.2762C176.569 51.1122 189.708 45.3134 202.792 40.0674C215.959 34.7932 229.526 29.8094 243.775 29.1537C257.842 28.4979 271.736 31.9266 285.084 36.1797C312.3 44.845 340.088 57.6979 368.905 48.8826C398.168 39.9456 425.083 14.1462 457.512 21.7999C457.819 21.8586 458.092 22.0362 458.276 22.2963C458.417 22.5264 458.491 22.7927 458.491 23.0645C458.491 23.3363 458.417 23.6026 458.276 23.8327Z" fill="#92CDD1"/>
<path d="M82.6275 47.2705C86.1659 47.2705 89.0343 44.2629 89.0343 40.5527C89.0343 36.8426 86.1659 33.835 82.6275 33.835C79.0891 33.835 76.2207 36.8426 76.2207 40.5527C76.2207 44.2629 79.0891 47.2705 82.6275 47.2705Z" fill="#0C9FAA"/>
<path opacity="0.7" d="M243.508 38.7847C247.047 38.7847 249.915 35.777 249.915 32.0669C249.915 28.3568 247.047 25.3491 243.508 25.3491C239.97 25.3491 237.102 28.3568 237.102 32.0669C237.102 35.777 239.97 38.7847 243.508 38.7847Z" fill="#0C9FAA"/>
<path opacity="0.7" d="M439.983 30.2993C443.521 30.2993 446.39 27.2917 446.39 23.5816C446.39 19.8714 443.521 16.8638 439.983 16.8638C436.445 16.8638 433.576 19.8714 433.576 23.5816C433.576 27.2917 436.445 30.2993 439.983 30.2993Z" fill="#0C9FAA"/>
<path d="M148.519 138.491C147.847 138.491 147.202 138.751 146.726 139.216C146.251 139.68 145.983 140.309 145.983 140.966C145.983 141.622 146.251 142.252 146.726 142.716C147.202 143.18 147.847 143.441 148.519 143.441H184.024C184.696 143.441 185.341 143.18 185.817 142.716C186.292 142.252 186.56 141.622 186.56 140.966C186.56 140.309 186.292 139.68 185.817 139.216C185.341 138.751 184.696 138.491 184.024 138.491H148.519Z" fill="#B2DCDF"/>
<path d="M133.881 134.955C137.42 134.955 140.288 137.805 140.288 141.319C140.288 144.834 137.42 147.684 133.881 147.684C130.343 147.684 127.475 144.834 127.475 141.319C127.475 137.805 130.343 134.955 133.881 134.955Z" fill="#55BCC4"/>
<path d="M234.655 138.491C233.983 138.491 233.338 138.751 232.862 139.216C232.386 139.68 232.119 140.309 232.119 140.966C232.119 141.622 232.386 142.252 232.862 142.716C233.338 143.18 233.983 143.441 234.655 143.441H270.159C270.832 143.441 271.477 143.18 271.953 142.716C272.428 142.252 272.695 141.622 272.695 140.966C272.695 140.309 272.428 139.68 271.953 139.216C271.477 138.751 270.832 138.491 270.159 138.491H234.655Z" fill="#C4B0B0"/>
<path d="M220.017 134.955C223.555 134.955 226.424 137.805 226.424 141.319C226.424 144.834 223.555 147.684 220.017 147.684C216.479 147.684 213.61 144.834 213.61 141.319C213.61 137.805 216.479 134.955 220.017 134.955Z" fill="#FDC9C9"/>
<path d="M320.79 138.491C320.117 138.491 319.472 138.751 318.997 139.216C318.521 139.68 318.254 140.309 318.254 140.966C318.254 141.622 318.521 142.252 318.997 142.716C319.472 143.18 320.117 143.441 320.79 143.441H356.294C356.967 143.441 357.612 143.18 358.087 142.716C358.563 142.252 358.83 141.622 358.83 140.966C358.83 140.309 358.563 139.68 358.087 139.216C357.612 138.751 356.967 138.491 356.294 138.491H320.79Z" fill="#FCD991"/>
<path d="M305.441 134.955C308.979 134.955 311.848 137.805 311.848 141.319C311.848 144.834 308.979 147.684 305.441 147.684C301.903 147.684 299.034 144.834 299.034 141.319C299.034 137.805 301.903 134.955 305.441 134.955Z" fill="#FFC692"/>
<path d="M464.187 110.913H454.66V108.084H464.187V110.913ZM445.133 110.913H435.606V108.084H445.133V110.913ZM426.079 110.913H416.553V108.084H426.079V110.913ZM407.026 110.913H397.499V108.084H407.026V110.913ZM387.972 110.913H378.445V108.084H387.972V110.913ZM368.918 110.913H359.391V108.084H368.918L368.918 110.913ZM349.865 110.913H340.338V108.084H349.865V110.913ZM330.81 110.913H321.284V108.084H330.81V110.913ZM311.757 110.913H302.23V108.084H311.757V110.913ZM292.703 110.913H283.176V108.084H292.703L292.703 110.913ZM273.649 110.913H264.122V108.084H273.649L273.649 110.913ZM254.596 110.913H245.069V108.084H254.596L254.596 110.913ZM235.542 110.913H226.015V108.084H235.542L235.542 110.913ZM216.488 110.913H206.961V108.084H216.488L216.488 110.913ZM197.434 110.913H187.908V108.084H197.434L197.434 110.913ZM178.381 110.913H168.854V108.084H178.381L178.381 110.913ZM159.327 110.913H149.8V108.084H159.327L159.327 110.913ZM140.273 110.913H130.746V108.084H140.273L140.273 110.913ZM121.219 110.913H111.693V108.084H121.219L121.219 110.913ZM102.165 110.913H92.6389V108.084H102.166L102.165 110.913ZM83.1117 110.913H73.5852V108.084H83.1119L83.1117 110.913ZM64.058 110.913H54.5312V108.084H64.0583L64.058 110.913ZM45.0043 110.913H35.4775V108.084H45.0046L45.0043 110.913ZM25.9506 110.913H16.4238V108.084H25.9509L25.9506 110.913Z" fill="#F0F0F0"/>
<path d="M464.136 7.77863H454.609V5.65723H464.136V7.77863ZM445.082 7.77863H435.555V5.65723H445.082V7.77863ZM426.028 7.77863H416.502V5.65723H426.028V7.77863ZM406.975 7.77863H397.448V5.65723H406.975V7.77863ZM387.921 7.77863H378.394V5.65723H387.921V7.77863ZM368.867 7.77863H359.34V5.65723H368.867L368.867 7.77863ZM349.814 7.77863H340.287V5.65723H349.814V7.77863ZM330.76 7.77863H321.233V5.65723H330.76V7.77863ZM311.706 7.77863H302.179V5.65723H311.706V7.77863ZM292.652 7.77863H283.125V5.65723H292.652L292.652 7.77863ZM273.599 7.77863H264.072V5.65723H273.599L273.599 7.77863ZM254.545 7.77863H245.018V5.65723H254.545L254.545 7.77863ZM235.491 7.77863H225.964V5.65723H235.491L235.491 7.77863ZM216.437 7.77863H206.911V5.65723H216.437L216.437 7.77863ZM197.383 7.77863H187.857V5.65723H197.384L197.383 7.77863ZM178.33 7.77863H168.803V5.65723H178.33L178.33 7.77863ZM159.276 7.77863H149.749V5.65723H159.276L159.276 7.77863ZM140.222 7.77863H130.696V5.65723H140.223L140.222 7.77863ZM121.168 7.77863H111.642V5.65723H121.168L121.168 7.77863ZM102.115 7.77863H92.5882V5.65723H102.115L102.115 7.77863ZM83.0609 7.77863H73.5345V5.65723H83.0611L83.0609 7.77863ZM64.0072 7.77863H54.4804V5.65723H64.0075L64.0072 7.77863ZM44.9535 7.77863H35.4268V5.65723H44.9538L44.9535 7.77863ZM25.8998 7.77863H16.373V5.65723H25.9001L25.8998 7.77863Z" fill="#F0F0F0"/>
<path d="M6.76271 13.4356C10.4977 13.4356 13.5254 10.4279 13.5254 6.71778C13.5254 3.00765 10.4977 0 6.76271 0C3.02777 0 0 3.00765 0 6.71778C0 10.4279 3.02777 13.4356 6.76271 13.4356Z" fill="#F0F0F0"/>
<path d="M6.76271 61.4356C10.4977 61.4356 13.5254 58.4279 13.5254 54.7178C13.5254 51.0077 10.4977 48 6.76271 48C3.02777 48 0 51.0077 0 54.7178C0 58.4279 3.02777 61.4356 6.76271 61.4356Z" fill="#F0F0F0"/>
<path d="M6.81349 116.57C10.5484 116.57 13.5762 113.562 13.5762 109.852C13.5762 106.142 10.5484 103.134 6.81349 103.134C3.07855 103.134 0.0507812 106.142 0.0507812 109.852C0.0507812 113.562 3.07855 116.57 6.81349 116.57Z" fill="#F0F0F0"/>
<path opacity="0.7" d="M139.407 28.4356C142.945 28.4356 145.814 25.4279 145.814 21.7178C145.814 18.0076 142.945 15 139.407 15C135.868 15 133 18.0076 133 21.7178C133 25.4279 135.868 28.4356 139.407 28.4356Z" fill="#FFB6B6"/>
<path opacity="0.7" d="M369.407 28.4356C372.945 28.4356 375.814 25.4279 375.814 21.7178C375.814 18.0076 372.945 15 369.407 15C365.868 15 363 18.0076 363 21.7178C363 25.4279 365.868 28.4356 369.407 28.4356Z" fill="#FFB6B6"/>
<path opacity="0.7" d="M242.407 83.4356C245.945 83.4356 248.814 80.4279 248.814 76.7178C248.814 73.0076 245.945 70 242.407 70C238.868 70 236 73.0076 236 76.7178C236 80.4279 238.868 83.4356 242.407 83.4356Z" fill="#FFB6B6"/>
<path opacity="0.7" d="M442.407 58.4356C445.945 58.4356 448.814 55.4279 448.814 51.7178C448.814 48.0076 445.945 45 442.407 45C438.868 45 436 48.0076 436 51.7178C436 55.4279 438.868 58.4356 442.407 58.4356Z" fill="#FFB6B6"/>
<path opacity="0.7" d="M178.407 85.4356C181.945 85.4356 184.814 82.4279 184.814 78.7178C184.814 75.0076 181.945 72 178.407 72C174.868 72 172 75.0076 172 78.7178C172 82.4279 174.868 85.4356 178.407 85.4356Z" fill="#FFC692"/>
<path opacity="0.7" d="M256.407 61.4356C259.945 61.4356 262.814 58.4279 262.814 54.7178C262.814 51.0076 259.945 48 256.407 48C252.868 48 250 51.0076 250 54.7178C250 58.4279 252.868 61.4356 256.407 61.4356Z" fill="#FFC692"/>
<path opacity="0.7" d="M312.407 88.4356C315.945 88.4356 318.814 85.4279 318.814 81.7178C318.814 78.0076 315.945 75 312.407 75C308.868 75 306 78.0076 306 81.7178C306 85.4279 308.868 88.4356 312.407 88.4356Z" fill="#FFC692"/>
</svg>
