<svg width="313" height="257" viewBox="0 0 313 257" fill="none" xmlns="http://www.w3.org/2000/svg">
<path d="M118.63 154.167C124.438 152.311 130.208 153.505 131.52 156.833C132.831 160.162 129.186 164.365 123.376 166.221C121.067 166.991 118.586 167.252 116.142 166.982L91.4251 174.568L87.7197 164.046L112.479 157.684C114.188 156.086 116.297 154.88 118.63 154.167Z" fill="#FFB4B4"/>
<path d="M109.639 169.921L60.8574 190.302L60.7351 190.353L21.072 168.542C17.4093 166.527 15.183 163.017 15.1167 159.152C15.051 155.286 17.1569 151.716 20.7501 149.602C25.2514 146.953 31.1015 147.2 35.3069 150.218L64.5523 171.205L105.999 157.5L109.639 169.921Z" fill="#92CDD1"/>
<path d="M46.8761 154.08L50.145 135.68L28.0799 127.584L24.811 155.553L46.8761 154.08Z" fill="#FFB4B4"/>
<path d="M41.3 141.595C53.727 141.595 63.8011 132.522 63.8011 121.33C63.8011 110.137 53.727 101.064 41.3 101.064C28.8729 101.064 18.7988 110.137 18.7988 121.33C18.7988 132.522 28.8729 141.595 41.3 141.595Z" fill="#FFB4B4"/>
<path d="M18.9647 253.304C20.4357 253.887 22.0078 254.442 23.6962 254.97C48.9054 262.842 78.1334 245.55 94.8958 233.085C103.343 226.798 108.62 221.736 108.62 221.736L125.16 229.184L136.175 234.142H136.18L138.318 235.111C138.323 235.111 138.328 235.116 138.328 235.116L144.844 238.048L154.924 242.587L156.137 243.133L156.966 243.352L171.808 247.231L174.841 237.67C174.841 237.67 173.804 236.837 171.99 235.394C160.939 226.625 121.06 195.399 110.642 193.054C105.916 191.989 95.831 195.48 85.2711 200.143C68.7109 207.454 50.9931 217.638 50.9931 217.638L43.9161 208.533L19.551 213.486L10.3054 215.366L4.73989 216.5C4.73989 216.5 -12.5684 240.816 18.9647 253.304Z" fill="#2F2E41"/>
<path d="M170.797 236.304C170.797 236.304 174.335 233.117 176.357 234.483C178.379 235.849 180.401 237.67 180.401 237.67C180.401 237.67 196.072 238.58 196.577 245.409C197.083 252.238 185.962 254.515 185.962 254.515C185.962 254.515 149.566 257.246 149.566 252.693C149.566 248.141 154.925 242.587 154.925 242.587C154.925 242.587 172.313 239.946 170.797 236.304Z" fill="#2F2E41"/>
<path d="M18.9647 253.303C46.1606 244.302 69.6966 221.735 69.6966 221.735L94.8958 233.084L116 242.586L117.214 243.132L132.884 247.23L135.917 237.669C135.917 237.669 134.881 236.836 133.066 235.393C131.176 233.895 128.441 231.737 125.16 229.183C114.373 220.788 97.6306 208.072 85.2711 200.142C68.7109 207.453 50.9931 217.637 50.9931 217.637L43.9161 208.532L19.551 213.485C14.9813 215.962 12.0696 217.637 12.0696 217.637L10.3054 215.365L4.73989 216.499C4.73989 216.499 -12.5684 240.815 18.9647 253.303Z" fill="#2F2E41"/>
<path d="M131.873 236.304C131.873 236.304 135.411 233.117 137.433 234.483C139.455 235.849 141.477 237.67 141.477 237.67C141.477 237.67 157.148 238.58 157.653 245.409C158.159 252.238 147.038 254.515 147.038 254.515C147.038 254.515 110.642 257.246 110.642 252.693C110.642 248.141 116.001 242.587 116.001 242.587C116.001 242.587 133.389 239.946 131.873 236.304Z" fill="#2F2E41"/>
<path d="M7.28349 181.64C8.38323 168.303 14.4355 155.436 24.3255 145.409L24.4226 145.311L50.1773 149.919L55.8132 164.815C59.4044 174.308 58.5494 184.874 53.4674 193.804L47.1932 204.83L49.2672 215.035L4.66419 216.869L4.37744 216.881L7.28349 181.64Z" fill="#92CDD1"/>
<path d="M109.012 189.229L108.6 148.429C108.579 146.265 110.196 144.404 112.533 143.903L123.803 141.486C124.909 141.249 126.055 141.476 126.949 142.11C127.842 142.744 128.356 143.694 128.359 144.718L128.494 188.41C128.496 189.147 128.179 189.842 127.6 190.364C127.021 190.887 126.252 191.175 125.432 191.175H111.193C110.001 191.175 109.023 190.302 109.012 189.229Z" fill="#2F2E41"/>
<path d="M113.125 144.761L114.201 144.528V145.995C114.201 146.463 114.677 146.809 115.172 146.7L119.518 145.747C120.151 145.608 120.599 145.087 120.599 144.487V143.144L122.68 142.694C124.148 142.376 125.557 143.398 125.566 144.788L125.833 187.16C125.844 188.909 124.308 190.332 122.409 190.332H111.661C110.488 190.332 109.534 189.462 109.522 188.382L109.109 149.477C109.085 147.233 110.754 145.274 113.125 144.761Z" fill="white"/>
<path d="M128.256 172.483C134.297 171.389 139.821 173.309 140.594 176.772C141.367 180.235 137.096 183.928 131.052 185.022C128.644 185.489 126.148 185.43 123.771 184.849L98.1082 189.195L96.1006 178.306L121.613 175.178C123.556 173.815 125.834 172.891 128.256 172.483Z" fill="#FFB4B4"/>
<path d="M29.4198 174.227C26.1117 171.764 24.4619 168.005 25.0068 164.171C25.5515 160.336 28.1994 157.072 32.0896 155.438C36.9629 153.392 42.7142 154.386 46.4011 157.911L72.0383 182.429L114.955 174.219L115.227 174.166L116.87 186.928L65.2386 200.894L29.4198 174.227Z" fill="#92CDD1"/>
<path d="M54.3161 102.4C58.506 105.279 61.4534 109.453 62.1953 114.167C62.7411 117.635 62.2233 121.739 58.7716 125.524C54.234 130.5 53.4991 139.722 53.7341 146.893C53.8791 151.318 49.6369 154.831 44.7792 154.315C34.4136 153.213 29.3192 176.242 21.7158 179.453C12.9639 183.149 5.47217 179.453 5.47217 179.453C5.47217 179.453 8.01023 153.726 13.594 146.375C17.1029 141.756 17.592 124.984 18.2254 118.279C18.9036 111.101 23.0688 104.488 29.7742 100.606C35.9218 97.047 44.3416 95.5444 54.3161 102.4Z" fill="#2F2E41"/>
<mask id="path-15-inside-1_1522_3955" fill="white">
<path fill-rule="evenodd" clip-rule="evenodd" d="M100.835 0C95.3126 0 90.8354 4.47715 90.8354 10V100.609C90.8354 106.132 95.3126 110.609 100.835 110.609H109.349L119.222 132.297L129.095 110.609H303C308.523 110.609 313 106.132 313 100.609V10C313 4.47715 308.523 0 303 0H100.835Z"/>
</mask>
<path fill-rule="evenodd" clip-rule="evenodd" d="M100.835 0C95.3126 0 90.8354 4.47715 90.8354 10V100.609C90.8354 106.132 95.3126 110.609 100.835 110.609H109.349L119.222 132.297L129.095 110.609H303C308.523 110.609 313 106.132 313 100.609V10C313 4.47715 308.523 0 303 0H100.835Z" fill="white"/>
<path d="M109.349 110.609L110.259 110.195L109.993 109.609H109.349V110.609ZM119.222 132.297L118.312 132.712L119.222 134.711L120.132 132.712L119.222 132.297ZM129.095 110.609V109.609H128.451L128.184 110.195L129.095 110.609ZM91.8354 10C91.8354 5.02944 95.8649 1 100.835 1V-1C94.7603 -1 89.8354 3.92487 89.8354 10H91.8354ZM91.8354 100.609V10H89.8354V100.609H91.8354ZM100.835 109.609C95.8649 109.609 91.8354 105.58 91.8354 100.609H89.8354C89.8354 106.685 94.7603 111.609 100.835 111.609V109.609ZM109.349 109.609H100.835V111.609H109.349V109.609ZM120.132 131.883L110.259 110.195L108.439 111.024L118.312 132.712L120.132 131.883ZM128.184 110.195L118.312 131.883L120.132 132.712L130.005 111.024L128.184 110.195ZM303 109.609H129.095V111.609H303V109.609ZM312 100.609C312 105.58 307.97 109.609 303 109.609V111.609C309.075 111.609 314 106.685 314 100.609H312ZM312 10V100.609H314V10H312ZM303 1C307.97 1 312 5.02944 312 10H314C314 3.92487 309.075 -1 303 -1V1ZM100.835 1H303V-1H100.835V1Z" fill="black" mask="url(#path-15-inside-1_1522_3955)"/>
<path d="M229.303 30.3633H119.813C118.315 30.3633 117.102 31.577 117.102 33.0743C117.102 34.5715 118.315 35.7853 119.813 35.7853H229.303C230.8 35.7853 232.014 34.5715 232.014 33.0743C232.014 31.577 230.8 30.3633 229.303 30.3633Z" fill="#567AA0"/>
<path d="M284.023 48.7979H119.813C118.315 48.7979 117.102 50.0116 117.102 51.5089C117.102 53.0061 118.315 54.2199 119.813 54.2199H284.023C285.521 54.2199 286.734 53.0061 286.734 51.5089C286.734 50.0116 285.521 48.7979 284.023 48.7979Z" fill="#E6E6E6"/>
<path d="M284.566 65.0645H119.27C118.073 65.0645 117.102 66.0355 117.102 67.2333C117.102 68.4311 118.073 69.4021 119.27 69.4021H284.566C285.763 69.4021 286.734 68.4311 286.734 67.2333C286.734 66.0355 285.763 65.0645 284.566 65.0645Z" fill="#E6E6E6"/>
</svg>
