<svg width="380" height="297" viewBox="0 0 380 297" fill="none" xmlns="http://www.w3.org/2000/svg">
<g clip-path="url(#clip0_1522_3997)">
<path d="M274.132 54.9879H246.3V10.342L274.132 19.2712V54.9879Z" fill="#2F2E41"/>
<path d="M279.073 281.668L273.329 281.804L270.128 255.865L278.604 255.664L279.073 281.668Z" fill="#A0616A"/>
<path d="M259.368 293.714C259.368 294.689 260.056 295.48 260.906 295.48H272.306C272.306 295.48 273.428 290.947 278.002 288.996L278.318 295.48H284.199L283.487 285.053C283.487 285.053 285.06 279.475 281.792 276.624C278.525 273.772 281.172 274.169 281.172 274.169L279.886 267.716L270.999 268.766L270.934 278.897L266.621 288.952L260.295 292.093C259.732 292.373 259.368 293.01 259.368 293.714Z" fill="#2F2E41"/>
<path d="M249.637 281.668L243.893 281.804L240.691 255.865L249.167 255.664L249.637 281.668Z" fill="#A0616A"/>
<path d="M229.931 293.714C229.931 294.689 230.62 295.48 231.469 295.48H242.87C242.87 295.48 243.992 290.947 248.566 288.996L248.881 295.48H254.763L254.05 285.053C254.05 285.053 255.623 279.475 252.356 276.624C249.089 273.772 251.735 274.169 251.735 274.169L250.45 267.716L241.563 268.766L241.497 278.897L237.185 288.952L230.859 292.093C230.296 292.373 229.931 293.01 229.931 293.714Z" fill="#2F2E41"/>
<path d="M275.909 103.801L239.194 125.826L230.904 159.757L235.049 264.525H253.229L257.255 163.626L265.315 264.525H283.779L288.449 151.219C289.736 142.985 288.72 134.553 285.517 126.865L275.909 103.801Z" fill="#2F2E41"/>
<path d="M267.618 36.5343L252.222 35.3438L248.077 43.6776L236.233 46.654L233.272 83.5612C239.13 98.8589 242.807 113.478 239.194 125.826L284.199 123.445L276.685 103.02C276.685 103.02 276.501 95.4668 280.646 85.3471C284.791 75.2273 278.277 49.0351 278.277 49.0351L268.802 46.654L267.618 36.5343Z" fill="#FFF7E5"/>
<path d="M163.95 50.8909C165.45 50.9376 166.835 50.64 167.925 50.107L182.178 51.4587L182.62 44.6218L168.113 43.9867C167.058 43.3868 165.694 43.0036 164.195 42.9569C160.77 42.8503 157.939 44.5398 157.871 46.7307C157.804 48.9216 160.525 50.7842 163.95 50.8909Z" fill="#A0616A"/>
<path d="M248.267 71.7626C248.267 71.7626 247.763 49.9824 243.011 46.7132C241.051 45.365 210.917 45.0588 209.82 44.9444C203.049 44.2391 198.232 41.5371 192.532 41.241C178.64 40.5193 171.618 43.908 171.618 43.908L171.373 50.9007L248.267 71.7626Z" fill="#FFF7E5"/>
<path d="M258.608 34.7793C265.398 34.7793 270.902 29.2463 270.902 22.4209C270.902 15.5955 265.398 10.0625 258.608 10.0625C251.819 10.0625 246.314 15.5955 246.314 22.4209C246.314 29.2463 251.819 34.7793 258.608 34.7793Z" fill="#A0616A"/>
<path d="M254.88 4.01859C252.235 5.69423 250.299 4.49457 248.41 5.33965C244.72 6.99078 238.489 18.5878 239.051 23.4429C239.847 30.3192 242.361 30.6023 242.286 35.5357C242.166 43.4576 241.539 43.4247 243.153 46.1908C244.948 49.2673 255.115 48.432 257.002 44.26C257.375 43.4369 253.239 43.7606 248.669 32.9626C246.375 27.5441 247.881 22.6066 248.669 20.4617C248.853 19.9596 248.937 16.3945 249.331 16.7902C252.782 20.2594 254.716 17.7234 256.8 17.4324C261.077 16.8351 264.297 20.3035 265.595 19.0583C266.561 18.1318 265.329 15.6819 265.797 15.5016C266.296 15.3094 267.95 17.9969 269.032 20.8875C269.73 22.7515 270.079 23.6835 270.043 24.749C269.931 28.0394 269.097 37.3686 267.618 40.1059C264.425 46.0172 268.446 48.2476 270.953 47.8167C272.978 47.4686 281.932 48.8393 282.422 47.8445C282.859 46.9583 281.862 37.8425 280.814 29.3677C279.554 19.1816 274.506 9.82111 266.591 3.33678C266.126 2.95652 265.78 2.69562 265.595 2.59593C265.157 2.35981 260.636 0.000330111 257.306 1.8846C256.08 2.57827 256.279 3.13166 254.88 4.01859Z" fill="#2F2E41"/>
<path d="M101.309 291.316L94.488 291.315L91.2432 264.867L101.31 264.868L101.309 291.316Z" fill="#FFB6B6"/>
<path d="M77.9392 291.16C77.7268 291.52 77.6147 292.68 77.6147 293.099C77.6147 294.384 78.6512 295.426 79.9298 295.426H101.054C101.926 295.426 102.633 294.715 102.633 293.838V292.954C102.633 292.954 103.678 290.297 101.527 287.022C101.527 287.022 98.8528 289.586 94.8572 285.57L93.679 283.424L85.15 289.694L80.4225 290.279C79.3883 290.407 78.4712 290.26 77.9392 291.16Z" fill="#2F2E41"/>
<path d="M130.068 291.316L123.247 291.315L120.002 264.867L130.069 264.868L130.068 291.316Z" fill="#FFB6B6"/>
<path d="M106.698 291.16C106.486 291.52 106.374 292.68 106.374 293.099C106.374 294.384 107.41 295.426 108.689 295.426H129.813C130.685 295.426 131.392 294.715 131.392 293.838V292.954C131.392 292.954 132.437 290.297 130.286 287.022C130.286 287.022 127.612 289.586 123.616 285.57L122.438 283.424L113.909 289.694L109.181 290.279C108.147 290.407 107.23 290.26 106.698 291.16Z" fill="#2F2E41"/>
<path d="M131.421 124.334L81.3807 123.756L76.2041 156.713L88.8579 270.617H105.447L109.277 164.519L116.179 272.641H133.164L140.911 149.486L131.421 124.334Z" fill="#2F2E41"/>
<path d="M343.563 286.773C344.752 286.848 345.408 285.364 344.509 284.499L344.42 284.142C344.432 284.113 344.444 284.084 344.455 284.056C345.657 281.175 349.73 281.195 350.921 284.08C351.979 286.64 353.325 289.205 353.657 291.912C353.805 293.107 353.738 294.325 353.475 295.497C355.952 290.056 357.256 284.115 357.256 278.139C357.256 276.638 357.175 275.137 357.008 273.639C356.87 272.414 356.681 271.197 356.435 269.991C355.109 263.47 352.238 257.26 348.095 252.073C346.104 250.979 344.444 249.268 343.44 247.218C343.08 246.479 342.798 245.683 342.664 244.873C342.891 244.903 343.518 241.433 343.348 241.22C343.663 240.739 344.229 240.499 344.574 240.029C346.289 237.691 348.652 238.099 349.886 241.276C352.522 242.614 352.547 244.831 350.93 246.964C349.901 248.321 349.76 250.157 348.857 251.61C348.95 251.729 349.046 251.845 349.139 251.964C350.842 254.16 352.315 256.521 353.557 259C353.206 256.245 353.724 252.925 354.608 250.784C355.613 248.346 357.498 246.292 359.158 244.184C361.151 241.652 365.239 242.757 365.59 245.967C365.594 245.998 365.597 246.029 365.6 246.06C365.354 246.2 365.112 246.349 364.876 246.505C363.531 247.4 363.996 249.497 365.59 249.744L365.626 249.75C365.537 250.642 365.385 251.528 365.162 252.398C367.291 260.675 362.694 263.69 356.131 263.825C355.986 263.9 355.845 263.975 355.7 264.046C356.365 265.928 356.896 267.858 357.29 269.815C357.643 271.544 357.888 273.292 358.026 275.047C358.196 277.262 358.182 279.488 357.996 281.698L358.007 281.62C358.479 279.185 359.794 276.911 361.703 275.335C364.548 272.986 368.567 272.121 371.636 270.233C373.113 269.324 375.006 270.498 374.748 272.22L374.735 272.302C374.279 272.489 373.833 272.706 373.402 272.949C373.155 273.088 372.914 273.237 372.678 273.394C371.332 274.288 371.797 276.385 373.392 276.633L373.428 276.638C373.454 276.642 373.476 276.646 373.502 276.649C372.718 278.52 371.626 280.257 370.259 281.754C368.928 288.98 363.21 289.666 357.093 287.562H357.089C356.421 290.489 355.444 293.35 354.188 296.076H343.823C343.786 295.96 343.753 295.841 343.719 295.725C344.678 295.785 345.643 295.729 346.587 295.553C345.818 294.605 345.049 293.649 344.28 292.7C344.262 292.682 344.247 292.663 344.232 292.644C343.842 292.159 343.448 291.677 343.058 291.192L343.058 291.191C343.033 289.701 343.211 288.215 343.563 286.773Z" fill="#F2F2F2"/>
<path d="M0 296.312C0 296.694 0.304859 297 0.684491 297H379.316C379.695 297 380 296.694 380 296.312C380 295.93 379.695 295.624 379.316 295.624H0.684491C0.304859 295.624 0 295.93 0 296.312Z" fill="#CCCCCC"/>
<path d="M114.453 37.8943H96.6431L93.1717 44.8326L76.2041 52.6656L82.2434 97.4483L77.642 126.936H135.121L129.983 92.8228L136.885 51.771L117.904 44.2544L114.453 37.8943Z" fill="#FCD991"/>
<path d="M104.794 34.5122C113.676 34.5122 120.876 27.2742 120.876 18.3456C120.876 9.417 113.676 2.17896 104.794 2.17896C95.9117 2.17896 88.7114 9.417 88.7114 18.3456C88.7114 27.2742 95.9117 34.5122 104.794 34.5122Z" fill="#FFB6B6"/>
<path d="M99.7466 31.3567C99.8211 32.9406 99.8583 33.7325 99.6162 33.8282C98.8876 34.1163 89.505 28.546 88.4002 24.838C87.8849 23.1086 88.32 23.0741 87.9439 18.1539C87.5842 13.4482 87.1809 13.4107 87.6577 12.2464C88.1876 10.9524 89.806 9.35813 93.0428 6.16952C94.2667 4.96389 94.8787 4.36107 95.265 4.04939C96.4357 3.10476 100.797 -0.414316 104.797 0.0403358C106.473 0.230915 106.187 0.903748 112.449 4.31778C112.989 4.61184 113.712 5.00001 114.711 5.4457C117.141 6.52965 118.648 6.81066 119.442 7.11294C124.25 8.94492 122.839 19.1499 122.426 19.2084C122.275 19.2298 122.234 17.9064 121.445 17.797C120.735 17.6985 120.283 18.7034 119.637 18.74C117.874 18.8398 119.832 17.1432 115.517 15.2588C113.839 14.5263 118.507 17.8292 114.064 17.7756C107.115 17.6918 111.559 18.1363 108.92 19.5298C106.996 20.5461 99.2536 14.9534 99.5682 16.7405C99.79 18.001 100.7 18.3639 100.569 19.7759C100.441 21.144 99.4187 22.6185 98.5166 22.6726C97.6851 22.7226 97.2294 21.5496 96.9521 21.6618C96.6504 21.7839 96.9817 23.2559 97.6323 24.7681C98.4582 26.688 98.9511 26.703 99.3867 28.1795C99.6372 29.0288 99.6737 29.8048 99.7466 31.3567Z" fill="#2F2E41"/>
<path d="M226.5 141.664L122.878 115.162C116.254 113.467 112.236 106.672 113.922 100.013L126.813 49.0792C128.498 42.4205 135.258 38.3815 141.882 40.0756L245.504 66.5783C252.128 68.2724 256.146 75.0681 254.461 81.7269L241.57 132.661C239.884 139.319 233.124 143.358 226.5 141.664Z" fill="white"/>
<path d="M226.5 141.664L122.878 115.161C119.566 114.314 116.906 112.192 115.005 109.378C112.24 105.283 111.518 100.128 112.732 95.3315L123.542 52.62C124.756 47.8238 127.841 43.6421 132.217 41.3737C135.224 39.8147 138.57 39.2285 141.882 40.0755L245.504 66.5782C252.139 68.2751 256.149 75.0573 254.461 81.7268L241.569 132.66C239.884 139.319 233.124 143.358 226.5 141.664ZM141.598 41.1962C135.58 39.6568 137.153 45.1365 135.621 51.187C128.15 80.7065 143.603 111.225 171.747 122.512C186.939 128.605 199.576 133.585 199.576 133.585C220.621 138.967 242.023 126.18 247.377 105.025L253.346 81.4416C254.877 75.3911 251.239 69.2383 245.22 67.6989L141.598 41.1962Z" fill="#3F3D56"/>
<path d="M194.685 81.571C193.963 75.6038 188.565 71.3549 182.629 72.0807C176.749 72.7997 172.55 78.1303 173.172 84.0303L173 84.0513L175.615 105.66L195.395 103.242C196.02 103.276 196.656 103.259 197.299 103.18C203.236 102.454 207.462 97.0284 206.74 91.0612C206.018 85.094 200.621 80.8451 194.685 81.571Z" fill="#92CDD1"/>
<path d="M118.838 73.4613C117.356 74.4259 115.781 74.9743 114.361 75.1045L100.828 85.19L96.2427 78.5763L110.464 69.0577C111.163 67.8081 112.304 66.5871 113.786 65.6225C117.169 63.4188 121.043 63.3871 122.438 65.5517C123.833 67.7163 122.221 71.2575 118.838 73.4613Z" fill="#FFB6B6"/>
<path d="M87.141 49.9261C87.141 49.9261 76.7878 48.7697 75.0623 52.8171C73.3368 56.8644 69.8857 97.3381 69.8857 97.3381L75.6375 107.167L113.357 78.4703L105.718 70.7917L89.5526 78.4703L87.141 49.9261Z" fill="#FCD991"/>
<path d="M237.097 63.0044C238.327 64.2764 239.741 65.1636 241.097 65.6085L252.055 78.4704L257.991 73.0494L246.235 60.586C245.831 59.2114 244.989 57.7655 243.758 56.4935C240.948 53.5876 237.178 52.6894 235.339 54.4873C233.499 56.2853 234.286 60.0985 237.097 63.0044Z" fill="#A0616A"/>
<path d="M273.211 47.1562C273.211 47.1562 283.56 48.3467 284.346 52.6787C285.131 57.0107 279.529 97.2405 279.529 97.2405L271.744 105.535L241.33 69.1146L250.478 63.3389L264.536 74.4437L273.211 47.1562Z" fill="#FFF7E5"/>
</g>
<defs>
<clipPath id="clip0_1522_3997">
<rect width="380" height="297" fill="white"/>
</clipPath>
</defs>
</svg>
