<svg width="51" height="35" viewBox="0 0 51 35" fill="none" xmlns="http://www.w3.org/2000/svg">
<path d="M15.2643 12.4914C16.0944 11.8964 17.0071 11.4019 17.9812 11.023C19.4665 10.4452 21.0619 10.1488 22.6744 10.1529L24.1782 10.1567V8.65286V3.50879V2.00879H22.6782C17.2275 2.00879 11.9827 4.04241 8.10178 7.68895C4.21766 11.3385 2.0166 16.309 2.0166 21.513V21.5386L2.01747 21.5641L2.06043 22.8256C2.06601 24.915 2.72843 26.9482 3.95264 28.6697C5.18111 30.3972 6.91707 31.7301 8.93075 32.5138C10.9439 33.2973 13.1543 33.5011 15.2859 33.1027C17.4178 32.7042 19.388 31.7188 20.943 30.2577C22.499 28.7957 23.5703 26.9213 24.0054 24.8659C24.4407 22.8097 24.2163 20.6795 23.3653 18.749C22.5148 16.8199 21.0816 15.1863 19.2616 14.0437C18.0418 13.2778 16.6823 12.7537 15.2643 12.4914ZM39.9006 12.4914C40.7308 11.8964 41.6435 11.4019 42.6175 11.023C44.1028 10.4452 45.6983 10.1488 47.3108 10.1529L48.8146 10.1567V8.65286V3.50879V2.00879H47.3146C41.8639 2.00879 36.6191 4.04241 32.7382 7.68895C28.854 11.3385 26.653 16.309 26.653 21.513V21.5386L26.6538 21.5641L26.6968 22.8256C26.7024 24.915 27.3648 26.9482 28.589 28.6697C29.8175 30.3972 31.5534 31.7301 33.5671 32.5138C35.5803 33.2973 37.7907 33.5011 39.9223 33.1027C42.0542 32.7042 44.0244 31.7188 45.5794 30.2577C47.1354 28.7957 48.2067 26.9213 48.6418 24.8659C49.0771 22.8097 48.8527 20.6795 48.0017 18.749C47.1512 16.8199 45.718 15.1863 43.898 14.0437C42.6781 13.2778 41.3187 12.7537 39.9006 12.4914Z" fill="#FCD991" stroke="#FEFFFF" stroke-width="3"/>
</svg>
