<svg width="35" height="33" viewBox="0 0 35 33" fill="none" xmlns="http://www.w3.org/2000/svg">
<g clip-path="url(#clip0_1837_913)">
<path d="M17.5002 -0.0351562C7.83035 -0.0351562 -0.0380859 7.38159 -0.0380859 16.4999C-0.0380859 25.6182 7.83035 33.035 17.5002 33.035C27.17 33.035 35.0385 25.6182 35.0385 16.4999C35.0385 7.38159 27.17 -0.0351562 17.5002 -0.0351562ZM17.5002 31.9336C8.47457 31.9336 1.13223 25.0098 1.13223 16.4999C1.13223 7.99003 8.47457 1.06622 17.5002 1.06622C26.5258 1.06622 33.8682 7.99003 33.8682 16.4999C33.8682 25.0098 26.5258 31.9336 17.5002 31.9336Z" fill="#1C1C1C"/>
<path d="M21.3285 7.21891H18.4104C14.6938 7.18385 14.2191 9.35257 14.2191 11.6997V13.4064H12.5785C12.5044 13.3971 12.4289 13.404 12.358 13.4266C12.2872 13.4492 12.2228 13.4869 12.1699 13.5368C12.117 13.5867 12.077 13.6474 12.053 13.7142C12.029 13.781 12.0217 13.8521 12.0316 13.922V17.0158C12.0217 17.0857 12.029 17.1568 12.053 17.2236C12.077 17.2905 12.117 17.3512 12.1699 17.401C12.2228 17.4509 12.2872 17.4886 12.358 17.5112C12.4289 17.5338 12.5044 17.5408 12.5785 17.5314H14.2191V25.2658C14.21 25.3358 14.218 25.4069 14.2425 25.4736C14.267 25.5403 14.3073 25.6008 14.3604 25.6506C14.4134 25.7003 14.4779 25.738 14.5487 25.7606C14.6196 25.7833 14.6951 25.7904 14.7693 25.7814H18.1107C18.4333 25.8165 18.6948 25.57 18.5919 25.2658L18.5941 17.5314H21.3285C21.4027 17.5408 21.4781 17.5338 21.549 17.5112C21.6198 17.4886 21.6842 17.4509 21.7371 17.401C21.79 17.3512 21.83 17.2905 21.854 17.2236C21.878 17.1568 21.8853 17.0857 21.8754 17.0158V13.922C21.8853 13.8521 21.878 13.781 21.854 13.7142C21.83 13.6474 21.79 13.5867 21.7371 13.5368C21.6842 13.4869 21.6198 13.4492 21.549 13.4266C21.4781 13.404 21.4027 13.3971 21.3285 13.4064H18.5908L18.5941 11.8595C18.7002 11.2006 18.7002 11.3078 19.3488 11.3439H21.3055C21.4576 11.3119 21.6194 11.3295 21.7332 11.2253C21.8469 11.1212 21.9126 10.9789 21.8743 10.8283V7.73454C21.8844 7.66468 21.8772 7.59356 21.8534 7.52674C21.8295 7.45991 21.7897 7.39918 21.7368 7.34928C21.684 7.29937 21.6197 7.26164 21.5489 7.23903C21.478 7.21642 21.4026 7.20953 21.3285 7.21891ZM20.7433 10.2549L19.3718 10.2054C17.6732 10.2054 17.531 11.0748 17.531 11.9647L17.5266 13.92C17.5265 13.9924 17.5415 14.0641 17.5708 14.131C17.6001 14.198 17.6431 14.2588 17.6973 14.31C17.7516 14.3613 17.816 14.4019 17.8869 14.4297C17.9579 14.4574 18.0339 14.4717 18.1107 14.4717H20.7816V16.4641H18.1129C17.9579 16.4641 17.8092 16.5221 17.6995 16.6253C17.5898 16.7285 17.528 16.8686 17.5277 17.0148L17.5266 24.7502H15.3129V17.0158C15.3129 16.7116 15.093 16.4651 14.7693 16.4651H13.1254V14.4727H14.7693C14.846 14.4728 14.922 14.4587 14.993 14.4311C15.0639 14.4035 15.1284 14.363 15.1827 14.3119C15.2921 14.2077 15.3118 14.0674 15.3118 13.921V11.6987C15.3118 9.3866 15.8073 8.28523 18.4093 8.28523H20.7423V10.2549H20.7433Z" fill="#1C1C1C"/>
</g>
<defs>
<clipPath id="clip0_1837_913">
<rect width="35" height="33" fill="white"/>
</clipPath>
</defs>
</svg>
