<?xml version="1.0" encoding="UTF-8"?>
<svg xmlns="http://www.w3.org/2000/svg" width="362" height="372" viewBox="0 0 362 372">
<g transform="translate(0,372) scale(0.1,-0.1)" stroke="none">
<path fill="#DA4792" d="M610 3399 c-118 -20 -234 -110 -288 -226 -27 -57 -27 -62 -30 -293 l-3 -235 28 -55 c57 -109 153 -151 302 -130 280 38 496 216 587 485 21 64 28 105 32 201 3 78 0 133 -7 156 -14 42 -54 81 -100 97 -41 13 -438 13 -521 0z"/>
<path fill="#2F4AF4" d="M1835 3394 c-175 -32 -354 -154 -449 -307 -88 -142 -128 -335 -92 -445 23 -67 82 -133 148 -163 51 -23 64 -24 301 -27 156 -2 268 1 302 8 74 15 131 59 161 123 24 51 24 55 24 362 0 280 -2 314 -19 350 -49 107 -164 137 -376 99z"/>
<path fill="#D3443C" d="M2570 3399 c-116 -20 -210 -91 -262 -197 l-32 -67 -4 -245 c-5 -286 -1 -312 62 -374 54 -55 115 -71 225 -62 112 10 195 32 277 73 224 110 368 325 381 570 7 128 -7 172 -76 236 -72 67 -116 77 -335 76 -100 -1 -206 -5 -236 -10z"/>
<path fill="#F1A73E" d="M473 2397 c-60 -23 -117 -72 -148 -128 -28 -51 -30 -60 -29 -159 0 -86 5 -120 28 -187 33 -102 106 -214 189 -288 78 -71 214 -139 319 -160 109 -21 252 -20 303 4 50 22 92 71 100 115 4 18 5 145 3 282 l-3 249 -32 67 c-38 81 -102 146 -181 185 -57 28 -57 28 -287 30 -160 2 -240 -2 -262 -10z"/>
<path fill="#459B3D" d="M1465 2397 c-87 -33 -153 -106 -176 -191 -18 -65 -5 -218 25 -309 67 -198 228 -353 431 -413 36 -11 95 -18 150 -18 83 -1 96 2 158 32 49 24 79 48 107 84 67 84 71 114 68 458 l-3 302 -37 34 -38 34 -327 -1 c-225 0 -338 -4 -358 -12z"/>
<path fill="#4FA7EE" d="M2605 2392 c-108 -37 -192 -101 -250 -187 -72 -110 -98 -238 -72 -361 20 -94 54 -159 121 -232 130 -139 326 -185 510 -119 121 45 211 129 267 253 56 123 51 292 -12 415 -26 53 -124 155 -176 186 -107 62 -280 83 -388 45z"/>
<path fill="#000000" d="M690 1321 c-186 -59 -315 -192 -351 -362 -16 -75 -6 -211 21 -282 48 -127 168 -241 297 -283 68 -22 235 -26 298 -7 22 7 67 28 99 48 33 19 60 34 61 33 1 -2 6 -19 11 -38 l10 -35 84 0 85 0 3 253 2 252 -225 0 -225 0 0 -80 0 -80 74 0 c67 0 75 -2 81 -21 14 -44 -77 -99 -166 -99 -67 0 -124 25 -166 73 -42 48 -56 96 -51 177 3 57 9 77 34 112 16 24 50 54 74 68 38 21 58 25 125 24 83 0 142 -20 191 -65 21 -19 21 -19 114 68 l93 87 -48 43 c-61 53 -145 98 -220 118 -81 21 -234 19 -305 -4z"/>
<path fill="#000000" d="M1392 858 l3 -463 148 -3 147 -3 0 466 0 465 -150 0 -150 0 2 -462z"/>
<path fill="#000000" d="M1810 855 l0 -465 330 0 330 0 0 120 0 120 -185 0 -186 0 3 68 3 67 123 3 122 3 0 94 0 94 -122 3 -123 3 0 60 0 60 178 3 177 2 0 115 0 115 -325 0 -325 0 0 -465z"/>
<path fill="#000000" d="M2560 855 l0 -465 330 0 330 0 0 120 0 120 -180 0 -180 0 0 70 0 70 120 0 120 0 0 95 0 95 -120 0 -120 0 0 65 0 65 175 0 175 0 0 115 0 115 -325 0 -325 0 0 -465z"/>
</g>
</svg>
