<svg width="33" height="33" viewBox="0 0 33 33" fill="none" xmlns="http://www.w3.org/2000/svg">
<g clip-path="url(#clip0_1197_2378)">
<path fill-rule="evenodd" clip-rule="evenodd" d="M16.5 2.12437C8.17438 2.12437 1.43412 8.83025 1.43412 17.0885C1.43412 23.1523 5.06825 28.3704 10.2987 30.7175C10.846 30.9636 11.3809 30.866 11.7989 30.5525C12.03 30.3725 12.2164 30.1414 12.3433 29.8773C12.4702 29.6132 12.5342 29.3233 12.5304 29.0304V28.2466L10.6645 27.9936C10.6507 27.9918 10.6369 27.9895 10.6233 27.9867C9.59475 27.786 8.90038 27.4244 8.39163 26.9032C7.964 26.4646 7.70275 25.9394 7.48137 25.4939L7.40438 25.3385C7.19977 24.9117 6.97634 24.4942 6.73475 24.0872C6.54912 23.793 6.40475 23.6418 6.26175 23.5469C5.89875 23.3062 5.5495 22.8979 5.5495 22.3877C5.54826 22.2409 5.57969 22.0957 5.64153 21.9625C5.70336 21.8293 5.79404 21.7116 5.907 21.6178C6.1202 21.4489 6.38591 21.3604 6.65775 21.3675C6.963 21.3675 7.25038 21.461 7.48962 21.5683C7.73438 21.6782 7.97775 21.824 8.20463 21.9753C8.75737 22.3438 9.30188 22.7796 9.7625 23.3172C10.2424 23.8755 10.582 24.2302 11.0935 24.3031C11.5142 24.3636 11.9432 24.365 12.2774 24.3499C12.3238 24.0853 12.4004 23.827 12.5056 23.5799C12.0975 23.4846 11.695 23.3671 11.2998 23.2279C10.4005 22.9089 9.39812 22.4125 8.72437 21.6604C7.98462 20.8326 7.52675 20.0942 7.271 19.2308C7.02213 18.3892 6.98088 17.4776 6.98088 16.3556C6.98088 14.6369 7.72475 13.189 8.283 12.4204C8.06852 11.7474 7.91437 11.0568 7.82238 10.3565C7.76145 9.91489 7.76191 9.46698 7.82375 9.0255C7.8925 8.62263 8.06437 8.12762 8.51675 7.82925C8.95262 7.53912 9.46412 7.5515 9.86287 7.62575C10.2767 7.70412 10.7071 7.876 11.1031 8.07262C11.748 8.39162 12.3888 8.81787 12.8686 9.1795C13.6964 8.93612 15.1608 8.62262 16.4849 8.59375H16.5151C17.8406 8.62262 19.239 8.93612 20.0461 9.17813C20.5274 8.81787 21.1667 8.39025 21.8103 8.07262C22.2063 7.876 22.6353 7.70412 23.0505 7.62575C23.4492 7.5515 23.9607 7.53912 24.398 7.82787C24.849 8.12762 25.0222 8.62263 25.0896 9.0255C25.1597 9.44487 25.1432 9.91375 25.0896 10.3565C24.998 11.0567 24.8443 11.7474 24.6304 12.4204C25.1886 13.1904 25.9325 14.6383 25.9325 16.3556C25.9325 17.4776 25.8912 18.3892 25.6437 19.2294C25.3866 20.0956 24.9287 20.8326 24.189 21.6604C23.5152 22.4125 22.5129 22.9089 21.6136 23.2279C21.1363 23.3956 20.6485 23.5321 20.1534 23.6363C20.3225 24.1478 20.383 24.5616 20.383 24.7995V29.0482C20.383 29.6945 20.6841 30.2459 21.1117 30.5676C21.527 30.8825 22.0605 30.9801 22.6077 30.7409C27.8877 28.4144 31.5645 23.1825 31.5645 17.0871C31.5645 8.83025 24.827 2.12437 16.5 2.12437ZM13.0295 25.7262H13.024L13.013 25.729L12.9731 25.7345C12.7689 25.7585 12.5639 25.7755 12.3585 25.7854C11.8691 25.8109 11.3785 25.7911 10.8927 25.7262C9.80513 25.5722 9.14375 24.8022 8.71613 24.3018L8.67488 24.255C8.53506 24.0928 8.38487 23.9399 8.22525 23.7971C8.36687 24.0584 8.514 24.3499 8.67212 24.6634L8.68587 24.6909L8.756 24.8339C8.99662 25.3124 9.15475 25.6314 9.41737 25.8981C9.67313 26.1594 10.0719 26.4124 10.8776 26.5719L13.3444 26.906C13.5167 26.9293 13.6746 27.0144 13.7889 27.1454C13.9032 27.2764 13.9661 27.4444 13.9659 27.6182V29.0304C13.9659 30.1304 13.4502 31.1108 12.6596 31.7048C12.2445 32.0219 11.7507 32.2198 11.2315 32.277C10.7122 32.3341 10.1872 32.2485 9.713 32.0293C3.99025 29.4621 0 23.7463 0 17.0885C0 8.0245 7.39337 0.6875 16.5 0.6875C25.6066 0.6875 33 8.0245 33 17.0885C33 23.7806 28.9589 29.5116 23.1866 32.0567C22.7121 32.2718 22.188 32.3538 21.6704 32.294C21.1528 32.2342 20.6612 32.0348 20.2482 31.7171C19.8399 31.4028 19.51 30.9981 19.2843 30.5348C19.0586 30.0715 18.9433 29.5622 18.9475 29.0469V24.7981C18.9475 24.7019 18.8801 24.1464 18.5047 23.3997C18.4529 23.2962 18.4268 23.1817 18.4287 23.066C18.4305 22.9502 18.4602 22.8366 18.5152 22.7348C18.5702 22.6329 18.649 22.5458 18.7448 22.4809C18.8407 22.4159 18.9508 22.375 19.0658 22.3616C19.7707 22.2733 20.464 22.1092 21.1337 21.8721C21.9505 21.5834 22.6834 21.1874 23.1192 20.7006C23.7669 19.9774 24.09 19.4219 24.2674 18.821C24.4516 18.1981 24.4984 17.4735 24.4984 16.3556C24.4984 14.7868 23.6734 13.4681 23.2939 13.0433C23.2077 12.9472 23.149 12.8298 23.1238 12.7033C23.0987 12.5768 23.108 12.4458 23.1509 12.3241C23.3953 11.6314 23.5681 10.9154 23.6665 10.1874C23.7105 9.80925 23.7133 9.493 23.6748 9.26475C23.6661 9.1813 23.6409 9.10042 23.6005 9.02688C23.5058 9.01049 23.4088 9.01471 23.3159 9.03925C23.0821 9.08325 22.7837 9.19325 22.4455 9.361C21.7717 9.69375 21.0705 10.186 20.636 10.538C20.5402 10.6157 20.4259 10.6674 20.3042 10.6878C20.1825 10.7083 20.0576 10.697 19.9416 10.6549C18.8283 10.2907 17.6703 10.0811 16.5 10.032C15.1154 10.065 13.5176 10.4583 12.9718 10.6549C12.8558 10.697 12.7309 10.7083 12.6092 10.6878C12.4875 10.6674 12.3732 10.6157 12.2774 10.538C11.7155 10.0856 11.1092 9.69128 10.4679 9.361C10.1925 9.21638 9.89944 9.10822 9.59612 9.03925C9.50368 9.01491 9.40709 9.01069 9.31287 9.02688C9.27246 9.1004 9.24721 9.18129 9.23862 9.26475C9.20012 9.493 9.20288 9.80925 9.24687 10.1874C9.34597 10.9152 9.51873 11.6312 9.7625 12.3241C9.84912 12.5716 9.7955 12.8466 9.6195 13.0433C9.24 13.4681 8.415 14.7868 8.415 16.3556C8.415 17.4721 8.46175 18.1981 8.646 18.821C8.82475 19.4219 9.1465 19.976 9.79275 20.7006C10.23 21.1874 10.9615 21.5834 11.7796 21.8721C12.4489 22.109 13.1418 22.2731 13.8462 22.3616C13.9912 22.3772 14.1279 22.4365 14.2383 22.5317C14.3487 22.6269 14.4275 22.7534 14.4643 22.8945C14.501 23.0355 14.4939 23.1844 14.4439 23.3214C14.3939 23.4583 14.3035 23.5768 14.1845 23.661C13.9576 23.8232 13.8077 24.1148 13.7239 24.4516C13.6806 24.6251 13.6548 24.8024 13.6469 24.981V25.0071C13.6486 25.1815 13.587 25.3505 13.4734 25.4828C13.3599 25.6151 13.2021 25.7016 13.0295 25.7262Z" fill="#111111"/>
</g>
<defs>
<clipPath id="clip0_1197_2378">
<rect width="33" height="33" fill="white"/>
</clipPath>
</defs>
</svg>
