<svg width="35" height="33" viewBox="0 0 35 33" fill="none" xmlns="http://www.w3.org/2000/svg">
<g clip-path="url(#clip0_1199_2363)">
<path d="M21.3446 12.3254C20.6031 12.3254 20.054 12.5018 19.6242 12.7245C19.5552 12.4935 19.3288 12.3244 19.062 12.3749H15.7982C15.4756 12.3244 15.2142 12.5709 15.3137 12.8906V24.2343C15.2142 24.5231 15.4756 24.7706 15.7982 24.7499H19.062C19.3846 24.7706 19.646 24.5231 19.646 24.2188L19.6449 17.3631C19.6438 17.36 19.6318 17.0321 19.8517 16.8062C20.0277 16.6268 20.3307 16.535 20.7496 16.535C21.4474 16.535 21.7581 16.8042 21.874 17.4064V24.2188C21.7592 24.5231 22.0206 24.7706 22.3432 24.7499H25.7831C26.1057 24.7706 26.3671 24.5231 26.2512 24.2188V17.1775C26.366 13.597 23.6612 12.3254 21.3446 12.3254ZM25.1979 23.7187H22.9273V17.4064C22.9273 16.1885 22.0927 15.4336 20.7507 15.4336C19.9917 15.4336 19.401 15.644 18.9942 16.0586C18.4287 16.6361 18.4724 17.3683 18.5938 17.5312V23.7187H16.3823V13.4268H18.4779V13.7733C18.477 13.8765 18.5071 13.9779 18.5646 14.0657C18.6221 14.1536 18.7047 14.2243 18.8029 14.2699C18.9012 14.3155 19.0111 14.334 19.12 14.3233C19.2288 14.3126 19.3323 14.2732 19.4185 14.2095L19.5717 14.0982C20.0146 13.7692 20.4729 13.4278 21.3457 13.4278C22.2492 13.4278 25.199 13.6991 25.199 17.1785V23.7187H25.1979Z" fill="#1C1C1C"/>
<path d="M12.0313 7.18359C10.8041 7.18359 9.80664 8.12409 9.80664 9.28116C9.80664 10.4382 10.8041 11.3787 12.0313 11.3787C13.2585 11.3787 14.256 10.4382 14.256 9.28116C14.256 8.12409 13.2585 7.18359 12.0313 7.18359ZM12.0313 10.2773C11.4495 10.2773 10.9748 9.82978 10.9748 9.28116C10.9748 8.73253 11.4495 8.28497 12.0313 8.28497C12.6132 8.28497 13.0879 8.73253 13.0879 9.28116C13.0879 9.82978 12.6132 10.2773 12.0313 10.2773Z" fill="#1C1C1C"/>
<path d="M13.5931 12.3245H10.3468C10.0242 12.3245 9.76277 12.5709 9.84371 12.8906V24.2344C9.76277 24.5231 10.0242 24.7706 10.3468 24.75H13.5931C13.9157 24.7706 14.1771 24.5231 14.1771 24.2189V12.8751C14.1771 12.7291 14.1156 12.589 14.0061 12.4858C13.8965 12.3825 13.748 12.3245 13.5931 12.3245ZM13.125 23.7187H10.9309V13.4269H13.125V23.7187Z" fill="#1C1C1C"/>
<path d="M17.5001 -0.0351562C7.82914 -0.0351562 -0.0371094 7.38159 -0.0371094 16.4999C-0.0371094 25.6182 7.82914 33.035 17.5001 33.035C27.171 33.035 35.0373 25.6182 35.0373 16.4999C35.0373 7.38159 27.171 -0.0351562 17.5001 -0.0351562ZM17.5001 31.9336C8.47445 31.9336 1.13102 25.0098 1.13102 16.4999C1.13102 7.99003 8.47445 1.06622 17.5001 1.06622C26.5257 1.06622 33.8691 7.99003 33.8691 16.4999C33.8691 25.0098 26.5257 31.9336 17.5001 31.9336Z" fill="#1C1C1C"/>
</g>
<defs>
<clipPath id="clip0_1199_2363">
<rect width="35" height="33" fill="white"/>
</clipPath>
</defs>
</svg>
