<svg width="335" height="307" viewBox="0 0 335 307" fill="none" xmlns="http://www.w3.org/2000/svg">
<g clip-path="url(#clip0_1522_3835)">
<path d="M161.019 61.5158C164.748 57.6869 169.73 56.5245 172.145 58.9194C174.56 61.3143 173.494 66.3587 169.762 70.1885C168.293 71.739 166.476 72.9118 164.465 73.6089L148.46 89.631L141.167 81.8936L157.72 66.9201C158.376 64.8787 159.507 63.0256 161.019 61.5158Z" fill="#FFB6B6"/>
<path d="M109.832 48.2902L126.613 85.8471L153.41 71.2139L163 76.3487C163 76.3487 141.094 113.295 126.095 109.089C111.096 104.883 84.4619 66.7475 89.2607 54.9776C94.0596 43.2078 109.832 48.2902 109.832 48.2902Z" fill="#92CDD1"/>
<path d="M187.622 69.49C183.726 65.8333 182.438 60.8414 184.746 58.3407C187.053 55.84 192.08 56.7775 195.977 60.4361C197.553 61.876 198.765 63.6758 199.51 65.6849L215.823 81.3889L208.355 88.9542L193.067 72.6697C191.026 72.0637 189.159 70.9734 187.622 69.49Z" fill="#A0616A"/>
<path d="M269.789 71.9108L238.303 105.728C238.303 105.728 231.233 112.786 219.6 102.608C207.967 92.43 195.034 75.7316 195.034 75.7316L202.29 67.7652L215.142 79.3325C215.142 79.3325 222.772 82.4299 223.303 84.434C223.833 86.4382 222.35 87.2671 224.734 86.6249C227.118 85.9827 227.164 84.5501 227.314 86.7228C227.463 88.8956 226.007 91.4349 228.761 88.9753C231.515 86.5157 232.337 88.012 232.337 88.012L252.461 61.1201C252.461 61.1201 265.464 50.7464 269.202 60.0453C272.941 69.3441 269.789 71.9108 269.789 71.9108Z" fill="#FFA9A2"/>
<path d="M102.473 298.592L114.709 298.591L120.53 250.977L102.471 250.978L102.473 298.592Z" fill="#FFB6B6"/>
<path d="M144.396 298.312C144.777 298.959 144.978 301.049 144.978 301.802C144.978 304.115 143.119 305.991 140.825 305.991H102.931C101.366 305.991 100.098 304.712 100.098 303.133V301.541C100.098 301.541 98.2232 296.758 102.083 290.862C102.083 290.862 106.879 295.479 114.047 288.248L116.161 284.385L131.461 295.673L139.941 296.726C141.796 296.957 143.442 296.691 144.396 298.312Z" fill="#2F2E41"/>
<path d="M243.501 78.8652H273.825V33.6624L243.501 33.6624V78.8652Z" fill="#2F2E41"/>
<path d="M267.018 65.0826L265.956 52.1357H251.836L248.706 65.8526L267.018 65.0826Z" fill="#A0616A"/>
<path opacity="0.1" d="M267.018 65.0826L265.956 52.1357H251.836L248.706 65.8526L267.018 65.0826Z" fill="black"/>
<path d="M111.732 50.7007L111.98 34.0511L101.803 27.6509L90.7358 41.3074L111.732 50.7007Z" fill="#FFB6B6"/>
<path opacity="0.1" d="M111.733 50.7007L112.391 34.466L101.803 27.6509L105.4 47.742L111.733 50.7007Z" fill="black"/>
<path d="M256.672 56.2552C265.197 56.2552 272.107 49.2838 272.107 40.6842C272.107 32.0846 265.197 25.1133 256.672 25.1133C248.148 25.1133 241.238 32.0846 241.238 40.6842C241.238 49.2838 248.148 56.2552 256.672 56.2552Z" fill="#A0616A"/>
<path d="M252.779 24.3024C252.779 24.3024 252.779 17.91 258.663 19.2798C264.546 20.6496 266.357 22.9326 266.357 22.9326C266.357 22.9326 268.62 26.5853 272.24 27.0419C275.861 27.4985 279.029 38.0002 278.577 40.2832C278.124 42.5661 275.861 48.5019 279.029 51.2414C282.198 53.981 286.723 58.0903 285.366 62.1997C284.008 66.309 279.935 76.8107 279.935 76.8107C279.935 76.8107 291.296 78.4861 290.367 85.6388C290.367 85.6388 284.913 81.3766 277.672 81.3766C270.43 81.3766 271.335 68.1228 271.335 68.1228C271.335 68.1228 270.883 59.9167 269.525 57.6337C268.167 55.3508 269.977 42.5661 263.189 35.7172C256.4 28.8683 252.779 24.3024 252.779 24.3024Z" fill="#2F2E41"/>
<path d="M254.589 22.9326C254.589 22.9326 245.99 24.759 242.821 33.4343C239.653 42.1096 241.253 43.7238 241.253 43.7238C241.253 43.7238 240.553 48.9477 236.709 50.7795C232.864 52.6113 236.033 60.3734 236.033 60.3734C236.033 60.3734 235.127 68.1355 222.907 70.875C210.687 73.6146 238.231 94.6229 238.231 94.6229C238.231 94.6229 236.251 84.7076 248.924 84.251C261.596 83.7944 246.442 60.3733 246.442 60.3733L245.084 45.3057C245.084 45.3057 247.8 27.9552 255.947 25.6722C264.093 23.3892 254.589 22.9326 254.589 22.9326Z" fill="#2F2E41"/>
<path d="M111.764 39.2318C121.76 39.2318 129.864 31.0565 129.864 20.9718C129.864 10.8872 121.76 2.71191 111.764 2.71191C101.768 2.71191 93.6641 10.8872 93.6641 20.9718C93.6641 31.0565 101.768 39.2318 111.764 39.2318Z" fill="#FFB6B6"/>
<path d="M136.449 160.796L119.588 276.546H98.4336L101.247 210.473L102.727 175.731L98.4336 159.194C98.4336 159.194 96.4761 155.519 94.827 151.063C92.9682 146.034 91.5001 140.006 93.6797 137.148C94.4816 136.094 96.5666 135.314 99.4 134.733C101.131 134.376 103.146 134.098 105.322 133.883C117.832 132.634 135.626 133.414 135.626 133.414L136.079 148.474L136.33 156.883L136.449 160.796Z" fill="#2F2E41"/>
<path d="M32.8052 280.15L43.5847 285.991L71.05 246.827L55.1406 238.205L32.8052 280.15Z" fill="#FFB6B6"/>
<path d="M69.8665 299.92C69.8984 300.672 69.0953 302.609 68.7422 303.272C67.6566 305.31 65.1387 306.075 63.1182 304.98L29.737 286.886C28.3586 286.139 27.8415 284.406 28.5821 283.016L29.3288 281.614C29.3288 281.614 29.9216 276.505 36.0874 273.154C36.0874 273.154 38.1471 279.511 47.8534 276.563L51.5275 274.17L59.7096 291.419L66.6861 296.396C68.2124 297.485 69.7865 298.036 69.8665 299.92Z" fill="#2F2E41"/>
<path d="M136.33 156.884L127.381 174.985L101.247 210.473L58.2223 268.9L39.5889 258.802L90.6653 172.043L94.6461 155.423C94.6461 155.423 94.6461 153.627 94.8271 151.063C95.1807 145.989 96.2417 137.903 99.4001 134.733C99.8278 134.302 100.292 133.962 100.798 133.734C101.748 133.302 103.327 133.406 105.322 133.883C113.654 135.891 129.203 144.516 136.079 148.474L136.33 156.884Z" fill="#2F2E41"/>
<path d="M265.868 300.044L255.347 300.043L250.342 259.104L265.87 259.105L265.868 300.044Z" fill="#A0616A"/>
<path d="M229.822 299.804C229.495 300.36 229.322 302.157 229.322 302.804C229.322 304.793 230.92 306.406 232.893 306.406H265.474C266.82 306.406 267.91 305.306 267.91 303.949V302.58C267.91 302.58 269.522 298.467 266.204 293.398C266.204 293.398 262.079 297.367 255.917 291.15L254.099 287.829L240.944 297.535L233.653 298.44C232.057 298.638 230.643 298.409 229.822 299.804Z" fill="#2F2E41"/>
<path d="M307.314 287.536L297.588 291.584L277.482 255.666L291.837 249.692L307.314 287.536Z" fill="#A0616A"/>
<path d="M273.902 301.185C273.81 301.825 274.33 303.552 274.574 304.151C275.327 305.99 277.414 306.865 279.237 306.107L309.355 293.569C310.599 293.051 311.191 291.614 310.678 290.359L310.161 289.094C310.161 289.094 310.095 284.672 305.111 281.263C305.111 281.263 302.8 286.519 294.752 283.144L291.816 280.773L283.326 294.807L276.928 298.45C275.528 299.247 274.134 299.58 273.902 301.185Z" fill="#2F2E41"/>
<path d="M270.695 159.609L266.402 176.146L267.545 202.98L269.441 247.55L269.494 248.808L269.708 253.819L270.695 276.961H249.541L240.123 212.311L232.68 161.211L233.461 135.19L233.502 133.829C233.502 133.829 271.337 132.169 275.449 137.563C279.561 142.956 270.695 159.609 270.695 159.609Z" fill="#2F2E41"/>
<path d="M300.128 260.325L296.542 262.196L283.279 269.12L281.338 270.132L269.708 253.819L240.123 212.311L232.68 161.211L233.461 135.19C236.809 134.115 239.486 133.675 240.843 134.314C246.954 137.198 246.662 156.099 246.662 156.099L250.384 172.777L267.545 202.98L300.128 260.325Z" fill="#2F2E41"/>
<path d="M223.639 265.427C223.367 264.587 221.304 264.957 221.106 264.205C220.908 263.456 222.888 262.828 224.406 260.718C224.68 260.337 226.406 257.939 225.744 256.93C224.49 255.018 215.762 259.78 213.667 257.108C213.207 256.521 213.018 255.514 211.648 253.64C211.103 252.895 210.754 252.535 210.336 252.546C209.743 252.561 209.531 253.309 208.6 254.664C207.203 256.696 206.699 256.44 205.779 258.105C205.095 259.341 205.014 260.131 204.522 260.178C203.825 260.243 203.537 258.705 202.685 258.645C201.816 258.584 200.946 260.104 200.515 261.292C199.705 263.522 200.206 265.225 200.318 266.924C200.438 268.769 200.155 271.47 198.167 274.937L179.421 305.069C183.447 298.926 194.875 282.176 199.479 276.032C200.809 274.258 202.237 272.477 204.436 272.142C206.552 271.82 209.128 272.876 212.723 272.815C213.142 272.808 214.311 272.773 214.595 272.148C214.83 271.631 214.246 271.182 214.459 270.697C214.743 270.046 216.024 270.325 217.769 269.892C219 269.587 219.836 269.084 220.555 268.65C220.772 268.52 224.001 266.546 223.639 265.427Z" fill="#F2F2F2"/>
<path d="M174.539 272.462C174.052 272.355 173.636 273.483 173.214 273.364C172.792 273.246 173.058 272.084 172.469 270.724C172.363 270.478 171.694 268.932 171.012 268.968C169.72 269.038 169.519 274.733 167.614 275C167.196 275.058 166.652 274.861 165.345 274.999C164.825 275.053 164.549 275.123 164.434 275.333C164.27 275.63 164.573 275.951 164.963 276.803C165.549 278.081 165.279 278.257 165.823 279.193C166.228 279.888 166.588 280.156 166.469 280.413C166.3 280.778 165.468 280.476 165.193 280.881C164.913 281.294 165.402 282.163 165.855 282.719C166.706 283.763 167.68 284.007 168.538 284.442C169.47 284.914 170.703 285.834 171.816 287.819L181.067 305.795C179.24 302.029 174.388 291.537 172.727 287.485C172.248 286.315 171.794 285.094 172.265 283.908C172.719 282.767 173.976 281.797 174.983 279.999C175.101 279.789 175.421 279.201 175.199 278.88C175.016 278.614 174.629 278.774 174.454 278.528C174.219 278.2 174.725 277.646 175.018 276.657C175.224 275.96 175.221 275.4 175.217 274.919C175.216 274.774 175.188 272.606 174.539 272.462Z" fill="#F2F2F2"/>
<path d="M183.768 276.848L184.058 274.14L184.237 273.97C185.062 273.183 185.578 272.35 185.772 271.492C185.802 271.356 185.826 271.218 185.851 271.077C185.947 270.521 186.067 269.828 186.598 269.109C186.895 268.709 187.68 267.804 188.491 268.12C188.709 268.202 188.857 268.345 188.959 268.497C188.985 268.471 189.011 268.445 189.04 268.416C189.39 268.073 189.635 267.947 189.87 267.826C190.052 267.733 190.239 267.637 190.555 267.382C190.694 267.27 190.806 267.169 190.899 267.084C191.184 266.828 191.547 266.528 192.045 266.647C192.573 266.792 192.754 267.301 192.875 267.637C193.089 268.237 193.155 268.65 193.199 268.923C193.215 269.023 193.233 269.136 193.247 269.173C193.362 269.466 194.813 269.542 195.359 269.574C196.586 269.641 197.648 269.699 197.903 270.547C198.086 271.153 197.704 271.815 196.735 272.565C196.434 272.799 196.132 272.96 195.869 273.08C196.031 273.234 196.159 273.444 196.167 273.73C196.185 274.406 195.498 274.925 194.124 275.275C193.782 275.363 193.323 275.479 192.722 275.45C192.439 275.435 192.192 275.392 191.98 275.351C191.949 275.472 191.891 275.599 191.787 275.719C191.481 276.072 190.987 276.161 190.317 275.962C189.577 275.754 188.993 275.471 188.477 275.223C188.026 275.006 187.638 274.821 187.312 274.77C186.705 274.685 186.14 275.063 185.463 275.565L183.768 276.848Z" fill="#F2F2F2"/>
<path d="M188.607 261.423L185.936 261.826L185.728 261.695C184.764 261.09 183.834 260.797 182.963 260.826C182.824 260.831 182.686 260.842 182.545 260.854C181.987 260.901 181.293 260.96 180.469 260.624C180.009 260.436 178.942 259.899 179.039 259.028C179.063 258.794 179.163 258.613 179.282 258.475C179.251 258.456 179.219 258.437 179.184 258.417C178.767 258.163 178.584 257.956 178.408 257.756C178.273 257.603 178.133 257.445 177.808 257.2C177.665 257.093 177.54 257.01 177.435 256.94C177.118 256.728 176.738 256.449 176.726 255.933C176.731 255.381 177.173 255.075 177.465 254.872C177.986 254.511 178.364 254.342 178.616 254.23C178.708 254.189 178.811 254.143 178.843 254.12C179.095 253.932 178.8 252.497 178.692 251.957C178.445 250.742 178.231 249.691 178.979 249.227C179.514 248.895 180.245 249.099 181.21 249.855C181.511 250.09 181.742 250.344 181.924 250.57C182.031 250.373 182.199 250.194 182.471 250.114C183.115 249.925 183.787 250.464 184.471 251.716C184.642 252.027 184.87 252.445 184.994 253.039C185.052 253.319 185.073 253.572 185.088 253.788C185.212 253.788 185.348 253.813 185.489 253.884C185.905 254.093 186.117 254.552 186.096 255.256C186.084 256.031 185.961 256.673 185.854 257.24C185.76 257.735 185.681 258.161 185.715 258.492C185.787 259.105 186.293 259.561 186.946 260.094L188.607 261.423Z" fill="#F2F2F2"/>
<path d="M188.967 253.333L189.258 250.625L189.436 250.454C190.261 249.668 190.777 248.834 190.971 247.977C191.002 247.84 191.025 247.702 191.05 247.562C191.146 247.005 191.266 246.313 191.797 245.594C192.094 245.193 192.879 244.288 193.69 244.604C193.908 244.687 194.056 244.83 194.159 244.981C194.184 244.955 194.211 244.929 194.239 244.9C194.589 244.557 194.834 244.432 195.07 244.311C195.251 244.217 195.438 244.122 195.755 243.866C195.894 243.754 196.005 243.653 196.099 243.568C196.383 243.312 196.746 243.012 197.245 243.131C197.773 243.277 197.954 243.785 198.074 244.121C198.288 244.721 198.354 245.134 198.398 245.408C198.414 245.508 198.432 245.62 198.446 245.657C198.561 245.951 200.012 246.027 200.558 246.059C201.785 246.126 202.847 246.184 203.102 247.031C203.286 247.638 202.904 248.299 201.935 249.049C201.633 249.283 201.331 249.444 201.068 249.564C201.23 249.719 201.359 249.928 201.367 250.214C201.384 250.89 200.697 251.409 199.323 251.759C198.982 251.847 198.523 251.963 197.922 251.934C197.639 251.92 197.391 251.876 197.179 251.835C197.148 251.957 197.09 252.083 196.986 252.203C196.68 252.556 196.187 252.646 195.516 252.447C194.776 252.239 194.192 251.956 193.676 251.707C193.225 251.491 192.837 251.305 192.511 251.255C191.904 251.169 191.339 251.547 190.662 252.05L188.967 253.333Z" fill="#F2F2F2"/>
<path d="M180.308 305.223L179.835 304.753L179.179 304.683C179.182 304.62 179.178 304.475 179.173 304.247C179.148 303.001 179.07 299.21 179.593 293.384C179.958 289.317 180.569 285.189 181.408 281.112C182.248 277.029 183.12 273.991 183.821 271.549C184.35 269.707 184.883 267.96 185.404 266.259C186.794 261.713 188.107 257.418 188.919 252.52C189.101 251.427 189.479 249.15 188.706 246.464C188.257 244.906 187.489 243.439 186.421 242.106L187.454 241.265C188.632 242.738 189.482 244.362 189.98 246.092C190.838 249.07 190.426 251.551 190.228 252.742C189.401 257.727 188.076 262.063 186.672 266.652C186.154 268.348 185.622 270.087 185.095 271.921C184.401 274.341 183.537 277.352 182.707 281.383C181.878 285.411 181.275 289.489 180.914 293.504C180.397 299.257 180.475 302.992 180.5 304.219C180.513 304.874 180.516 305.012 180.308 305.223Z" fill="#F2F2F2"/>
<path d="M183.587 243.648C183.534 243.636 183.481 243.622 183.427 243.606C182.338 243.298 181.464 242.402 180.829 240.944C180.532 240.259 180.462 239.537 180.322 238.098C180.3 237.876 180.203 236.753 180.322 235.266C180.4 234.293 180.503 233.903 180.765 233.596C181.057 233.255 181.449 233.059 181.864 232.961C181.875 232.832 181.917 232.706 181.999 232.587C182.341 232.092 182.912 232.295 183.221 232.401C183.377 232.458 183.572 232.53 183.791 232.567C184.135 232.627 184.34 232.566 184.651 232.475C184.948 232.388 185.318 232.28 185.829 232.289C186.837 232.303 187.584 232.76 187.83 232.91C189.127 233.696 189.574 234.95 190.092 236.402C190.195 236.693 190.537 237.745 190.616 239.099C190.674 240.077 190.547 240.477 190.401 240.763C190.104 241.351 189.649 241.623 188.519 242.197C187.339 242.797 186.747 243.098 186.261 243.253C185.131 243.611 184.422 243.835 183.587 243.648Z" fill="#F2F2F2"/>
<path d="M335 306.513C335 306.782 334.784 307 334.517 307H0V306.026H334.517C334.784 306.026 335 306.244 335 306.513Z" fill="#E6E6E6"/>
<path d="M93.0626 37.7847L113.625 47.7417C113.625 47.7417 135.421 112.877 135.421 116.196C135.421 119.515 141.589 121.59 137.888 125.324C134.187 129.057 144.777 132.22 139.071 135.202C133.364 138.185 97.7676 154.499 93.8094 153.028C82.8925 148.97 94.2721 134.061 94.2721 134.061C94.2721 134.061 86.0715 127.398 87.3052 124.079C88.5389 120.76 79.9028 57.2839 79.9028 57.2839L93.0626 37.7847Z" fill="#92CDD1"/>
<path d="M110.659 25.3456L112.987 30.0428C112.987 30.0428 115.315 21.5878 119.04 19.709C122.765 17.8301 123.23 15.0118 123.23 15.0118C123.23 15.0118 127.886 21.1181 131.146 19.709C134.405 18.2998 135.802 17.3604 132.077 11.7237C128.352 6.08706 129.283 8.90538 129.283 8.90538C129.283 8.90538 126.024 4.20818 126.49 5.61734C126.955 7.0265 123.696 1.85957 123.696 3.26873C123.696 4.67789 121.368 0.450403 121.368 1.85957C121.368 3.26873 111.59 -1.42848 112.987 0.450409C114.384 2.3293 104.606 -3.30736 99.9499 4.20818C95.2938 11.7237 88.8377 10.3339 91.1345 15.0214C93.4314 19.709 92.5002 32.3914 92.5002 32.3914H98.9215C98.9215 32.3914 105.537 19.709 110.659 25.3456Z" fill="#2F2E41"/>
<path d="M247.69 65.1668L248.067 65.0594L266.607 59.7734L281.412 80.1024L271.542 122.42L275.244 139.43C275.244 139.43 245.223 131.547 233.297 138.185C233.297 138.185 232.474 134.402 233.297 132.56C234.119 130.717 235.353 123.05 234.119 119.623C232.885 116.197 236.587 100.016 236.587 100.016C236.587 100.016 235.353 89.2297 240.699 83.8363C246.045 78.4429 247.69 65.1668 247.69 65.1668Z" fill="#FFA9A2"/>
<path d="M230.851 141.579L165.702 108.916C165.378 108.753 165.094 108.529 164.86 108.251L154.694 96.1643C154.02 95.3627 153.874 94.2316 154.323 93.2825L173.384 52.9382C173.718 52.2312 174.34 51.7091 175.09 51.5058C175.84 51.3028 176.637 51.4403 177.278 51.8834L223.223 83.6783C224.166 84.3308 224.588 85.5143 224.272 86.6232L214.944 119.372C214.689 120.268 215.014 121.246 215.753 121.805L234.206 135.767C235.2 136.519 235.544 137.891 235.023 139.028L234.439 140.305C234.136 140.967 233.594 141.464 232.913 141.707C232.624 141.809 232.326 141.86 232.029 141.86C231.625 141.86 231.224 141.766 230.851 141.579Z" fill="#567AA0"/>
<path d="M230.332 133.63L212.196 118.408C212.04 118.275 211.916 118.113 211.83 117.935C211.665 117.599 211.632 117.196 211.756 116.827L222.09 86.3214C222.358 85.5331 222.07 84.6536 221.387 84.1806L178.33 54.4423C177.89 54.1353 177.339 54.0399 176.821 54.1768C176.298 54.3137 175.867 54.6705 175.628 55.1559L157.476 92.3413C157.2 92.9013 157.221 93.5444 157.525 94.0796C157.562 94.1543 157.607 94.2248 157.661 94.2912L166.79 106.447C166.967 106.679 167.198 106.87 167.457 106.999L228.345 136.741C228.6 136.866 228.876 136.928 229.151 136.928C229.628 136.928 230.105 136.741 230.459 136.38C230.5 136.335 230.541 136.293 230.582 136.243C230.87 135.891 231.018 135.439 230.998 134.978C230.973 134.455 230.731 133.966 230.332 133.63Z" fill="#F2F2F2"/>
<path d="M164.619 90.0594C164.77 90.0594 164.914 89.9759 164.987 89.8311L179.746 60.2496C179.848 60.0448 179.766 59.7955 179.564 59.6926C179.36 59.5891 179.114 59.6719 179.011 59.8765L164.252 89.4579C164.15 89.6627 164.232 89.9121 164.434 90.015C164.494 90.0452 164.557 90.0594 164.619 90.0594Z" fill="#567AA0"/>
<path d="M172.432 95.0379C172.583 95.0379 172.728 94.9545 172.8 94.8096L187.559 65.2282C187.662 65.0234 187.58 64.774 187.377 64.6711C187.174 64.5674 186.927 64.6507 186.825 64.8551L172.066 94.4365C171.963 94.6413 172.045 94.8907 172.248 94.9936C172.307 95.0238 172.37 95.0379 172.432 95.0379Z" fill="#567AA0"/>
<path d="M179.012 99.1863C179.163 99.1863 179.308 99.1029 179.38 98.958L194.14 69.3766C194.242 69.1718 194.16 68.9224 193.957 68.8195C193.754 68.716 193.507 68.7989 193.405 69.0035L178.646 98.5849C178.543 98.7897 178.625 99.0391 178.828 99.142C178.887 99.1721 178.95 99.1863 179.012 99.1863Z" fill="#567AA0"/>
<path d="M155.718 95.1794C160.821 93.6584 165.735 95.0819 166.694 98.3584C167.653 101.635 164.294 105.523 159.188 107.044C157.157 107.679 155.005 107.815 152.911 107.44L131.209 113.609L128.556 103.273L150.233 98.2884C151.789 96.825 153.669 95.7589 155.718 95.1794Z" fill="#FFB6B6"/>
<path d="M117.332 58.5485L113.93 99.6015L144.399 99.932L150.312 109.118C150.312 109.118 113.382 130.69 102.293 119.667C91.2039 108.645 86.2698 62.26 96.129 54.3204C105.988 46.3807 117.332 58.5485 117.332 58.5485Z" fill="#92CDD1"/>
<path d="M217.143 132.672C211.837 132.269 207.742 129.18 207.997 125.773C208.252 122.367 212.76 119.933 218.068 120.337C220.19 120.469 222.25 121.112 224.076 122.212L246.537 124.207L245.384 134.82L223.364 131.727C221.395 132.538 219.262 132.863 217.143 132.672Z" fill="#A0616A"/>
<path d="M282.831 82.8142L279.161 129.062C279.161 129.062 278.005 139.028 262.619 138.404C247.233 137.779 226.796 132.879 226.796 132.879L227.535 122.086L244.733 123.029C244.733 123.029 252.61 120.643 254.265 121.874C255.919 123.106 255.274 124.688 256.739 122.685C258.204 120.681 257.353 119.533 258.815 121.136C260.276 122.739 260.71 125.64 261.339 121.984C261.969 118.328 263.537 118.98 263.537 118.98L262.616 85.2979C262.616 85.2979 266.355 69.0046 275.03 73.9145C283.704 78.8244 282.831 82.8142 282.831 82.8142Z" fill="#FFA9A2"/>
</g>
<defs>
<clipPath id="clip0_1522_3835">
<rect width="335" height="307" fill="white"/>
</clipPath>
</defs>
</svg>
