<svg width="384" height="533" viewBox="0 0 384 533" fill="none" xmlns="http://www.w3.org/2000/svg">
<path d="M289.503 239.027H50.2814C23.1536 239.027 1.16211 257.991 1.16211 281.385V481.418C1.16211 504.812 23.1535 523.776 50.2813 523.776H289.503C316.631 523.776 338.622 504.812 338.622 481.418V281.385C338.622 257.991 316.631 239.027 289.503 239.027Z" fill="white"/>
<path d="M289.504 524.778H50.2825C22.5568 524.778 0 505.327 0 481.418V281.385C0 257.476 22.5568 238.024 50.2825 238.024H289.504C317.23 238.024 339.786 257.476 339.786 281.385V481.418C339.786 505.327 317.229 524.778 289.504 524.778ZM50.2825 240.03C23.8392 240.03 2.32628 258.582 2.32628 281.385V481.418C2.32628 504.221 23.8392 522.772 50.2825 522.772H289.504C315.947 522.772 337.46 504.221 337.46 481.418V281.385C337.46 258.582 315.947 240.03 289.504 240.03L50.2825 240.03Z" fill="#3F3D56"/>
<path d="M306.832 325.75H210.678C206.599 325.75 203.281 322.888 203.281 319.371C203.281 315.854 206.599 312.993 210.678 312.993H306.832C310.91 312.993 314.228 315.854 314.228 319.371C314.228 322.888 310.91 325.75 306.832 325.75Z" fill="#567AA0"/>
<path d="M216.627 375.907H123.16C120.804 375.907 118.887 374.253 118.887 372.221C118.887 370.189 120.804 368.537 123.16 368.537H216.627C218.983 368.537 220.9 370.189 220.9 372.221C220.9 374.253 218.983 375.907 216.627 375.907Z" fill="#567AA0"/>
<path d="M84.5217 252.726H31.1596C30.9604 252.726 30.7988 252.865 30.7988 253.037V258.394C30.7988 258.566 30.9604 258.705 31.1596 258.705H84.5217C84.721 258.705 84.8825 258.566 84.8825 258.394V253.037C84.8825 252.865 84.721 252.726 84.5217 252.726Z" fill="#567AA0"/>
<path d="M264.262 258.705C267.325 258.705 269.809 256.564 269.809 253.922C269.809 251.28 267.325 249.139 264.262 249.139C261.198 249.139 258.715 251.28 258.715 253.922C258.715 256.564 261.198 258.705 264.262 258.705Z" fill="#3F3D56"/>
<path d="M279.516 258.705C282.579 258.705 285.063 256.564 285.063 253.922C285.063 251.28 282.579 249.139 279.516 249.139C276.452 249.139 273.969 251.28 273.969 253.922C273.969 256.564 276.452 258.705 279.516 258.705Z" fill="#3F3D56"/>
<path d="M294.772 258.705C297.835 258.705 300.319 256.564 300.319 253.922C300.319 251.28 297.835 249.139 294.772 249.139C291.708 249.139 289.225 251.28 289.225 253.922C289.225 256.564 291.708 258.705 294.772 258.705Z" fill="#3F3D56"/>
<path d="M49.7012 395.633C49.7012 396.295 50.3177 396.827 51.0854 396.827H288.703C289.471 396.827 290.087 396.295 290.087 395.633C290.087 394.971 289.471 394.439 288.703 394.439H51.0854C50.3177 394.439 49.7012 394.971 49.7012 395.633Z" fill="#3F3D56"/>
<path d="M28.2997 96.3818L23.5918 118.236L47.0635 124.087L44.1471 100.755L28.2997 96.3818Z" fill="#A0616A"/>
<path d="M143.256 101.867C148.315 98.2625 154.572 97.5915 157.232 100.368C159.891 103.145 157.946 108.316 152.885 111.922C150.886 113.386 148.51 114.416 145.955 114.925L124.297 129.964L116.33 121.05L138.526 107.171C139.589 105.102 141.211 103.284 143.256 101.867Z" fill="#A0616A"/>
<path d="M18.0771 135.798C18.0661 135.133 18.0733 129.332 23.054 125.665C28.7754 121.453 36.8486 123.158 39.6802 123.756C46.2212 125.137 46.7577 127.557 52.9004 130.043C64.3928 134.694 49.9933 132.313 56.8316 130.822C59.1986 130.306 93.252 128.269 101.729 123.77C118.214 115.02 129.447 109.714 129.447 109.714L136.79 122.379C136.79 122.379 126.172 135.111 111.228 144.543C95.8985 154.218 88.2338 159.055 76.5856 160.924C75.5825 161.085 50.9125 164.717 31.0428 151.916C26.5105 148.996 18.2065 143.646 18.0771 135.798Z" fill="#4A73BA"/>
<path d="M40.8559 103.59C54.9836 103.59 66.4364 93.7139 66.4364 81.5311C66.4364 69.3483 54.9836 59.4722 40.8559 59.4722C26.7282 59.4722 15.2754 69.3483 15.2754 81.5311C15.2754 93.7139 26.7282 103.59 40.8559 103.59Z" fill="#A0616A"/>
<path d="M241.194 229.734L214.849 206.479L201.25 218.712L220.878 241.009L240.346 242.929L241.194 229.734Z" fill="#A0616A"/>
<path d="M90.7672 186.126C92.3081 186.236 97.2047 187.082 101.885 184.862C105.079 183.346 106.717 181.093 107.271 180.376C114.135 171.486 140.481 157.624 164.126 156.77C169.48 156.577 173.005 157.112 176.208 158.552C180.751 160.594 182.564 163.519 188.329 170.371C191.482 174.119 194.971 177.649 198.162 181.373C216.844 203.175 223.926 204.887 223.203 211.876C222.399 219.631 212.701 226.988 206.254 226.139C203.614 225.791 202.592 224.208 199.065 221.004C188.723 211.608 184.445 213.344 177.082 206.147C168.486 197.745 169.611 190.778 165.126 190.509C160.967 190.259 159.2 196.203 150.32 204.098C146.258 207.711 143.364 209.368 134.55 214.641C100.225 235.176 99.6772 236.619 92.7501 238.256C89.7193 238.973 68.2084 244.058 60.5456 235.965C48.5542 223.301 76.8829 185.131 90.7672 186.126Z" fill="#2F2E41"/>
<path d="M233.139 234.987C235.076 234.237 237.342 233.36 238.071 231.343C238.564 229.978 238.28 228.295 237.261 227.132C236.084 225.79 234.343 225.613 234.414 225.375C234.521 225.014 238.638 225.155 243.157 226.533C244.01 226.793 247.874 228.01 252.788 231.319C256.726 233.97 256.196 234.501 258.665 236.03C266.245 240.722 273.354 237.024 277.455 241.424C279.038 243.122 279.713 245.533 279.047 247.482C277.709 251.397 271.204 252.745 267.648 253.44C259.086 255.116 252.605 253.748 245.838 252.765C222.823 249.42 209.892 252.466 208.161 247.868C207.834 246.998 208.366 247.072 210.141 240.687C211.892 234.384 211.834 232.653 213.326 232.148C215.571 231.388 217.079 234.844 222.735 236.027C227.748 237.075 231.884 235.474 233.139 234.987Z" fill="#2F2E41"/>
<path d="M194.355 305.807L187.699 273.809L168.48 277.345L170.202 305.299L185.061 316.315L194.355 305.807Z" fill="#A0616A"/>
<path d="M98.2814 196.881C99.4845 197.719 102.985 200.79 108.304 201.219C111.934 201.511 114.757 200.44 115.681 200.115C127.15 196.083 157.977 197.37 178.098 208.114C182.654 210.547 185.222 212.696 186.935 215.439C189.364 219.328 188.96 222.626 189.268 231.087C189.437 235.715 190.024 240.326 190.24 244.953C191.502 272.039 196.248 276.885 191.097 282.318C185.383 288.346 172.566 289.737 167.785 285.913C165.828 284.347 166.012 282.542 165.181 278.182C162.742 265.4 158.071 264.764 156.665 255.244C155.024 244.129 160.492 238.909 156.956 236.515C153.677 234.294 148.344 238.356 135.856 240.59C130.141 241.612 126.668 241.582 115.941 241.677C74.167 242.047 72.774 242.976 65.9757 240.977C63.0013 240.102 41.8904 233.894 40.8199 223.487C39.1447 207.201 87.4407 189.335 98.2814 196.881Z" fill="#2F2E41"/>
<path d="M184.27 306.255C186.361 306.573 188.807 306.944 190.724 305.627C192.021 304.737 192.882 303.207 192.796 301.751C192.696 300.071 191.371 299.081 191.584 298.919C191.908 298.672 195.223 300.782 198.065 304.111C198.601 304.739 201.006 307.617 202.918 312.734C204.45 316.834 203.665 317.018 204.713 319.478C207.929 327.031 216.219 327.413 216.748 333.04C216.952 335.212 215.94 337.533 214.119 338.824C210.463 341.416 204.203 339.381 200.808 338.235C192.633 335.474 188.16 331.205 183.201 327.114C166.335 313.202 153.652 309.461 155.214 304.819C155.51 303.94 155.902 304.259 161.529 299.834C167.082 295.467 168.162 294.007 169.724 294.312C172.077 294.77 171.074 298.36 174.984 302.077C178.449 305.372 182.914 306.049 184.27 306.255Z" fill="#2F2E41"/>
<path d="M44.3437 85.7481C45.3395 82.6762 44.0887 81.5567 45.3636 80.1778C45.3636 80.1778 45.8767 79.623 50.4632 78.1256C49.11 71.3549 50.1232 70.21 50.1233 70.2099C51.291 68.8905 53.6303 68.5715 55.2229 68.7441C58.5911 69.1092 59.1873 71.7347 61.3425 71.6758C64.3197 71.5944 67.8904 66.4553 66.7821 62.0011C65.878 58.3677 61.9797 55.6694 61.0025 56.1376C60.0336 56.6019 56.5457 54.5548 55.2229 54.9649C54.3196 55.245 50.0675 54.8724 49.1034 55.2581C48.0504 55.6794 45.0351 58.3021 44.7468 57.9716C42.7435 55.6752 42.7861 54.8735 41.6239 54.3786C39.5643 53.5016 37.3252 55.1225 33.4644 56.724C25.5207 60.019 23.1946 58.0535 19.5254 60.8284C17.6718 62.2302 16.6779 64.9092 14.7657 70.2099C12.0914 77.623 10.7544 81.3296 12.0459 84.8686C13.363 88.4778 15.3026 87.6923 18.1655 92.7843C21.3523 98.4526 20.2539 101.747 23.2651 103.045C25.5924 104.049 29.3325 103.41 30.7446 101.58C33.1623 98.4453 26.9133 94.2056 29.0447 89.2662C30.3531 86.2342 34.3891 83.9353 36.8642 84.5754C39.6628 85.2993 39.8689 89.6264 41.6239 89.5594C43.1267 89.5021 44.1701 86.2834 44.3437 85.7481Z" fill="#2F2E41"/>
<path d="M24.9644 106.856C30.1991 101.795 51.5212 107.034 53.5225 115.065C54.3456 118.369 51.3068 119.764 52.1626 123.567C53.4142 129.131 60.5012 128.751 65.7616 134.415C73.2299 142.455 65.5361 150.314 73.9211 163.732C75.7128 166.599 77.223 169.016 80.3806 171.355C87.6265 176.721 94.3699 174.881 98.0594 179.857C100.818 183.578 99.6849 188.164 99.4193 189.238C98.3305 193.643 95.3793 194.717 93.2997 198.326C89.8399 204.332 93.7573 208.741 93.9797 215.917C94.258 224.895 88.7254 237.34 77.6608 241.423C65.2303 246.01 50.238 238.413 42.9832 230.869C38.6542 226.367 37.3976 222.215 35.5037 217.09C27.0396 194.183 22.2578 196.255 15.785 178.098C8.3855 157.34 6.93085 133.022 15.785 125.326C16.9586 124.306 20.1883 121.949 22.2446 117.704C25.0116 111.992 22.6212 109.122 24.9644 106.856Z" fill="#4A73BA"/>
<path d="M102.315 224.677C106.373 229.123 107.002 234.534 103.72 236.76C100.438 238.987 94.4884 237.187 90.4292 232.739C88.7794 230.981 87.6418 228.908 87.1116 226.693L70.1914 207.665L78.9343 201.914L96.2784 220.473C98.6509 221.438 100.721 222.88 102.315 224.677Z" fill="#A0616A"/>
<path d="M40.3457 126.146C41.0985 126.001 47.6861 124.823 52.8651 128.28C58.8144 132.25 58.5262 139.413 58.4251 141.926C58.1917 147.729 55.5542 148.676 53.9852 154.369C51.0497 165.02 56.6401 174.918 59.7287 180.387C60.7978 182.279 64.2324 188.072 71.0694 194.309C84.3665 206.441 96.2309 212.825 96.2309 212.825L83.4852 222.595C83.4852 222.595 63.1827 217.258 49.4258 206.567C35.3144 195.6 13.6135 156.799 9.1149 147.347C8.72748 146.533 14.2152 159.766 24.6934 140.38C27.0834 135.958 31.4624 127.856 40.3457 126.146Z" fill="#4A73BA"/>
<path d="M194.018 422.957C185.917 424.028 179.991 428.501 180.782 432.946C181.573 437.392 188.781 440.127 196.885 439.055C200.129 438.665 203.218 437.611 205.892 435.981L240.152 431.07L237.865 419.392L203.683 423.563C200.564 422.698 197.25 422.491 194.018 422.957Z" fill="#FFB6B6"/>
<path d="M341.649 386.557L328.365 410.865L261.584 430.251L206.169 432.801L204.781 421.323L264.838 410.495L326.464 385.382L341.649 386.557Z" fill="#3BB7C1"/>
<path d="M218.482 478.854L206.555 504.868L191.121 495.794L200.241 468.57L218.482 478.854Z" fill="#FFB6B6"/>
<path d="M168.67 469.176L137.1 495.19L149.728 506.684L181.999 484.905L168.67 469.176Z" fill="#FFB6B6"/>
<path d="M347.566 384.48L347.215 382.362L339.147 368.75L312.488 374.8L317.399 393.554L347.566 384.48Z" fill="#FFB6B6"/>
<path d="M336.343 475.225L337.163 484.312C337.163 484.312 340.552 522.413 313.192 525.438C285.831 528.463 273.905 531.488 257.769 507.894L232.513 469.175L217.761 484.312L198.137 470.99C198.137 470.99 212.168 423.802 223.393 421.987C224.796 421.761 226.199 421.647 227.58 421.622C236.873 421.455 245.633 425.375 251.193 431.798L283.025 468.57L294.601 464.033L336.343 475.225Z" fill="#2F2E41"/>
<path d="M184.808 503.659L191.122 493.374L209.362 504.264C209.362 504.264 213.571 517.573 207.257 519.388C200.943 521.203 183.404 518.783 183.404 518.783C183.404 518.783 151.133 524.833 150.431 519.388C149.73 513.943 165.164 512.733 165.164 512.733L184.808 503.659Z" fill="#2F2E41"/>
<path d="M253.559 496.399L204.801 469.906L179.896 489.139L163.059 472.2C163.059 472.2 193.927 432.876 203.047 431.061C212.167 429.247 226.9 428.037 226.9 428.037L271.8 463.73L253.559 496.399Z" fill="#2F2E41"/>
<path d="M136.399 492.77L152.535 507.894L150.407 509.464C150.407 509.464 146.22 525.186 136.399 519.868C126.577 514.549 125.875 513.339 125.875 513.339C125.875 513.339 97.8132 518.784 95.007 509.104C92.2007 499.425 99.9179 501.24 99.9179 501.24L106.925 504.87L136.399 492.77Z" fill="#2F2E41"/>
<path d="M320.907 381.455C333.305 381.455 343.357 372.787 343.357 362.096C343.357 351.404 333.305 342.736 320.907 342.736C308.508 342.736 298.457 351.404 298.457 362.096C298.457 372.787 308.508 381.455 320.907 381.455Z" fill="#FFB6B6"/>
<path d="M315.645 389.621L347.917 381.151C347.917 381.151 360.545 406.56 358.44 418.055C356.335 429.549 337.161 484.311 337.161 484.311L294.598 464.033C294.598 464.033 293.897 451.933 291.792 446.489C289.687 441.044 283.023 424.407 297.755 410.493C312.488 396.578 315.645 389.621 315.645 389.621Z" fill="#3BB7C1"/>
<path d="M244.618 516.656C239.366 522.082 238.355 528.817 242.36 531.698C246.365 534.58 253.868 532.517 259.121 527.089C261.254 524.945 262.76 522.392 263.514 519.644L285.431 496.412L274.755 488.961L252.329 511.595C249.327 512.727 246.683 514.462 244.618 516.656Z" fill="#FFB6B6"/>
<path d="M340.398 401.827L348.026 427.882L310.693 479.415L272.581 512.446L260.229 503.608L298.665 462.368L327.799 409.231L340.398 401.827Z" fill="#3BB7C1"/>
<path d="M300.213 358.768C305.97 358.756 306.297 358.789 307.229 358.768C314.37 358.605 316.237 356.183 319.857 356.348C326.317 356.643 317.79 384.573 314.244 397.486C310.766 410.15 322.52 421.498 323.364 422.29C335.294 433.478 356.249 435.524 359.845 430.76C362.756 426.903 352.441 421.039 354.934 412.61C357.372 404.371 368.626 405.248 371.772 397.486C375.066 389.357 363.995 385.257 357.039 365.422C353.044 354.031 353.751 351.909 350.023 344.853C340.06 325.995 291.223 334.024 296.705 351.508C297.766 354.89 294.943 358.779 300.213 358.768Z" fill="#2F2E41"/>
<path d="M371.899 128.948H135.956C129.284 128.948 123.855 124.267 123.855 118.513V10.4349C123.855 4.68139 129.284 0 135.956 0H371.899C378.572 0 384 4.68138 384 10.4349V118.513C384 124.267 378.572 128.948 371.899 128.948Z" fill="white"/>
<path d="M371.899 128.948H135.956C129.284 128.948 123.855 124.267 123.855 118.513V10.4349C123.855 4.68139 129.284 0 135.956 0H371.899C378.572 0 384 4.68138 384 10.4349V118.513C384 124.267 378.572 128.948 371.899 128.948ZM135.956 1.74255C130.398 1.74255 125.876 5.642 125.876 10.4349V118.513C125.876 123.306 130.398 127.206 135.956 127.206H371.899C377.457 127.206 381.979 123.306 381.979 118.513V10.4349C381.979 5.642 377.457 1.74255 371.899 1.74255H135.956Z" fill="#3F3D56"/>
<path d="M353.691 13.0699C355.365 13.0699 356.722 11.8997 356.722 10.4561C356.722 9.01253 355.365 7.84229 353.691 7.84229C352.017 7.84229 350.66 9.01253 350.66 10.4561C350.66 11.8997 352.017 13.0699 353.691 13.0699Z" fill="#3F3D56"/>
<path d="M361.773 13.0699C363.447 13.0699 364.804 11.8997 364.804 10.4561C364.804 9.01253 363.447 7.84229 361.773 7.84229C360.099 7.84229 358.742 9.01253 358.742 10.4561C358.742 11.8997 360.099 13.0699 361.773 13.0699Z" fill="#3F3D56"/>
<path d="M369.853 13.0699C371.527 13.0699 372.884 11.8997 372.884 10.4561C372.884 9.01253 371.527 7.84229 369.853 7.84229C368.179 7.84229 366.822 9.01253 366.822 10.4561C366.822 11.8997 368.179 13.0699 369.853 13.0699Z" fill="#3F3D56"/>
<path d="M141.033 52.7124C140.197 52.7124 139.518 53.2986 139.518 54.0193C139.518 54.3707 139.675 54.6957 139.961 54.9357C140.249 55.1901 140.626 55.3262 141.033 55.3262H367.836C368.671 55.3262 369.351 54.74 369.351 54.0193C369.351 53.6679 369.194 53.3429 368.908 53.1029C368.62 52.8485 368.243 52.7124 367.836 52.7124H141.033Z" fill="#E6E6E6"/>
<path d="M339.543 52.2764V55.7615H141.03C140.475 55.7615 139.97 55.5698 139.606 55.2474C139.232 54.9337 139.01 54.4981 139.01 54.0189C139.01 53.0605 139.919 52.2764 141.03 52.2764H339.543Z" fill="#567AA0"/>
<path d="M365.307 45.7422H345.1C342.872 45.7422 341.059 44.1791 341.059 42.2571C341.059 40.335 342.872 38.772 345.1 38.772H365.307C367.536 38.772 369.349 40.335 369.349 42.2571C369.349 44.1791 367.536 45.7422 365.307 45.7422Z" fill="#E6E6E6"/>
<path d="M232.951 27.4448H142.547C140.319 27.4448 138.506 25.8818 138.506 23.9597C138.506 22.0376 140.319 20.4746 142.547 20.4746H232.951C235.179 20.4746 236.992 22.0376 236.992 23.9597C236.992 25.8818 235.179 27.4448 232.951 27.4448Z" fill="#E6E6E6"/>
<path d="M141.033 91.9189C140.197 91.9189 139.518 92.5052 139.518 93.2259C139.518 93.5773 139.675 93.9023 139.961 94.1422C140.249 94.3966 140.626 94.5328 141.033 94.5328H367.836C368.671 94.5328 369.351 93.9465 369.351 93.2259C369.351 92.8744 369.194 92.5494 368.908 92.3095C368.62 92.0551 368.243 91.9189 367.836 91.9189H141.033Z" fill="#E6E6E6"/>
<path d="M261.745 91.4844V94.9695H141.03C140.475 94.9695 139.97 94.7778 139.606 94.4554C139.232 94.1417 139.01 93.7061 139.01 93.2269C139.01 92.2685 139.919 91.4844 141.03 91.4844H261.745Z" fill="#567AA0"/>
<path d="M365.307 84.9487H345.1C342.872 84.9487 341.059 83.3857 341.059 81.4636C341.059 79.5415 342.872 77.9785 345.1 77.9785H365.307C367.536 77.9785 369.349 79.5415 369.349 81.4636C369.349 83.3857 367.536 84.9487 365.307 84.9487Z" fill="#E6E6E6"/>
</svg>
