<svg width="623" height="531" viewBox="0 0 623 531" fill="none" xmlns="http://www.w3.org/2000/svg">
<path d="M103.315 66.9502L99.7427 83.503L117.554 87.9345L115.341 70.2625L103.315 66.9502Z" fill="#A0616A"/>
<path d="M314.25 181.041H132.72C112.135 181.041 95.4468 195.405 95.4468 213.123V364.63C95.4468 382.349 112.135 396.712 132.72 396.712H314.25C334.836 396.712 351.524 382.348 351.524 364.63V213.123C351.524 195.404 334.836 181.041 314.25 181.041Z" fill="white"/>
<path d="M314.25 397.471H132.72C111.681 397.471 94.564 382.739 94.564 364.63V213.123C94.564 195.014 111.681 180.281 132.72 180.281H314.25C335.29 180.281 352.407 195.014 352.407 213.123V364.63C352.407 382.739 335.29 397.471 314.25 397.471ZM132.72 181.801C112.654 181.801 96.3292 195.852 96.3292 213.123V364.63C96.3292 381.901 112.654 395.952 132.72 395.952H314.25C334.317 395.952 350.641 381.901 350.641 364.63V213.123C350.641 195.852 334.317 181.801 314.25 181.801L132.72 181.801Z" fill="#3F3D56"/>
<path d="M327.399 246.725H254.434C251.339 246.725 248.821 244.558 248.821 241.894C248.821 239.23 251.339 237.063 254.434 237.063H327.399C330.494 237.063 333.012 239.23 333.012 241.894C333.012 244.558 330.494 246.725 327.399 246.725Z" fill="#567AA0"/>
<path d="M258.949 284.715H188.023C186.235 284.715 184.78 283.463 184.78 281.924C184.78 280.385 186.235 279.133 188.023 279.133H258.949C260.737 279.133 262.191 280.385 262.191 281.924C262.191 283.463 260.737 284.715 258.949 284.715Z" fill="#567AA0"/>
<path d="M158.701 191.417H118.208C118.057 191.417 117.935 191.523 117.935 191.653V195.71C117.935 195.84 118.057 195.946 118.208 195.946H158.701C158.853 195.946 158.975 195.84 158.975 195.71V191.653C158.975 191.523 158.853 191.417 158.701 191.417Z" fill="#567AA0"/>
<path d="M295.096 195.945C297.421 195.945 299.305 194.323 299.305 192.322C299.305 190.321 297.421 188.699 295.096 188.699C292.771 188.699 290.887 190.321 290.887 192.322C290.887 194.323 292.771 195.945 295.096 195.945Z" fill="#3F3D56"/>
<path d="M306.671 195.945C308.996 195.945 310.881 194.323 310.881 192.322C310.881 190.321 308.996 188.699 306.671 188.699C304.346 188.699 302.462 190.321 302.462 192.322C302.462 194.323 304.346 195.945 306.671 195.945Z" fill="#3F3D56"/>
<path d="M318.247 195.945C320.572 195.945 322.457 194.323 322.457 192.322C322.457 190.321 320.572 188.699 318.247 188.699C315.923 188.699 314.038 190.321 314.038 192.322C314.038 194.323 315.923 195.945 318.247 195.945Z" fill="#3F3D56"/>
<path d="M132.278 299.655C132.278 300.157 132.746 300.56 133.329 300.56H313.642C314.224 300.56 314.692 300.157 314.692 299.655C314.692 299.154 314.224 298.751 313.642 298.751H133.329C132.746 298.751 132.278 299.154 132.278 299.655Z" fill="#3F3D56"/>
<path d="M187.271 76.6656C191.11 73.9355 195.858 73.4273 197.876 75.5303C199.894 77.6333 198.418 81.5505 194.578 84.2811C193.061 85.39 191.258 86.1701 189.319 86.5562L172.884 97.9468L166.838 91.1949L183.682 80.6826C184.488 79.1161 185.719 77.7386 187.271 76.6656Z" fill="#A0616A"/>
<path d="M92.2815 102.366C92.2731 101.862 92.2786 97.4682 96.0581 94.6909C100.4 91.5006 106.526 92.7919 108.675 93.2448C113.638 94.291 114.045 96.1237 118.707 98.0068C127.428 101.53 116.501 99.7265 121.69 98.5968C123.486 98.2058 149.327 96.6633 155.759 93.2558C168.269 86.6286 176.793 82.6099 176.793 82.6099L182.365 92.202C182.365 92.202 174.308 101.845 162.968 108.989C151.335 116.317 145.519 119.981 136.68 121.397C135.919 121.519 117.198 124.27 102.12 114.574C98.6811 112.362 92.3797 108.31 92.2815 102.366Z" fill="#4A73BA"/>
<path d="M109.567 77.9709C120.288 77.9709 128.979 70.4907 128.979 61.2633C128.979 52.0359 120.288 44.5557 109.567 44.5557C98.8466 44.5557 90.1558 52.0359 90.1558 61.2633C90.1558 70.4907 98.8466 77.9709 109.567 77.9709Z" fill="#A0616A"/>
<path d="M261.59 173.511L241.599 155.898L231.279 165.164L246.173 182.051L260.947 183.506L261.59 173.511Z" fill="#A0616A"/>
<path d="M147.44 140.483C148.61 140.567 152.325 141.207 155.877 139.526C158.301 138.378 159.544 136.671 159.964 136.128C165.172 129.395 185.165 118.895 203.108 118.249C207.171 118.103 209.845 118.508 212.276 119.599C215.723 121.145 217.099 123.36 221.474 128.55C223.866 131.389 226.514 134.063 228.935 136.884C243.112 153.396 248.487 154.693 247.937 159.987C247.328 165.86 239.968 171.433 235.076 170.79C233.073 170.526 232.297 169.327 229.621 166.9C221.773 159.783 218.526 161.098 212.939 155.647C206.416 149.283 207.27 144.007 203.867 143.803C200.711 143.614 199.369 148.115 192.632 154.095C189.548 156.832 187.353 158.087 180.664 162.081C154.617 177.634 154.202 178.727 148.945 179.967C146.645 180.51 130.322 184.362 124.507 178.232C115.407 168.64 136.904 139.73 147.44 140.483Z" fill="#2F2E41"/>
<path d="M255.479 177.491C256.949 176.923 258.668 176.259 259.221 174.731C259.595 173.697 259.38 172.422 258.606 171.541C257.714 170.525 256.393 170.391 256.446 170.211C256.527 169.937 259.651 170.044 263.081 171.088C263.728 171.285 266.66 172.207 270.389 174.713C273.377 176.721 272.975 177.123 274.849 178.281C280.6 181.834 285.995 179.034 289.107 182.366C290.308 183.653 290.82 185.479 290.315 186.955C289.3 189.921 284.364 190.941 281.666 191.468C275.168 192.737 270.25 191.701 265.115 190.956C247.651 188.423 237.838 190.73 236.525 187.248C236.276 186.589 236.68 186.645 238.027 181.808C239.356 177.034 239.312 175.723 240.444 175.341C242.148 174.765 243.292 177.383 247.584 178.279C251.387 179.073 254.526 177.86 255.479 177.491Z" fill="#2F2E41"/>
<path d="M226.049 231.131L220.998 206.895L206.415 209.573L207.721 230.746L218.997 239.089L226.049 231.131Z" fill="#A0616A"/>
<path d="M153.144 148.63C154.057 149.264 156.713 151.591 160.749 151.915C163.504 152.137 165.646 151.326 166.347 151.08C175.05 148.026 198.443 149 213.711 157.138C217.169 158.98 219.118 160.608 220.418 162.686C222.261 165.632 221.954 168.13 222.188 174.538C222.316 178.043 222.762 181.536 222.925 185.04C223.883 205.555 227.484 209.226 223.576 213.341C219.239 217.906 209.514 218.96 205.886 216.064C204.4 214.877 204.54 213.51 203.909 210.208C202.059 200.527 198.514 200.046 197.447 192.835C196.202 184.416 200.351 180.463 197.668 178.649C195.18 176.967 191.133 180.044 181.656 181.735C177.32 182.509 174.685 182.487 166.544 182.559C134.845 182.839 133.788 183.543 128.629 182.029C126.372 181.366 110.352 176.664 109.54 168.781C108.268 156.446 144.917 142.914 153.144 148.63Z" fill="#2F2E41"/>
<path d="M218.395 231.47C219.982 231.711 221.838 231.992 223.293 230.995C224.277 230.32 224.93 229.161 224.865 228.059C224.789 226.786 223.783 226.037 223.945 225.914C224.191 225.727 226.706 227.325 228.863 229.846C229.27 230.322 231.095 232.502 232.546 236.378C233.708 239.483 233.113 239.622 233.908 241.486C236.348 247.206 242.639 247.496 243.04 251.758C243.195 253.402 242.428 255.161 241.046 256.138C238.271 258.101 233.521 256.56 230.945 255.692C224.741 253.601 221.347 250.367 217.584 247.269C204.786 236.732 195.161 233.899 196.346 230.382C196.571 229.717 196.868 229.958 201.138 226.607C205.352 223.299 206.171 222.194 207.357 222.424C209.143 222.772 208.382 225.491 211.349 228.306C213.978 230.801 217.366 231.315 218.395 231.47Z" fill="#2F2E41"/>
<path d="M112.214 64.4572C112.969 62.1305 112.02 61.2826 112.988 60.2382C112.988 60.2382 113.377 59.818 116.857 58.6839C115.83 53.5556 116.599 52.6885 116.599 52.6885C117.486 51.6891 119.261 51.4475 120.469 51.5782C123.025 51.8547 123.478 53.8433 125.113 53.7987C127.372 53.7371 130.082 49.8447 129.241 46.471C128.555 43.719 125.597 41.6753 124.855 42.0299C124.12 42.3816 121.473 40.8311 120.469 41.1417C119.784 41.3539 116.557 41.0716 115.825 41.3638C115.026 41.6829 112.738 43.6693 112.52 43.419C110.999 41.6797 111.032 41.0725 110.15 40.6976C108.587 40.0334 106.888 41.2611 103.958 42.4741C97.93 44.9697 96.1649 43.481 93.3805 45.5828C91.974 46.6445 91.2198 48.6736 89.7687 52.6885C87.7394 58.3032 86.7248 61.1106 87.7048 63.7911C88.7043 66.5247 90.1761 65.9297 92.3486 69.7865C94.7668 74.0797 93.9334 76.5751 96.2184 77.5583C97.9844 78.3182 100.823 77.8346 101.894 76.448C103.729 74.0742 98.9868 70.863 100.604 67.1219C101.597 64.8254 104.66 63.0841 106.538 63.569C108.662 64.1173 108.818 67.3946 110.15 67.3439C111.29 67.3005 112.082 64.8627 112.214 64.4572Z" fill="#2F2E41"/>
<path d="M97.5083 80.4447C101.481 76.6111 117.661 80.5789 119.179 86.6621C119.804 89.1642 117.498 90.2207 118.147 93.1016C119.097 97.3154 124.475 97.0282 128.467 101.318C134.134 107.407 128.296 113.36 134.658 123.523C136.018 125.694 137.164 127.525 139.56 129.296C145.059 133.361 150.176 131.967 152.976 135.736C155.069 138.554 154.209 142.028 154.007 142.841C153.181 146.178 150.942 146.991 149.364 149.725C146.738 154.274 149.711 157.613 149.88 163.048C150.091 169.848 145.893 179.274 137.496 182.367C128.064 185.841 116.687 180.087 111.182 174.373C107.897 170.963 106.943 167.818 105.506 163.936C99.083 146.587 95.4544 148.156 90.5427 134.403C84.9276 118.681 83.8238 100.262 90.5427 94.434C91.4332 93.6614 93.884 91.8758 95.4444 88.6606C97.5441 84.3341 95.7302 82.1607 97.5083 80.4447Z" fill="#4A73BA"/>
<path d="M156.203 169.683C159.283 173.051 159.76 177.149 157.269 178.835C154.779 180.522 150.264 179.159 147.184 175.789C145.932 174.458 145.069 172.888 144.666 171.21L131.827 156.798L138.461 152.442L151.622 166.499C153.423 167.23 154.993 168.322 156.203 169.683Z" fill="#A0616A"/>
<path d="M109.18 95.0547C109.751 94.9449 114.75 94.0529 118.68 96.6708C123.194 99.6781 122.976 105.104 122.899 107.006C122.722 111.402 120.72 112.119 119.53 116.431C117.302 124.498 121.544 131.995 123.888 136.137C124.699 137.571 127.306 141.958 132.494 146.682C142.584 155.871 151.587 160.706 151.587 160.706L141.915 168.106C141.915 168.106 126.509 164.064 116.07 155.967C105.362 147.66 88.8941 118.271 85.4804 111.112C85.1864 110.496 89.3507 120.519 97.3019 105.836C99.1156 102.487 102.439 96.3503 109.18 95.0547Z" fill="#4A73BA"/>
<path d="M241.793 320.352C235.646 321.163 231.149 324.55 231.749 327.918C232.349 331.285 237.819 333.356 243.969 332.544C246.43 332.249 248.774 331.45 250.804 330.216L276.801 326.496L275.066 317.651L249.127 320.811C246.76 320.156 244.245 319.998 241.793 320.352Z" fill="#FFB6B6"/>
<path d="M353.822 292.782L343.741 311.193L293.065 325.876L251.014 327.807L249.961 319.114L295.534 310.912L342.299 291.892L353.822 292.782Z" fill="#3BB7C1"/>
<path d="M260.356 362.689L251.305 382.392L239.593 375.519L246.514 354.899L260.356 362.689Z" fill="#FFB6B6"/>
<path d="M222.558 355.357L198.601 375.061L208.184 383.767L232.673 367.271L222.558 355.357Z" fill="#FFB6B6"/>
<path d="M358.311 291.207L358.045 289.604L351.922 279.294L331.692 283.876L335.419 298.081L358.311 291.207Z" fill="#FFB6B6"/>
<path d="M349.793 359.94L350.415 366.822C350.415 366.822 352.987 395.681 332.225 397.972C311.463 400.263 302.413 402.554 290.168 384.684L271.003 355.358L259.809 366.822L244.917 356.733C244.917 356.733 255.564 320.992 264.082 319.617C265.147 319.446 266.212 319.36 267.26 319.341C274.311 319.214 280.959 322.183 285.178 327.048L309.333 354.9L318.117 351.463L349.793 359.94Z" fill="#2F2E41"/>
<path d="M234.802 381.476L239.593 373.686L253.435 381.934C253.435 381.934 256.629 392.015 251.838 393.389C247.046 394.764 233.737 392.931 233.737 392.931C233.737 392.931 209.248 397.513 208.716 393.389C208.183 389.265 219.896 388.349 219.896 388.349L234.802 381.476Z" fill="#2F2E41"/>
<path d="M286.974 375.977L249.975 355.912L231.076 370.479L218.299 357.649C218.299 357.649 241.723 327.865 248.644 326.49C255.564 325.116 266.744 324.199 266.744 324.199L300.816 351.234L286.974 375.977Z" fill="#2F2E41"/>
<path d="M198.069 373.228L210.313 384.683L208.698 385.872C208.698 385.872 205.522 397.78 198.069 393.752C190.616 389.724 190.083 388.807 190.083 388.807C190.083 388.807 168.789 392.931 166.659 385.6C164.53 378.268 170.386 379.643 170.386 379.643L175.703 382.392L198.069 373.228Z" fill="#2F2E41"/>
<path d="M338.081 288.917C347.49 288.917 355.117 282.352 355.117 274.254C355.117 266.156 347.49 259.591 338.081 259.591C328.673 259.591 321.045 266.156 321.045 274.254C321.045 282.352 328.673 288.917 338.081 288.917Z" fill="#FFB6B6"/>
<path d="M334.088 295.102L358.577 288.687C358.577 288.687 368.16 307.932 366.563 316.638C364.966 325.344 350.415 366.821 350.415 366.821L318.117 351.462C318.117 351.462 317.585 342.298 315.988 338.174C314.391 334.05 309.333 321.449 320.513 310.91C331.693 300.371 334.088 295.102 334.088 295.102Z" fill="#3BB7C1"/>
<path d="M280.19 391.319C276.205 395.429 275.438 400.53 278.477 402.713C281.516 404.895 287.209 403.333 291.195 399.221C292.814 397.598 293.957 395.664 294.529 393.582L311.16 375.986L303.059 370.343L286.041 387.486C283.763 388.343 281.757 389.658 280.19 391.319Z" fill="#FFB6B6"/>
<path d="M352.873 304.347L358.661 324.081L330.331 363.113L301.41 388.131L292.037 381.437L321.204 350.201L343.312 309.955L352.873 304.347Z" fill="#3BB7C1"/>
<path d="M322.376 271.734C326.745 271.725 326.993 271.75 327.7 271.734C333.119 271.611 334.536 269.776 337.282 269.901C342.185 270.124 335.714 291.279 333.023 301.059C330.384 310.651 339.303 319.246 339.944 319.846C348.997 328.32 364.899 329.87 367.627 326.261C369.836 323.34 362.009 318.899 363.901 312.515C365.75 306.274 374.29 306.938 376.678 301.059C379.178 294.902 370.776 291.797 365.498 276.774C362.466 268.146 363.003 266.538 360.174 261.195C352.613 246.911 315.554 252.993 319.714 266.235C320.519 268.797 318.377 271.742 322.376 271.734Z" fill="#2F2E41"/>
<path d="M376.775 97.6666H197.733C192.669 97.6666 188.55 94.1209 188.55 89.7632V7.90345C188.55 3.54573 192.669 0 197.733 0H376.775C381.839 0 385.958 3.54572 385.958 7.90345V89.7632C385.958 94.1209 381.839 97.6666 376.775 97.6666Z" fill="white"/>
<path d="M376.775 97.6666H197.733C192.669 97.6666 188.55 94.1209 188.55 89.7632V7.90345C188.55 3.54573 192.669 0 197.733 0H376.775C381.839 0 385.958 3.54572 385.958 7.90345V89.7632C385.958 94.1209 381.839 97.6666 376.775 97.6666ZM197.733 1.31982C193.515 1.31982 190.084 4.2733 190.084 7.90345V89.7632C190.084 93.3933 193.515 96.3468 197.733 96.3468H376.775C380.993 96.3468 384.424 93.3933 384.424 89.7632V7.90345C384.424 4.2733 380.993 1.31982 376.775 1.31982H197.733Z" fill="#3F3D56"/>
<path d="M362.957 9.89891C364.227 9.89891 365.257 9.01255 365.257 7.91918C365.257 6.82581 364.227 5.93945 362.957 5.93945C361.687 5.93945 360.657 6.82581 360.657 7.91918C360.657 9.01255 361.687 9.89891 362.957 9.89891Z" fill="#3F3D56"/>
<path d="M369.091 9.89891C370.361 9.89891 371.391 9.01255 371.391 7.91918C371.391 6.82581 370.361 5.93945 369.091 5.93945C367.82 5.93945 366.791 6.82581 366.791 7.91918C366.791 9.01255 367.82 9.89891 369.091 9.89891Z" fill="#3F3D56"/>
<path d="M375.224 9.89891C376.494 9.89891 377.524 9.01255 377.524 7.91918C377.524 6.82581 376.494 5.93945 375.224 5.93945C373.954 5.93945 372.924 6.82581 372.924 7.91918C372.924 9.01255 373.954 9.89891 375.224 9.89891Z" fill="#3F3D56"/>
<path d="M201.585 39.9248C200.95 39.9248 200.435 40.3688 200.435 40.9147C200.435 41.1808 200.554 41.427 200.771 41.6087C200.989 41.8014 201.276 41.9045 201.585 41.9045H373.691C374.325 41.9045 374.841 41.4605 374.841 40.9147C374.841 40.6485 374.722 40.4023 374.505 40.2206C374.286 40.0279 374 39.9248 373.691 39.9248H201.585Z" fill="#E6E6E6"/>
<path d="M352.223 39.5942V42.2339H201.584C201.163 42.2339 200.779 42.0887 200.503 41.8445C200.219 41.607 200.051 41.277 200.051 40.9141C200.051 40.1881 200.741 39.5942 201.584 39.5942H352.223Z" fill="#567AA0"/>
<path d="M371.774 34.6455H356.44C354.749 34.6455 353.373 33.4616 353.373 32.0059C353.373 30.5501 354.749 29.3662 356.44 29.3662H371.774C373.465 29.3662 374.841 30.5501 374.841 32.0059C374.841 33.4616 373.465 34.6455 371.774 34.6455Z" fill="#E6E6E6"/>
<path d="M271.336 20.7871H202.734C201.043 20.7871 199.667 19.6033 199.667 18.1475C199.667 16.6917 201.043 15.5078 202.734 15.5078H271.336C273.027 15.5078 274.402 16.6917 274.402 18.1475C274.402 19.6033 273.027 20.7871 271.336 20.7871Z" fill="#E6E6E6"/>
<path d="M201.585 69.6201C200.95 69.6201 200.435 70.0641 200.435 70.61C200.435 70.8761 200.554 71.1223 200.771 71.304C200.989 71.4967 201.276 71.5998 201.585 71.5998H373.691C374.325 71.5998 374.841 71.1558 374.841 70.61C374.841 70.3438 374.722 70.0977 374.505 69.9159C374.286 69.7232 374 69.6201 373.691 69.6201H201.585Z" fill="#E6E6E6"/>
<path d="M293.187 69.2905V71.9302H201.584C201.163 71.9302 200.779 71.785 200.503 71.5408C200.219 71.3032 200.051 70.9733 200.051 70.6103C200.051 69.8844 200.741 69.2905 201.584 69.2905H293.187Z" fill="#567AA0"/>
<path d="M371.774 64.3408H356.44C354.749 64.3408 353.373 63.157 353.373 61.7012C353.373 60.2454 354.749 59.0615 356.44 59.0615H371.774C373.465 59.0615 374.841 60.2454 374.841 61.7012C374.841 63.157 373.465 64.3408 371.774 64.3408Z" fill="#E6E6E6"/>
</svg>
