<svg width="459" height="277" viewBox="0 0 459 277" fill="none" xmlns="http://www.w3.org/2000/svg">
<path d="M77.5798 113.968C78.0495 113.989 78.5144 113.871 78.9116 113.63C79.3088 113.389 79.6191 113.036 79.8005 112.62C79.9818 112.204 80.0255 111.745 79.9255 111.305C79.8255 110.864 79.5867 110.464 79.2415 110.158C79.1837 109.937 79.1423 109.779 79.0844 109.559C79.1051 109.511 79.1259 109.463 79.1468 109.415C81.2577 104.588 88.4118 104.622 90.5047 109.455C92.3623 113.746 94.7274 118.043 95.3097 122.58C95.5662 124.585 95.458 126.617 94.99 128.587C99.353 119.46 101.619 109.541 101.633 99.5009C101.634 96.9815 101.488 94.4641 101.196 91.9603C100.955 89.9078 100.62 87.8698 100.191 85.8465C97.8525 74.868 92.8316 64.5781 85.5407 55.8218C82.0119 53.9755 79.1581 51.1362 77.3639 47.6867C76.7139 46.4467 76.2545 45.123 76 43.7568C76.3981 43.8069 77.501 37.9934 77.2007 37.6367C77.7555 36.8295 78.7484 36.4282 79.3543 35.6405C82.3675 31.723 86.5189 32.4071 88.6861 37.7306C93.3158 39.9713 93.3606 43.6873 90.5199 47.2612C88.7126 49.5349 88.4642 52.6115 86.8785 55.0458C87.0416 55.246 87.2113 55.44 87.3744 55.6403C90.3567 59.3177 92.956 63.2664 95.1351 67.43C94.5186 62.8122 95.4287 57.249 96.9804 53.6629C98.7467 49.5769 102.057 46.1356 104.973 42.6033C108.475 38.3604 115.656 40.2121 116.273 45.5906C116.279 45.6427 116.284 45.6947 116.29 45.7468C115.857 45.981 115.433 46.2297 115.018 46.4927C114.497 46.8266 114.094 47.3035 113.86 47.8611C113.627 48.4187 113.574 49.031 113.71 49.6176C113.845 50.2043 114.162 50.738 114.62 51.1488C115.077 51.5597 115.653 51.8285 116.272 51.9201L116.336 51.9294C116.182 53.426 115.909 54.9092 115.52 56.3662C119.26 70.2362 111.186 75.288 99.656 75.5149C99.4015 75.6401 99.1534 75.7652 98.8989 75.8842C101.088 81.8335 102.461 88.0305 102.984 94.3195C103.28 98.0297 103.263 101.757 102.932 105.465L102.951 105.333C103.787 101.21 106.08 97.4903 109.445 94.8013C114.441 90.8652 121.501 89.4157 126.892 86.2518C129.487 84.7288 132.812 86.697 132.359 89.5819C132.352 89.6279 132.344 89.674 132.337 89.72C131.533 90.0339 130.751 90.3954 129.994 90.8026C129.561 91.0369 129.137 91.2855 128.723 91.5485C128.202 91.8824 127.798 92.3593 127.564 92.9169C127.331 93.4745 127.278 94.0868 127.414 94.6735C127.549 95.2601 127.867 95.7938 128.324 96.2047C128.781 96.6155 129.357 96.8843 129.976 96.9759L130.04 96.9853C130.086 96.9915 130.125 96.9978 130.17 97.0041C128.797 100.148 126.87 103.042 124.473 105.558C122.135 117.666 112.091 118.815 101.346 115.289H101.34C100.161 120.202 98.4527 124.983 96.2429 129.557H78.0361C77.9708 129.363 77.9121 129.163 77.8533 128.969C79.5386 129.07 81.2305 128.974 82.8912 128.681C81.5404 127.091 80.1896 125.489 78.8387 123.9C78.8086 123.87 78.7803 123.839 78.7539 123.806C78.0687 122.993 77.3769 122.185 76.6917 121.372L76.6914 121.371C76.6549 118.877 76.9533 116.389 77.5793 113.969L77.5798 113.968Z" fill="#F2F2F2"/>
<path d="M59.1392 77.0669C47.0809 77.0669 37.3057 68.6973 37.3057 58.3728C37.3057 48.0483 47.0809 39.6787 59.1392 39.6787C71.1975 39.6787 80.9727 48.0483 80.9727 58.3728C80.9727 68.6973 71.1975 77.0669 59.1392 77.0669Z" fill="#A0616A"/>
<path d="M41.5025 70.5959C41.5025 70.5959 44.8615 73.4719 48.2205 74.9099C49.1855 75.3231 49.1109 74.7274 48.5143 73.6684C45.4857 68.2921 46.65 61.8746 51.5795 57.6539L50.7398 53.3398L79.2913 51.1828C79.2913 51.1828 82.6502 39.6788 65.0155 37.5217C62.0182 37.1551 75.9323 36.8027 72.5733 31.0507C69.2143 25.2987 66.695 26.7367 65.0155 22.4227C63.336 18.1086 63.336 14.5136 57.4578 15.2326C51.5795 15.9516 51.5795 18.8276 45.7013 15.9516C39.823 13.0756 25.5473 15.9516 28.0665 20.2657C30.5858 24.5797 34.7845 28.1747 31.4255 31.0507C28.0665 33.9267 20.5088 38.9598 26.387 42.5548C32.2653 46.1498 33.9448 48.3068 33.105 49.7448C32.2653 51.1828 38.1435 48.3068 38.1435 48.3068C38.1435 48.3068 32.2653 58.3729 34.7845 61.9679C37.3038 65.5629 41.5025 70.5959 41.5025 70.5959Z" fill="#2F2E41"/>
<path d="M310.418 83.6364C310.887 83.6571 311.352 83.5389 311.749 83.2978C312.147 83.0566 312.457 82.7042 312.638 82.2883C312.82 81.8724 312.863 81.413 312.763 80.9725C312.663 80.532 312.425 80.1316 312.079 79.8256C312.022 79.6052 311.98 79.447 311.922 79.2266C311.943 79.1787 311.964 79.1308 311.985 79.0829C314.096 74.2562 321.25 74.2895 323.343 79.1233C325.2 83.4136 327.565 87.7112 328.148 92.2475C328.404 94.2526 328.296 96.2852 327.828 98.2549C332.191 89.1283 334.457 79.2088 334.471 69.1689C334.472 66.6495 334.326 64.132 334.034 61.6283C333.792 59.5757 333.457 57.5378 333.029 55.5144C330.69 44.536 325.67 34.2461 318.379 25.4898C314.85 23.6434 311.996 20.8042 310.202 17.3547C309.552 16.1147 309.092 14.791 308.838 13.4248C309.236 13.4749 310.339 7.66138 310.039 7.30469C310.593 6.49746 311.586 6.0962 312.192 5.3085C315.205 1.391 319.357 2.07502 321.524 7.3986C326.154 9.63925 326.199 13.3552 323.358 16.9291C321.55 19.2029 321.302 22.2795 319.716 24.7137C319.88 24.914 320.049 25.108 320.212 25.3083C323.195 28.9856 325.794 32.9344 327.973 37.098C327.356 32.4802 328.267 26.917 329.818 23.3308C331.585 19.2448 334.895 15.8036 337.811 12.2713C341.313 8.02837 348.494 9.88005 349.111 15.2586C349.117 15.3107 349.122 15.3627 349.128 15.4148C348.695 15.649 348.271 15.8977 347.856 16.1607C347.335 16.4945 346.932 16.9715 346.698 17.5291C346.465 18.0867 346.412 18.6989 346.548 19.2856C346.683 19.8723 347 20.406 347.458 20.8168C347.915 21.2277 348.491 21.4965 349.11 21.588L349.174 21.5974C349.019 23.094 348.747 24.5772 348.358 26.0342C352.098 39.9042 344.023 44.956 332.494 45.1829C332.239 45.308 331.991 45.4332 331.737 45.5521C333.926 51.5015 335.299 57.6985 335.822 63.9874C336.118 67.6977 336.1 71.4249 335.77 75.1325L335.789 75.0011C336.625 70.8783 338.918 67.1583 342.282 64.4693C347.279 60.5331 354.339 59.0837 359.73 55.9198C362.325 54.3968 365.65 56.3649 365.197 59.2498C365.19 59.2959 365.182 59.3419 365.175 59.388C364.371 59.7019 363.589 60.0634 362.832 60.4706C362.399 60.7049 361.975 60.9535 361.56 61.2165C361.039 61.5503 360.636 62.0273 360.402 62.5849C360.169 63.1425 360.116 63.7548 360.252 64.3414C360.387 64.9281 360.705 65.4618 361.162 65.8727C361.619 66.2835 362.195 66.5523 362.814 66.6439L362.878 66.6532C362.924 66.6595 362.963 66.6658 363.008 66.6721C361.635 69.8158 359.708 72.7095 357.311 75.2264C354.973 87.3344 344.928 88.4831 334.184 84.9572H334.177C332.999 89.8695 331.291 94.6511 329.081 99.2248H310.874C310.809 99.0308 310.75 98.8306 310.691 98.6366C312.376 98.7382 314.068 98.6415 315.729 98.3488C314.378 96.7593 313.027 95.1573 311.677 93.5678C311.646 93.5381 311.618 93.5068 311.592 93.4739C310.907 92.6605 310.215 91.8532 309.53 91.0397L309.529 91.0387C309.493 88.5451 309.791 86.0573 310.417 83.6368L310.418 83.6364Z" fill="#F2F2F2"/>
<path d="M368.873 38.9551C365.488 27.1193 392.793 16.9699 399.963 26.5013C400.96 25.1462 404.645 24.3231 406.335 24.7388C408.026 25.1545 409.448 26.1937 410.835 27.1996C412.742 28.6046 414.719 30.0595 415.889 32.0797C417.068 34.0916 417.25 36.8351 415.664 38.581C414.407 39.9693 410.696 40.8672 408.806 41.233C407.488 41.4907 406.379 41.6986 405.425 41.8482C404.559 40.6515 404.16 39.2004 404.298 37.7496C403.656 38.1648 403.118 38.7111 402.722 39.3493C402.326 39.9875 402.083 40.7018 402.009 41.4409C401.983 41.7485 412.664 79.4341 412.664 79.4341C411.381 80.1345 410.031 80.7163 408.633 81.1716C405.867 77.1179 403.748 72.6905 402.347 68.0361C402.025 71.1484 402.066 74.2853 402.468 77.3889C402.683 79.1293 402.989 80.858 403.387 82.5683C390.695 85.1954 371.604 84.3308 363.299 73.1573C363.297 73.1111 363.296 73.0648 363.295 73.0185C363.288 72.5775 363.122 72.1523 362.825 71.8159C362.527 71.4794 362.117 71.2526 361.664 71.1742C361.212 71.0959 360.745 71.1709 360.343 71.3864C359.942 71.6019 359.631 71.9445 359.464 72.3555C359.263 72.8485 359.077 73.2752 358.912 73.6146C356.493 65.3175 359.623 55.7153 368.873 38.9551Z" fill="#2F2E41"/>
<path d="M347.274 237.385V237.774C347.258 237.645 347.258 237.514 347.274 237.385Z" fill="#2F2E41"/>
<path d="M359.705 170.404C360.028 170.32 360.356 170.259 360.688 170.221C360.307 170.28 359.98 170.341 359.705 170.404Z" fill="#2F2E41"/>
<path d="M359.418 170.473C359.505 170.45 359.602 170.427 359.706 170.403C359.609 170.427 359.517 170.445 359.418 170.473Z" fill="#2F2E41"/>
<path d="M451.248 276.169H404.724C404.061 275.661 403.599 274.949 403.418 274.154C403.237 273.358 403.346 272.527 403.728 271.8C404.999 269.005 402.509 266.451 402.509 266.451C401.663 265.501 401.075 264.365 400.797 263.146C400.519 261.926 400.559 260.659 400.914 259.457C402.147 255.329 397.316 243.676 397.316 243.676C397.316 243.676 394.712 258.722 391.521 276.169H347.275C346.534 274.958 346.143 273.58 346.143 272.176C346.143 270.772 346.534 269.393 347.275 268.183C349.853 263.99 347.275 263.186 347.275 263.186C347.275 263.186 344.696 258.495 347.275 255.088C349.853 251.682 347.275 237.773 347.275 237.773C347.372 238.388 348.107 237.269 349.238 234.925C350.959 231.358 353.591 224.944 356.249 217.497C358.15 212.182 360.066 206.335 361.667 200.617H361.671C362.091 199.115 362.489 197.627 362.864 196.152C363.599 193.26 364.229 190.45 364.707 187.811C365.745 182.127 366.087 177.245 365.29 174.069C364.629 171.427 363.183 169.97 360.688 170.219C362.025 170.007 363.984 169.806 366.398 169.615C366.833 169.582 367.284 169.548 367.75 169.511C385.753 168.207 424.379 167.458 424.379 167.458L436.211 187.774L451.194 213.509C451.194 213.509 450.786 248.033 451.248 276.169Z" fill="#2F2E41"/>
<path d="M95.0422 276.116H52.9783C52.3782 275.608 51.9611 274.895 51.7971 274.099C51.6331 273.302 51.7322 272.47 52.0777 271.742C53.2268 268.943 50.975 266.386 50.975 266.386C50.2106 265.435 49.6791 264.298 49.4277 263.076C49.1762 261.855 49.2125 260.586 49.5334 259.383C50.6478 255.25 46.2804 243.583 46.2804 243.583C46.2804 243.583 43.9259 258.648 41.0408 276.116H1.03615C0.365976 274.904 0.0126371 273.524 0.0126371 272.118C0.0126371 270.712 0.365976 269.332 1.03615 268.12C3.36748 263.922 1.03615 263.117 1.03615 263.117C1.03615 263.117 -1.29518 258.42 1.03615 255.009C3.36748 251.598 1.03615 237.672 1.03615 237.672C1.124 238.287 1.78816 237.168 2.81076 234.82C4.36751 231.249 6.74659 224.827 9.15023 217.371C10.8686 212.049 12.6011 206.194 14.0489 200.47H14.0524C14.432 198.966 14.7916 197.475 15.1312 195.999C15.7954 193.103 16.3647 190.289 16.7969 187.647C17.7352 181.956 18.0444 177.068 17.324 173.888C16.7266 171.242 15.4194 169.783 13.1633 170.033C14.3722 169.821 16.1433 169.619 18.3256 169.429C18.7192 169.395 19.1268 169.362 19.5485 169.324C35.8259 168.018 70.7491 167.268 70.7491 167.268L81.4461 187.61L94.993 213.378C94.993 213.378 94.6241 247.945 95.0422 276.116Z" fill="#2F2E41"/>
<path d="M401.591 79.6481L374.333 74.1035L368.921 84.55L350.695 94.6683C350.695 94.6683 362.444 140.731 362.377 147.209C362.206 163.657 334.762 200.528 355.492 197.691C376.221 194.855 380.432 182.974 387.087 184.852C393.088 186.547 400.417 194.084 405.323 188.693C410.229 183.303 411.957 189.527 415.059 189.742C416.534 189.845 415.646 182.936 419.355 189.957C423.065 196.979 442.735 187.527 436.068 181.134C424.965 170.487 422.708 91.9988 422.708 91.9988L410.348 88.3518L401.591 79.6481Z" fill="#D8B5E4"/>
<path d="M350.18 246.927C351.275 245.674 351.817 244.062 351.691 242.432C351.565 240.802 350.781 239.283 349.506 238.199C349.243 237.983 348.962 237.788 348.665 237.616L353.223 216.167L342.687 210.121L339.756 240.15C339.108 241.384 338.904 242.789 339.176 244.146C339.448 245.503 340.181 246.735 341.26 247.651C341.88 248.166 342.599 248.56 343.377 248.808C344.154 249.057 344.976 249.157 345.794 249.101C346.612 249.046 347.41 248.836 348.144 248.485C348.877 248.133 349.532 247.646 350.069 247.053C350.106 247.011 350.143 246.969 350.18 246.927Z" fill="#A0616A"/>
<path d="M21.0342 241.539C22.2184 240.291 22.8049 238.683 22.6688 237.058C22.5327 235.433 21.6849 233.919 20.3057 232.839C20.0214 232.623 19.7174 232.428 19.3968 232.257L24.3246 210.875L12.9328 204.847L9.76413 234.783C9.06312 236.013 8.84249 237.414 9.13664 238.767C9.4308 240.119 10.2232 241.348 11.3902 242.261C12.0599 242.775 12.8375 243.167 13.6786 243.415C14.5197 243.663 15.4078 243.762 16.2922 243.707C17.1766 243.651 18.04 243.442 18.8332 243.092C19.6263 242.741 20.3336 242.256 20.9147 241.664C20.9551 241.623 20.995 241.581 21.0342 241.539Z" fill="#A0616A"/>
<path d="M382.893 133.87C382.827 133.181 381.909 132.868 380.638 132.435C379.362 132.058 378.148 131.507 377.035 130.799C374.221 128.85 375.329 126.811 376.86 123.994C377.16 123.446 377.471 122.875 377.762 122.283C378.629 120.527 377.249 113.286 373.654 100.755C372.546 96.8976 372.55 94.1732 371.784 92.3655C371.023 90.5579 369.495 89.6671 365.332 89.4808C360.301 89.2372 355.374 90.9166 351.632 94.1508C351.531 94.2365 351.426 94.3297 351.325 94.4191C351.134 94.5906 350.948 94.7658 350.765 94.9447C347.304 98.2833 345.324 102.776 345.238 107.483L345.219 108.284L344.36 146.568L341.946 180.164L338.619 226.443L341.083 226.559L350.917 227.029L352.11 227.084L354.939 215.702L358.344 202.005L359.596 196.973L363.479 181.364L365.29 174.07L366.397 169.617L366.848 167.798L369.048 158.957C369.099 158.771 374.159 139.625 379.993 136.423C382.17 135.231 382.955 134.537 382.893 133.87Z" fill="#D8B5E4"/>
<path d="M448.349 246.698C447.12 245.566 446.4 244.019 446.343 242.385C446.286 240.752 446.895 239.161 448.042 237.952C448.279 237.71 448.537 237.487 448.812 237.285L441.879 216.43L451.677 209.333L457.953 238.887C458.736 240.047 459.096 241.423 458.978 242.8C458.859 244.178 458.269 245.478 457.298 246.5C456.74 247.076 456.069 247.541 455.324 247.869C454.578 248.196 453.773 248.38 452.953 248.409C452.134 248.438 451.316 248.311 450.548 248.038C449.779 247.764 449.074 247.347 448.474 246.812C448.432 246.775 448.39 246.737 448.349 246.698Z" fill="#A0616A"/>
<path d="M80.9397 239.479C79.7613 238.063 79.2746 236.371 79.5831 234.763C79.8915 233.155 80.9708 231.758 82.5912 230.87C82.9245 230.694 83.2773 230.542 83.6462 230.415L80.3268 208.314L93.4274 203.879L93.9777 234.297C94.6272 235.628 94.7324 237.061 94.277 238.375C93.8216 239.688 92.8311 240.807 91.4602 241.557C90.6744 241.977 89.7821 242.26 88.8341 242.391C87.8862 242.521 86.9012 242.495 85.9353 242.316C84.9695 242.136 84.0417 241.806 83.2049 241.343C82.3682 240.881 81.6389 240.296 81.0587 239.622C81.0183 239.575 80.9786 239.527 80.9397 239.479Z" fill="#A0616A"/>
<path d="M453.143 201.445C453.143 201.445 445.501 175.664 447.832 172.873C450.162 170.082 443.279 169.536 446.245 164.339C449.211 159.141 445.118 158.271 445.118 158.271L442.896 146.32L438.925 116.965L438.804 116.092L437.649 107.552C437.326 105.112 436.494 102.761 435.202 100.637C433.91 98.513 432.184 96.6608 430.129 95.1911C430.024 95.114 429.916 95.04 429.809 94.966C429.32 94.6284 428.821 94.3157 428.31 94.0278C424.498 91.8712 420.022 91.0558 415.65 91.7218C407.414 92.9519 409.977 95.8973 408.641 103.788C406.471 116.618 405.907 123.958 406.966 125.616C407.322 126.175 407.697 126.709 408.054 127.222C409.893 129.869 411.223 131.779 408.642 134.011C407.613 134.827 406.469 135.498 405.244 136.005C404.031 136.569 403.152 136.973 403.164 137.665C403.178 138.336 404.035 138.942 406.331 139.902C409.114 141.07 412.102 145.484 414.55 149.994C416.492 153.628 418.224 157.363 419.738 161.18L440.776 217.918L444.207 227.171L445.39 226.991L455.111 225.513L457.549 225.143L453.143 201.445Z" fill="#D8B5E4"/>
<path d="M390.092 73.7117C402.374 73.7117 412.33 64.1642 412.33 52.3868C412.33 40.6095 402.374 31.062 390.092 31.062C377.81 31.062 367.854 40.6095 367.854 52.3868C367.854 64.1642 377.81 73.7117 390.092 73.7117Z" fill="#A0616A"/>
<path d="M356.737 40.6177C353.351 28.7819 380.656 18.6325 387.826 28.1639C388.823 26.8088 392.508 25.9857 394.198 26.4014C395.889 26.8171 397.311 27.8563 398.698 28.8622C400.605 30.2673 402.582 31.7221 403.752 33.7423C404.932 35.7542 405.114 38.4977 403.527 40.2436C402.27 41.6319 398.559 42.5298 396.669 42.8956C395.352 43.1533 394.242 43.3612 393.288 43.5108C392.422 42.3141 392.023 40.863 392.161 39.4122C391.519 39.8274 390.981 40.3737 390.585 41.0119C390.19 41.6501 389.946 42.3644 389.872 43.1035C389.846 43.4111 400.527 81.0967 400.527 81.0967C399.244 81.7971 397.894 82.3789 396.496 82.8342C393.73 78.7805 391.611 74.3531 390.21 69.6987C389.888 72.811 389.929 75.9479 390.332 79.0515C390.546 80.7919 390.853 82.5206 391.251 84.2309C378.558 86.858 359.468 85.9934 351.162 74.8199C351.161 74.7737 351.159 74.7274 351.158 74.6811C351.151 74.2401 350.985 73.8149 350.688 73.4785C350.39 73.142 349.98 72.9152 349.528 72.8368C349.075 72.7585 348.608 72.8335 348.207 73.049C347.805 73.2645 347.495 73.6071 347.328 74.0181C347.126 74.5111 346.941 74.9378 346.775 75.2772C344.356 66.9801 347.486 57.3779 356.737 40.6177Z" fill="#2F2E41"/>
<path d="M246.448 114.304C245.978 114.325 245.513 114.206 245.116 113.965C244.719 113.724 244.409 113.372 244.227 112.956C244.046 112.54 244.002 112.08 244.102 111.64C244.202 111.199 244.441 110.799 244.786 110.493C244.844 110.273 244.885 110.114 244.943 109.894C244.923 109.846 244.902 109.798 244.881 109.75C242.77 104.924 235.616 104.957 233.523 109.791C231.665 114.081 229.3 118.379 228.718 122.915C228.461 124.92 228.57 126.953 229.038 128.922C224.675 119.796 222.409 109.876 222.394 99.8364C222.394 97.317 222.54 94.7995 222.832 92.2958C223.073 90.2432 223.408 88.2052 223.837 86.1819C226.175 75.2035 231.196 64.9136 238.487 56.1572C242.016 54.3109 244.87 51.4717 246.664 48.0222C247.314 46.7822 247.773 45.4585 248.028 44.0923C247.63 44.1424 246.527 38.3289 246.827 37.9722C246.272 37.1649 245.279 36.7637 244.673 35.976C241.66 32.0585 237.509 32.7425 235.342 38.0661C230.712 40.3067 230.667 44.0227 233.508 47.5966C235.315 49.8704 235.563 52.947 237.149 55.3812C236.986 55.5815 236.816 55.7755 236.653 55.9758C233.671 59.6531 231.072 63.6019 228.893 67.7654C229.509 63.1477 228.599 57.5844 227.047 53.9983C225.281 49.9123 221.97 46.4711 219.055 42.9387C215.553 38.6959 208.372 40.5475 207.755 45.9261C207.749 45.9781 207.743 46.0302 207.738 46.0822C208.171 46.3165 208.595 46.5651 209.009 46.8282C209.53 47.162 209.934 47.639 210.168 48.1966C210.401 48.7542 210.453 49.3664 210.318 49.9531C210.182 50.5397 209.865 51.0735 209.408 51.4843C208.951 51.8951 208.375 52.164 207.755 52.2555L207.692 52.2649C207.846 53.7615 208.119 55.2447 208.508 56.7017C204.768 70.5717 212.842 75.6234 224.372 75.8504C224.626 75.9755 224.874 76.1007 225.129 76.2196C222.94 82.1689 221.566 88.366 221.044 94.6549C220.748 98.3652 220.765 102.092 221.096 105.8L221.076 105.669C220.241 101.546 217.947 97.8258 214.583 95.1368C209.586 91.2006 202.527 89.7511 197.136 86.5873C194.541 85.0643 191.216 87.0324 191.669 89.9173C191.676 89.9634 191.683 90.0094 191.691 90.0555C192.494 90.3693 193.277 90.7309 194.033 91.138C194.467 91.3723 194.89 91.621 195.305 91.884C195.826 92.2178 196.23 92.6948 196.463 93.2524C196.697 93.81 196.749 94.4222 196.614 95.0089C196.478 95.5956 196.161 96.1293 195.704 96.5401C195.247 96.951 194.671 97.2198 194.051 97.3114L193.988 97.3207C193.942 97.327 193.903 97.3332 193.857 97.3395C195.23 100.483 197.157 103.377 199.554 105.894C201.893 118.002 211.937 119.151 222.682 115.625H222.688C223.867 120.537 225.575 125.319 227.785 129.892H245.992C246.057 129.698 246.116 129.498 246.174 129.304C244.489 129.406 242.797 129.309 241.136 129.016C242.487 127.427 243.838 125.825 245.189 124.235C245.219 124.206 245.247 124.174 245.274 124.141C245.959 123.328 246.651 122.521 247.336 121.707L247.336 121.706C247.373 119.213 247.074 116.725 246.448 114.304L246.448 114.304Z" fill="#F2F2F2"/>
<path d="M161.492 26.502C161.079 27.4254 148.338 27.3264 147.754 28.1487C143.255 34.4969 159.474 61.507 154.975 67.8635L154.348 68.5798C155.816 67.9311 157.226 67.1683 158.564 66.299C158.684 63.6972 158.804 61.0871 158.933 58.4853C160.28 60.1384 161.368 61.9721 162.161 63.9277C163.209 63.2196 164.068 61.907 168.558 59.3251C170.376 57.4103 172.471 55.7562 174.78 54.4135L161.492 26.502Z" fill="#2F2E41"/>
<path d="M134.389 151.721L140.499 178.204L185.179 182.079L189.285 159.02L134.389 151.721Z" fill="#FFB6B6"/>
<path d="M202.636 219.634C202.616 220.013 202.591 220.389 202.563 220.769C202.134 226.256 201.645 232.585 201.114 239.52C200.277 250.526 199.343 263.058 198.4 276.17H104.684L122.859 223.784C122.859 223.784 130.198 219.909 126.461 213.401C122.725 206.892 130.077 212.078 130.145 202.783C130.213 193.488 136.801 183.598 136.801 183.598L137.883 169.524L138.499 169.536L187.269 170.315L188.159 170.33L189.657 182.412C198.752 192.791 203.392 206.097 202.636 219.634Z" fill="#2F2E41"/>
<path d="M162.273 65.6943L184.513 64.5957L194.842 80.2473C194.842 80.2473 214.278 83.3631 212.93 105.325C211.583 127.286 189.283 146.557 189.283 146.557L190.237 143.423L188.581 147.96L188.793 150.507L191.052 153.204L191.284 155.994L189.283 160.408C189.544 160.808 189.682 161.269 189.682 161.741C189.682 162.212 189.545 162.674 189.285 163.075C189.026 163.475 188.654 163.797 188.213 164.005C187.772 164.214 187.279 164.299 186.79 164.252L154.656 161.164C153.924 159.234 153.337 156.925 150.405 160.769L147.377 160.488L134.794 159.319L134.053 156.731C133.632 155.261 133.567 153.718 133.861 152.22C134.156 150.722 134.803 149.308 135.754 148.086C134.661 144.804 134.947 141.243 136.552 138.16L136.612 138.044L137.948 136.976C137.948 136.976 123.328 115.914 140.111 100.051L146.847 89.07L154.384 80.2523L162.273 65.6943Z" fill="#BCDCDE"/>
<path d="M167.808 56.4549C179.455 56.4549 188.897 47.4008 188.897 36.2321C188.897 25.0633 179.455 16.0093 167.808 16.0093C156.161 16.0093 146.719 25.0633 146.719 36.2321C146.719 47.4008 156.161 56.4549 167.808 56.4549Z" fill="#FFB6B6"/>
<path d="M183.826 65.365C182.109 63.9889 180.914 62.1075 180.426 60.013C180.036 62.5561 180.138 65.1463 180.727 67.6539C179.585 68.4773 178.477 69.2595 177.43 69.9676C176.636 68.0119 175.549 66.1783 174.201 64.5251C174.072 67.1269 173.952 69.7371 173.832 72.3389C172.494 73.2082 171.084 73.971 169.616 74.6196L170.243 73.9033C174.742 67.5469 163.099 55.8468 167.598 49.4985C168.86 47.72 163.159 33.6651 158.814 33.0311C154.95 32.4712 155.114 33.5416 151.37 34.3238C150.981 32.769 150.378 31.2709 149.575 29.8693C149.789 31.4311 149.74 33.0157 149.429 34.5625C148.098 34.6119 147.051 33.7988 145.634 33.591C136.593 32.2654 137.511 22.8872 140.027 19.9148C142.552 16.9506 150.932 16.0614 154.796 15.098C155.148 14.7687 155.946 14.9745 156.298 14.6616C163.703 8.16314 173.607 7.08694 182.519 9.96722C192.023 13.0388 197.949 18.9837 200.991 28.1485L201.863 35.4826C202.645 37.8408 201.661 48.8132 200.991 51.2029C198.385 60.4922 192.835 55.855 183.826 65.365Z" fill="#2F2E41"/>
<path d="M214.576 161.176L213.746 99.1698C213.702 96.543 212.584 94.0377 210.631 92.1948C208.679 90.3518 206.049 89.3188 203.309 89.3188C201.892 89.3188 200.489 89.5956 199.187 90.1324C197.885 90.6691 196.711 91.4545 195.735 92.4407C194.76 93.4269 194.004 94.5932 193.515 95.8685C193.025 97.1439 192.811 98.5016 192.886 99.8588L195.807 164.242L195.863 203.436C194.141 204.136 192.686 205.328 191.695 206.849C190.703 208.37 190.225 210.146 190.323 211.937C190.422 213.728 191.093 215.447 192.246 216.859C193.398 218.272 194.976 219.31 196.765 219.833C198.555 220.355 200.468 220.337 202.246 219.78C204.024 219.223 205.58 218.155 206.703 216.721C207.826 215.287 208.461 213.556 208.523 211.763C208.584 209.971 208.068 208.203 207.046 206.702L214.576 161.176Z" fill="#FFB6B6"/>
<path d="M323.418 241.395C323.418 241.395 322.135 263.541 321.545 276.171H277.339C276.429 264.677 276.122 256.232 276.122 256.232L273.704 276.171H229.02L226.25 239.244L239.637 207.424C239.637 207.424 312.184 202.599 318.914 208.719C325.639 214.836 323.418 241.395 323.418 241.395Z" fill="#2F2E41"/>
<path d="M284.328 55.1065C297.664 55.1065 308.475 44.7397 308.475 31.9517C308.475 19.1636 297.664 8.79688 284.328 8.79688C270.992 8.79688 260.182 19.1636 260.182 31.9517C260.182 44.7397 270.992 55.1065 284.328 55.1065Z" fill="#FFB6B6"/>
<path d="M312.473 24.4281C309.992 25.5125 308.385 33.3668 306.436 31.5408C304.487 29.7149 304.617 27.3387 301.988 26.6648C299.866 26.1183 297.582 26.7429 295.646 27.7279C295.3 27.9018 294.965 28.0907 294.639 28.2787C294.423 28.1406 294.209 28.0106 293.978 27.8907C292.247 27.002 290.226 26.784 288.331 27.2816C289.828 27.7623 291.129 28.6821 292.051 29.9109C291.403 30.3272 290.747 30.7447 290.076 31.1145C284.468 34.2179 276.488 27.4698 270.585 24.9346C274.282 31.5882 272.462 34.3437 269.251 41.2249L269.14 41.6168C269.323 39.8921 263.757 38.6069 264.08 41.0346C264.309 42.7584 265.865 46.5897 266.736 48.1116C260.53 41.2301 256.289 32.809 257.184 24.122C257.378 22.2971 257.32 20.3717 258.301 18.7878C259.284 17.2121 261.332 16.1063 263.145 16.7072C262.991 13.9368 263.623 11.1783 264.974 8.72491C266.325 6.27154 268.344 4.21501 270.816 2.77397C273.288 1.33293 276.121 0.561244 279.014 0.540939C281.907 0.520633 284.752 1.25248 287.246 2.65866C289.563 3.96262 291.498 5.80683 293.622 7.39761C295.746 8.98838 298.195 10.375 300.888 10.5063C302.596 10.5853 304.456 10.1853 305.924 11.0339C307.624 12.0186 307.915 14.0801 308.17 16.0638C306.654 16.2072 305.216 16.7809 304.041 17.7116C305.61 17.5581 307.19 17.8831 308.556 18.6402C308.582 18.6514 308.606 18.6649 308.63 18.6805C309.529 21.9589 309.436 22.6856 312.473 24.4281Z" fill="#2F2E41"/>
<path d="M229.127 218.627C249.69 195.546 242.744 166.189 234.583 136.555L236.136 92.7767C236.212 90.6293 236.826 88.5309 237.926 86.6588C239.026 84.7867 240.579 83.1959 242.455 82.0207L263.447 68.8699L271.618 57.542L294.139 59.7017L306.629 72.3669L320.453 82.4872C323.924 85.0282 326.565 88.4679 328.065 92.4008C329.564 96.3336 329.86 100.596 328.917 104.684L315.688 162.055C315.688 162.055 321.221 191.796 317.845 195.08C314.469 198.365 305.77 195.082 312.668 198.769C320.947 203.194 328.475 202.378 324.285 206.395C320.096 210.413 325.398 215.998 325.398 215.998L229.127 218.627Z" fill="#FFEECC"/>
<path d="M13.9648 207.871C30.582 189.304 24.9692 165.689 18.374 141.85L19.6289 106.633C19.6905 104.906 20.1866 103.218 21.0754 101.712C21.9642 100.206 23.2196 98.9263 24.7356 97.981L41.6995 87.4021L48.3022 78.2896L66.5025 80.0269L76.5951 90.2152L87.7666 98.3562C90.5716 100.4 92.7059 103.167 93.9179 106.331C95.1298 109.495 95.3689 112.923 94.607 116.212L83.9163 162.363C83.9163 162.363 88.3877 186.287 85.6593 188.929C82.931 191.572 75.9009 188.931 81.4759 191.897C88.1662 195.457 94.2494 194.8 90.8637 198.032C87.4781 201.263 91.7629 205.756 91.7629 205.756L13.9648 207.871Z" fill="#FFE6E6"/>
<path d="M237.92 252.171L241.348 228.751L227.669 225.006L224.963 249.891C223.831 250.886 223.011 252.165 222.596 253.582C222.18 255 222.184 256.501 222.609 257.916C223.034 259.332 223.862 260.605 225.001 261.594C226.139 262.583 227.542 263.247 229.053 263.513C230.564 263.779 232.122 263.635 233.552 263.099C234.982 262.562 236.228 261.653 237.149 260.475C238.07 259.296 238.63 257.895 238.767 256.428C238.903 254.961 238.609 253.487 237.92 252.171Z" fill="#FFB6B6"/>
<path d="M263.96 73.0913C263.96 73.0913 225.025 85.2429 224.097 94.1341C223.169 103.025 223.476 108.468 219.367 144.047L219.584 239.887C219.584 239.887 245.687 245.246 243.01 239.516C240.333 233.786 241.267 231.09 241.267 231.09C241.267 231.09 246.864 228.972 245.463 222.244C244.062 215.516 251.088 182.174 251.088 182.174L255.522 122.377L263.96 73.0913Z" fill="#FFEECC"/>
<path d="M42.3416 90.8149C42.3416 90.8149 10.8789 100.594 10.1287 107.749C9.37849 114.904 9.62729 119.285 6.30664 147.917L6.48158 225.044C6.48158 225.044 27.5754 229.357 25.4121 224.745C23.2489 220.134 24.0037 217.965 24.0037 217.965C24.0037 217.965 28.5262 216.26 27.3941 210.846C26.262 205.431 31.9393 178.6 31.9393 178.6L35.5226 130.478L42.3416 90.8149Z" fill="#FFE6E6"/>
<path d="M311.969 250.93L310.145 227.345L324.049 224.466L325.053 249.467C326.114 250.531 326.846 251.859 327.164 253.299C327.482 254.74 327.375 256.237 326.855 257.623C326.334 259.009 325.421 260.228 324.218 261.143C323.015 262.058 321.569 262.633 320.043 262.804C318.518 262.975 316.973 262.734 315.582 262.108C314.192 261.483 313.011 260.498 312.172 259.265C311.333 258.031 310.869 256.597 310.834 255.125C310.798 253.653 311.191 252.2 311.969 250.93Z" fill="#FFB6B6"/>
<path d="M298.189 70.6021C298.189 70.6021 336.213 85.1681 336.533 94.0985C336.854 103.029 336.175 108.441 337.851 144.201L331.102 239.822C331.102 239.822 304.689 243.534 307.751 237.984C310.813 232.434 310.064 229.685 310.064 229.685C310.064 229.685 304.624 227.221 306.48 220.595C308.337 213.969 303.599 180.258 303.599 180.258L303.25 120.311L298.189 70.6021Z" fill="#FFEECC"/>
<path d="M69.8184 88.6558C69.8184 88.6558 100.479 100.469 100.737 107.711C100.995 114.953 100.449 119.342 101.799 148.343L96.3574 225.89C96.3574 225.89 75.0591 228.9 77.5281 224.399C79.997 219.898 79.3936 217.669 79.3936 217.669C79.3936 217.669 75.0068 215.671 76.5039 210.297C78.0009 204.924 74.1805 177.585 74.1805 177.585L73.8992 128.969L69.8184 88.6558Z" fill="#FFE6E6"/>
</svg>
