<svg width="35" height="33" viewBox="0 0 35 33" fill="none" xmlns="http://www.w3.org/2000/svg">
<g clip-path="url(#clip0_1522_4108)">
<path d="M17.5002 -0.0351562C7.83035 -0.0351562 -0.0380859 7.38159 -0.0380859 16.4999C-0.0380859 25.6182 7.83035 33.035 17.5002 33.035C27.17 33.035 35.0385 25.6182 35.0385 16.4999C35.0385 7.38159 27.17 -0.0351562 17.5002 -0.0351562ZM17.5002 31.9336C8.47457 31.9336 1.13223 25.0098 1.13223 16.4999C1.13223 7.99003 8.47457 1.06622 17.5002 1.06622C26.5258 1.06622 33.8682 7.99003 33.8682 16.4999C33.8682 25.0098 26.5258 31.9336 17.5002 31.9336Z" fill="#1C1C1C"/>
<path d="M27.1189 11.3911C27.2402 11.1794 27.3402 10.9574 27.4175 10.728C27.4533 10.6216 27.454 10.5075 27.4195 10.4007C27.3851 10.2939 27.3171 10.1995 27.2246 10.1299C27.1321 10.0603 27.0193 10.0188 26.9012 10.0109C26.7832 10.003 26.6653 10.029 26.5632 10.0855C26.0028 10.3995 25.3961 10.6333 24.7629 10.7796C23.9943 10.1255 22.9961 9.76293 21.9607 9.76172C21.3983 9.76213 20.8416 9.86962 20.3243 10.0778C19.8069 10.2859 19.3394 10.5904 18.9499 10.973C18.5603 11.3556 18.2567 11.8084 18.0573 12.3043C17.8578 12.8002 17.7667 13.3289 17.7892 13.8589C15.3294 13.5669 13.0831 12.3933 11.5165 10.5816C11.4565 10.5129 11.3798 10.459 11.2929 10.4243C11.206 10.3895 11.1116 10.3751 11.0175 10.3822C10.9235 10.3893 10.8326 10.4177 10.7527 10.465C10.6728 10.5122 10.6061 10.577 10.5584 10.6538C10.1997 11.2343 10.0047 11.8918 9.99206 12.5635C9.97942 13.2353 10.1496 13.8989 10.4862 14.491C10.4036 14.5042 10.3243 14.5314 10.2522 14.5715C10.1637 14.6246 10.0909 14.6979 10.0404 14.7846C9.98998 14.8713 9.96349 14.9686 9.9634 15.0675C9.9634 16.238 10.5157 17.3125 11.4061 18.0427L11.3678 18.0788C11.3006 18.1504 11.2543 18.2374 11.2336 18.3311C11.2129 18.4248 11.2184 18.5219 11.2497 18.6129C11.4353 19.159 11.7453 19.6602 12.1579 20.0815C12.5705 20.5028 13.0758 20.834 13.6384 21.0518C12.483 21.5833 11.1899 21.7905 9.91309 21.6489C9.78185 21.6363 9.64987 21.6651 9.53785 21.7308C9.42582 21.7965 9.34007 21.8954 9.29403 22.0119C9.24982 22.1294 9.24899 22.2574 9.29167 22.3754C9.33436 22.4933 9.41806 22.5942 9.52919 22.6616C11.265 23.712 13.2843 24.2701 15.3468 24.2693C22.1062 24.2693 26.1465 19.0925 26.1465 14.0878L26.1454 13.9187C26.8005 13.4365 27.3695 12.8586 27.8309 12.2068C27.9008 12.1083 27.9351 11.9912 27.9289 11.8728C27.9227 11.7544 27.8761 11.6411 27.7963 11.5496C27.7164 11.4581 27.6074 11.3932 27.4854 11.3647C27.3634 11.3361 27.2349 11.3454 27.1189 11.3911V11.3911ZM25.2103 13.2009C25.1309 13.2547 25.0671 13.3265 25.0247 13.4095C24.9823 13.4925 24.9626 13.5843 24.9675 13.6763C24.974 13.8125 24.9773 13.9507 24.9773 14.0868C24.9773 18.55 21.3756 23.1669 15.3479 23.1669C14.2729 23.1674 13.2054 22.9973 12.1903 22.6637C13.4061 22.444 14.5482 21.9524 15.5207 21.2303C15.6154 21.1599 15.6847 21.0636 15.7192 20.9547C15.7536 20.8458 15.7516 20.7295 15.7133 20.6217C15.675 20.5139 15.6023 20.4199 15.5052 20.3526C15.4081 20.2852 15.2913 20.2478 15.1707 20.2454C14.6992 20.2369 14.2363 20.124 13.8194 19.9159C13.4026 19.7077 13.0435 19.4101 12.7711 19.0471C13.0478 19.0296 13.319 18.9863 13.5826 18.9192C13.7102 18.887 13.8224 18.815 13.901 18.7149C13.9796 18.6149 14.0199 18.4926 14.0153 18.3682C14.0108 18.2438 13.9616 18.1245 13.8759 18.0297C13.7901 17.935 13.6729 17.8705 13.5432 17.8467C13.0106 17.7446 12.5175 17.5078 12.1165 17.1618C11.7156 16.8157 11.422 16.3734 11.2672 15.8822C11.5581 15.9513 11.8567 15.9915 12.1553 16.0008C12.4123 15.9998 12.6507 15.8513 12.7306 15.6182C12.8104 15.3851 12.7164 15.1283 12.4987 14.9922C11.9841 14.6689 11.5878 14.2037 11.3641 13.6602C11.1403 13.1166 11.1 12.5212 11.2486 11.9552C13.1484 13.7932 15.7139 14.8877 18.4323 15.0201C18.6248 15.0211 18.7932 14.9561 18.9103 14.8231C19.0273 14.6901 19.0722 14.5137 19.0306 14.3446C18.881 13.7372 18.9479 13.1002 19.221 12.5323C19.494 11.9643 19.958 11.4971 20.5411 11.2028C21.1242 10.9086 21.7939 10.8037 22.4465 10.9045C23.0992 11.0053 23.6984 11.306 24.1515 11.7603C24.2194 11.8286 24.3047 11.8795 24.3992 11.9082C24.4937 11.9369 24.5944 11.9424 24.6918 11.9243C24.8723 11.8902 25.0506 11.851 25.2267 11.8057C25.1473 11.8617 25.0648 11.9137 24.9795 11.9614C24.8661 12.0269 24.7797 12.1269 24.7346 12.2448C24.6896 12.3628 24.6884 12.4918 24.7315 12.6104C24.7745 12.7291 24.8592 12.8304 24.9715 12.8976C25.0838 12.9648 25.217 12.994 25.3492 12.9803L25.5482 12.9565C25.4386 13.0417 25.3259 13.1232 25.2103 13.2009V13.2009Z" fill="#1C1C1C"/>
</g>
<defs>
<clipPath id="clip0_1522_4108">
<rect width="35" height="33" fill="white"/>
</clipPath>
</defs>
</svg>
