<svg width="35" height="33" viewBox="0 0 35 33" fill="none" xmlns="http://www.w3.org/2000/svg">
<g clip-path="url(#clip0_1199_2369)">
<path d="M17.4999 -0.0351562C7.83011 -0.0351562 -0.0383301 7.38159 -0.0383301 16.4999C-0.0383301 25.6182 7.83011 33.035 17.4999 33.035C27.1698 33.035 35.0382 25.6182 35.0382 16.4999C35.0382 7.38159 27.1698 -0.0351562 17.4999 -0.0351562ZM17.4999 31.9336C8.47433 31.9336 1.13198 25.0098 1.13198 16.4999C1.13198 7.99003 8.47433 1.06622 17.4999 1.06622C26.5256 1.06622 33.8679 7.99003 33.8679 16.4999C33.8679 25.0098 26.5256 31.9336 17.4999 31.9336Z" fill="#1C1C1C"/>
<path d="M27.1184 11.3911C27.2397 11.1794 27.3397 10.9574 27.417 10.728C27.4528 10.6216 27.4535 10.5075 27.4191 10.4007C27.3846 10.2939 27.3166 10.1995 27.2241 10.1299C27.1316 10.0603 27.0188 10.0188 26.9007 10.0109C26.7827 10.003 26.6648 10.029 26.5628 10.0855C26.0023 10.3995 25.3956 10.6333 24.7624 10.7796C23.9938 10.1255 22.9956 9.76293 21.9603 9.76172C21.3978 9.76213 20.8411 9.86962 20.3238 10.0778C19.8064 10.2859 19.3389 10.5904 18.9494 10.973C18.5598 11.3556 18.2563 11.8084 18.0568 12.3043C17.8574 12.8002 17.7662 13.3289 17.7887 13.8589C15.3289 13.5669 13.0827 12.3933 11.516 10.5816C11.456 10.5129 11.3793 10.459 11.2924 10.4243C11.2056 10.3895 11.1111 10.3751 11.017 10.3822C10.923 10.3893 10.8321 10.4177 10.7522 10.465C10.6723 10.5122 10.6056 10.577 10.5579 10.6538C10.1992 11.2343 10.0042 11.8918 9.99157 12.5635C9.97894 13.2353 10.1491 13.8989 10.4857 14.491C10.4032 14.5042 10.3238 14.5314 10.2517 14.5715C10.1632 14.6246 10.0904 14.6979 10.04 14.7846C9.98949 14.8713 9.963 14.9686 9.96292 15.0675C9.96292 16.238 10.5153 17.3125 11.4056 18.0427L11.3673 18.0788C11.3001 18.1504 11.2538 18.2374 11.2331 18.3311C11.2124 18.4248 11.2179 18.5219 11.2492 18.6129C11.4348 19.159 11.7448 19.6602 12.1574 20.0815C12.57 20.5028 13.0753 20.834 13.6379 21.0518C12.4825 21.5833 11.1894 21.7905 9.9126 21.6489C9.78136 21.6363 9.64938 21.6651 9.53736 21.7308C9.42533 21.7965 9.33958 21.8954 9.29354 22.0119C9.24933 22.1294 9.2485 22.2574 9.29119 22.3754C9.33387 22.4933 9.41757 22.5942 9.5287 22.6616C11.2645 23.712 13.2838 24.2701 15.3464 24.2693C22.1057 24.2693 26.146 19.0925 26.146 14.0878L26.1449 13.9187C26.8 13.4365 27.369 12.8586 27.8304 12.2068C27.9003 12.1083 27.9346 11.9912 27.9284 11.8728C27.9222 11.7544 27.8757 11.6411 27.7958 11.5496C27.7159 11.4581 27.6069 11.3932 27.4849 11.3647C27.3629 11.3361 27.2344 11.3454 27.1184 11.3911ZM25.2098 13.2009C25.1304 13.2547 25.0666 13.3265 25.0242 13.4095C24.9818 13.4925 24.9621 13.5843 24.967 13.6763C24.9735 13.8125 24.9768 13.9507 24.9768 14.0868C24.9768 18.55 21.3751 23.1669 15.3474 23.1669C14.2724 23.1674 13.2049 22.9973 12.1898 22.6637C13.4056 22.444 14.5477 21.9524 15.5203 21.2303C15.6149 21.1599 15.6842 21.0636 15.7187 20.9547C15.7532 20.8458 15.7511 20.7295 15.7128 20.6217C15.6745 20.5139 15.6018 20.4199 15.5047 20.3526C15.4076 20.2852 15.2908 20.2478 15.1703 20.2454C14.6987 20.2369 14.2358 20.124 13.819 19.9159C13.4021 19.7077 13.043 19.4101 12.7706 19.0471C13.0473 19.0296 13.3185 18.9863 13.5821 18.9192C13.7097 18.887 13.8219 18.815 13.9005 18.7149C13.9791 18.6149 14.0194 18.4926 14.0148 18.3682C14.0103 18.2438 13.9611 18.1245 13.8754 18.0297C13.7896 17.935 13.6724 17.8705 13.5428 17.8467C13.0101 17.7446 12.517 17.5078 12.1161 17.1618C11.7151 16.8157 11.4215 16.3734 11.2667 15.8822C11.5576 15.9513 11.8562 15.9915 12.1548 16.0008C12.4118 15.9998 12.6503 15.8513 12.7301 15.6182C12.8099 15.3851 12.7159 15.1283 12.4982 14.9922C11.9836 14.6689 11.5873 14.2037 11.3636 13.6602C11.1398 13.1166 11.0995 12.5212 11.2481 11.9552C13.148 13.7932 15.7134 14.8877 18.4318 15.0201C18.6243 15.0211 18.7928 14.9561 18.9098 14.8231C19.0268 14.6901 19.0717 14.5137 19.0301 14.3446C18.8805 13.7372 18.9474 13.1002 19.2205 12.5323C19.4935 11.9643 19.9575 11.4971 20.5406 11.2028C21.1237 10.9086 21.7934 10.8037 22.446 10.9045C23.0987 11.0053 23.698 11.306 24.151 11.7603C24.2189 11.8286 24.3042 11.8795 24.3987 11.9082C24.4932 11.9369 24.5939 11.9424 24.6914 11.9243C24.8718 11.8902 25.0501 11.851 25.2262 11.8057C25.1468 11.8617 25.0643 11.9137 24.979 11.9614C24.8656 12.0269 24.7792 12.1269 24.7341 12.2448C24.6891 12.3628 24.688 12.4918 24.731 12.6104C24.7741 12.7291 24.8587 12.8304 24.971 12.8976C25.0833 12.9648 25.2165 12.994 25.3487 12.9803L25.5478 12.9565C25.4381 13.0417 25.3254 13.1232 25.2098 13.2009Z" fill="#1C1C1C"/>
</g>
<defs>
<clipPath id="clip0_1199_2369">
<rect width="35" height="33" fill="white"/>
</clipPath>
</defs>
</svg>
