<svg width="49" height="34" viewBox="0 0 49 34" fill="none" xmlns="http://www.w3.org/2000/svg">
<path d="M34.4329 22.118C33.6268 22.698 32.7419 23.1803 31.7985 23.5506C30.3461 24.1207 28.7864 24.4131 27.2101 24.4091L25.7063 24.4053V25.9091V31V32.5H27.2063C32.5635 32.5 37.7163 30.4831 41.5275 26.8697C45.3414 23.2538 47.5 18.3319 47.5 13.1818V13.1565L47.4991 13.1312L47.457 11.8828C47.4515 9.8149 46.8019 7.80145 45.5995 6.09536L44.385 6.9513L45.5995 6.09536C44.3928 4.38312 42.6862 3.06022 40.7045 2.28197C38.7233 1.50393 36.5474 1.30143 34.449 1.69717C32.3503 2.09296 30.4122 3.07164 28.8836 4.52088C27.3541 5.97094 26.3027 7.82835 25.8759 9.86302C25.4488 11.8984 25.6688 14.0072 26.5041 15.919C27.3389 17.8297 28.7467 19.4498 30.5369 20.5839C31.726 21.3372 33.0506 21.8552 34.4329 22.118ZM10.2696 22.118C9.46347 22.698 8.57856 23.1803 7.63512 23.5506C6.18275 24.1207 4.62302 24.4131 3.04678 24.4091L1.54296 24.4053V25.9091V31V32.5H3.04296C8.40015 32.5 13.553 30.4831 17.3641 26.8697C21.1781 23.2538 23.3367 18.3319 23.3367 13.1818V13.1565L23.3358 13.1312L23.2937 11.8828C23.2882 9.81492 22.6385 7.80146 21.4362 6.09536C20.2294 4.38312 18.5229 3.06022 16.5412 2.28197C14.56 1.50393 12.3841 1.30143 10.2856 1.69717C8.18695 2.09296 6.24884 3.07164 4.72025 4.52088C3.1908 5.97094 2.1394 7.82835 1.71252 9.86302C1.2855 11.8984 1.50549 14.0072 2.34075 15.919C3.17553 17.8297 4.58335 19.4498 6.37352 20.5839C7.56271 21.3372 8.88726 21.8552 10.2696 22.118Z" fill="#FCD991" stroke="#FEFFFF" stroke-width="3"/>
</svg>
